<?xml version="1.0" encoding="UTF-8" standalone="no"?>
<svg
   xmlns:dc="http://purl.org/dc/elements/1.1/"
   xmlns:cc="http://creativecommons.org/ns#"
   xmlns:rdf="http://www.w3.org/1999/02/22-rdf-syntax-ns#"
   xmlns:svg="http://www.w3.org/2000/svg"
   xmlns="http://www.w3.org/2000/svg"
   xmlns:sodipodi="http://sodipodi.sourceforge.net/DTD/sodipodi-0.dtd"
   xmlns:inkscape="http://www.inkscape.org/namespaces/inkscape"
   inkscape:version="1.0 (4035a4f, 2020-05-01)"
   sodipodi:docname="banner2.svg"
   viewBox="0 0 2560 1440"
   height="1440"
   width="2560"
   xml:space="preserve"
   id="svg2"
   version="1.1"><metadata
     id="metadata8"><rdf:RDF><cc:Work
         rdf:about=""><dc:format>image/svg+xml</dc:format><dc:type
           rdf:resource="http://purl.org/dc/dcmitype/StillImage" /></cc:Work></rdf:RDF></metadata><defs
     id="defs6" /><sodipodi:namedview
     inkscape:current-layer="g10"
     inkscape:window-maximized="0"
     inkscape:window-y="28"
     inkscape:window-x="0"
     inkscape:cy="566.53641"
     inkscape:cx="1246.7496"
     inkscape:zoom="0.39097222"
     showgrid="false"
     inkscape:document-rotation="0"
     id="namedview4"
     inkscape:window-height="1022"
     inkscape:window-width="1680"
     inkscape:pageshadow="2"
     inkscape:pageopacity="0"
     guidetolerance="10"
     gridtolerance="10"
     objecttolerance="10"
     borderopacity="1"
     bordercolor="#666666"
     pagecolor="#ffffff" /><g
     transform="matrix(1.3333333,0,0,-1.3333333,0,1440)"
     inkscape:label="ink_ext_XXXXXX"
     inkscape:groupmode="layer"
     id="g10"><path
       d="M 1920,0 H 0 V 1080 H 1920 V 0"
       style="fill:#100f0d;fill-opacity:1;fill-rule:nonzero;stroke:none;stroke-width:0.1"
       id="path14" /><path
       d="M 125.069,1013.61 136.896,894.353 243.34,1040.22 Z M 136.16,891.647 123.987,1014.39 245.716,1041.78 136.16,891.647"
       style="fill:#00b2ff;fill-opacity:1;fill-rule:nonzero;stroke:none;stroke-width:0.1"
       id="path16" /><path
       d="m 415.402,889.619 -40.523,-55.171 102.535,53.795 z m -43.891,-58.067 43.393,59.079 66.405,-1.474 -109.798,-57.605"
       style="fill:#00b2ff;fill-opacity:1;fill-rule:nonzero;stroke:none;stroke-width:0.1"
       id="path18" /><path
       d="m 415.703,890.613 63.506,-1.409 83.146,58.152 -131.167,102.934 z m 63.811,-2.416 -0.164,0.003 -64.746,1.437 0.052,0.536 15.713,162.037 133.665,-104.899 -84.52,-59.114"
       style="fill:#00b2ff;fill-opacity:1;fill-rule:nonzero;stroke:none;stroke-width:0.1"
       id="path20" /><path
       d="m 726.344,743.46 -247.236,144.809 0.506,0.863 242.598,-142.092 -159.179,199.695 -147.7,-57.076 -0.36,0.932 148.384,57.341 0.229,-0.287 162.758,-204.185"
       style="fill:#00b2ff;fill-opacity:1;fill-rule:nonzero;stroke:none;stroke-width:0.1"
       id="path22" /><path
       d="m 346.893,665.792 25.808,167.284 0.988,-0.152 -25.025,-162.216 130.268,218.249 0.859,-0.513 -132.898,-222.652"
       style="fill:#00b2ff;fill-opacity:1;fill-rule:nonzero;stroke:none;stroke-width:0.1"
       id="path24" /><path
       d="M 82.5535,527.662 40.423,438.391 243.441,486.023 Z M 40.7758,437.446 210.443,326.067 l 34.43,159.266 z m 170.3372,-113.013 -0.609,0.399 -171.0704,112.299 -0.7996,-0.188 43.3687,91.895 0.4012,-0.104 163.0541,-42.2 108.575,61.152 0.491,-0.872 L 245.97,485.675 211.113,324.433"
       style="fill:#00b2ff;fill-opacity:1;fill-rule:nonzero;stroke:none;stroke-width:0.1"
       id="path26" /><path
       d="M 135.612,65.4801 241.053,43.3102 341.566,191.615 Z m 105.892,-23.2903 -0.329,0.0704 -108.23,22.7597 1.072,0.6602 L 344.99,194.885 241.504,42.1898"
       style="fill:#00b2ff;fill-opacity:1;fill-rule:nonzero;stroke:none;stroke-width:0.1"
       id="path28" /><path
       d="M 551.895,337.109 561.956,115.605 674.604,292.908 Z M 561.101,112.395 550.828,338.557 676.118,293.426 561.101,112.395"
       style="fill:#00b2ff;fill-opacity:1;fill-rule:nonzero;stroke:none;stroke-width:0.1"
       id="path30" /><path
       d="M 765.486,188.676 875.923,74.6 845.409,216.716 Z M 877.634,71.4 764.551,188.203 l -78.492,-67.025 -0.167,-0.01 -124.333,-7.667 -0.061,0.998 124.166,7.656 78.666,67.174 0.088,0.031 81.73,28.674 L 877.634,71.4"
       style="fill:#00b2ff;fill-opacity:1;fill-rule:nonzero;stroke:none;stroke-width:0.1"
       id="path32" /><path
       d="m 671.127,613.96 9.412,-94.498 49.724,179.51 z m -0.833,-1.724 -78.275,-167.203 87.763,71.934 z M 591.826,443.581 783.079,415.717 680.277,516.08 Z m 94.655,-323.856 -1.044,1.678 -134.63,216.374 0.086,0.231 38.625,103.681 -0.272,-0.222 1.059,2.336 0.032,-0.005 80.592,172.153 0.046,-0.459 61.818,88.869 -51.926,-187.46 105.111,-102.618 -195.018,28.414 -39.044,-104.808 133.325,-214.28 -10.379,169.528 0.998,0.06 10.621,-173.472"
       style="fill:#00b2ff;fill-opacity:1;fill-rule:nonzero;stroke:none;stroke-width:0.1"
       id="path34" /><path
       d="m 877.271,72.9102 -0.985,0.18 46.998,264.7398 -77.084,-120.725 -0.843,0.54 79.79,124.962 -47.876,-269.6968"
       style="fill:#00b2ff;fill-opacity:1;fill-rule:nonzero;stroke:none;stroke-width:0.1"
       id="path36" /><path
       d="m 943.229,450.787 45.347,-11.22 42.764,13.267 z m -3.332,-0.206 -14.882,-108.219 62.773,96.37 z m -49.17,-107.576 33.057,-2.256 14.734,107.138 z m -105.295,70.767 60.377,-194.807 43.565,123.395 z m 60.316,-197.986 -62.123,200.442 106.14,-72.923 49.228,108.036 0.048,0.349 0.112,0.002 0.042,0.093 0.338,-0.084 98.947,2.299 -49.569,-15.375 -65.494,-100.55 0.23,1.682 -33.329,2.274 -44.57,-126.245"
       style="fill:#00b2ff;fill-opacity:1;fill-rule:nonzero;stroke:none;stroke-width:0.1"
       id="path38" /><path
       d="m 922.211,648.773 57.386,-98.965 39.063,94.724 z m 58.018,-100.056 54.001,-93.136 -15.17,187.306 z m 39.741,95.352 15.28,-188.617 61.65,142.345 z m -97.945,3.031 17.766,-193.83 39.325,95.373 z m 114.195,-194.298 66.41,-67.266 55.67,56.683 z m -1.41,-0.205 -109.001,-111.464 175.841,43.963 -66.13,66.992 0.07,-0.835 z m -108.518,-112.374 167.458,-41.266 8.31,85.209 z m 168.348,-42.514 -0.56,0.139 -169.863,41.855 -1.594,-0.398 111.667,114.19 -54.542,94.057 -40.582,-98.421 -18.551,202.394 1,-1.725 97.235,-4.276 -0.04,0.407 0.73,-0.437 0.58,-0.026 -0.1,-0.261 78.14,-47.004 -0.17,-0.402 -62.34,-143.946 124.85,-10.824 -57.39,-58.432 -8.47,-86.89"
       style="fill:#00b2ff;fill-opacity:1;fill-rule:nonzero;stroke:none;stroke-width:0.1"
       id="path40" /><path
       d="m 1158.94,442.441 -60.61,153.45 -158.515,-145.06 -0.674,0.738 159.589,146.04 0.26,-0.675 60.88,-154.125 -0.93,-0.368"
       style="fill:#00b2ff;fill-opacity:1;fill-rule:nonzero;stroke:none;stroke-width:0.1"
       id="path42" /><path
       d="m 1124.53,903.516 53.8,-48.136 10.72,137.17 z m -202.418,-254.941 -190.716,52.61 0.265,0.963 188.866,-52.098 -62.567,176.056 0.189,0.22 131.712,152.977 0.357,-0.2 133.502,-75.004 66.6,91.913 -11.15,-142.725 -55.6,49.748 L 990.084,978.03 859.097,825.894 922.112,648.575"
       style="fill:#00b2ff;fill-opacity:1;fill-rule:nonzero;stroke:none;stroke-width:0.1"
       id="path44" /><path
       d="m 1257.38,794.64 114.72,-99.377 192.13,95.709 -12.17,78.713 z m 0.32,-1.596 96.8,-218.083 16.99,119.472 -0.44,0.306 0.08,0.041 z m 114.71,-99.254 -17.04,-119.802 115.39,50.986 z m -17.19,-121.167 -4.78,-110.587 207.63,92.636 z m -5.85,-112.159 4.87,112.607 -98.31,221.5 -77.48,59.366 0.6,0.793 77.4,-59.297 296.43,75.493 12.45,-80.523 -0.33,-0.163 -192,-95.646 99.79,-69.818 -116.07,-51.282 205.27,-18.166 -212.62,-94.864"
       style="fill:#00b2ff;fill-opacity:1;fill-rule:nonzero;stroke:none;stroke-width:0.1"
       id="path46" /><path
       d="m 1786.11,1046.82 46.99,-103.702 57.31,45.255 z m -0.59,-1.11 -0.65,-140.674 47.42,37.443 z m -155.63,-172.184 33.7,-10.771 -21.88,25.951 z m 155.24,30.448 109.45,-98.991 -61.87,136.558 z m -155.89,-31.289 -61.99,-79.631 96.73,68.525 z m -48.54,15.515 -15.13,-95.686 62.66,80.495 z m -230.4,-427.249 -0.8,0.598 121.88,163.625 92.92,165.68 15.6,98.654 48.98,-15.658 12.8,16.444 23.57,-27.957 118.61,42.017 0.67,144.496 107.67,-60.335 -58.68,-46.336 63.96,-141.162 -113.23,102.412 -118.31,-41.909 0.65,-0.775 -1.41,0.453 L 1565.15,790.337 1472.21,624.63 1350.3,460.951"
       style="fill:#00b2ff;fill-opacity:1;fill-rule:nonzero;stroke:none;stroke-width:0.1"
       id="path48" /><path
       d="m 1550.57,1059.48 30.15,-170.122 60.15,0.633 z m 2.18,-189.59 -0.55,0.832 26.9,17.937 -389.46,105.117 -200.024,-15.639 -27.231,85.543 0.953,0.31 26.99,-84.794 199.402,15.591 0.08,-0.023 389.86,-105.222 -31.19,175.978 94.04,-176.511 -61.63,-0.649 0.04,-0.194 -0.54,0.146 -27.64,-18.422"
       style="fill:#00b2ff;fill-opacity:1;fill-rule:nonzero;stroke:none;stroke-width:0.1"
       id="path50" /><path
       d="m 1189.95,993.86 -0.53,0.843 134.17,85.717 0.54,-0.84 -134.18,-85.72"
       style="fill:#00b2ff;fill-opacity:1;fill-rule:nonzero;stroke:none;stroke-width:0.1"
       id="path52" /><path
       d="m 1750.35,739.379 -85.67,122.084 0.82,0.574 85.2,-121.416 144.82,62.704 -4.71,185.107 1,0.025 4.73,-185.782 -0.31,-0.134 -145.88,-63.162"
       style="fill:#00b2ff;fill-opacity:1;fill-rule:nonzero;stroke:none;stroke-width:0.1"
       id="path54" /><path
       d="m 1356.73,572.071 179.14,-159.239 92.97,80.443 z m 180.13,-159.7 129.91,-41.603 -37.16,121.851 z m 131.43,-43.139 -133.43,42.731 0.24,0.209 -182.34,162.09 275.09,-79.66 -68.15,60.023 -88.23,69.858 0.62,0.784 88.25,-69.875 69.77,-61.443 0.77,-0.224 -0.45,-0.39 37.86,-124.103"
       style="fill:#00b2ff;fill-opacity:1;fill-rule:nonzero;stroke:none;stroke-width:0.1"
       id="path56" /><path
       d="m 1218.68,285.749 66.36,-38.461 1.95,22.49 z m 67.32,-39.015 49.37,-28.615 -47.44,50.885 z m -182.38,136.571 55.9,-182.296 55.35,85.897 z M 1285.9,245.634 1270.01,62.3902 1337.39,215.792 Z m -179.89,-88.337 161.2,-96.0771 -106.58,136.1791 0.22,-0.729 -2.1,3.135 0.01,0.024 -63.91,96.61 z m 53.96,42.564 108.89,-139.1411 16.09,185.4671 -69.26,40.141 z m 178.29,15.424 -68,-154.8151 181.21,88.5701 z m -66.97,-157.6651 -2.06,1.2301 -0.99,-0.4801 0.38,0.8403 -163.57,97.4928 -0.02,0.257 -11.49,143.267 64.33,-97.231 -56.23,183.346 114.12,-98.883 71.32,-16.674 0.05,0.545 0.19,-0.202 61.87,189.55 -189.74,-18.551 -0.1,0.996 191.27,18.699 -0.24,-0.727 -62.28,-190.803 50.24,-53.896 0.33,-0.188 v -0.001 l 114.92,-67.247 -0.84,-0.409 -182.72,-89.3108 1.26,-1.6203"
       style="fill:#00b2ff;fill-opacity:1;fill-rule:nonzero;stroke:none;stroke-width:0.1"
       id="path58" /><path
       d="m 1902.97,75.7699 -139.56,65.7331 -304.39,6.997 0.02,1 304.61,-7.003 0.09,-0.045 136.35,-64.2219 -53.8,79.2249 -81.68,-13.448 -0.16,0.986 82.31,13.552 0.18,-0.264 56.03,-82.5111"
       style="fill:#00b2ff;fill-opacity:1;fill-rule:nonzero;stroke:none;stroke-width:0.1"
       id="path60" /><path
       d="m 793.858,-0.380078 -0.659,0.760156 83.25,73.000022 0.659,-0.7602 -83.25,-72.999978"
       style="fill:#00b2ff;fill-opacity:1;fill-rule:nonzero;stroke:none;stroke-width:0.1"
       id="path62" /><path
       d="m 1330.18,-0.359766 -61.28,59.419966 0.7,0.7199 61.28,-59.419944 -0.7,-0.719922"
       style="fill:#00b2ff;fill-opacity:1;fill-rule:nonzero;stroke:none;stroke-width:0.1"
       id="path64" /><path
       d="M 1104.7,-0.469922 1104.36,0.469922 1269.08,59.8902 1269.42,58.95 1104.7,-0.469922"
       style="fill:#00b2ff;fill-opacity:1;fill-rule:nonzero;stroke:none;stroke-width:0.1"
       id="path66" /><path
       d="m 590.431,442.792 -236.354,104 0.402,0.916 236.354,-104 -0.402,-0.916"
       style="fill:#00b2ff;fill-opacity:1;fill-rule:nonzero;stroke:none;stroke-width:0.1"
       id="path68" /><path
       d="m 550.997,337.49 -197.083,209.417 0.729,0.686 197.083,-209.417 -0.729,-0.686"
       style="fill:#00b2ff;fill-opacity:1;fill-rule:nonzero;stroke:none;stroke-width:0.1"
       id="path70" /><path
       d="m 1919.06,189.834 -22.43,63.782 -79.28,30.417 -150.07,85.532 0.5,0.87 150,-85.5 79.64,-30.551 22.58,-64.218 -0.94,-0.332"
       style="fill:#00b2ff;fill-opacity:1;fill-rule:nonzero;stroke:none;stroke-width:0.1"
       id="path72" /><path
       d="m 1896.56,255.335 -48.47,138.48 -29.08,-106.946 -0.96,0.262 29.92,110.054 49.53,-141.52 -0.94,-0.33"
       style="fill:#00b2ff;fill-opacity:1;fill-rule:nonzero;stroke:none;stroke-width:0.1"
       id="path74" /><path
       d="m 124.528,1011 c 3.861,0 3.867,6 0,6 -3.861,0 -3.867,-6 0,-6"
       style="fill:#00b2ff;fill-opacity:1;fill-rule:nonzero;stroke:none;stroke-width:0.1"
       id="path76" /><path
       d="m 124.528,1015.5 c -1.33,0 -1.398,-1.25 -1.398,-1.5 0,-0.42 0.132,-0.82 0.362,-1.09 0.24,-0.27 0.579,-0.41 1.036,-0.41 1.33,0 1.398,1.25 1.398,1.5 0,0.25 -0.068,1.5 -1.398,1.5 z m 0,-6 c -2.887,0 -4.398,2.26 -4.398,4.5 0,2.24 1.511,4.5 4.398,4.5 1.327,0 2.503,-0.52 3.312,-1.46 0.7,-0.81 1.086,-1.89 1.086,-3.04 0,-2.24 -1.51,-4.5 -4.398,-4.5"
       style="fill:#00b2ff;fill-opacity:1;fill-rule:nonzero;stroke:none;stroke-width:0.1"
       id="path78" /><path
       d="m 244.528,1037 c 5.148,0 5.156,8 0,8 -5.148,0 -5.156,-8 0,-8"
       style="fill:#00b2ff;fill-opacity:1;fill-rule:nonzero;stroke:none;stroke-width:0.1"
       id="path80" /><path
       d="m 244.528,1043.5 c -0.753,0 -1.344,-0.24 -1.759,-0.73 -0.384,-0.45 -0.605,-1.09 -0.605,-1.77 0,-0.26 0.066,-2.5 2.364,-2.5 2.298,0 2.364,2.25 2.364,2.5 0,0.26 -0.066,2.5 -2.364,2.5 z m 0,-8 c -1.621,0 -3.054,0.63 -4.036,1.77 -0.856,1 -1.328,2.32 -1.328,3.73 0,2.73 1.843,5.5 5.364,5.5 3.522,0 5.364,-2.77 5.364,-5.5 0,-2.73 -1.842,-5.5 -5.364,-5.5"
       style="fill:#00b2ff;fill-opacity:1;fill-rule:nonzero;stroke:none;stroke-width:0.1"
       id="path82" /><path
       d="m 136.528,890 c 3.861,0 3.867,6 0,6 -3.861,0 -3.867,-6 0,-6"
       style="fill:#00b2ff;fill-opacity:1;fill-rule:nonzero;stroke:none;stroke-width:0.1"
       id="path84" /><path
       d="m 136.528,894.5 c -1.33,0 -1.398,-1.251 -1.398,-1.502 0,-0.421 0.132,-0.816 0.362,-1.084 0.24,-0.278 0.579,-0.414 1.036,-0.414 1.33,0 1.398,1.251 1.398,1.502 0,0.25 -0.068,1.498 -1.398,1.498 z m 0,-6 c -2.887,0 -4.398,2.263 -4.398,4.498 0,2.237 1.511,4.502 4.398,4.502 1.327,0 2.503,-0.518 3.312,-1.459 0.7,-0.816 1.086,-1.895 1.086,-3.039 0,-2.237 -1.51,-4.502 -4.398,-4.502"
       style="fill:#00b2ff;fill-opacity:1;fill-rule:nonzero;stroke:none;stroke-width:0.1"
       id="path86" /><path
       d="m 430.778,1046.25 c 6.435,0 6.445,10 0,10 -6.434,0 -6.445,-10 0,-10"
       style="fill:#00b2ff;fill-opacity:1;fill-rule:nonzero;stroke:none;stroke-width:0.1"
       id="path88" /><path
       d="m 430.778,1054.75 c -2.628,0 -3.33,-2.2 -3.33,-3.5 0,-1.3 0.702,-3.5 3.33,-3.5 2.629,0 3.33,2.2 3.33,3.5 0,0.94 -0.308,1.84 -0.845,2.46 -0.592,0.69 -1.428,1.04 -2.485,1.04 z m 0,-10 c -1.943,0 -3.59,0.72 -4.76,2.08 -1.012,1.18 -1.57,2.75 -1.57,4.42 0,3.23 2.175,6.5 6.33,6.5 4.156,0 6.33,-3.27 6.33,-6.5 0,-3.23 -2.174,-6.5 -6.33,-6.5"
       style="fill:#00b2ff;fill-opacity:1;fill-rule:nonzero;stroke:none;stroke-width:0.1"
       id="path90" /><path
       d="m 415.153,886.125 c 5.148,0 5.156,8 0,8 -5.148,0 -5.156,-8 0,-8"
       style="fill:#00b2ff;fill-opacity:1;fill-rule:nonzero;stroke:none;stroke-width:0.1"
       id="path92" /><path
       d="m 415.153,892.625 c -0.753,0 -1.344,-0.245 -1.759,-0.728 -0.384,-0.448 -0.605,-1.094 -0.605,-1.774 0,-0.256 0.066,-2.498 2.364,-2.498 2.298,0 2.364,2.246 2.364,2.502 0,0.256 -0.066,2.498 -2.364,2.498 z m 0,-8 c -1.621,0 -3.054,0.629 -4.036,1.771 -0.856,0.998 -1.328,2.321 -1.328,3.727 0,2.734 1.843,5.502 5.364,5.502 3.522,0 5.364,-2.766 5.364,-5.498 0,-2.734 -1.842,-5.502 -5.364,-5.502"
       style="fill:#00b2ff;fill-opacity:1;fill-rule:nonzero;stroke:none;stroke-width:0.1"
       id="path94" /><path
       d="m 479.361,885.2 c 4.505,0 4.512,7 0,7 -4.504,0 -4.511,-7 0,-7"
       style="fill:#00b2ff;fill-opacity:1;fill-rule:nonzero;stroke:none;stroke-width:0.1"
       id="path96" /><path
       d="m 479.361,890.7 c -1.828,0 -1.881,-1.797 -1.881,-2.002 0,-0.204 0.053,-1.998 1.881,-1.998 1.828,0 1.881,1.798 1.881,2.002 0,0.205 -0.053,1.998 -1.881,1.998 z m 0,-7 c -3.204,0 -4.881,2.514 -4.881,4.998 0,2.486 1.677,5.002 4.881,5.002 3.205,0 4.881,-2.514 4.881,-4.998 0,-2.485 -1.676,-5.002 -4.881,-5.002"
       style="fill:#00b2ff;fill-opacity:1;fill-rule:nonzero;stroke:none;stroke-width:0.1"
       id="path98" /><path
       d="m 563.195,943.333 c 5.147,0 5.156,8 0,8 -5.148,0 -5.156,-8 0,-8"
       style="fill:#00b2ff;fill-opacity:1;fill-rule:nonzero;stroke:none;stroke-width:0.1"
       id="path100" /><path
       d="m 563.195,949.833 c -2.298,0 -2.364,-2.246 -2.364,-2.502 0,-0.256 0.066,-2.498 2.364,-2.498 2.297,0 2.364,2.247 2.364,2.503 0,0.256 -0.067,2.497 -2.364,2.497 z m 0,-8 c -3.522,0 -5.364,2.766 -5.364,5.498 0,1.406 0.472,2.731 1.328,3.729 0.982,1.144 2.415,1.773 4.036,1.773 3.521,0 5.364,-2.765 5.364,-5.497 0,-1.406 -0.472,-2.731 -1.329,-3.729 -0.981,-1.144 -2.415,-1.774 -4.035,-1.774"
       style="fill:#00b2ff;fill-opacity:1;fill-rule:nonzero;stroke:none;stroke-width:0.1"
       id="path102" /><path
       d="m 373.195,829 c 5.147,0 5.156,8 0,8 -5.148,0 -5.156,-8 0,-8"
       style="fill:#00b2ff;fill-opacity:1;fill-rule:nonzero;stroke:none;stroke-width:0.1"
       id="path104" /><path
       d="m 373.195,835.5 c -2.298,0 -2.364,-2.247 -2.364,-2.502 0,-0.256 0.066,-2.498 2.364,-2.498 2.297,0 2.364,2.247 2.364,2.502 0,0.256 -0.067,2.498 -2.364,2.498 z m 0,-8 c -3.522,0 -5.364,2.766 -5.364,5.498 0,1.406 0.472,2.73 1.328,3.728 0.982,1.144 2.415,1.774 4.036,1.774 3.521,0 5.364,-2.766 5.364,-5.498 0,-1.406 -0.472,-2.73 -1.329,-3.728 -0.981,-1.144 -2.415,-1.774 -4.035,-1.774"
       style="fill:#00b2ff;fill-opacity:1;fill-rule:nonzero;stroke:none;stroke-width:0.1"
       id="path106" /><path
       d="m 347.778,664.25 c 5.148,0 5.156,8 0,8 -5.148,0 -5.156,-8 0,-8"
       style="fill:#00b2ff;fill-opacity:1;fill-rule:nonzero;stroke:none;stroke-width:0.1"
       id="path108" /><path
       d="m 347.778,670.75 c -0.753,0 -1.344,-0.245 -1.759,-0.728 -0.384,-0.448 -0.605,-1.094 -0.605,-1.774 0,-0.256 0.066,-2.498 2.364,-2.498 2.298,0 2.364,2.246 2.364,2.502 0,0.256 -0.066,2.498 -2.364,2.498 z m 0,-8 c -1.621,0 -3.054,0.629 -4.036,1.771 -0.856,0.998 -1.328,2.321 -1.328,3.727 0,2.734 1.843,5.502 5.364,5.502 3.522,0 5.364,-2.766 5.364,-5.498 0,-2.734 -1.842,-5.502 -5.364,-5.502"
       style="fill:#00b2ff;fill-opacity:1;fill-rule:nonzero;stroke:none;stroke-width:0.1"
       id="path110" /><path
       d="m 724.278,741.25 c 5.148,0 5.156,8 0,8 -5.148,0 -5.156,-8 0,-8"
       style="fill:#00b2ff;fill-opacity:1;fill-rule:nonzero;stroke:none;stroke-width:0.1"
       id="path112" /><path
       d="m 724.278,747.75 c -0.753,0 -1.344,-0.245 -1.759,-0.728 -0.384,-0.448 -0.605,-1.094 -0.605,-1.774 0,-0.256 0.066,-2.498 2.364,-2.498 2.298,0 2.364,2.246 2.364,2.502 0,0.256 -0.066,2.498 -2.364,2.498 z m 0,-8 c -1.621,0 -3.054,0.629 -4.036,1.771 -0.856,0.998 -1.328,2.321 -1.328,3.727 0,2.734 1.843,5.502 5.364,5.502 3.522,0 5.364,-2.766 5.364,-5.498 0,-2.734 -1.842,-5.502 -5.364,-5.502"
       style="fill:#00b2ff;fill-opacity:1;fill-rule:nonzero;stroke:none;stroke-width:0.1"
       id="path114" /><path
       d="m 39.5281,433.667 c 5.1477,0 5.1559,8 0,8 -5.1476,0 -5.1558,-8 0,-8"
       style="fill:#00b2ff;fill-opacity:1;fill-rule:nonzero;stroke:none;stroke-width:0.1"
       id="path116" /><path
       d="m 39.5281,440.167 c -0.7527,0 -1.3445,-0.245 -1.759,-0.728 -0.3843,-0.448 -0.605,-1.094 -0.605,-1.774 0,-0.256 0.0664,-2.498 2.364,-2.498 2.2977,0 2.3641,2.246 2.3641,2.502 0,0.256 -0.0664,2.498 -2.3641,2.498 z m 0,-8 c -1.6215,0 -3.0547,0.629 -4.0359,1.771 -0.8567,0.998 -1.3281,2.321 -1.3281,3.727 0,2.733 1.8425,5.502 5.364,5.502 3.5215,0 5.3641,-2.766 5.3641,-5.498 0,-2.733 -1.8426,-5.502 -5.3641,-5.502"
       style="fill:#00b2ff;fill-opacity:1;fill-rule:nonzero;stroke:none;stroke-width:0.1"
       id="path118" /><path
       d="m 210.778,321.75 c 4.504,0 4.512,7 0,7 -4.504,0 -4.511,-7 0,-7"
       style="fill:#00b2ff;fill-opacity:1;fill-rule:nonzero;stroke:none;stroke-width:0.1"
       id="path120" /><path
       d="m 210.778,327.25 c -1.828,0 -1.881,-1.797 -1.881,-2.002 0,-0.205 0.053,-1.998 1.881,-1.998 1.828,0 1.881,1.797 1.881,2.002 0,0.205 -0.053,1.998 -1.881,1.998 z m 0,-7 c -3.204,0 -4.881,2.515 -4.881,4.998 0,2.485 1.677,5.002 4.881,5.002 3.204,0 4.881,-2.515 4.881,-4.998 0,-2.485 -1.677,-5.002 -4.881,-5.002"
       style="fill:#00b2ff;fill-opacity:1;fill-rule:nonzero;stroke:none;stroke-width:0.1"
       id="path122" /><path
       d="m 82.2781,524.75 c 4.5039,0 4.5114,7 0,7 -4.5043,0 -4.5113,-7 0,-7"
       style="fill:#00b2ff;fill-opacity:1;fill-rule:nonzero;stroke:none;stroke-width:0.1"
       id="path124" /><path
       d="m 82.2781,530.25 c -1.8277,0 -1.8804,-1.797 -1.8804,-2.002 0,-0.205 0.0527,-1.998 1.8804,-1.998 1.8282,0 1.8813,1.797 1.8813,2.002 0,0.205 -0.0531,1.998 -1.8813,1.998 z m 0,-7 c -3.2043,0 -4.8804,2.515 -4.8804,4.998 0,2.485 1.6761,5.002 4.8804,5.002 3.2043,0 4.8813,-2.515 4.8813,-4.998 0,-2.485 -1.677,-5.002 -4.8813,-5.002"
       style="fill:#00b2ff;fill-opacity:1;fill-rule:nonzero;stroke:none;stroke-width:0.1"
       id="path126" /><path
       d="m 245.528,482.5 c 4.504,0 4.512,7 0,7 -4.504,0 -4.511,-7 0,-7"
       style="fill:#00b2ff;fill-opacity:1;fill-rule:nonzero;stroke:none;stroke-width:0.1"
       id="path128" /><path
       d="m 245.528,488 c -1.828,0 -1.881,-1.797 -1.881,-2.002 0,-0.205 0.053,-1.998 1.881,-1.998 1.828,0 1.881,1.797 1.881,2.002 0,0.205 -0.053,1.998 -1.881,1.998 z m 0,-7 c -3.204,0 -4.881,2.515 -4.881,4.998 0,2.485 1.677,5.002 4.881,5.002 3.204,0 4.881,-2.515 4.881,-4.998 0,-2.485 -1.677,-5.002 -4.881,-5.002"
       style="fill:#00b2ff;fill-opacity:1;fill-rule:nonzero;stroke:none;stroke-width:0.1"
       id="path130" /><path
       d="m 354.278,543.75 c 4.504,0 4.512,7 0,7 -4.504,0 -4.511,-7 0,-7"
       style="fill:#00b2ff;fill-opacity:1;fill-rule:nonzero;stroke:none;stroke-width:0.1"
       id="path132" /><path
       d="m 354.278,549.25 c -1.828,0 -1.881,-1.797 -1.881,-2.002 0,-0.205 0.053,-1.998 1.881,-1.998 1.828,0 1.881,1.797 1.881,2.002 0,0.205 -0.053,1.998 -1.881,1.998 z m 0,-7 c -3.204,0 -4.881,2.514 -4.881,4.998 0,2.485 1.677,5.002 4.881,5.002 3.204,0 4.881,-2.514 4.881,-4.998 0,-2.485 -1.677,-5.002 -4.881,-5.002"
       style="fill:#00b2ff;fill-opacity:1;fill-rule:nonzero;stroke:none;stroke-width:0.1"
       id="path134" /><path
       d="m 343.278,189.25 c 5.148,0 5.156,8 0,8 -5.148,0 -5.156,-8 0,-8"
       style="fill:#00b2ff;fill-opacity:1;fill-rule:nonzero;stroke:none;stroke-width:0.1"
       id="path136" /><path
       d="m 343.278,195.75 c -0.753,0 -1.344,-0.245 -1.759,-0.728 -0.384,-0.448 -0.605,-1.094 -0.605,-1.774 0,-0.256 0.066,-2.498 2.364,-2.498 2.298,0 2.364,2.246 2.364,2.502 0,0.256 -0.066,2.498 -2.364,2.498 z m 0,-8 c -1.621,0 -3.054,0.629 -4.036,1.771 -0.856,0.998 -1.328,2.321 -1.328,3.727 0,2.733 1.843,5.502 5.364,5.502 3.522,0 5.364,-2.766 5.364,-5.498 0,-2.733 -1.842,-5.502 -5.364,-5.502"
       style="fill:#00b2ff;fill-opacity:1;fill-rule:nonzero;stroke:none;stroke-width:0.1"
       id="path138" /><path
       d="m 241.278,38.75 c 5.148,0 5.156,8 0,8 -5.148,0 -5.156,-8 0,-8"
       style="fill:#00b2ff;fill-opacity:1;fill-rule:nonzero;stroke:none;stroke-width:0.1"
       id="path140" /><path
       d="m 241.278,45.25 c -0.753,0 -1.344,-0.25 -1.759,-0.7301 -0.384,-0.45 -0.605,-1.0898 -0.605,-1.7699 0,-0.2598 0.066,-2.5 2.364,-2.5 2.298,0 2.364,2.25 2.364,2.5 0,0.2602 -0.066,2.5 -2.364,2.5 z m 0,-8 c -1.621,0 -3.054,0.6301 -4.036,1.7699 -0.856,1 -1.328,2.3199 -1.328,3.7301 0,2.7301 1.843,5.5 5.364,5.5 3.522,0 5.364,-2.7699 5.364,-5.5 0,-2.7301 -1.842,-5.5 -5.364,-5.5"
       style="fill:#00b2ff;fill-opacity:1;fill-rule:nonzero;stroke:none;stroke-width:0.1"
       id="path142" /><path
       d="m 134.278,61.25 c 5.148,0 5.156,8 0,8 -5.148,0 -5.156,-8 0,-8"
       style="fill:#00b2ff;fill-opacity:1;fill-rule:nonzero;stroke:none;stroke-width:0.1"
       id="path144" /><path
       d="m 134.278,67.75 c -0.753,0 -1.344,-0.25 -1.759,-0.7301 -0.384,-0.45 -0.605,-1.0898 -0.605,-1.7699 0,-0.2598 0.066,-2.5 2.364,-2.5 2.298,0 2.364,2.25 2.364,2.5 0,0.2602 -0.066,2.5 -2.364,2.5 z m 0,-8 c -1.621,0 -3.054,0.6301 -4.036,1.7699 -0.856,1 -1.328,2.3203 -1.328,3.7301 0,2.7301 1.843,5.5 5.364,5.5 3.522,0 5.364,-2.7699 5.364,-5.5 0,-2.7301 -1.842,-5.5 -5.364,-5.5"
       style="fill:#00b2ff;fill-opacity:1;fill-rule:nonzero;stroke:none;stroke-width:0.1"
       id="path146" /><path
       d="m 551.361,333.833 c 5.148,0 5.157,8 0,8 -5.147,0 -5.155,-8 0,-8"
       style="fill:#00b2ff;fill-opacity:1;fill-rule:nonzero;stroke:none;stroke-width:0.1"
       id="path148" /><path
       d="m 551.361,340.333 c -2.297,0 -2.363,-2.246 -2.363,-2.502 0,-0.256 0.066,-2.498 2.363,-2.498 0.753,0 1.345,0.245 1.76,0.728 0.384,0.448 0.605,1.094 0.605,1.774 0,0.256 -0.067,2.498 -2.365,2.498 z m 0,-8 c -3.521,0 -5.363,2.766 -5.363,5.498 0,2.733 1.842,5.502 5.363,5.502 1.622,0 3.055,-0.629 4.036,-1.771 0.857,-0.998 1.329,-2.321 1.329,-3.727 0,-2.733 -1.843,-5.502 -5.365,-5.502"
       style="fill:#00b2ff;fill-opacity:1;fill-rule:nonzero;stroke:none;stroke-width:0.1"
       id="path150" /><path
       d="m 675.361,289.167 c 5.148,0 5.157,8 0,8 -5.147,0 -5.155,-8 0,-8"
       style="fill:#00b2ff;fill-opacity:1;fill-rule:nonzero;stroke:none;stroke-width:0.1"
       id="path152" /><path
       d="m 675.361,295.667 c -2.297,0 -2.363,-2.246 -2.363,-2.502 0,-0.256 0.066,-2.498 2.363,-2.498 0.753,0 1.345,0.245 1.76,0.728 0.384,0.448 0.605,1.094 0.605,1.774 0,0.256 -0.067,2.498 -2.365,2.498 z m 0,-8 c -3.521,0 -5.363,2.766 -5.363,5.498 0,2.733 1.842,5.502 5.363,5.502 1.622,0 3.055,-0.629 4.036,-1.771 0.857,-0.998 1.329,-2.321 1.329,-3.727 0,-2.733 -1.843,-5.502 -5.365,-5.502"
       style="fill:#00b2ff;fill-opacity:1;fill-rule:nonzero;stroke:none;stroke-width:0.1"
       id="path154" /><path
       d="m 561.528,110.5 c 4.504,0 4.512,7 0,7 -4.504,0 -4.511,-7 0,-7"
       style="fill:#00b2ff;fill-opacity:1;fill-rule:nonzero;stroke:none;stroke-width:0.1"
       id="path156" /><path
       d="m 561.528,116 c -1.828,0 -1.881,-1.797 -1.881,-2.002 0,-0.205 0.053,-1.998 1.881,-1.998 1.828,0 1.881,1.797 1.881,2.002 0,0.205 -0.053,1.998 -1.881,1.998 z m 0,-7 c -3.204,0 -4.881,2.515 -4.881,4.998 0,2.485 1.677,5.002 4.881,5.002 3.204,0 4.881,-2.515 4.881,-4.998 0,-2.485 -1.677,-5.002 -4.881,-5.002"
       style="fill:#00b2ff;fill-opacity:1;fill-rule:nonzero;stroke:none;stroke-width:0.1"
       id="path158" /><path
       d="m 685.861,118.667 c 3.861,0 3.868,6 0,6 -3.86,0 -3.867,-6 0,-6"
       style="fill:#00b2ff;fill-opacity:1;fill-rule:nonzero;stroke:none;stroke-width:0.1"
       id="path160" /><path
       d="m 685.861,123.167 c -1.33,0 -1.398,-1.251 -1.398,-1.502 0,-0.421 0.132,-0.816 0.363,-1.084 0.239,-0.278 0.578,-0.414 1.035,-0.414 1.331,0 1.398,1.251 1.398,1.502 0,0.25 -0.067,1.498 -1.398,1.498 z m 0,-6 c -2.887,0 -4.398,2.263 -4.398,4.498 0,1.145 0.386,2.225 1.087,3.041 0.809,0.942 1.985,1.461 3.311,1.461 1.327,0 2.503,-0.519 3.312,-1.459 0.701,-0.815 1.086,-1.896 1.086,-3.039 0,-2.237 -1.51,-4.502 -4.398,-4.502"
       style="fill:#00b2ff;fill-opacity:1;fill-rule:nonzero;stroke:none;stroke-width:0.1"
       id="path162" /><path
       d="m 764.583,186.389 c 3.218,0 3.223,5 0,5 -3.217,0 -3.222,-5 0,-5"
       style="fill:#00b2ff;fill-opacity:1;fill-rule:nonzero;stroke:none;stroke-width:0.1"
       id="path164" /><path
       d="m 764.583,189.889 c -0.825,0 -0.915,-0.701 -0.915,-1.001 0,-0.301 0.09,-0.999 0.915,-0.999 0.826,0 0.916,0.7 0.916,1.002 0,0.299 -0.09,0.998 -0.916,0.998 z m 0,-5 c -2.231,0 -3.915,1.718 -3.915,3.999 0,2.28 1.684,4.001 3.915,4.001 1.18,0 2.228,-0.463 2.95,-1.303 0.622,-0.726 0.966,-1.683 0.966,-2.695 0,-2.282 -1.684,-4.002 -3.916,-4.002"
       style="fill:#00b2ff;fill-opacity:1;fill-rule:nonzero;stroke:none;stroke-width:0.1"
       id="path166" /><path
       d="m 876.778,70.5 c 3.218,0 3.223,5 0,5 -3.217,0 -3.222,-5 0,-5"
       style="fill:#00b2ff;fill-opacity:1;fill-rule:nonzero;stroke:none;stroke-width:0.1"
       id="path168" /><path
       d="m 876.778,74 c -0.825,0 -0.915,-0.7 -0.915,-1 0,-0.3 0.09,-1 0.915,-1 0.826,0 0.915,0.7 0.915,1 0,0.3 -0.089,1 -0.915,1 z m 0,-5 c -1.179,0 -2.227,0.4602 -2.949,1.3 -0.622,0.7301 -0.966,1.6902 -0.966,2.7 0,2.2801 1.683,4 3.915,4 1.18,0 2.228,-0.4602 2.95,-1.3 0.622,-0.7301 0.965,-1.6898 0.965,-2.7 0,-2.2801 -1.683,-4 -3.915,-4"
       style="fill:#00b2ff;fill-opacity:1;fill-rule:nonzero;stroke:none;stroke-width:0.1"
       id="path170" /><path
       d="m 889.973,340.056 c 3.217,0 3.222,5 0,5 -3.218,0 -3.223,-5 0,-5"
       style="fill:#00b2ff;fill-opacity:1;fill-rule:nonzero;stroke:none;stroke-width:0.1"
       id="path172" /><path
       d="m 889.973,343.556 c -0.826,0 -0.915,-0.701 -0.915,-1.002 0,-0.3 0.089,-0.998 0.915,-0.998 0.825,0 0.915,0.7 0.915,1.002 0,0.299 -0.09,0.998 -0.915,0.998 z m 0,-5 c -1.18,0 -2.228,0.463 -2.95,1.302 -0.622,0.726 -0.965,1.683 -0.965,2.696 0,2.281 1.683,4.002 3.915,4.002 1.179,0 2.227,-0.463 2.949,-1.303 0.622,-0.726 0.966,-1.683 0.966,-2.695 0,-2.282 -1.683,-4.002 -3.915,-4.002"
       style="fill:#00b2ff;fill-opacity:1;fill-rule:nonzero;stroke:none;stroke-width:0.1"
       id="path174" /><path
       d="m 845.778,214.875 c 3.218,0 3.223,5 0,5 -3.217,0 -3.222,-5 0,-5"
       style="fill:#00b2ff;fill-opacity:1;fill-rule:nonzero;stroke:none;stroke-width:0.1"
       id="path176" /><path
       d="m 845.778,218.375 c -0.825,0 -0.915,-0.7 -0.915,-1.002 0,-0.3 0.09,-0.998 0.915,-0.998 0.826,0 0.915,0.7 0.915,1.002 0,0.3 -0.089,0.998 -0.915,0.998 z m 0,-5 c -1.179,0 -2.227,0.463 -2.949,1.303 -0.622,0.725 -0.966,1.682 -0.966,2.695 0,2.281 1.683,4.002 3.915,4.002 1.18,0 2.228,-0.463 2.95,-1.303 0.622,-0.725 0.965,-1.682 0.965,-2.695 0,-2.281 -1.683,-4.002 -3.915,-4.002"
       style="fill:#00b2ff;fill-opacity:1;fill-rule:nonzero;stroke:none;stroke-width:0.1"
       id="path178" /><path
       d="m 590.632,440.75 c 3.218,0 3.223,5 0,5 -3.217,0 -3.222,-5 0,-5"
       style="fill:#00b2ff;fill-opacity:1;fill-rule:nonzero;stroke:none;stroke-width:0.1"
       id="path180" /><path
       d="m 590.632,444.25 c -0.825,0 -0.915,-0.7 -0.915,-1.002 0,-0.3 0.09,-0.998 0.915,-0.998 0.826,0 0.915,0.7 0.915,1.002 0,0.3 -0.089,0.998 -0.915,0.998 z m 0,-5 c -1.179,0 -2.227,0.463 -2.949,1.303 -0.622,0.725 -0.966,1.682 -0.966,2.695 0,2.281 1.683,4.002 3.915,4.002 1.18,0 2.228,-0.463 2.95,-1.303 0.622,-0.725 0.965,-1.682 0.965,-2.695 0,-2.281 -1.683,-4.002 -3.915,-4.002"
       style="fill:#00b2ff;fill-opacity:1;fill-rule:nonzero;stroke:none;stroke-width:0.1"
       id="path182" /><path
       d="m 784.528,412.5 c 3.218,0 3.223,5 0,5 -3.217,0 -3.222,-5 0,-5"
       style="fill:#00b2ff;fill-opacity:1;fill-rule:nonzero;stroke:none;stroke-width:0.1"
       id="path184" /><path
       d="m 784.528,416 c -0.825,0 -0.915,-0.7 -0.915,-1.002 0,-0.3 0.09,-0.998 0.915,-0.998 0.826,0 0.915,0.7 0.915,1.002 0,0.3 -0.089,0.998 -0.915,0.998 z m 0,-5 c -1.179,0 -2.227,0.463 -2.949,1.303 -0.622,0.725 -0.966,1.682 -0.966,2.695 0,2.281 1.683,4.002 3.915,4.002 1.18,0 2.228,-0.463 2.95,-1.303 0.622,-0.725 0.965,-1.682 0.965,-2.695 0,-2.281 -1.683,-4.002 -3.915,-4.002"
       style="fill:#00b2ff;fill-opacity:1;fill-rule:nonzero;stroke:none;stroke-width:0.1"
       id="path186" /><path
       d="m 680.306,514.25 c 3.217,0 3.222,5 0,5 -3.217,0 -3.223,-5 0,-5"
       style="fill:#00b2ff;fill-opacity:1;fill-rule:nonzero;stroke:none;stroke-width:0.1"
       id="path188" /><path
       d="m 680.306,517.75 c -0.826,0 -0.915,-0.7 -0.915,-1.002 0,-0.3 0.089,-0.998 0.915,-0.998 0.826,0 0.915,0.7 0.915,1.002 0,0.3 -0.089,0.998 -0.915,0.998 z m 0,-5 c -1.18,0 -2.227,0.463 -2.949,1.303 -0.623,0.725 -0.966,1.682 -0.966,2.695 0,2.281 1.683,4.002 3.915,4.002 1.18,0 2.227,-0.463 2.949,-1.304 0.623,-0.724 0.966,-1.681 0.966,-2.694 0,-2.281 -1.683,-4.002 -3.915,-4.002"
       style="fill:#00b2ff;fill-opacity:1;fill-rule:nonzero;stroke:none;stroke-width:0.1"
       id="path190" /><path
       d="m 670.611,611.594 c 3.218,0 3.223,5 0,5 -3.217,0 -3.222,-5 0,-5"
       style="fill:#00b2ff;fill-opacity:1;fill-rule:nonzero;stroke:none;stroke-width:0.1"
       id="path192" /><path
       d="m 670.611,615.094 c -0.825,0 -0.915,-0.7 -0.915,-1.002 0,-0.3 0.09,-0.998 0.915,-0.998 0.826,0 0.915,0.7 0.915,1.001 0,0.301 -0.089,0.999 -0.915,0.999 z m 0,-5 c -1.179,0 -2.227,0.463 -2.949,1.303 -0.622,0.725 -0.966,1.682 -0.966,2.695 0,2.282 1.683,4.002 3.915,4.002 1.18,0 2.228,-0.463 2.95,-1.303 0.622,-0.726 0.965,-1.683 0.965,-2.696 0,-2.281 -1.683,-4.001 -3.915,-4.001"
       style="fill:#00b2ff;fill-opacity:1;fill-rule:nonzero;stroke:none;stroke-width:0.1"
       id="path194" /><path
       d="m 731.528,699.167 c 3.218,0 3.223,5 0,5 -3.217,0 -3.222,-5 0,-5"
       style="fill:#00b2ff;fill-opacity:1;fill-rule:nonzero;stroke:none;stroke-width:0.1"
       id="path196" /><path
       d="m 731.528,702.667 c -0.825,0 -0.915,-0.701 -0.915,-1.002 0,-0.3 0.09,-0.998 0.915,-0.998 0.826,0 0.915,0.7 0.915,1.001 0,0.3 -0.089,0.999 -0.915,0.999 z m 0,-5 c -1.179,0 -2.227,0.462 -2.949,1.303 -0.622,0.725 -0.966,1.682 -0.966,2.695 0,2.281 1.683,4.002 3.915,4.002 1.18,0 2.228,-0.463 2.95,-1.304 0.622,-0.725 0.965,-1.682 0.965,-2.695 0,-2.281 -1.683,-4.001 -3.915,-4.001"
       style="fill:#00b2ff;fill-opacity:1;fill-rule:nonzero;stroke:none;stroke-width:0.1"
       id="path198" /><path
       d="m 921.32,645.812 c 4.504,0 4.512,7 0,7 -4.505,0 -4.512,-7 0,-7"
       style="fill:#00b2ff;fill-opacity:1;fill-rule:nonzero;stroke:none;stroke-width:0.1"
       id="path200" /><path
       d="m 921.32,651.312 c -1.828,0 -1.881,-1.797 -1.881,-2.001 0,-0.205 0.053,-1.999 1.881,-1.999 1.828,0 1.881,1.798 1.881,2.002 0,0.205 -0.053,1.998 -1.881,1.998 z m 0,-7 c -3.205,0 -4.881,2.515 -4.881,4.999 0,2.485 1.676,5.001 4.881,5.001 3.204,0 4.881,-2.514 4.881,-4.998 0,-2.485 -1.677,-5.002 -4.881,-5.002"
       style="fill:#00b2ff;fill-opacity:1;fill-rule:nonzero;stroke:none;stroke-width:0.1"
       id="path202" /><path
       d="m 1019.39,641.5 c 4.5,0 4.51,7 0,7 -4.51,0 -4.51,-7 0,-7"
       style="fill:#00b2ff;fill-opacity:1;fill-rule:nonzero;stroke:none;stroke-width:0.1"
       id="path204" /><path
       d="m 1019.39,647 c -1.83,0 -1.88,-1.797 -1.88,-2.002 0,-0.55 0.17,-1.071 0.48,-1.428 0.33,-0.378 0.8,-0.57 1.4,-0.57 1.83,0 1.88,1.797 1.88,2.002 0,0.205 -0.05,1.998 -1.88,1.998 z m 0,-7 c -3.2,0 -4.88,2.514 -4.88,4.998 0,1.275 0.43,2.477 1.21,3.384 0.89,1.043 2.2,1.618 3.67,1.618 3.2,0 4.88,-2.514 4.88,-4.998 0,-2.485 -1.68,-5.002 -4.88,-5.002"
       style="fill:#00b2ff;fill-opacity:1;fill-rule:nonzero;stroke:none;stroke-width:0.1"
       id="path206" /><path
       d="m 939.478,447.7 c 4.504,0 4.512,7 0,7 -4.504,0 -4.512,-7 0,-7"
       style="fill:#00b2ff;fill-opacity:1;fill-rule:nonzero;stroke:none;stroke-width:0.1"
       id="path208" /><path
       d="m 939.478,453.2 c -1.828,0 -1.881,-1.797 -1.881,-2.002 0,-0.551 0.176,-1.07 0.483,-1.427 0.325,-0.379 0.795,-0.571 1.398,-0.571 1.828,0 1.881,1.797 1.881,2.002 0,0.205 -0.053,1.998 -1.881,1.998 z m 0,-7 c -3.204,0 -4.881,2.515 -4.881,4.998 0,1.276 0.429,2.478 1.208,3.384 0.895,1.044 2.199,1.618 3.673,1.618 3.205,0 4.881,-2.514 4.881,-4.998 0,-2.485 -1.676,-5.002 -4.881,-5.002"
       style="fill:#00b2ff;fill-opacity:1;fill-rule:nonzero;stroke:none;stroke-width:0.1"
       id="path210" /><path
       d="m 988.591,435.549 c 4.504,0 4.512,7 0,7 -4.504,0 -4.512,-7 0,-7"
       style="fill:#00b2ff;fill-opacity:1;fill-rule:nonzero;stroke:none;stroke-width:0.1"
       id="path212" /><path
       d="m 988.591,441.049 c -1.828,0 -1.881,-1.797 -1.881,-2.002 0,-0.205 0.053,-1.998 1.881,-1.998 1.828,0 1.881,1.797 1.881,2.002 0,0.205 -0.053,1.998 -1.881,1.998 z m 0,-7 c -3.204,0 -4.881,2.514 -4.881,4.998 0,2.485 1.677,5.002 4.881,5.002 3.204,0 4.881,-2.515 4.881,-4.998 0,-2.486 -1.677,-5.002 -4.881,-5.002"
       style="fill:#00b2ff;fill-opacity:1;fill-rule:nonzero;stroke:none;stroke-width:0.1"
       id="path214" /><path
       d="m 924.216,336.719 c 4.504,0 4.511,7 0,7 -4.505,0 -4.512,-7 0,-7"
       style="fill:#00b2ff;fill-opacity:1;fill-rule:nonzero;stroke:none;stroke-width:0.1"
       id="path216" /><path
       d="m 924.216,342.219 c -1.828,0 -1.881,-1.797 -1.881,-2.002 0,-0.205 0.053,-1.998 1.881,-1.998 1.828,0 1.881,1.797 1.881,2.002 0,0.205 -0.053,1.998 -1.881,1.998 z m 0,-7 c -3.205,0 -4.881,2.514 -4.881,4.998 0,2.485 1.676,5.002 4.881,5.002 3.204,0 4.881,-2.515 4.881,-4.998 0,-2.486 -1.677,-5.002 -4.881,-5.002"
       style="fill:#00b2ff;fill-opacity:1;fill-rule:nonzero;stroke:none;stroke-width:0.1"
       id="path218" /><path
       d="m 1094.19,294.833 c 4.51,0 4.52,7 0,7 -4.5,0 -4.51,-7 0,-7"
       style="fill:#00b2ff;fill-opacity:1;fill-rule:nonzero;stroke:none;stroke-width:0.1"
       id="path220" /><path
       d="m 1094.2,300.333 c -1.83,0 -1.89,-1.797 -1.89,-2.002 0,-0.205 0.06,-1.998 1.89,-1.998 1.82,0 1.88,1.797 1.88,2.002 0,0.205 -0.06,1.998 -1.88,1.998 z m 0,-7 c -3.21,0 -4.89,2.515 -4.89,4.998 0,2.485 1.68,5.002 4.89,5.002 3.2,0 4.88,-2.515 4.88,-4.998 0,-2.485 -1.68,-5.002 -4.88,-5.002"
       style="fill:#00b2ff;fill-opacity:1;fill-rule:nonzero;stroke:none;stroke-width:0.1"
       id="path222" /><path
       d="m 1034.91,449.917 c 4.51,0 4.51,7 0,7 -4.5,0 -4.51,-7 0,-7"
       style="fill:#00b2ff;fill-opacity:1;fill-rule:nonzero;stroke:none;stroke-width:0.1"
       id="path224" /><path
       d="m 1034.91,455.417 c -1.83,0 -1.88,-1.797 -1.88,-2.002 0,-0.205 0.05,-1.998 1.88,-1.998 1.83,0 1.88,1.797 1.88,2.002 0,0.334 -0.09,1.998 -1.88,1.998 z m 0,-7 c -3.2,0 -4.88,2.515 -4.88,4.998 0,2.485 1.68,5.002 4.88,5.002 1.48,0 2.78,-0.573 3.68,-1.615 0.77,-0.906 1.2,-2.108 1.2,-3.383 0,-2.485 -1.67,-5.002 -4.88,-5.002"
       style="fill:#00b2ff;fill-opacity:1;fill-rule:nonzero;stroke:none;stroke-width:0.1"
       id="path226" /><path
       d="m 1102.63,381.323 c 4.5,0 4.51,7 0,7 -4.51,0 -4.52,-7 0,-7"
       style="fill:#00b2ff;fill-opacity:1;fill-rule:nonzero;stroke:none;stroke-width:0.1"
       id="path228" /><path
       d="m 1102.63,386.823 c -1.83,0 -1.88,-1.797 -1.88,-2.002 0,-0.205 0.05,-1.998 1.88,-1.998 1.82,0 1.88,1.797 1.88,2.002 0,0.334 -0.09,1.998 -1.88,1.998 z m 0,-7 c -3.21,0 -4.88,2.515 -4.88,4.998 0,2.486 1.67,5.002 4.88,5.002 1.47,0 2.77,-0.573 3.67,-1.615 0.78,-0.906 1.21,-2.107 1.21,-3.383 0,-2.485 -1.68,-5.002 -4.88,-5.002"
       style="fill:#00b2ff;fill-opacity:1;fill-rule:nonzero;stroke:none;stroke-width:0.1"
       id="path230" /><path
       d="m 1159.4,439.125 c 4.51,0 4.52,7 0,7 -4.5,0 -4.51,-7 0,-7"
       style="fill:#00b2ff;fill-opacity:1;fill-rule:nonzero;stroke:none;stroke-width:0.1"
       id="path232" /><path
       d="m 1159.4,444.625 c -1.82,0 -1.88,-1.797 -1.88,-2.002 0,-0.205 0.06,-1.998 1.88,-1.998 1.83,0 1.88,1.797 1.88,2.002 0,0.205 -0.05,1.998 -1.88,1.998 z m 0,-7 c -3.2,0 -4.88,2.515 -4.88,4.998 0,2.485 1.68,5.002 4.88,5.002 3.21,0 4.88,-2.515 4.88,-4.998 0,-2.485 -1.67,-5.002 -4.88,-5.002"
       style="fill:#00b2ff;fill-opacity:1;fill-rule:nonzero;stroke:none;stroke-width:0.1"
       id="path234" /><path
       d="m 1097.53,594.5 c 4.5,0 4.51,7 0,7 -4.51,0 -4.51,-7 0,-7"
       style="fill:#00b2ff;fill-opacity:1;fill-rule:nonzero;stroke:none;stroke-width:0.1"
       id="path236" /><path
       d="m 1097.53,600 c -1.83,0 -1.88,-1.797 -1.88,-2.002 0,-0.205 0.05,-1.998 1.88,-1.998 1.83,0 1.88,1.797 1.88,2.002 0,0.205 -0.05,1.998 -1.88,1.998 z m 0,-7 c -3.21,0 -4.88,2.514 -4.88,4.998 0,2.485 1.67,5.002 4.88,5.002 3.2,0 4.88,-2.514 4.88,-4.998 0,-2.485 -1.68,-5.002 -4.88,-5.002"
       style="fill:#00b2ff;fill-opacity:1;fill-rule:nonzero;stroke:none;stroke-width:0.1"
       id="path238" /><path
       d="m 1215.53,283.5 c 4.5,0 4.51,7 0,7 -4.51,0 -4.51,-7 0,-7"
       style="fill:#00b2ff;fill-opacity:1;fill-rule:nonzero;stroke:none;stroke-width:0.1"
       id="path240" /><path
       d="m 1215.53,289 c -1.83,0 -1.88,-1.797 -1.88,-2.002 0,-0.205 0.05,-1.998 1.88,-1.998 1.83,0 1.88,1.797 1.88,2.002 0,0.205 -0.05,1.998 -1.88,1.998 z m 0,-7 c -3.21,0 -4.88,2.515 -4.88,4.998 0,2.485 1.67,5.002 4.88,5.002 3.2,0 4.88,-2.515 4.88,-4.998 0,-2.485 -1.68,-5.002 -4.88,-5.002"
       style="fill:#00b2ff;fill-opacity:1;fill-rule:nonzero;stroke:none;stroke-width:0.1"
       id="path242" /><path
       d="m 1159.36,196.333 c 4.51,0 4.51,7 0,7 -4.5,0 -4.51,-7 0,-7"
       style="fill:#00b2ff;fill-opacity:1;fill-rule:nonzero;stroke:none;stroke-width:0.1"
       id="path244" /><path
       d="m 1159.36,201.833 c -1.83,0 -1.88,-1.797 -1.88,-2.002 0,-0.205 0.05,-1.998 1.88,-1.998 1.83,0 1.88,1.797 1.88,2.002 0,0.205 -0.05,1.998 -1.88,1.998 z m 0,-7 c -3.2,0 -4.88,2.515 -4.88,4.998 0,2.485 1.68,5.002 4.88,5.002 3.21,0 4.88,-2.515 4.88,-4.998 0,-2.485 -1.67,-5.002 -4.88,-5.002"
       style="fill:#00b2ff;fill-opacity:1;fill-rule:nonzero;stroke:none;stroke-width:0.1"
       id="path246" /><path
       d="m 1105.53,153.5 c 4.5,0 4.51,7 0,7 -4.51,0 -4.51,-7 0,-7"
       style="fill:#00b2ff;fill-opacity:1;fill-rule:nonzero;stroke:none;stroke-width:0.1"
       id="path248" /><path
       d="m 1105.53,159 c -1.83,0 -1.88,-1.797 -1.88,-2.002 0,-0.205 0.05,-1.998 1.88,-1.998 1.83,0 1.88,1.797 1.88,2.002 0,0.205 -0.05,1.998 -1.88,1.998 z m 0,-7 c -3.21,0 -4.88,2.515 -4.88,4.998 0,2.485 1.67,5.002 4.88,5.002 3.2,0 4.88,-2.515 4.88,-4.998 0,-2.485 -1.68,-5.002 -4.88,-5.002"
       style="fill:#00b2ff;fill-opacity:1;fill-rule:nonzero;stroke:none;stroke-width:0.1"
       id="path250" /><path
       d="m 1269.25,55.9199 c 4.5,0 4.51,7 0,7 -4.5,0 -4.51,-7 0,-7"
       style="fill:#00b2ff;fill-opacity:1;fill-rule:nonzero;stroke:none;stroke-width:0.1"
       id="path252" /><path
       d="m 1269.25,61.4199 c -1.83,0 -1.88,-1.8 -1.88,-2 0,-0.2097 0.05,-2 1.88,-2 1.83,0 1.88,1.7903 1.88,2 0,0.3301 -0.09,2 -1.88,2 z m 0,-7 c -3.2,0 -4.88,2.5102 -4.88,5 0,2.4801 1.68,5 4.88,5 1.47,0 2.78,-0.5797 3.67,-1.6199 0.78,-0.9 1.21,-2.1098 1.21,-3.3801 0,-2.4898 -1.67,-5 -4.88,-5"
       style="fill:#00b2ff;fill-opacity:1;fill-rule:nonzero;stroke:none;stroke-width:0.1"
       id="path254" /><path
       d="m 1338.03,212.5 c 4.5,0 4.51,7 0,7 -4.51,0 -4.51,-7 0,-7"
       style="fill:#00b2ff;fill-opacity:1;fill-rule:nonzero;stroke:none;stroke-width:0.1"
       id="path256" /><path
       d="m 1338.03,218 c -1.83,0 -1.88,-1.797 -1.88,-2.002 0,-0.205 0.05,-1.998 1.88,-1.998 1.83,0 1.88,1.797 1.88,2.002 0,0.205 -0.05,1.998 -1.88,1.998 z m 0,-7 c -3.21,0 -4.88,2.515 -4.88,4.998 0,2.485 1.67,5.002 4.88,5.002 3.2,0 4.88,-2.515 4.88,-4.998 0,-2.485 -1.68,-5.002 -4.88,-5.002"
       style="fill:#00b2ff;fill-opacity:1;fill-rule:nonzero;stroke:none;stroke-width:0.1"
       id="path258" /><path
       d="m 1287.53,266.667 c 4.5,0 4.51,7 0,7 -4.51,0 -4.51,-7 0,-7"
       style="fill:#00b2ff;fill-opacity:1;fill-rule:nonzero;stroke:none;stroke-width:0.1"
       id="path260" /><path
       d="m 1287.53,272.167 c -1.83,0 -1.88,-1.797 -1.88,-2.002 0,-0.205 0.05,-1.998 1.88,-1.998 1.83,0 1.88,1.797 1.88,2.002 0,0.205 -0.05,1.998 -1.88,1.998 z m 0,-7 c -3.21,0 -4.88,2.515 -4.88,4.998 0,2.485 1.67,5.002 4.88,5.002 3.2,0 4.88,-2.515 4.88,-4.998 0,-2.485 -1.68,-5.002 -4.88,-5.002"
       style="fill:#00b2ff;fill-opacity:1;fill-rule:nonzero;stroke:none;stroke-width:0.1"
       id="path262" /><path
       d="m 1452.53,146.5 c 3.22,0 3.22,5 0,5 -3.22,0 -3.22,-5 0,-5"
       style="fill:#00b2ff;fill-opacity:1;fill-rule:nonzero;stroke:none;stroke-width:0.1"
       id="path264" /><path
       d="m 1452.53,150 c -0.83,0 -0.92,-0.7 -0.92,-1.002 0,-0.3 0.09,-0.998 0.92,-0.998 0.82,0 0.91,0.7 0.91,1.002 0,0.3 -0.09,0.998 -0.91,0.998 z m 0,-5 c -1.18,0 -2.23,0.463 -2.95,1.303 -0.62,0.725 -0.97,1.682 -0.97,2.695 0,2.281 1.69,4.002 3.92,4.002 1.18,0 2.23,-0.463 2.95,-1.303 0.62,-0.725 0.96,-1.682 0.96,-2.695 0,-2.281 -1.68,-4.002 -3.91,-4.002"
       style="fill:#00b2ff;fill-opacity:1;fill-rule:nonzero;stroke:none;stroke-width:0.1"
       id="path266" /><path
       d="m 1349.9,458.75 c 3.22,0 3.23,5 0,5 -3.21,0 -3.22,-5 0,-5"
       style="fill:#00b2ff;fill-opacity:1;fill-rule:nonzero;stroke:none;stroke-width:0.1"
       id="path268" /><path
       d="m 1349.9,462.25 c -0.82,0 -0.91,-0.7 -0.91,-1.002 0,-0.3 0.09,-0.998 0.91,-0.998 0.83,0 0.92,0.7 0.92,1.002 0,0.3 -0.09,0.998 -0.92,0.998 z m 0,-5 c -1.18,0 -2.22,0.463 -2.95,1.303 -0.62,0.725 -0.96,1.682 -0.96,2.695 0,2.281 1.68,4.002 3.91,4.002 1.18,0 2.23,-0.463 2.95,-1.303 0.62,-0.725 0.97,-1.682 0.97,-2.695 0,-2.281 -1.69,-4.002 -3.92,-4.002"
       style="fill:#00b2ff;fill-opacity:1;fill-rule:nonzero;stroke:none;stroke-width:0.1"
       id="path270" /><path
       d="m 1354.75,569.167 c 5.14,0 5.15,8 0,8 -5.15,0 -5.16,-8 0,-8"
       style="fill:#00b2ff;fill-opacity:1;fill-rule:nonzero;stroke:none;stroke-width:0.1"
       id="path272" /><path
       d="m 1354.74,575.667 c -2.29,0 -2.36,-2.247 -2.36,-2.503 0,-0.256 0.07,-2.497 2.36,-2.497 0.76,0 1.35,0.245 1.76,0.728 0.39,0.447 0.61,1.094 0.61,1.774 0,0.256 -0.07,2.498 -2.37,2.498 z m 0,-8 c -3.52,0 -5.36,2.765 -5.36,5.497 0,2.734 1.84,5.503 5.36,5.503 1.63,0 3.06,-0.63 4.04,-1.772 0.86,-0.997 1.33,-2.32 1.33,-3.726 0,-2.734 -1.84,-5.502 -5.37,-5.502"
       style="fill:#00b2ff;fill-opacity:1;fill-rule:nonzero;stroke:none;stroke-width:0.1"
       id="path274" /><path
       d="m 1372.03,691.167 c 4.5,0 4.51,7 0,7 -4.51,0 -4.51,-7 0,-7"
       style="fill:#00b2ff;fill-opacity:1;fill-rule:nonzero;stroke:none;stroke-width:0.1"
       id="path276" /><path
       d="m 1372.03,696.667 c -1.83,0 -1.88,-1.798 -1.88,-2.002 0,-0.205 0.05,-1.998 1.88,-1.998 1.83,0 1.88,1.797 1.88,2.001 0,0.205 -0.05,1.999 -1.88,1.999 z m 0,-7 c -3.21,0 -4.88,2.514 -4.88,4.998 0,2.485 1.67,5.002 4.88,5.002 3.2,0 4.88,-2.515 4.88,-4.999 0,-2.485 -1.68,-5.001 -4.88,-5.001"
       style="fill:#00b2ff;fill-opacity:1;fill-rule:nonzero;stroke:none;stroke-width:0.1"
       id="path278" /><path
       d="m 1256.33,791.389 c 4.51,0 4.52,7 0,7 -4.5,0 -4.51,-7 0,-7"
       style="fill:#00b2ff;fill-opacity:1;fill-rule:nonzero;stroke:none;stroke-width:0.1"
       id="path280" /><path
       d="m 1256.33,796.889 c -1.82,0 -1.88,-1.798 -1.88,-2.002 0,-0.205 0.06,-1.998 1.88,-1.998 1.83,0 1.88,1.797 1.88,2.002 0,0.204 -0.05,1.998 -1.88,1.998 z m 0,-7 c -3.2,0 -4.88,2.514 -4.88,4.998 0,2.485 1.68,5.002 4.88,5.002 3.21,0 4.88,-2.514 4.88,-4.998 0,-2.486 -1.67,-5.002 -4.88,-5.002"
       style="fill:#00b2ff;fill-opacity:1;fill-rule:nonzero;stroke:none;stroke-width:0.1"
       id="path282" /><path
       d="m 1564.78,787.187 c 4.5,0 4.51,7 0,7 -4.51,0 -4.51,-7 0,-7"
       style="fill:#00b2ff;fill-opacity:1;fill-rule:nonzero;stroke:none;stroke-width:0.1"
       id="path284" /><path
       d="m 1564.78,792.687 c -1.83,0 -1.88,-1.797 -1.88,-2.001 0,-0.205 0.05,-1.999 1.88,-1.999 1.83,0 1.88,1.798 1.88,2.002 0,0.205 -0.05,1.998 -1.88,1.998 z m 0,-7 c -3.21,0 -4.88,2.515 -4.88,4.999 0,2.485 1.67,5.001 4.88,5.001 3.2,0 4.88,-2.514 4.88,-4.998 0,-2.485 -1.68,-5.002 -4.88,-5.002"
       style="fill:#00b2ff;fill-opacity:1;fill-rule:nonzero;stroke:none;stroke-width:0.1"
       id="path286" /><path
       d="m 1471.78,621.375 c 4.5,0 4.51,7 0,7 -4.51,0 -4.51,-7 0,-7"
       style="fill:#00b2ff;fill-opacity:1;fill-rule:nonzero;stroke:none;stroke-width:0.1"
       id="path288" /><path
       d="m 1471.78,626.875 c -1.83,0 -1.88,-1.797 -1.88,-2.002 0,-0.205 0.05,-1.998 1.88,-1.998 1.83,0 1.88,1.797 1.88,2.002 0,0.205 -0.05,1.998 -1.88,1.998 z m 0,-7 c -3.21,0 -4.88,2.514 -4.88,4.998 0,2.485 1.67,5.002 4.88,5.002 3.2,0 4.88,-2.514 4.88,-4.998 0,-2.485 -1.68,-5.002 -4.88,-5.002"
       style="fill:#00b2ff;fill-opacity:1;fill-rule:nonzero;stroke:none;stroke-width:0.1"
       id="path290" /><path
       d="m 1560.03,551.5 c 4.5,0 4.51,7 0,7 -4.51,0 -4.51,-7 0,-7"
       style="fill:#00b2ff;fill-opacity:1;fill-rule:nonzero;stroke:none;stroke-width:0.1"
       id="path292" /><path
       d="m 1560.03,557 c -1.83,0 -1.88,-1.797 -1.88,-2.002 0,-0.205 0.05,-1.998 1.88,-1.998 1.83,0 1.88,1.797 1.88,2.002 0,0.205 -0.05,1.998 -1.88,1.998 z m 0,-7 c -3.21,0 -4.88,2.514 -4.88,4.998 0,2.485 1.67,5.002 4.88,5.002 3.2,0 4.88,-2.514 4.88,-4.998 0,-2.485 -1.68,-5.002 -4.88,-5.002"
       style="fill:#00b2ff;fill-opacity:1;fill-rule:nonzero;stroke:none;stroke-width:0.1"
       id="path294" /><path
       d="m 1535.86,408.667 c 4.51,0 4.51,7 0,7 -4.5,0 -4.51,-7 0,-7"
       style="fill:#00b2ff;fill-opacity:1;fill-rule:nonzero;stroke:none;stroke-width:0.1"
       id="path296" /><path
       d="m 1535.86,414.167 c -1.83,0 -1.88,-1.797 -1.88,-2.002 0,-0.205 0.05,-1.998 1.88,-1.998 1.83,0 1.88,1.797 1.88,2.002 0,0.205 -0.05,1.998 -1.88,1.998 z m 0,-7 c -3.2,0 -4.88,2.515 -4.88,4.998 0,2.485 1.68,5.002 4.88,5.002 3.21,0 4.88,-2.515 4.88,-4.998 0,-2.485 -1.67,-5.002 -4.88,-5.002"
       style="fill:#00b2ff;fill-opacity:1;fill-rule:nonzero;stroke:none;stroke-width:0.1"
       id="path298" /><path
       d="m 1629.86,490 c 4.51,0 4.51,7 0,7 -4.5,0 -4.51,-7 0,-7"
       style="fill:#00b2ff;fill-opacity:1;fill-rule:nonzero;stroke:none;stroke-width:0.1"
       id="path300" /><path
       d="m 1629.86,495.5 c -1.83,0 -1.88,-1.797 -1.88,-2.002 0,-0.205 0.05,-1.998 1.88,-1.998 1.83,0 1.88,1.797 1.88,2.002 0,0.205 -0.05,1.998 -1.88,1.998 z m 0,-7 c -3.2,0 -4.88,2.515 -4.88,4.998 0,2.485 1.68,5.002 4.88,5.002 3.21,0 4.88,-2.515 4.88,-4.998 0,-2.485 -1.67,-5.002 -4.88,-5.002"
       style="fill:#00b2ff;fill-opacity:1;fill-rule:nonzero;stroke:none;stroke-width:0.1"
       id="path302" /><path
       d="m 1667.53,366.5 c 4.5,0 4.51,7 0,7 -4.51,0 -4.51,-7 0,-7"
       style="fill:#00b2ff;fill-opacity:1;fill-rule:nonzero;stroke:none;stroke-width:0.1"
       id="path304" /><path
       d="m 1667.53,372 c -1.83,0 -1.88,-1.797 -1.88,-2.002 0,-0.205 0.05,-1.998 1.88,-1.998 1.83,0 1.88,1.797 1.88,2.002 0,0.205 -0.05,1.998 -1.88,1.998 z m 0,-7 c -3.21,0 -4.88,2.515 -4.88,4.998 0,2.485 1.67,5.002 4.88,5.002 3.2,0 4.88,-2.515 4.88,-4.998 0,-2.485 -1.68,-5.002 -4.88,-5.002"
       style="fill:#00b2ff;fill-opacity:1;fill-rule:nonzero;stroke:none;stroke-width:0.1"
       id="path306" /><path
       d="m 1848.03,392 c 4.5,0 4.51,7 0,7 -4.51,0 -4.51,-7 0,-7"
       style="fill:#00b2ff;fill-opacity:1;fill-rule:nonzero;stroke:none;stroke-width:0.1"
       id="path308" /><path
       d="m 1848.03,397.5 c -1.83,0 -1.88,-1.797 -1.88,-2.002 0,-0.205 0.05,-1.998 1.88,-1.998 1.83,0 1.88,1.797 1.88,2.002 0,0.205 -0.05,1.998 -1.88,1.998 z m 0,-7 c -3.21,0 -4.88,2.515 -4.88,4.998 0,2.485 1.67,5.002 4.88,5.002 3.2,0 4.88,-2.515 4.88,-4.998 0,-2.485 -1.68,-5.002 -4.88,-5.002"
       style="fill:#00b2ff;fill-opacity:1;fill-rule:nonzero;stroke:none;stroke-width:0.1"
       id="path310" /><path
       d="m 1817.53,281 c 4.5,0 4.51,7 0,7 -4.51,0 -4.51,-7 0,-7"
       style="fill:#00b2ff;fill-opacity:1;fill-rule:nonzero;stroke:none;stroke-width:0.1"
       id="path312" /><path
       d="m 1817.53,286.5 c -1.83,0 -1.88,-1.797 -1.88,-2.002 0,-0.205 0.05,-1.998 1.88,-1.998 1.83,0 1.88,1.797 1.88,2.002 0,0.205 -0.05,1.998 -1.88,1.998 z m 0,-7 c -3.21,0 -4.88,2.515 -4.88,4.998 0,2.485 1.67,5.002 4.88,5.002 3.2,0 4.88,-2.515 4.88,-4.998 0,-2.485 -1.68,-5.002 -4.88,-5.002"
       style="fill:#00b2ff;fill-opacity:1;fill-rule:nonzero;stroke:none;stroke-width:0.1"
       id="path314" /><path
       d="m 1897.03,250.5 c 4.5,0 4.51,7 0,7 -4.51,0 -4.51,-7 0,-7"
       style="fill:#00b2ff;fill-opacity:1;fill-rule:nonzero;stroke:none;stroke-width:0.1"
       id="path316" /><path
       d="m 1897.03,256 c -1.83,0 -1.88,-1.797 -1.88,-2.002 0,-0.205 0.05,-1.998 1.88,-1.998 1.83,0 1.88,1.797 1.88,2.002 0,0.205 -0.05,1.998 -1.88,1.998 z m 0,-7 c -3.21,0 -4.88,2.515 -4.88,4.998 0,2.485 1.67,5.002 4.88,5.002 3.2,0 4.88,-2.515 4.88,-4.998 0,-2.485 -1.68,-5.002 -4.88,-5.002"
       style="fill:#00b2ff;fill-opacity:1;fill-rule:nonzero;stroke:none;stroke-width:0.1"
       id="path318" /><path
       d="m 1763.53,138.5 c 4.5,0 4.51,7 0,7 -4.51,0 -4.51,-7 0,-7"
       style="fill:#00b2ff;fill-opacity:1;fill-rule:nonzero;stroke:none;stroke-width:0.1"
       id="path320" /><path
       d="m 1763.53,144 c -1.83,0 -1.88,-1.797 -1.88,-2.002 0,-0.205 0.05,-1.998 1.88,-1.998 1.83,0 1.88,1.797 1.88,2.002 0,0.205 -0.05,1.998 -1.88,1.998 z m 0,-7 c -3.21,0 -4.88,2.515 -4.88,4.998 0,2.485 1.67,5.002 4.88,5.002 3.2,0 4.88,-2.515 4.88,-4.998 0,-2.485 -1.68,-5.002 -4.88,-5.002"
       style="fill:#00b2ff;fill-opacity:1;fill-rule:nonzero;stroke:none;stroke-width:0.1"
       id="path322" /><path
       d="m 1898.53,73.5 c 4.5,0 4.51,7 0,7 -4.51,0 -4.51,-7 0,-7"
       style="fill:#00b2ff;fill-opacity:1;fill-rule:nonzero;stroke:none;stroke-width:0.1"
       id="path324" /><path
       d="m 1898.53,79 c -1.83,0 -1.88,-1.8 -1.88,-2 0,-0.2102 0.05,-2 1.88,-2 1.83,0 1.88,1.8 1.88,2 0,0.2102 -0.05,2 -1.88,2 z m 0,-7 c -3.21,0 -4.88,2.5102 -4.88,5 0,2.4801 1.67,5 4.88,5 3.2,0 4.88,-2.5098 4.88,-5 0,-2.4801 -1.68,-5 -4.88,-5"
       style="fill:#00b2ff;fill-opacity:1;fill-rule:nonzero;stroke:none;stroke-width:0.1"
       id="path326" /><path
       d="m 1846.53,156 c 2.57,0 2.58,4 0,4 -2.58,0 -2.58,-4 0,-4"
       style="fill:#00b2ff;fill-opacity:1;fill-rule:nonzero;stroke:none;stroke-width:0.1"
       id="path328" /><path
       d="m 1846.53,158.5 c -0.22,0 -0.29,-0.071 -0.31,-0.103 -0.08,-0.086 -0.12,-0.24 -0.12,-0.398 0,-0.499 0.3,-0.499 0.43,-0.499 0.12,0 0.43,0 0.43,0.501 0,0.499 -0.3,0.499 -0.43,0.499 z m 0,-4 c -1.96,0 -3.43,1.504 -3.43,3.499 0,0.882 0.3,1.718 0.84,2.353 0.64,0.74 1.56,1.148 2.59,1.148 1.95,0 3.43,-1.504 3.43,-3.499 0,-0.882 -0.3,-1.718 -0.84,-2.353 -0.64,-0.74 -1.56,-1.148 -2.59,-1.148"
       style="fill:#00b2ff;fill-opacity:1;fill-rule:nonzero;stroke:none;stroke-width:0.1"
       id="path330" /><path
       d="m 858.528,822.5 c 4.504,0 4.512,7 0,7 -4.504,0 -4.511,-7 0,-7"
       style="fill:#00b2ff;fill-opacity:1;fill-rule:nonzero;stroke:none;stroke-width:0.1"
       id="path332" /><path
       d="m 858.528,828 c -1.828,0 -1.881,-1.797 -1.881,-2.002 0,-0.205 0.053,-1.998 1.881,-1.998 1.828,0 1.881,1.797 1.881,2.002 0,0.205 -0.053,1.998 -1.881,1.998 z m 0,-7 c -3.204,0 -4.881,2.514 -4.881,4.998 0,2.485 1.677,5.002 4.881,5.002 3.204,0 4.881,-2.514 4.881,-4.998 0,-2.485 -1.677,-5.002 -4.881,-5.002"
       style="fill:#00b2ff;fill-opacity:1;fill-rule:nonzero;stroke:none;stroke-width:0.1"
       id="path334" /><path
       d="m 989.973,975.667 c 3.86,0 3.867,5.999 0,5.999 -3.861,0 -3.868,-5.999 0,-5.999"
       style="fill:#00b2ff;fill-opacity:1;fill-rule:nonzero;stroke:none;stroke-width:0.1"
       id="path336" /><path
       d="m 989.973,980.166 c -1.33,0 -1.399,-1.25 -1.399,-1.501 0,-0.421 0.133,-0.816 0.363,-1.084 0.239,-0.279 0.579,-0.414 1.036,-0.414 1.33,0 1.398,1.25 1.398,1.501 0,0.25 -0.068,1.498 -1.398,1.498 z m 0,-5.999 c -2.887,0 -4.399,2.262 -4.399,4.498 0,2.237 1.512,4.501 4.399,4.501 1.327,0 2.503,-0.518 3.311,-1.459 0.7,-0.815 1.087,-1.895 1.087,-3.039 0,-2.237 -1.512,-4.501 -4.398,-4.501"
       style="fill:#00b2ff;fill-opacity:1;fill-rule:nonzero;stroke:none;stroke-width:0.1"
       id="path338" /><path
       d="m 962.861,1059.33 c 5.791,0 5.801,9 0,9 -5.791,0 -5.8,-9 0,-9"
       style="fill:#00b2ff;fill-opacity:1;fill-rule:nonzero;stroke:none;stroke-width:0.1"
       id="path340" /><path
       d="m 962.861,1066.83 c -2.101,0 -2.846,-1.61 -2.846,-3 0,-0.81 0.263,-1.58 0.724,-2.11 0.503,-0.59 1.217,-0.89 2.122,-0.89 2.102,0 2.848,1.62 2.848,3.01 0,1.38 -0.746,2.99 -2.848,2.99 z m 0,-9 c -3.838,0 -5.846,3.02 -5.846,6 0,2.98 2.008,6 5.846,6 1.769,0 3.33,-0.68 4.399,-1.92 0.933,-1.09 1.449,-2.54 1.449,-4.07 0,-2.99 -2.01,-6.01 -5.848,-6.01"
       style="fill:#00b2ff;fill-opacity:1;fill-rule:nonzero;stroke:none;stroke-width:0.1"
       id="path342" /><path
       d="m 1123.86,899.944 c 4.51,0 4.51,7 0,7 -4.5,0 -4.51,-7 0,-7"
       style="fill:#00b2ff;fill-opacity:1;fill-rule:nonzero;stroke:none;stroke-width:0.1"
       id="path344" /><path
       d="m 1123.86,905.444 c -1.83,0 -1.88,-1.797 -1.88,-2.002 0,-0.204 0.05,-1.998 1.88,-1.998 1.83,0 1.88,1.798 1.88,2.002 0,0.205 -0.05,1.998 -1.88,1.998 z m 0,-7 c -3.2,0 -4.88,2.514 -4.88,4.998 0,2.486 1.68,5.002 4.88,5.002 3.21,0 4.88,-2.514 4.88,-4.998 0,-2.485 -1.67,-5.002 -4.88,-5.002"
       style="fill:#00b2ff;fill-opacity:1;fill-rule:nonzero;stroke:none;stroke-width:0.1"
       id="path346" /><path
       d="m 1178.75,850.833 c 4.5,0 4.51,7 0,7 -4.5,0 -4.51,-7 0,-7"
       style="fill:#00b2ff;fill-opacity:1;fill-rule:nonzero;stroke:none;stroke-width:0.1"
       id="path348" /><path
       d="m 1178.75,856.333 c -1.83,0 -1.88,-1.797 -1.88,-2.001 0,-0.205 0.05,-1.999 1.88,-1.999 1.83,0 1.88,1.798 1.88,2.003 0,0.333 -0.09,1.997 -1.88,1.997 z m 0,-7 c -3.2,0 -4.88,2.515 -4.88,4.999 0,2.485 1.68,5.001 4.88,5.001 1.47,0 2.78,-0.573 3.67,-1.615 0.78,-0.906 1.21,-2.107 1.21,-3.382 0,-2.486 -1.67,-5.003 -4.88,-5.003"
       style="fill:#00b2ff;fill-opacity:1;fill-rule:nonzero;stroke:none;stroke-width:0.1"
       id="path350" /><path
       d="m 1189.68,990.781 c 4.51,0 4.52,7 0,7 -4.5,0 -4.51,-7 0,-7"
       style="fill:#00b2ff;fill-opacity:1;fill-rule:nonzero;stroke:none;stroke-width:0.1"
       id="path352" /><path
       d="m 1189.68,996.281 c -1.82,0 -1.88,-1.797 -1.88,-2.002 0,-0.204 0.06,-1.998 1.88,-1.998 1.83,0 1.89,1.798 1.89,2.002 0,0.205 -0.06,1.998 -1.89,1.998 z m 0,-7 c -3.2,0 -4.88,2.514 -4.88,4.998 0,2.486 1.68,5.002 4.88,5.002 3.21,0 4.89,-2.514 4.89,-4.998 0,-2.485 -1.68,-5.002 -4.89,-5.002"
       style="fill:#00b2ff;fill-opacity:1;fill-rule:nonzero;stroke:none;stroke-width:0.1"
       id="path354" /><path
       d="m 1552.47,866.806 c 4.51,0 4.51,7 0,7 -4.5,0 -4.51,-7 0,-7"
       style="fill:#00b2ff;fill-opacity:1;fill-rule:nonzero;stroke:none;stroke-width:0.1"
       id="path356" /><path
       d="m 1552.47,872.306 c -1.83,0 -1.88,-1.798 -1.88,-2.002 0,-0.205 0.05,-1.998 1.88,-1.998 1.83,0 1.88,1.797 1.88,2.002 0,0.334 -0.09,1.998 -1.88,1.998 z m 0,-7 c -3.2,0 -4.88,2.514 -4.88,4.998 0,2.485 1.68,5.002 4.88,5.002 1.48,0 2.78,-0.574 3.68,-1.616 0.77,-0.906 1.2,-2.107 1.2,-3.382 0,-2.486 -1.67,-5.002 -4.88,-5.002"
       style="fill:#00b2ff;fill-opacity:1;fill-rule:nonzero;stroke:none;stroke-width:0.1"
       id="path358" /><path
       d="m 1580.3,885.354 c 4.5,0 4.51,7 0,7 -4.51,0 -4.51,-7 0,-7"
       style="fill:#00b2ff;fill-opacity:1;fill-rule:nonzero;stroke:none;stroke-width:0.1"
       id="path360" /><path
       d="m 1580.3,890.854 c -1.83,0 -1.88,-1.797 -1.88,-2.002 0,-0.205 0.05,-1.998 1.88,-1.998 1.83,0 1.88,1.797 1.88,2.002 0,0.205 -0.05,1.998 -1.88,1.998 z m 0,-7 c -3.21,0 -4.88,2.514 -4.88,4.998 0,2.485 1.67,5.002 4.88,5.002 3.2,0 4.88,-2.514 4.88,-4.998 0,-2.485 -1.68,-5.002 -4.88,-5.002"
       style="fill:#00b2ff;fill-opacity:1;fill-rule:nonzero;stroke:none;stroke-width:0.1"
       id="path362" /><path
       d="m 1549.53,1058.5 c 5.15,0 5.15,8 0,8 -5.15,0 -5.16,-8 0,-8"
       style="fill:#00b2ff;fill-opacity:1;fill-rule:nonzero;stroke:none;stroke-width:0.1"
       id="path364" /><path
       d="m 1549.53,1065 c -0.75,0 -1.35,-0.24 -1.76,-0.73 -0.39,-0.45 -0.61,-1.09 -0.61,-1.77 0,-0.26 0.07,-2.5 2.37,-2.5 2.3,0 2.36,2.25 2.36,2.5 0,0.26 -0.06,2.5 -2.36,2.5 z m 0,-8 c -1.62,0 -3.06,0.63 -4.04,1.77 -0.85,1 -1.33,2.32 -1.33,3.73 0,2.73 1.85,5.5 5.37,5.5 3.52,0 5.36,-2.77 5.36,-5.5 0,-2.73 -1.84,-5.5 -5.36,-5.5"
       style="fill:#00b2ff;fill-opacity:1;fill-rule:nonzero;stroke:none;stroke-width:0.1"
       id="path366" /><path
       d="m 1641.69,885.5 c 5.15,0 5.16,8 0,8 -5.14,0 -5.15,-8 0,-8"
       style="fill:#00b2ff;fill-opacity:1;fill-rule:nonzero;stroke:none;stroke-width:0.1"
       id="path368" /><path
       d="m 1641.7,892 c -2.3,0 -2.37,-2.247 -2.37,-2.502 0,-0.256 0.07,-2.498 2.37,-2.498 2.29,0 2.36,2.247 2.36,2.502 0,0.256 -0.07,2.498 -2.36,2.498 z m 0,-8 c -3.53,0 -5.37,2.766 -5.37,5.498 0,1.406 0.47,2.73 1.33,3.728 0.98,1.144 2.41,1.774 4.04,1.774 3.52,0 5.36,-2.766 5.36,-5.498 0,-1.406 -0.47,-2.73 -1.33,-3.728 -0.98,-1.144 -2.41,-1.774 -4.03,-1.774"
       style="fill:#00b2ff;fill-opacity:1;fill-rule:nonzero;stroke:none;stroke-width:0.1"
       id="path370" /><path
       d="m 1665.09,858.25 c 4.5,0 4.51,7 0,7 -4.5,0 -4.51,-7 0,-7"
       style="fill:#00b2ff;fill-opacity:1;fill-rule:nonzero;stroke:none;stroke-width:0.1"
       id="path372" /><path
       d="m 1665.09,863.75 c -1.83,0 -1.88,-1.797 -1.88,-2.002 0,-0.205 0.05,-1.998 1.88,-1.998 1.83,0 1.88,1.797 1.88,2.002 0,0.205 -0.05,1.998 -1.88,1.998 z m 0,-7 c -3.2,0 -4.88,2.514 -4.88,4.998 0,2.485 1.68,5.002 4.88,5.002 3.2,0 4.88,-2.514 4.88,-4.998 0,-2.485 -1.68,-5.002 -4.88,-5.002"
       style="fill:#00b2ff;fill-opacity:1;fill-rule:nonzero;stroke:none;stroke-width:0.1"
       id="path374" /><path
       d="m 1750.53,736.5 c 4.5,0 4.51,7 0,7 -4.51,0 -4.51,-7 0,-7"
       style="fill:#00b2ff;fill-opacity:1;fill-rule:nonzero;stroke:none;stroke-width:0.1"
       id="path376" /><path
       d="m 1750.53,742 c -1.83,0 -1.88,-1.797 -1.88,-2.002 0,-0.205 0.05,-1.998 1.88,-1.998 1.83,0 1.88,1.797 1.88,2.002 0,0.205 -0.05,1.998 -1.88,1.998 z m 0,-7 c -3.21,0 -4.88,2.514 -4.88,4.998 0,2.485 1.67,5.002 4.88,5.002 3.2,0 4.88,-2.514 4.88,-4.998 0,-2.485 -1.68,-5.002 -4.88,-5.002"
       style="fill:#00b2ff;fill-opacity:1;fill-rule:nonzero;stroke:none;stroke-width:0.1"
       id="path378" /><path
       d="m 1784.36,900.5 c 4.51,0 4.51,7 0,7 -4.5,0 -4.51,-7 0,-7"
       style="fill:#00b2ff;fill-opacity:1;fill-rule:nonzero;stroke:none;stroke-width:0.1"
       id="path380" /><path
       d="m 1784.36,906 c -1.83,0 -1.88,-1.797 -1.88,-2.002 0,-0.205 0.05,-1.998 1.88,-1.998 1.83,0 1.88,1.797 1.88,2.002 0,0.205 -0.05,1.998 -1.88,1.998 z m 0,-7 c -3.2,0 -4.88,2.514 -4.88,4.998 0,2.485 1.68,5.002 4.88,5.002 3.21,0 4.88,-2.514 4.88,-4.998 0,-2.485 -1.67,-5.002 -4.88,-5.002"
       style="fill:#00b2ff;fill-opacity:1;fill-rule:nonzero;stroke:none;stroke-width:0.1"
       id="path382" /><path
       d="m 1896.03,799.5 c 4.5,0 4.51,7 0,7 -4.51,0 -4.51,-7 0,-7"
       style="fill:#00b2ff;fill-opacity:1;fill-rule:nonzero;stroke:none;stroke-width:0.1"
       id="path384" /><path
       d="m 1896.03,805 c -1.83,0 -1.88,-1.797 -1.88,-2.002 0,-0.205 0.05,-1.998 1.88,-1.998 1.83,0 1.88,1.797 1.88,2.002 0,0.205 -0.05,1.998 -1.88,1.998 z m 0,-7 c -3.21,0 -4.88,2.514 -4.88,4.998 0,2.485 1.67,5.002 4.88,5.002 3.2,0 4.88,-2.514 4.88,-4.998 0,-2.485 -1.68,-5.002 -4.88,-5.002"
       style="fill:#00b2ff;fill-opacity:1;fill-rule:nonzero;stroke:none;stroke-width:0.1"
       id="path386" /><path
       d="m 1785.03,1044.5 c 4.5,0 4.51,7 0,7 -4.51,0 -4.51,-7 0,-7"
       style="fill:#00b2ff;fill-opacity:1;fill-rule:nonzero;stroke:none;stroke-width:0.1"
       id="path388" /><path
       d="m 1785.03,1050 c -1.83,0 -1.88,-1.8 -1.88,-2 0,-0.21 0.05,-2 1.88,-2 1.83,0 1.88,1.8 1.88,2 0,0.21 -0.05,2 -1.88,2 z m 0,-7 c -3.21,0 -4.88,2.51 -4.88,5 0,2.48 1.67,5 4.88,5 3.2,0 4.88,-2.51 4.88,-5 0,-2.48 -1.68,-5 -4.88,-5"
       style="fill:#00b2ff;fill-opacity:1;fill-rule:nonzero;stroke:none;stroke-width:0.1"
       id="path390" /><path
       d="m 1891.31,984.945 c 4.5,0 4.51,7 0,7 -4.51,0 -4.52,-7 0,-7"
       style="fill:#00b2ff;fill-opacity:1;fill-rule:nonzero;stroke:none;stroke-width:0.1"
       id="path392" /><path
       d="m 1891.31,990.445 c -1.83,0 -1.88,-1.798 -1.88,-2.002 0,-0.205 0.05,-1.998 1.88,-1.998 1.82,0 1.88,1.797 1.88,2.001 0,0.205 -0.06,1.999 -1.88,1.999 z m 0,-7 c -3.21,0 -4.88,2.514 -4.88,4.998 0,2.485 1.67,5.002 4.88,5.002 3.2,0 4.88,-2.515 4.88,-4.999 0,-2.485 -1.68,-5.001 -4.88,-5.001"
       style="fill:#00b2ff;fill-opacity:1;fill-rule:nonzero;stroke:none;stroke-width:0.1"
       id="path394" /></g></svg>
