<svg version="1.1" viewBox="0.0 0.0 524.9763779527559 177.26509186351706" fill="none" stroke="none" stroke-linecap="square" stroke-miterlimit="10" xmlns:xlink="http://www.w3.org/1999/xlink" xmlns="http://www.w3.org/2000/svg"><clipPath id="p.0"><path d="m0 0l524.9764 0l0 177.26509l-524.9764 0l0 -177.26509z" clip-rule="nonzero"/></clipPath><g clip-path="url(#p.0)"><path fill="#000000" fill-opacity="0.0" d="m0 0l524.9764 0l0 177.26509l-524.9764 0z" fill-rule="evenodd"/><path fill="#000000" fill-opacity="0.0" d="m381.4357 72.14818l0 0c0 6.1424713 19.057861 11.121933 42.566925 11.121933c23.509064 0 42.566925 -4.9794617 42.566925 -11.121933l0 38.35456c0 6.1424713 -19.057861 11.121933 -42.566925 11.121933c-23.509064 0 -42.566925 -4.9794617 -42.566925 -11.121933z" fill-rule="evenodd"/><path fill="#000000" fill-opacity="0.0" d="m381.4357 72.14818l0 0c0 -6.1424713 19.057861 -11.121933 42.566925 -11.121933c23.509064 0 42.566925 4.9794617 42.566925 11.121933l0 0c0 6.1424713 -19.057861 11.121933 -42.566925 11.121933c-23.509064 0 -42.566925 -4.9794617 -42.566925 -11.121933z" fill-rule="evenodd"/><path fill="#000000" fill-opacity="0.0" d="m466.56955 72.14818l0 0c0 6.1424713 -19.057861 11.121933 -42.566925 11.121933c-23.509064 0 -42.566925 -4.9794617 -42.566925 -11.121933l0 0c0 -6.1424713 19.057861 -11.121933 42.566925 -11.121933c23.509064 0 42.566925 4.9794617 42.566925 11.121933l0 38.35456c0 6.1424713 -19.057861 11.121933 -42.566925 11.121933c-23.509064 0 -42.566925 -4.9794617 -42.566925 -11.121933l0 -38.35456" fill-rule="evenodd"/><path fill="#ffffff" fill-opacity="0.4" d="m381.4357 72.14818l0 0c0 -6.1424713 19.057861 -11.121933 42.566925 -11.121933c23.509064 0 42.566925 4.9794617 42.566925 11.121933l0 0c0 6.1424713 -19.057861 11.121933 -42.566925 11.121933c-23.509064 0 -42.566925 -4.9794617 -42.566925 -11.121933z" fill-rule="evenodd"/><path stroke="#ffffff" stroke-width="2.0" stroke-linejoin="round" stroke-linecap="butt" d="m466.56955 72.14818l0 0c0 6.1424713 -19.057861 11.121933 -42.566925 11.121933c-23.509064 0 -42.566925 -4.9794617 -42.566925 -11.121933l0 0c0 -6.1424713 19.057861 -11.121933 42.566925 -11.121933c23.509064 0 42.566925 4.9794617 42.566925 11.121933l0 38.35456c0 6.1424713 -19.057861 11.121933 -42.566925 11.121933c-23.509064 0 -42.566925 -4.9794617 -42.566925 -11.121933l0 -38.35456" fill-rule="evenodd"/><path fill="#000000" fill-opacity="0.0" d="m50.614174 28.712599l0 0c0 5.877268 19.057861 10.641733 42.566925 10.641733c23.509071 0 42.566933 -4.7644653 42.566933 -10.641733l0 82.27559c0 5.877266 -19.057861 10.641731 -42.566933 10.641731c-23.509064 0 -42.566925 -4.7644653 -42.566925 -10.641731z" fill-rule="evenodd"/><path fill="#000000" fill-opacity="0.0" d="m50.614174 28.712599l0 0c0 -5.877266 19.057861 -10.641733 42.566925 -10.641733c23.509071 0 42.566933 4.7644672 42.566933 10.641733l0 0c0 5.877268 -19.057861 10.641733 -42.566933 10.641733c-23.509064 0 -42.566925 -4.7644653 -42.566925 -10.641733z" fill-rule="evenodd"/><path fill="#000000" fill-opacity="0.0" d="m135.74803 28.712599l0 0c0 5.877268 -19.057861 10.641733 -42.566933 10.641733c-23.509064 0 -42.566925 -4.7644653 -42.566925 -10.641733l0 0c0 -5.877266 19.057861 -10.641733 42.566925 -10.641733c23.509071 0 42.566933 4.7644672 42.566933 10.641733l0 82.27559c0 5.877266 -19.057861 10.641731 -42.566933 10.641731c-23.509064 0 -42.566925 -4.7644653 -42.566925 -10.641731l0 -82.27559" fill-rule="evenodd"/><path fill="#ffffff" fill-opacity="0.4" d="m50.614174 28.712599l0 0c0 -5.877266 19.057861 -10.641733 42.566925 -10.641733c23.509071 0 42.566933 4.7644672 42.566933 10.641733l0 0c0 5.877268 -19.057861 10.641733 -42.566933 10.641733c-23.509064 0 -42.566925 -4.7644653 -42.566925 -10.641733z" fill-rule="evenodd"/><path stroke="#ffffff" stroke-width="2.0" stroke-linejoin="round" stroke-linecap="butt" d="m135.74803 28.712599l0 0c0 5.877268 -19.057861 10.641733 -42.566933 10.641733c-23.509064 0 -42.566925 -4.7644653 -42.566925 -10.641733l0 0c0 -5.877266 19.057861 -10.641733 42.566925 -10.641733c23.509071 0 42.566933 4.7644672 42.566933 10.641733l0 82.27559c0 5.877266 -19.057861 10.641731 -42.566933 10.641731c-23.509064 0 -42.566925 -4.7644653 -42.566925 -10.641731l0 -82.27559" fill-rule="evenodd"/><path fill="#000000" fill-opacity="0.0" d="m50.614174 10.591834l0 0c0 5.187997 19.057861 9.393701 42.566925 9.393701c23.509071 0 42.566933 -4.2057037 42.566933 -9.393701l0 18.7874c0 5.1879997 -19.057861 9.393703 -42.566933 9.393703c-23.509064 0 -42.566925 -4.2057037 -42.566925 -9.393703z" fill-rule="evenodd"/><path fill="#000000" fill-opacity="0.0" d="m50.614174 10.591834l0 0c0 -5.1879983 19.057861 -9.393702 42.566925 -9.393702c23.509071 0 42.566933 4.205703 42.566933 9.393702l0 0c0 5.187997 -19.057861 9.393701 -42.566933 9.393701c-23.509064 0 -42.566925 -4.2057037 -42.566925 -9.393701z" fill-rule="evenodd"/><path fill="#000000" fill-opacity="0.0" d="m135.74803 10.591834l0 0c0 5.187997 -19.057861 9.393701 -42.566933 9.393701c-23.509064 0 -42.566925 -4.2057037 -42.566925 -9.393701l0 0c0 -5.1879983 19.057861 -9.393702 42.566925 -9.393702c23.509071 0 42.566933 4.205703 42.566933 9.393702l0 18.7874c0 5.1879997 -19.057861 9.393703 -42.566933 9.393703c-23.509064 0 -42.566925 -4.2057037 -42.566925 -9.393703l0 -18.7874" fill-rule="evenodd"/><path fill="#ffffff" fill-opacity="0.4" d="m50.614174 10.591834l0 0c0 -5.1879983 19.057861 -9.393702 42.566925 -9.393702c23.509071 0 42.566933 4.205703 42.566933 9.393702l0 0c0 5.187997 -19.057861 9.393701 -42.566933 9.393701c-23.509064 0 -42.566925 -4.2057037 -42.566925 -9.393701z" fill-rule="evenodd"/><path stroke="#ffffff" stroke-width="2.0" stroke-linejoin="round" stroke-linecap="butt" stroke-dasharray="8.0,6.0" d="m135.74803 10.591834l0 0c0 5.187997 -19.057861 9.393701 -42.566933 9.393701c-23.509064 0 -42.566925 -4.2057037 -42.566925 -9.393701l0 0c0 -5.1879983 19.057861 -9.393702 42.566925 -9.393702c23.509071 0 42.566933 4.205703 42.566933 9.393702l0 18.7874c0 5.1879997 -19.057861 9.393703 -42.566933 9.393703c-23.509064 0 -42.566925 -4.2057037 -42.566925 -9.393703l0 -18.7874" fill-rule="evenodd"/><path fill="#000000" fill-opacity="0.0" d="m381.4357 42.23381l0 0c0 4.8719864 19.057861 8.821514 42.566925 8.821514c23.509064 0 42.566925 -3.9495277 42.566925 -8.821514l0 32.089256c0 4.871994 -19.057861 8.821518 -42.566925 8.821518c-23.509064 0 -42.566925 -3.949524 -42.566925 -8.821518z" fill-rule="evenodd"/><path fill="#000000" fill-opacity="0.0" d="m381.4357 42.23381l0 0c0 -4.8719864 19.057861 -8.82151 42.566925 -8.82151c23.509064 0 42.566925 3.949524 42.566925 8.82151l0 0c0 4.8719864 -19.057861 8.821514 -42.566925 8.821514c-23.509064 0 -42.566925 -3.9495277 -42.566925 -8.821514z" fill-rule="evenodd"/><path fill="#000000" fill-opacity="0.0" d="m466.56955 42.23381l0 0c0 4.8719864 -19.057861 8.821514 -42.566925 8.821514c-23.509064 0 -42.566925 -3.9495277 -42.566925 -8.821514l0 0c0 -4.8719864 19.057861 -8.82151 42.566925 -8.82151c23.509064 0 42.566925 3.949524 42.566925 8.82151l0 32.089256c0 4.871994 -19.057861 8.821518 -42.566925 8.821518c-23.509064 0 -42.566925 -3.949524 -42.566925 -8.821518l0 -32.089256" fill-rule="evenodd"/><path fill="#ffffff" fill-opacity="0.4" d="m381.4357 42.23381l0 0c0 -4.8719864 19.057861 -8.82151 42.566925 -8.82151c23.509064 0 42.566925 3.949524 42.566925 8.82151l0 0c0 4.8719864 -19.057861 8.821514 -42.566925 8.821514c-23.509064 0 -42.566925 -3.9495277 -42.566925 -8.821514z" fill-rule="evenodd"/><path stroke="#ffffff" stroke-width="4.0" stroke-linejoin="round" stroke-linecap="butt" d="m466.56955 42.23381l0 0c0 4.8719864 -19.057861 8.821514 -42.566925 8.821514c-23.509064 0 -42.566925 -3.9495277 -42.566925 -8.821514l0 0c0 -4.8719864 19.057861 -8.82151 42.566925 -8.82151c23.509064 0 42.566925 3.949524 42.566925 8.82151l0 32.089256c0 4.871994 -19.057861 8.821518 -42.566925 8.821518c-23.509064 0 -42.566925 -3.949524 -42.566925 -8.821518l0 -32.089256" fill-rule="evenodd"/><path fill="#000000" fill-opacity="0.0" d="m359.56168 137.40158l128.8819 0l0 38.771652l-128.8819 0z" fill-rule="evenodd"/><path fill="#ffffff" d="m381.1784 164.94908l0 -11.484375l1.28125 0l0 1.078125q0.453125 -0.640625 1.015625 -0.953125q0.578125 -0.3125 1.390625 -0.3125q1.0625 0 1.875 0.546875q0.8125 0.546875 1.21875 1.546875q0.421875 0.984375 0.421875 2.171875q0 1.28125 -0.46875 2.296875q-0.453125 1.015625 -1.328125 1.5625q-0.859375 0.546875 -1.828125 0.546875q-0.703125 0 -1.265625 -0.296875q-0.546875 -0.296875 -0.90625 -0.75l0 4.046875l-1.40625 0zm1.265625 -7.296875q0 1.609375 0.640625 2.375q0.65625 0.765625 1.578125 0.765625q0.9375 0 1.609375 -0.796875q0.671875 -0.796875 0.671875 -2.453125q0 -1.59375 -0.65625 -2.375q-0.65625 -0.796875 -1.5625 -0.796875q-0.890625 0 -1.59375 0.84375q-0.6875 0.84375 -0.6875 2.4375zm6.5390625 4.109375l4.40625 -11.453125l1.640625 0l4.6875 11.453125l-1.734375 0l-1.328125 -3.46875l-4.796875 0l-1.25 3.46875l-1.625 0zm3.3125 -4.703125l3.890625 0l-1.203125 -3.171875q-0.546875 -1.453125 -0.8125 -2.375q-0.21875 1.09375 -0.609375 2.1875l-1.265625 3.359375zm14.8203125 4.703125l0 -10.109375l-3.78125 0l0 -1.34375l9.078125 0l0 1.34375l-3.78125 0l0 10.109375l-1.515625 0zm4.375 -4.15625q0 -2.296875 1.28125 -3.40625q1.078125 -0.921875 2.609375 -0.921875q1.71875 0 2.796875 1.125q1.09375 1.109375 1.09375 3.09375q0 1.59375 -0.484375 2.515625q-0.484375 0.921875 -1.40625 1.4375q-0.90625 0.5 -2.0 0.5q-1.734375 0 -2.8125 -1.109375q-1.078125 -1.125 -1.078125 -3.234375zm1.453125 0q0 1.59375 0.6875 2.390625q0.703125 0.796875 1.75 0.796875q1.046875 0 1.734375 -0.796875q0.703125 -0.796875 0.703125 -2.4375q0 -1.53125 -0.703125 -2.328125q-0.6875 -0.796875 -1.734375 -0.796875q-1.046875 0 -1.75 0.796875q-0.6875 0.78125 -0.6875 2.375zm7.9765625 4.15625l0 -11.453125l1.40625 0l0 6.53125l3.328125 -3.375l1.828125 0l-3.171875 3.078125l3.484375 5.21875l-1.734375 0l-2.734375 -4.25l-1.0 0.953125l0 3.296875l-1.40625 0zm13.671875 -2.671875l1.453125 0.171875q-0.34375 1.28125 -1.28125 1.984375q-0.921875 0.703125 -2.359375 0.703125q-1.828125 0 -2.890625 -1.125q-1.0625 -1.125 -1.0625 -3.140625q0 -2.09375 1.078125 -3.25q1.078125 -1.15625 2.796875 -1.15625q1.65625 0 2.703125 1.140625q1.0625 1.125 1.0625 3.171875q0 0.125 0 0.375l-6.1875 0q0.078125 1.375 0.765625 2.109375q0.703125 0.71875 1.734375 0.71875q0.78125 0 1.328125 -0.40625q0.546875 -0.40625 0.859375 -1.296875zm-4.609375 -2.28125l4.625 0q-0.09375 -1.046875 -0.53125 -1.5625q-0.671875 -0.8125 -1.734375 -0.8125q-0.96875 0 -1.640625 0.65625q-0.65625 0.640625 -0.71875 1.71875zm7.8359375 4.953125l0 -8.296875l1.265625 0l0 1.171875q0.90625 -1.359375 2.640625 -1.359375q0.75 0 1.375 0.265625q0.625 0.265625 0.9375 0.703125q0.3125 0.4375 0.4375 1.046875q0.078125 0.390625 0.078125 1.359375l0 5.109375l-1.40625 0l0 -5.046875q0 -0.859375 -0.171875 -1.28125q-0.15625 -0.4375 -0.578125 -0.6875q-0.40625 -0.25 -0.96875 -0.25q-0.90625 0 -1.5625 0.578125q-0.640625 0.5625 -0.640625 2.15625l0 4.53125l-1.40625 0zm8.3359375 -2.484375l1.390625 -0.21875q0.109375 0.84375 0.640625 1.296875q0.546875 0.4375 1.5 0.4375q0.96875 0 1.4375 -0.390625q0.46875 -0.40625 0.46875 -0.9375q0 -0.46875 -0.40625 -0.75q-0.296875 -0.1875 -1.4375 -0.46875q-1.546875 -0.390625 -2.15625 -0.671875q-0.59375 -0.296875 -0.90625 -0.796875q-0.296875 -0.5 -0.296875 -1.109375q0 -0.5625 0.25 -1.03125q0.25 -0.46875 0.6875 -0.78125q0.328125 -0.25 0.890625 -0.40625q0.578125 -0.171875 1.21875 -0.171875q0.984375 0 1.71875 0.28125q0.734375 0.28125 1.078125 0.765625q0.359375 0.46875 0.5 1.28125l-1.375 0.1875q-0.09375 -0.640625 -0.546875 -1.0q-0.453125 -0.359375 -1.265625 -0.359375q-0.96875 0 -1.390625 0.328125q-0.40625 0.3125 -0.40625 0.734375q0 0.28125 0.171875 0.5q0.171875 0.21875 0.53125 0.375q0.21875 0.078125 1.25 0.359375q1.484375 0.390625 2.078125 0.65625q0.59375 0.25 0.921875 0.734375q0.34375 0.484375 0.34375 1.203125q0 0.703125 -0.421875 1.328125q-0.40625 0.609375 -1.1875 0.953125q-0.765625 0.34375 -1.734375 0.34375q-1.625 0 -2.46875 -0.671875q-0.84375 -0.671875 -1.078125 -2.0zm11.03125 2.484375l4.40625 -11.453125l1.640625 0l4.6875 11.453125l-1.734375 0l-1.328125 -3.46875l-4.796875 0l-1.25 3.46875l-1.625 0zm3.3125 -4.703125l3.890625 0l-1.203125 -3.171875q-0.546875 -1.453125 -0.8125 -2.375q-0.21875 1.09375 -0.609375 2.1875l-1.265625 3.359375z" fill-rule="nonzero"/><path fill="#000000" fill-opacity="0.0" d="m30.771654 137.40158l114.83464 0l0 38.771652l-114.83464 0z" fill-rule="evenodd"/><path fill="#ffffff" d="m44.481945 164.94908l0 -11.484375l1.28125 0l0 1.078125q0.453125 -0.640625 1.015625 -0.953125q0.578125 -0.3125 1.390625 -0.3125q1.0625 0 1.875 0.546875q0.8125 0.546875 1.21875 1.546875q0.421875 0.984375 0.421875 2.171875q0 1.28125 -0.46875 2.296875q-0.453125 1.015625 -1.328125 1.5625q-0.859375 0.546875 -1.828125 0.546875q-0.703125 0 -1.265625 -0.296875q-0.546875 -0.296875 -0.90625 -0.75l0 4.046875l-1.40625 0zm1.265625 -7.296875q0 1.609375 0.640625 2.375q0.65625 0.765625 1.578125 0.765625q0.9375 0 1.609375 -0.796875q0.671875 -0.796875 0.671875 -2.453125q0 -1.59375 -0.65625 -2.375q-0.65625 -0.796875 -1.5625 -0.796875q-0.890625 0 -1.59375 0.84375q-0.6875 0.84375 -0.6875 2.4375zm7.7421875 4.109375l0 -11.453125l4.296875 0q1.3125 0 2.109375 0.34375q0.796875 0.34375 1.234375 1.078125q0.453125 0.71875 0.453125 1.5q0 0.734375 -0.40625 1.390625q-0.390625 0.640625 -1.1875 1.046875q1.03125 0.296875 1.59375 1.03125q0.5625 0.734375 0.5625 1.734375q0 0.8125 -0.34375 1.5q-0.34375 0.6875 -0.84375 1.0625q-0.5 0.375 -1.25 0.578125q-0.75 0.1875 -1.84375 0.1875l-4.375 0zm1.515625 -6.640625l2.484375 0q1.0 0 1.4375 -0.140625q0.578125 -0.171875 0.875 -0.5625q0.296875 -0.40625 0.296875 -1.0q0 -0.578125 -0.28125 -1.0q-0.265625 -0.4375 -0.78125 -0.59375q-0.5 -0.171875 -1.734375 -0.171875l-2.296875 0l0 3.46875zm0 5.28125l2.859375 0q0.734375 0 1.03125 -0.046875q0.515625 -0.09375 0.859375 -0.3125q0.359375 -0.21875 0.578125 -0.640625q0.234375 -0.421875 0.234375 -0.96875q0 -0.640625 -0.328125 -1.109375q-0.328125 -0.46875 -0.90625 -0.65625q-0.578125 -0.203125 -1.671875 -0.203125l-2.65625 0l0 3.9375zm16.296879 1.359375l0 -10.109375l-3.78125 0l0 -1.34375l9.078125 0l0 1.34375l-3.78125 0l0 10.109375l-1.515625 0zm4.375 -4.15625q0 -2.296875 1.28125 -3.40625q1.078125 -0.921875 2.609375 -0.921875q1.71875 0 2.796875 1.125q1.09375 1.109375 1.09375 3.09375q0 1.59375 -0.484375 2.515625q-0.484375 0.921875 -1.40625 1.4375q-0.90625 0.5 -2.0 0.5q-1.734375 0 -2.8125 -1.109375q-1.078125 -1.125 -1.078125 -3.234375zm1.453125 0q0 1.59375 0.6875 2.390625q0.703125 0.796875 1.75 0.796875q1.046875 0 1.734375 -0.796875q0.703125 -0.796875 0.703125 -2.4375q0 -1.53125 -0.703125 -2.328125q-0.6875 -0.796875 -1.734375 -0.796875q-1.046875 0 -1.75 0.796875q-0.6875 0.78125 -0.6875 2.375zm7.9765625 4.15625l0 -11.453125l1.40625 0l0 6.53125l3.328125 -3.375l1.828125 0l-3.171875 3.078125l3.484375 5.21875l-1.734375 0l-2.734375 -4.25l-1.0 0.953125l0 3.296875l-1.40625 0zm13.671875 -2.671875l1.453125 0.171875q-0.34375 1.28125 -1.28125 1.984375q-0.921875 0.703125 -2.359375 0.703125q-1.828125 0 -2.890625 -1.125q-1.0625 -1.125 -1.0625 -3.140625q0 -2.09375 1.078125 -3.25q1.078125 -1.15625 2.796875 -1.15625q1.65625 0 2.703125 1.140625q1.0625 1.125 1.0625 3.171875q0 0.125 0 0.375l-6.1875 0q0.078125 1.375 0.765625 2.109375q0.703125 0.71875 1.734375 0.71875q0.78125 0 1.328125 -0.40625q0.546875 -0.40625 0.859375 -1.296875zm-4.609375 -2.28125l4.625 0q-0.09375 -1.046875 -0.53125 -1.5625q-0.671875 -0.8125 -1.734375 -0.8125q-0.96875 0 -1.640625 0.65625q-0.65625 0.640625 -0.71875 1.71875zm7.8359375 4.953125l0 -8.296875l1.265625 0l0 1.171875q0.90625 -1.359375 2.640625 -1.359375q0.75 0 1.375 0.265625q0.625 0.265625 0.9375 0.703125q0.3125 0.4375 0.4375 1.046875q0.078125 0.390625 0.078125 1.359375l0 5.109375l-1.40625 0l0 -5.046875q0 -0.859375 -0.171875 -1.28125q-0.15625 -0.4375 -0.578125 -0.6875q-0.40625 -0.25 -0.96875 -0.25q-0.90625 0 -1.5625 0.578125q-0.640625 0.5625 -0.640625 2.15625l0 4.53125l-1.40625 0zm8.3359375 -2.484375l1.390625 -0.21875q0.109375 0.84375 0.640625 1.296875q0.546875 0.4375 1.5 0.4375q0.96875 0 1.4375 -0.390625q0.46875 -0.40625 0.46875 -0.9375q0 -0.46875 -0.40625 -0.75q-0.296875 -0.1875 -1.4375 -0.46875q-1.546875 -0.390625 -2.15625 -0.671875q-0.59375 -0.296875 -0.90625 -0.796875q-0.296875 -0.5 -0.296875 -1.109375q0 -0.5625 0.25 -1.03125q0.25 -0.46875 0.6875 -0.78125q0.328125 -0.25 0.890625 -0.40625q0.578125 -0.171875 1.21875 -0.171875q0.984375 0 1.71875 0.28125q0.734375 0.28125 1.078125 0.765625q0.359375 0.46875 0.5 1.28125l-1.375 0.1875q-0.09375 -0.640625 -0.546875 -1.0q-0.453125 -0.359375 -1.265625 -0.359375q-0.96875 0 -1.390625 0.328125q-0.40625 0.3125 -0.40625 0.734375q0 0.28125 0.171875 0.5q0.171875 0.21875 0.53125 0.375q0.21875 0.078125 1.25 0.359375q1.484375 0.390625 2.078125 0.65625q0.59375 0.25 0.921875 0.734375q0.34375 0.484375 0.34375 1.203125q0 0.703125 -0.421875 1.328125q-0.40625 0.609375 -1.1875 0.953125q-0.765625 0.34375 -1.734375 0.34375q-1.625 0 -2.46875 -0.671875q-0.84375 -0.671875 -1.078125 -2.0zm13.1171875 2.484375l0 -11.453125l4.296875 0q1.3125 0 2.109375 0.34375q0.796875 0.34375 1.234375 1.078125q0.453125 0.71875 0.453125 1.5q0 0.734375 -0.40625 1.390625q-0.390625 0.640625 -1.1875 1.046875q1.03125 0.296875 1.59375 1.03125q0.5625 0.734375 0.5625 1.734375q0 0.8125 -0.34375 1.5q-0.34375 0.6875 -0.84375 1.0625q-0.5 0.375 -1.25 0.578125q-0.75 0.1875 -1.84375 0.1875l-4.375 0zm1.515625 -6.640625l2.484375 0q1.0 0 1.4375 -0.140625q0.578125 -0.171875 0.875 -0.5625q0.296875 -0.40625 0.296875 -1.0q0 -0.578125 -0.28125 -1.0q-0.265625 -0.4375 -0.78125 -0.59375q-0.5 -0.171875 -1.734375 -0.171875l-2.296875 0l0 3.46875zm0 5.28125l2.859375 0q0.734375 0 1.03125 -0.046875q0.515625 -0.09375 0.859375 -0.3125q0.359375 -0.21875 0.578125 -0.640625q0.234375 -0.421875 0.234375 -0.96875q0 -0.640625 -0.328125 -1.109375q-0.328125 -0.46875 -0.90625 -0.65625q-0.578125 -0.203125 -1.671875 -0.203125l-2.65625 0l0 3.9375z" fill-rule="nonzero"/><path fill="#000000" fill-opacity="0.0" d="m244.00645 40.5764l0 0c0 -8.055416 6.5302124 -14.585621 14.585617 -14.585621l0 0c3.8683472 0 7.5782776 1.5366955 10.313599 4.27203c2.7353516 2.7353363 4.2720337 6.445244 4.2720337 10.313591l0 0c0 8.055416 -6.5302124 14.585625 -14.585632 14.585625l0 0c-8.055405 0 -14.585617 -6.5302086 -14.585617 -14.585625z" fill-rule="evenodd"/><path stroke="#ffffff" stroke-width="2.0" stroke-linejoin="round" stroke-linecap="butt" d="m244.00645 40.5764l0 0c0 -8.055416 6.5302124 -14.585621 14.585617 -14.585621l0 0c3.8683472 0 7.5782776 1.5366955 10.313599 4.27203c2.7353516 2.7353363 4.2720337 6.445244 4.2720337 10.313591l0 0c0 8.055416 -6.5302124 14.585625 -14.585632 14.585625l0 0c-8.055405 0 -14.585617 -6.5302086 -14.585617 -14.585625z" fill-rule="evenodd"/><path fill="#000000" fill-opacity="0.0" d="m236.73425 91.29363c-4.121765 -9.892975 -1.0849457 -21.320984 7.4041443 -27.8628c8.48909 -6.5418167 20.31369 -6.56625 28.829742 -0.059570312c8.516052 6.5066833 11.600067 17.922043 7.519226 27.83197z" fill-rule="evenodd"/><path stroke="#ffffff" stroke-width="2.0" stroke-linejoin="round" stroke-linecap="butt" d="m236.73425 91.29363c-4.121765 -9.892975 -1.0849457 -21.320984 7.4041443 -27.8628c8.48909 -6.5418167 20.31369 -6.56625 28.829742 -0.059570312c8.516052 6.5066833 11.600067 17.922043 7.519226 27.83197z" fill-rule="evenodd"/><path fill="#000000" fill-opacity="0.0" d="m227.67848 137.40027l61.826767 0l0 38.771652l-61.826767 0z" fill-rule="evenodd"/><path fill="#ffffff" d="m250.45123 150.30714l1.515625 0l0 6.609375q0 1.734375 -0.390625 2.75q-0.390625 1.015625 -1.40625 1.65625q-1.015625 0.640625 -2.671875 0.640625q-1.609375 0 -2.640625 -0.5625q-1.015625 -0.5625 -1.453125 -1.609375q-0.4375 -1.046875 -0.4375 -2.875l0 -6.609375l1.515625 0l0 6.609375q0 1.484375 0.265625 2.203125q0.28125 0.703125 0.953125 1.09375q0.6875 0.375 1.65625 0.375q1.671875 0 2.375 -0.75q0.71875 -0.765625 0.71875 -2.921875l0 -6.609375zm3.3046875 8.96875l1.390625 -0.21875q0.109375 0.84375 0.640625 1.296875q0.546875 0.4375 1.5 0.4375q0.96875 0 1.4375 -0.390625q0.46875 -0.40625 0.46875 -0.9375q0 -0.46875 -0.40625 -0.75q-0.296875 -0.1875 -1.4375 -0.46875q-1.546875 -0.390625 -2.15625 -0.671875q-0.59375 -0.296875 -0.90625 -0.796875q-0.296875 -0.5 -0.296875 -1.109375q0 -0.5625 0.25 -1.03125q0.25 -0.46875 0.6875 -0.78125q0.328125 -0.25 0.890625 -0.40625q0.578125 -0.171875 1.21875 -0.171875q0.984375 0 1.71875 0.28125q0.734375 0.28125 1.078125 0.765625q0.359375 0.46875 0.5 1.28125l-1.375 0.1875q-0.09375 -0.640625 -0.546875 -1.0q-0.453125 -0.359375 -1.265625 -0.359375q-0.96875 0 -1.390625 0.328125q-0.40625 0.3125 -0.40625 0.734375q0 0.28125 0.171875 0.5q0.171875 0.21875 0.53125 0.375q0.21875 0.078125 1.25 0.359375q1.484375 0.390625 2.078125 0.65625q0.59375 0.25 0.921875 0.734375q0.34375 0.484375 0.34375 1.203125q0 0.703125 -0.421875 1.328125q-0.40625 0.609375 -1.1875 0.953125q-0.765625 0.34375 -1.734375 0.34375q-1.625 0 -2.46875 -0.671875q-0.84375 -0.671875 -1.078125 -2.0zm14.234375 -0.1875l1.453125 0.171875q-0.34375 1.28125 -1.28125 1.984375q-0.921875 0.703125 -2.359375 0.703125q-1.828125 0 -2.890625 -1.125q-1.0625 -1.125 -1.0625 -3.140625q0 -2.09375 1.078125 -3.25q1.078125 -1.15625 2.796875 -1.15625q1.65625 0 2.703125 1.140625q1.0625 1.125 1.0625 3.171875q0 0.125 0 0.375l-6.1875 0q0.078125 1.375 0.765625 2.109375q0.703125 0.71875 1.734375 0.71875q0.78125 0 1.328125 -0.40625q0.546875 -0.40625 0.859375 -1.296875zm-4.609375 -2.28125l4.625 0q-0.09375 -1.046875 -0.53125 -1.5625q-0.671875 -0.8125 -1.734375 -0.8125q-0.96875 0 -1.640625 0.65625q-0.65625 0.640625 -0.71875 1.71875zm7.8203125 4.953125l0 -8.296875l1.265625 0l0 1.25q0.484375 -0.875 0.890625 -1.15625q0.40625 -0.28125 0.90625 -0.28125q0.703125 0 1.4375 0.453125l-0.484375 1.296875q-0.515625 -0.296875 -1.03125 -0.296875q-0.453125 0 -0.828125 0.28125q-0.359375 0.265625 -0.515625 0.765625q-0.234375 0.75 -0.234375 1.640625l0 4.34375l-1.40625 0z" fill-rule="nonzero"/><path fill="#000000" fill-opacity="0.0" d="m163.47769 56.425198l29.13385 0l0 -7.6692924l15.338593 15.338585l-15.338593 15.338577l0 -7.6692886l-29.13385 0z" fill-rule="evenodd"/><path stroke="#ffffff" stroke-width="2.0" stroke-linejoin="round" stroke-linecap="butt" d="m163.47769 56.425198l29.13385 0l0 -7.6692924l15.338593 15.338585l-15.338593 15.338577l0 -7.6692886l-29.13385 0z" fill-rule="evenodd"/><path fill="#000000" fill-opacity="0.0" d="m313.5013 56.425198l29.13385 0l0 -7.6692924l15.338593 15.338585l-15.338593 15.338577l0 -7.6692886l-29.13385 0z" fill-rule="evenodd"/><path stroke="#ffffff" stroke-width="2.0" stroke-linejoin="round" stroke-linecap="butt" d="m313.5013 56.425198l29.13385 0l0 -7.6692924l15.338593 15.338585l-15.338593 15.338577l0 -7.6692886l-29.13385 0z" fill-rule="evenodd"/><path fill="#000000" fill-opacity="0.0" d="m0 0l50.614174 0l0 38.771652l-50.614174 0z" fill-rule="evenodd"/><path fill="#ffffff" d="m21.86568 27.5475l0 -4.078125q-0.328125 0.46875 -0.921875 0.78125q-0.578125 0.296875 -1.25 0.296875q-1.46875 0 -2.546875 -1.171875q-1.0625 -1.1875 -1.0625 -3.25q0 -1.25 0.4375 -2.234375q0.4375 -1.0 1.25 -1.5q0.828125 -0.515625 1.8125 -0.515625q1.546875 0 2.421875 1.296875l0 -1.109375l1.265625 0l0 11.484375l-1.40625 0zm-4.328125 -7.359375q0 1.59375 0.671875 2.40625q0.671875 0.796875 1.609375 0.796875q0.890625 0 1.53125 -0.765625q0.65625 -0.765625 0.65625 -2.3125q0 -1.65625 -0.6875 -2.484375q-0.671875 -0.84375 -1.59375 -0.84375q-0.921875 0 -1.5625 0.78125q-0.625 0.765625 -0.625 2.421875zm6.8515625 4.171875l4.40625 -11.453125l1.640625 0l4.6875 11.453125l-1.734375 0l-1.328125 -3.46875l-4.796875 0l-1.25 3.46875l-1.625 0zm3.3125 -4.703125l3.890625 0l-1.203125 -3.171875q-0.546875 -1.453125 -0.8125 -2.375q-0.21875 1.09375 -0.609375 2.1875l-1.265625 3.359375z" fill-rule="nonzero"/><path fill="#000000" fill-opacity="0.0" d="m474.07874 33.412075l50.614197 0l0 38.77165l-50.614197 0z" fill-rule="evenodd"/><path fill="#ffffff" d="m495.94443 60.959576l0 -4.078125q-0.328125 0.46875 -0.921875 0.78125q-0.578125 0.296875 -1.25 0.296875q-1.46875 0 -2.546875 -1.171875q-1.0625 -1.1875 -1.0625 -3.25q0 -1.25 0.4375 -2.234375q0.4375 -1.0 1.25 -1.5q0.828125 -0.515625 1.8125 -0.515625q1.546875 0 2.421875 1.296875l0 -1.109375l1.265625 0l0 11.484375l-1.40625 0zm-4.328125 -7.359375q0 1.59375 0.671875 2.40625q0.671875 0.796875 1.609375 0.796875q0.890625 0 1.53125 -0.765625q0.65625 -0.765625 0.65625 -2.3125q0 -1.65625 -0.6875 -2.484375q-0.671875 -0.84375 -1.59375 -0.84375q-0.921875 0 -1.5625 0.78125q-0.625 0.765625 -0.625 2.421875zm8.0546875 4.171875l0 -11.453125l4.296875 0q1.3125 0 2.109375 0.34375q0.796875 0.34375 1.234375 1.078125q0.453125 0.71875 0.453125 1.5q0 0.734375 -0.40625 1.390625q-0.390625 0.640625 -1.1875 1.046875q1.03125 0.296875 1.59375 1.03125q0.5625 0.734375 0.5625 1.734375q0 0.8125 -0.34375 1.5q-0.34375 0.6875 -0.84375 1.0625q-0.5 0.375 -1.25 0.578125q-0.75 0.1875 -1.84375 0.1875l-4.375 0zm1.515625 -6.640625l2.484375 0q1.0 0 1.4375 -0.140625q0.578125 -0.171875 0.875 -0.5625q0.296875 -0.40625 0.296875 -1.0q0 -0.578125 -0.28125 -1.0q-0.265625 -0.4375 -0.78125 -0.59375q-0.5 -0.171875 -1.734375 -0.171875l-2.296875 0l0 3.46875zm0 5.28125l2.859375 0q0.734375 0 1.03125 -0.046875q0.515625 -0.09375 0.859375 -0.3125q0.359375 -0.21875 0.578125 -0.640625q0.234375 -0.421875 0.234375 -0.96875q0 -0.640625 -0.328125 -1.109375q-0.328125 -0.46875 -0.90625 -0.65625q-0.578125 -0.203125 -1.671875 -0.203125l-2.65625 0l0 3.9375z" fill-rule="nonzero"/><path fill="#000000" fill-opacity="0.0" d="m143.14699 8.598425l85.13385 0l0 38.771652l-85.13385 0z" fill-rule="evenodd"/><path fill="#ffffff" d="m154.74074 32.958427l-2.546875 -8.296877l1.453125 0l1.328125 4.78125l0.484375 1.78125q0.03125 -0.125 0.4375 -1.703125l1.3125 -4.859375l1.453125 0l1.234375 4.8125l0.421875 1.578125l0.46875 -1.59375l1.421875 -4.796875l1.375 0l-2.59375 8.296877l-1.46875 0l-1.3125 -4.968752l-0.328125 -1.421875l-1.671875 6.390627l-1.46875 0zm10.0234375 -9.843752l0 -1.609375l1.40625 0l0 1.609375l-1.40625 0zm0 9.843752l0 -8.296877l1.40625 0l0 8.296877l-1.40625 0zm6.6171875 -1.2656269l0.203125 1.2500019q-0.59375 0.125 -1.0625 0.125q-0.765625 0 -1.1875 -0.234375q-0.421875 -0.25 -0.59375 -0.640625q-0.171875 -0.4062519 -0.171875 -1.6718769l0 -4.765625l-1.03125 0l0 -1.09375l1.03125 0l0 -2.0625l1.40625 -0.84375l0 2.90625l1.40625 0l0 1.09375l-1.40625 0l0 4.84375q0 0.609375 0.0625 0.78125q0.078125 0.171875 0.25 0.28125q0.171875 0.09375 0.484375 0.09375q0.234375 0 0.609375 -0.0625zm1.3828125 1.2656269l0 -11.453127l1.40625 0l0 4.109375q0.984375 -1.140625 2.484375 -1.140625q0.921875 0 1.59375 0.359375q0.6875 0.359375 0.96875 1.0q0.296875 0.640625 0.296875 1.859375l0 5.265627l-1.40625 0l0 -5.265627q0 -1.046875 -0.453125 -1.53125q-0.453125 -0.484375 -1.296875 -0.484375q-0.625 0 -1.171875 0.328125q-0.546875 0.328125 -0.78125 0.890625q-0.234375 0.546875 -0.234375 1.515625l0 4.546877l-1.40625 0zm14.2734375 0l0 -1.0468769q-0.78125 1.2343769 -2.3125 1.2343769q-1.0 0 -1.828125 -0.546875q-0.828125 -0.546875 -1.296875 -1.5312519q-0.453125 -0.984375 -0.453125 -2.25q0 -1.25 0.40625 -2.25q0.421875 -1.015625 1.25 -1.546875q0.828125 -0.546875 1.859375 -0.546875q0.75 0 1.328125 0.3125q0.59375 0.3125 0.953125 0.828125l0 -4.109375l1.40625 0l0 11.453127l-1.3125 0zm-4.4375 -4.140627q0 1.59375 0.671875 2.390625q0.671875 0.78125 1.578125 0.78125q0.921875 0 1.5625 -0.75q0.65625 -0.765625 0.65625 -2.3125q0 -1.703125 -0.65625 -2.5q-0.65625 -0.796875 -1.625 -0.796875q-0.9375 0 -1.5625 0.765625q-0.625 0.765625 -0.625 2.421875zm7.9453125 4.140627l0 -8.296877l1.265625 0l0 1.25q0.484375 -0.875 0.890625 -1.15625q0.40625 -0.28125 0.90625 -0.28125q0.703125 0 1.4375 0.453125l-0.484375 1.296875q-0.515625 -0.296875 -1.03125 -0.296875q-0.453125 0 -0.828125 0.28125q-0.359375 0.265625 -0.515625 0.765625q-0.234375 0.75 -0.234375 1.640625l0 4.343752l-1.40625 0zm10.75 -1.0312519q-0.78125 0.6718769 -1.5 0.9531269q-0.71875 0.265625 -1.546875 0.265625q-1.375 0 -2.109375 -0.671875q-0.734375 -0.6718769 -0.734375 -1.7031269q0 -0.609375 0.28125 -1.109375q0.28125 -0.515625 0.71875 -0.8125q0.453125 -0.3125 1.015625 -0.46875q0.421875 -0.109375 1.25 -0.203125q1.703125 -0.203125 2.515625 -0.484375q0 -0.296875 0 -0.375q0 -0.859375 -0.390625 -1.203125q-0.546875 -0.484375 -1.609375 -0.484375q-0.984375 0 -1.46875 0.359375q-0.46875 0.34375 -0.6875 1.21875l-1.375 -0.1875q0.1875 -0.875 0.609375 -1.421875q0.4375 -0.546875 1.25 -0.828125q0.8125 -0.296875 1.875 -0.296875q1.0625 0 1.71875 0.25q0.671875 0.25 0.984375 0.625q0.3125 0.375 0.4375 0.953125q0.078125 0.359375 0.078125 1.296875l0 1.875q0 1.96875 0.078125 2.484375q0.09375 0.5156269 0.359375 1.0000019l-1.46875 0q-0.21875 -0.4375 -0.28125 -1.0312519zm-0.109375 -3.140625q-0.765625 0.3125 -2.296875 0.53125q-0.875 0.125 -1.234375 0.28125q-0.359375 0.15625 -0.5625 0.46875q-0.1875 0.296875 -0.1875 0.65625q0 0.5625 0.421875 0.9375q0.4375 0.3750019 1.25 0.3750019q0.8125 0 1.4375 -0.3437519q0.640625 -0.359375 0.9375 -0.984375q0.234375 -0.46875 0.234375 -1.40625l0 -0.515625zm5.1328125 4.171877l-2.546875 -8.296877l1.453125 0l1.328125 4.78125l0.484375 1.78125q0.03125 -0.125 0.4375 -1.703125l1.3125 -4.859375l1.453125 0l1.234375 4.8125l0.421875 1.578125l0.46875 -1.59375l1.421875 -4.796875l1.375 0l-2.59375 8.296877l-1.46875 0l-1.3125 -4.968752l-0.328125 -1.421875l-1.671875 6.390627l-1.46875 0z" fill-rule="nonzero"/><path fill="#000000" fill-opacity="0.0" d="m288.79266 8.598425l85.13385 0l0 38.771652l-85.13385 0z" fill-rule="evenodd"/><path fill="#ffffff" d="m318.26584 29.91155l1.390625 0.1875q-0.234375 1.421875 -1.171875 2.234377q-0.921875 0.8125 -2.28125 0.8125q-1.703125 0 -2.75 -1.109375q-1.03125 -1.1250019 -1.03125 -3.203127q0 -1.34375 0.4375 -2.34375q0.453125 -1.015625 1.359375 -1.515625q0.921875 -0.5 1.984375 -0.5q1.359375 0 2.21875 0.6875q0.859375 0.671875 1.09375 1.9375l-1.359375 0.203125q-0.203125 -0.828125 -0.703125 -1.25q-0.484375 -0.421875 -1.1875 -0.421875q-1.0625 0 -1.734375 0.765625q-0.65625 0.75 -0.65625 2.40625q0 1.671875 0.640625 2.4375q0.640625 0.75 1.671875 0.75q0.828125 0 1.375 -0.5q0.5625 -0.515625 0.703125 -1.578125zm2.578125 3.046877l0 -8.296877l1.265625 0l0 1.25q0.484375 -0.875 0.890625 -1.15625q0.40625 -0.28125 0.90625 -0.28125q0.703125 0 1.4375 0.453125l-0.484375 1.296875q-0.515625 -0.296875 -1.03125 -0.296875q-0.453125 0 -0.828125 0.28125q-0.359375 0.265625 -0.515625 0.765625q-0.234375 0.75 -0.234375 1.640625l0 4.343752l-1.40625 0zm11.015625 -2.671877l1.453125 0.171875q-0.34375 1.28125 -1.28125 1.9843769q-0.921875 0.703125 -2.359375 0.703125q-1.828125 0 -2.890625 -1.125q-1.0625 -1.1250019 -1.0625 -3.140627q0 -2.09375 1.078125 -3.25q1.078125 -1.15625 2.796875 -1.15625q1.65625 0 2.703125 1.140625q1.0625 1.125 1.0625 3.171875q0 0.125 0 0.375l-6.1875 0q0.078125 1.375 0.765625 2.109375q0.703125 0.71875 1.734375 0.71875q0.78125 0 1.328125 -0.40625q0.546875 -0.40625 0.859375 -1.296875zm-4.609375 -2.28125l4.625 0q-0.09375 -1.046875 -0.53125 -1.5625q-0.671875 -0.8125 -1.734375 -0.8125q-0.96875 0 -1.640625 0.65625q-0.65625 0.640625 -0.71875 1.71875zm13.2109375 4.953127l0 -1.0468769q-0.78125 1.2343769 -2.3125 1.2343769q-1.0 0 -1.828125 -0.546875q-0.828125 -0.546875 -1.296875 -1.5312519q-0.453125 -0.984375 -0.453125 -2.25q0 -1.25 0.40625 -2.25q0.421875 -1.015625 1.25 -1.546875q0.828125 -0.546875 1.859375 -0.546875q0.75 0 1.328125 0.3125q0.59375 0.3125 0.953125 0.828125l0 -4.109375l1.40625 0l0 11.453127l-1.3125 0zm-4.4375 -4.140627q0 1.59375 0.671875 2.390625q0.671875 0.78125 1.578125 0.78125q0.921875 0 1.5625 -0.75q0.65625 -0.765625 0.65625 -2.3125q0 -1.703125 -0.65625 -2.5q-0.65625 -0.796875 -1.625 -0.796875q-0.9375 0 -1.5625 0.765625q-0.625 0.765625 -0.625 2.421875zm7.9609375 -5.703125l0 -1.609375l1.40625 0l0 1.609375l-1.40625 0zm0 9.843752l0 -8.296877l1.40625 0l0 8.296877l-1.40625 0zm6.6171875 -1.2656269l0.203125 1.2500019q-0.59375 0.125 -1.0625 0.125q-0.765625 0 -1.1875 -0.234375q-0.421875 -0.25 -0.59375 -0.640625q-0.171875 -0.4062519 -0.171875 -1.6718769l0 -4.765625l-1.03125 0l0 -1.09375l1.03125 0l0 -2.0625l1.40625 -0.84375l0 2.90625l1.40625 0l0 1.09375l-1.40625 0l0 4.84375q0 0.609375 0.0625 0.78125q0.078125 0.171875 0.25 0.28125q0.171875 0.09375 0.484375 0.09375q0.234375 0 0.609375 -0.0625z" fill-rule="nonzero"/></g></svg>