<svg version="1.1" viewBox="0.0 0.0 509.37270341207346 349.2309711286089" fill="none" stroke="none" stroke-linecap="square" stroke-miterlimit="10" xmlns:xlink="http://www.w3.org/1999/xlink" xmlns="http://www.w3.org/2000/svg"><clipPath id="p.0"><path d="m0 0l509.3727 0l0 349.23096l-509.3727 0l0 -349.23096z" clip-rule="nonzero"/></clipPath><g clip-path="url(#p.0)"><path fill="#000000" fill-opacity="0.0" d="m0 0l509.3727 0l0 349.23096l-509.3727 0z" fill-rule="evenodd"/><path fill="#000000" fill-opacity="0.0" d="m222.83768 116.117294l61.826782 0l0 50.05992l-19.955841 19.955826l-41.87094 0z" fill-rule="evenodd"/><path fill="#000000" fill-opacity="0.0" d="m264.70862 186.13304l3.9911804 -15.964661l15.964661 -3.9911652z" fill-rule="evenodd"/><path fill="#000000" fill-opacity="0.0" d="m264.70862 186.13304l3.9911804 -15.964661l15.964661 -3.9911652l-19.955841 19.955826l-41.87094 0l0 -70.01575l61.826782 0l0 50.05992" fill-rule="evenodd"/><path fill="#000000" fill-opacity="0.2" d="m264.70862 186.13304l3.9911804 -15.964661l15.964661 -3.9911652z" fill-rule="evenodd"/><path stroke="#ffffff" stroke-width="2.0" stroke-linejoin="round" stroke-linecap="butt" d="m264.70862 186.13304l3.9911804 -15.964661l15.964661 -3.9911652l-19.955841 19.955826l-41.87094 0l0 -70.01575l61.826782 0l0 50.05992" fill-rule="evenodd"/><path fill="#000000" fill-opacity="0.0" d="m234.57841 134.3313l39.086624 0" fill-rule="evenodd"/><path stroke="#ffffff" stroke-width="1.0" stroke-linejoin="round" stroke-linecap="butt" d="m234.57841 134.3313l39.086624 0" fill-rule="evenodd"/><path fill="#000000" fill-opacity="0.0" d="m234.57841 145.56227l39.086624 0" fill-rule="evenodd"/><path stroke="#ffffff" stroke-width="1.0" stroke-linejoin="round" stroke-linecap="butt" d="m234.57841 145.56227l39.086624 0" fill-rule="evenodd"/><path fill="#000000" fill-opacity="0.0" d="m234.57841 157.05833l39.086624 0" fill-rule="evenodd"/><path stroke="#ffffff" stroke-width="1.0" stroke-linejoin="round" stroke-linecap="butt" d="m234.57841 157.05833l39.086624 0" fill-rule="evenodd"/><path fill="#000000" fill-opacity="0.0" d="m212.50697 186.13304l82.488174 0l0 37.16536l-82.488174 0z" fill-rule="evenodd"/><path fill="#ffffff" d="m236.71124 206.75992l1.328125 0.171875q-0.3125 1.171875 -1.171875 1.8125q-0.84375 0.640625 -2.171875 0.640625q-1.671875 0 -2.65625 -1.015625q-0.96875 -1.03125 -0.96875 -2.890625q0 -1.921875 0.984375 -2.96875q1.0 -1.0625 2.578125 -1.0625q1.515625 0 2.484375 1.03125q0.96875 1.03125 0.96875 2.921875q0 0.109375 -0.015625 0.34375l-5.65625 0q0.0625 1.25 0.703125 1.921875q0.640625 0.65625 1.59375 0.65625q0.703125 0 1.203125 -0.359375q0.5 -0.375 0.796875 -1.203125zm-4.234375 -2.078125l4.25 0q-0.09375 -0.953125 -0.484375 -1.4375q-0.625 -0.75 -1.609375 -0.75q-0.875 0 -1.484375 0.59375q-0.609375 0.59375 -0.671875 1.59375zm6.666733 2.265625l1.265625 -0.203125q0.109375 0.765625 0.59375 1.171875q0.5 0.40625 1.375 0.40625q0.890625 0 1.3125 -0.359375q0.4375 -0.359375 0.4375 -0.84375q0 -0.4375 -0.375 -0.6875q-0.265625 -0.171875 -1.3125 -0.4375q-1.421875 -0.359375 -1.96875 -0.609375q-0.546875 -0.265625 -0.828125 -0.734375q-0.28125 -0.46875 -0.28125 -1.015625q0 -0.515625 0.21875 -0.9375q0.234375 -0.4375 0.640625 -0.734375q0.296875 -0.21875 0.8125 -0.359375q0.53125 -0.15625 1.125 -0.15625q0.890625 0 1.5625 0.265625q0.671875 0.25 1.0 0.6875q0.328125 0.4375 0.4375 1.171875l-1.25 0.171875q-0.09375 -0.578125 -0.5 -0.90625q-0.40625 -0.34375 -1.15625 -0.34375q-0.890625 0 -1.28125 0.296875q-0.375 0.296875 -0.375 0.6875q0 0.25 0.15625 0.453125q0.15625 0.203125 0.5 0.34375q0.1875 0.078125 1.140625 0.328125q1.359375 0.359375 1.890625 0.59375q0.546875 0.234375 0.859375 0.6875q0.3125 0.4375 0.3125 1.09375q0 0.640625 -0.375 1.21875q-0.375 0.5625 -1.09375 0.875q-0.703125 0.3125 -1.59375 0.3125q-1.484375 0 -2.265625 -0.609375q-0.765625 -0.625 -0.984375 -1.828125zm12.796875 -0.515625l1.265625 0.15625q-0.203125 1.3125 -1.0625 2.0625q-0.84375 0.734375 -2.09375 0.734375q-1.5625 0 -2.515625 -1.015625q-0.9375 -1.03125 -0.9375 -2.921875q0 -1.234375 0.40625 -2.15625q0.40625 -0.921875 1.234375 -1.375q0.84375 -0.46875 1.8125 -0.46875q1.25 0 2.03125 0.625q0.78125 0.625 1.015625 1.765625l-1.265625 0.203125q-0.171875 -0.765625 -0.625 -1.15625q-0.453125 -0.390625 -1.09375 -0.390625q-0.984375 0 -1.59375 0.703125q-0.609375 0.703125 -0.609375 2.203125q0 1.53125 0.578125 2.234375q0.59375 0.6875 1.546875 0.6875q0.75 0 1.265625 -0.453125q0.515625 -0.46875 0.640625 -1.4375zm2.359375 2.78125l0 -7.59375l1.15625 0l0 1.140625q0.453125 -0.796875 0.82814026 -1.046875q0.375 -0.265625 0.8125 -0.265625q0.65625 0 1.328125 0.40625l-0.4375 1.203125q-0.46875 -0.28125 -0.953125 -0.28125q-0.421875 0 -0.765625 0.25q-0.32814026 0.25 -0.46876526 0.703125q-0.21875 0.6875 -0.21875 1.5l0 3.984375l-1.28125 0zm4.411911 -3.796875q0 -2.109375 1.171875 -3.125q0.984375 -0.84375 2.390625 -0.84375q1.578125 0 2.5625 1.03125q1.0 1.015625 1.0 2.828125q0 1.46875 -0.4375 2.3125q-0.4375 0.828125 -1.28125 1.296875q-0.84375 0.46875 -1.84375 0.46875q-1.59375 0 -2.578125 -1.015625q-0.984375 -1.03125 -0.984375 -2.953125zm1.328125 0q0 1.453125 0.625 2.1875q0.640625 0.71875 1.609375 0.71875q0.96875 0 1.59375 -0.71875q0.640625 -0.734375 0.640625 -2.234375q0 -1.40625 -0.640625 -2.125q-0.640625 -0.734375 -1.59375 -0.734375q-0.96875 0 -1.609375 0.71875q-0.625 0.71875 -0.625 2.1875zm8.713593 3.796875l-2.328125 -7.59375l1.328125 0l1.203125 4.375l0.453125 1.640625q0.03125 -0.125 0.390625 -1.578125l1.21875 -4.4375l1.328125 0l1.125 4.40625l0.390625 1.453125l0.4375 -1.46875l1.296875 -4.390625l1.25 0l-2.375 7.59375l-1.34375 0l-1.203125 -4.546875l-0.296875 -1.296875l-1.53125 5.84375l-1.34375 0z" fill-rule="nonzero"/><path fill="#000000" fill-opacity="0.0" d="m51.97416 116.117294l76.78478 0l0 80.12337l-76.78478 0z" fill-rule="evenodd"/><path fill="#000000" fill-opacity="0.0" d="m61.572258 116.117294l0 80.12337m-9.598099 -70.10794l76.78478 0" fill-rule="evenodd"/><path fill="#000000" fill-opacity="0.0" d="m51.97416 116.117294l76.78478 0l0 80.12337l-76.78478 0z" fill-rule="evenodd"/><path stroke="#ffffff" stroke-width="2.0" stroke-linejoin="round" stroke-linecap="butt" d="m61.572258 116.117294l0 80.12337m-9.598099 -70.10794l76.78478 0" fill-rule="evenodd"/><path stroke="#ffffff" stroke-width="2.0" stroke-linejoin="round" stroke-linecap="butt" d="m51.97416 116.117294l76.78478 0l0 80.12337l-76.78478 0z" fill-rule="evenodd"/><path fill="#000000" fill-opacity="0.0" d="m65.73531 44.114674l0 0c0 3.4006805 11.027191 6.1574783 24.629921 6.1574783c13.60273 0 24.629921 -2.7567978 24.629921 -6.1574783l0 46.110233c0 3.4006882 -11.027191 6.157486 -24.629921 6.157486c-13.60273 0 -24.629921 -2.7567978 -24.629921 -6.157486z" fill-rule="evenodd"/><path fill="#000000" fill-opacity="0.0" d="m65.73531 44.114674l0 0c0 -3.4006844 11.027191 -6.157482 24.629921 -6.157482c13.60273 0 24.629921 2.7567978 24.629921 6.157482l0 0c0 3.4006805 -11.027191 6.1574783 -24.629921 6.1574783c-13.60273 0 -24.629921 -2.7567978 -24.629921 -6.1574783z" fill-rule="evenodd"/><path fill="#000000" fill-opacity="0.0" d="m114.995155 44.114674l0 0c0 3.4006805 -11.027191 6.1574783 -24.629921 6.1574783c-13.60273 0 -24.629921 -2.7567978 -24.629921 -6.1574783l0 0c0 -3.4006844 11.027191 -6.157482 24.629921 -6.157482c13.60273 0 24.629921 2.7567978 24.629921 6.157482l0 46.110233c0 3.4006882 -11.027191 6.157486 -24.629921 6.157486c-13.60273 0 -24.629921 -2.7567978 -24.629921 -6.157486l0 -46.110233" fill-rule="evenodd"/><path fill="#ffffff" fill-opacity="0.4" d="m65.73531 44.114674l0 0c0 -3.4006844 11.027191 -6.157482 24.629921 -6.157482c13.60273 0 24.629921 2.7567978 24.629921 6.157482l0 0c0 3.4006805 -11.027191 6.1574783 -24.629921 6.1574783c-13.60273 0 -24.629921 -2.7567978 -24.629921 -6.1574783z" fill-rule="evenodd"/><path stroke="#ffffff" stroke-width="2.0" stroke-linejoin="round" stroke-linecap="butt" d="m114.995155 44.114674l0 0c0 3.4006805 -11.027191 6.1574783 -24.629921 6.1574783c-13.60273 0 -24.629921 -2.7567978 -24.629921 -6.1574783l0 0c0 -3.4006844 11.027191 -6.157482 24.629921 -6.157482c13.60273 0 24.629921 2.7567978 24.629921 6.157482l0 46.110233c0 3.4006882 -11.027191 6.157486 -24.629921 6.157486c-13.60273 0 -24.629921 -2.7567978 -24.629921 -6.157486l0 -46.110233" fill-rule="evenodd"/><path fill="#000000" fill-opacity="0.0" d="m1.8941071 194.1173l176.94489 0l0 37.16536l-176.94489 0z" fill-rule="evenodd"/><path fill="#ffffff" d="m37.95461 217.1973l0 -7.59375l1.15625 0l0 1.140625q0.453125 -0.796875 0.828125 -1.046875q0.375 -0.265625 0.8125 -0.265625q0.65625 0 1.328125 0.40625l-0.4375 1.203125q-0.46875 -0.28125 -0.953125 -0.28125q-0.421875 0 -0.765625 0.25q-0.328125 0.25 -0.46875 0.703125q-0.21875 0.6875 -0.21875 1.5l0 3.984375l-1.28125 0zm10.099396 -2.453125l1.328125 0.171875q-0.3125 1.171875 -1.171875 1.8125q-0.84375 0.640625 -2.171875 0.640625q-1.671875 0 -2.65625 -1.015625q-0.96875 -1.03125 -0.96875 -2.890625q0 -1.921875 0.984375 -2.96875q1.0 -1.0625 2.578125 -1.0625q1.515625 0 2.484375 1.03125q0.96875 1.03125 0.96875 2.921875q0 0.109375 -0.015625 0.34375l-5.65625 0q0.0625 1.25 0.703125 1.921875q0.640625 0.65625 1.59375 0.65625q0.703125 0 1.203125 -0.359375q0.5 -0.375 0.796875 -1.203125zm-4.234375 -2.078125l4.25 0q-0.09375 -0.953125 -0.484375 -1.4375q-0.625 -0.75 -1.609375 -0.75q-0.875 0 -1.484375 0.59375q-0.609375 0.59375 -0.671875 1.59375zm9.994858 3.375l0.1875 1.140625q-0.546875 0.109375 -0.984375 0.109375q-0.6875 0 -1.078125 -0.21875q-0.390625 -0.21875 -0.546875 -0.578125q-0.15625 -0.359375 -0.15625 -1.515625l0 -4.375l-0.953125 0l0 -1.0l0.953125 0l0 -1.890625l1.28125 -0.765625l0 2.65625l1.296875 0l0 1.0l-1.296875 0l0 4.4375q0 0.546875 0.0625 0.71875q0.078125 0.15625 0.21875 0.25q0.15625 0.078125 0.453125 0.078125q0.203125 0 0.5625 -0.046875zm6.2126007 0.21875q-0.71875 0.609375 -1.375 0.859375q-0.65625 0.25 -1.421875 0.25q-1.25 0 -1.921875 -0.609375q-0.671875 -0.609375 -0.671875 -1.5625q0 -0.5625 0.25 -1.015625q0.25 -0.46875 0.65625 -0.75q0.421875 -0.28125 0.9375 -0.421875q0.375 -0.09375 1.140625 -0.1875q1.5625 -0.1875 2.296875 -0.453125q0.015625 -0.265625 0.015625 -0.328125q0 -0.796875 -0.375 -1.109375q-0.484375 -0.4375 -1.453125 -0.4375q-0.921875 0 -1.359375 0.328125q-0.421875 0.3125 -0.625 1.109375l-1.265625 -0.171875q0.171875 -0.796875 0.5625 -1.296875q0.390625 -0.5 1.140625 -0.765625q0.75 -0.265625 1.71875 -0.265625q0.984375 0 1.59375 0.234375q0.609375 0.21875 0.890625 0.5625q0.28125 0.34375 0.40625 0.875q0.0625 0.328125 0.0625 1.1875l0 1.71875q0 1.796875 0.078125 2.28125q0.078125 0.46875 0.328125 0.90625l-1.34375 0q-0.203125 -0.40625 -0.265625 -0.9375zm-0.109375 -2.875q-0.703125 0.28125 -2.09375 0.484375q-0.796875 0.109375 -1.125 0.265625q-0.328125 0.140625 -0.515625 0.421875q-0.171875 0.265625 -0.171875 0.59375q0 0.515625 0.390625 0.859375q0.390625 0.34375 1.140625 0.34375q0.734375 0 1.3125 -0.3125q0.59375 -0.328125 0.859375 -0.890625q0.203125 -0.4375 0.203125 -1.296875l0 -0.46875zm3.3073578 -5.203125l0 -1.46875l1.2968712 0l0 1.46875l-1.2968712 0zm0 9.015625l0 -7.59375l1.2968712 0l0 7.59375l-1.2968712 0zm3.2248955 0l0 -10.484375l1.28125 0l0 10.484375l-1.28125 0zm8.765625 0l-2.328125 -7.59375l1.328125 0l1.203125 4.375l0.453125 1.640625q0.03125 -0.125 0.390625 -1.578125l1.21875 -4.4375l1.328125 0l1.125 4.40625l0.390625 1.453125l0.4375 -1.46875l1.296875 -4.390625l1.25 0l-2.375 7.59375l-1.34375 0l-1.203125 -4.546875l-0.296875 -1.296875l-1.53125 5.84375l-1.34375 0zm14.381149 -2.453125l1.328125 0.171875q-0.3125 1.171875 -1.171875 1.8125q-0.84375 0.640625 -2.171875 0.640625q-1.671875 0 -2.65625 -1.015625q-0.96875 -1.03125 -0.96875 -2.890625q0 -1.921875 0.984375 -2.96875q1.0 -1.0625 2.578125 -1.0625q1.515625 0 2.484375 1.03125q0.96875 1.03125 0.96875 2.921875q0 0.109375 -0.015625 0.34375l-5.65625 0q0.0625 1.25 0.703125 1.921875q0.640625 0.65625 1.59375 0.65625q0.703125 0 1.203125 -0.359375q0.5 -0.375 0.796875 -1.203125zm-4.234375 -2.078125l4.25 0q-0.09375 -0.953125 -0.484375 -1.4375q-0.625 -0.75 -1.609375 -0.75q-0.875 0 -1.484375 0.59375q-0.609375 0.59375 -0.671875 1.59375zm8.369858 4.53125l-1.203125 0l0 -10.484375l1.296875 0l0 3.734375q0.8125 -1.015625 2.078125 -1.015625q0.703125 0 1.328125 0.28125q0.625 0.28125 1.03125 0.796875q0.40625 0.5 0.625 1.234375q0.234375 0.71875 0.234375 1.53125q0 1.96875 -0.96875 3.03125q-0.953125 1.0625 -2.3125 1.0625q-1.34375 0 -2.109375 -1.125l0 0.953125zm-0.015625 -3.859375q0 1.375 0.375 1.984375q0.609375 0.984375 1.640625 0.984375q0.84375 0 1.453125 -0.734375q0.625 -0.734375 0.625 -2.1875q0 -1.484375 -0.59375 -2.1875q-0.59375 -0.71875 -1.421875 -0.71875q-0.84375 0 -1.46875 0.734375q-0.609375 0.734375 -0.609375 2.125zm11.0512085 6.765625l0 -10.5l1.171875 0l0 0.984375q0.421875 -0.578125 0.9375 -0.859375q0.515625 -0.296875 1.265625 -0.296875q0.96875 0 1.71875 0.5q0.75 0.5 1.125 1.421875q0.375 0.90625 0.375 1.984375q0 1.171875 -0.421875 2.109375q-0.40625 0.921875 -1.21875 1.421875q-0.796875 0.5 -1.671875 0.5q-0.640625 0 -1.15625 -0.265625q-0.515625 -0.28125 -0.84375 -0.6875l0 3.6875l-1.28125 0zm1.15625 -6.65625q0 1.453125 0.59375 2.15625q0.609375 0.703125 1.453125 0.703125q0.859375 0 1.46875 -0.71875q0.609375 -0.734375 0.609375 -2.25q0 -1.453125 -0.609375 -2.171875q-0.59375 -0.734375 -1.421875 -0.734375q-0.8125 0 -1.453125 0.78125q-0.640625 0.765625 -0.640625 2.234375zm11.947983 2.8125q-0.71875 0.609375 -1.375 0.859375q-0.65625 0.25 -1.421875 0.25q-1.25 0 -1.921875 -0.609375q-0.671875 -0.609375 -0.671875 -1.5625q0 -0.5625 0.25 -1.015625q0.25 -0.46875 0.65625 -0.75q0.421875 -0.28125 0.9375 -0.421875q0.375 -0.09375 1.140625 -0.1875q1.5625 -0.1875 2.296875 -0.453125q0.015625 -0.265625 0.015625 -0.328125q0 -0.796875 -0.375 -1.109375q-0.484375 -0.4375 -1.453125 -0.4375q-0.921875 0 -1.359375 0.328125q-0.421875 0.3125 -0.625 1.109375l-1.265625 -0.171875q0.171875 -0.796875 0.5625 -1.296875q0.390625 -0.5 1.140625 -0.765625q0.75 -0.265625 1.71875 -0.265625q0.984375 0 1.59375 0.234375q0.609375 0.21875 0.890625 0.5625q0.28125 0.34375 0.40625 0.875q0.0625 0.328125 0.0625 1.1875l0 1.71875q0 1.796875 0.078125 2.28125q0.078125 0.46875 0.328125 0.90625l-1.34375 0q-0.203125 -0.40625 -0.265625 -0.9375zm-0.109375 -2.875q-0.703125 0.28125 -2.09375 0.484375q-0.796875 0.109375 -1.125 0.265625q-0.328125 0.140625 -0.515625 0.421875q-0.171875 0.265625 -0.171875 0.59375q0 0.515625 0.390625 0.859375q0.390625 0.34375 1.140625 0.34375q0.734375 0 1.3125 -0.3125q0.59375 -0.328125 0.859375 -0.890625q0.203125 -0.4375 0.203125 -1.296875l0 -0.46875zm3.0729828 4.4375l1.25 0.1875q0.078125 0.578125 0.4375 0.84375q0.46875 0.359375 1.3125 0.359375q0.890625 0 1.375 -0.359375q0.484375 -0.359375 0.65625 -1.0q0.109375 -0.390625 0.09375 -1.65625q-0.84375 1.0 -2.109375 1.0q-1.5625 0 -2.421875 -1.125q-0.859375 -1.140625 -0.859375 -2.71875q0 -1.09375 0.390625 -2.0q0.40625 -0.921875 1.140625 -1.421875q0.75 -0.5 1.765625 -0.5q1.34375 0 2.21875 1.078125l0 -0.90625l1.1875 0l0 6.5625q0 1.78125 -0.359375 2.515625q-0.359375 0.734375 -1.15625 1.15625q-0.78125 0.4375 -1.921875 0.4375q-1.359375 0 -2.203125 -0.609375q-0.828125 -0.609375 -0.796875 -1.84375zm1.0625 -4.5625q0 1.5 0.59375 2.1875q0.59375 0.6875 1.484375 0.6875q0.890625 0 1.484375 -0.6875q0.609375 -0.6875 0.609375 -2.140625q0 -1.390625 -0.625 -2.09375q-0.609375 -0.71875 -1.484375 -0.71875q-0.859375 0 -1.46875 0.703125q-0.59375 0.6875 -0.59375 2.0625zm12.526108 1.484375l1.328125 0.171875q-0.3125 1.171875 -1.171875 1.8125q-0.84375 0.640625 -2.171875 0.640625q-1.671875 0 -2.65625 -1.015625q-0.96875 -1.03125 -0.96875 -2.890625q0 -1.921875 0.984375 -2.96875q1.0 -1.0625 2.578125 -1.0625q1.515625 0 2.484375 1.03125q0.96875 1.03125 0.96875 2.921875q0 0.109375 -0.015625 0.34375l-5.65625 0q0.0625 1.25 0.703125 1.921875q0.640625 0.65625 1.59375 0.65625q0.703125 0 1.203125 -0.359375q0.5 -0.375 0.796875 -1.203125zm-4.234375 -2.078125l4.25 0q-0.09375 -0.953125 -0.484375 -1.4375q-0.625 -0.75 -1.609375 -0.75q-0.875 0 -1.484375 0.59375q-0.609375 0.59375 -0.671875 1.59375zm6.666733 2.265625l1.265625 -0.203125q0.109375 0.765625 0.59375 1.171875q0.5 0.40625 1.375 0.40625q0.890625 0 1.3125 -0.359375q0.4375 -0.359375 0.4375 -0.84375q0 -0.4375 -0.375 -0.6875q-0.265625 -0.171875 -1.3125 -0.4375q-1.421875 -0.359375 -1.96875 -0.609375q-0.546875 -0.265625 -0.828125 -0.734375q-0.28125 -0.46875 -0.28125 -1.015625q0 -0.515625 0.21875 -0.9375q0.234375 -0.4375 0.640625 -0.734375q0.296875 -0.21875 0.8125 -0.359375q0.53125 -0.15625 1.125 -0.15625q0.890625 0 1.5625 0.265625q0.671875 0.25 1.0 0.6875q0.328125 0.4375 0.4375 1.171875l-1.25 0.171875q-0.09375 -0.578125 -0.5 -0.90625q-0.40625 -0.34375 -1.15625 -0.34375q-0.890625 0 -1.28125 0.296875q-0.375 0.296875 -0.375 0.6875q0 0.25 0.15625 0.453125q0.15625 0.203125 0.5 0.34375q0.1875 0.078125 1.140625 0.328125q1.359375 0.359375 1.890625 0.59375q0.546875 0.234375 0.859375 0.6875q0.3125 0.4375 0.3125 1.09375q0 0.640625 -0.375 1.21875q-0.375 0.5625 -1.09375 0.875q-0.703125 0.3125 -1.59375 0.3125q-1.484375 0 -2.265625 -0.609375q-0.765625 -0.625 -0.984375 -1.828125z" fill-rule="nonzero"/><path fill="#000000" fill-opacity="0.0" d="m1.8941071 4.2091613l176.94489 0l0 37.165356l-176.94489 0z" fill-rule="evenodd"/><path fill="#ffffff" d="m49.854305 24.507912l1.265625 0.15625q-0.203125 1.3125 -1.0625 2.0625q-0.84375 0.734375 -2.09375 0.734375q-1.5625 0 -2.515625 -1.015625q-0.9375 -1.03125 -0.9375 -2.921875q0 -1.234375 0.40625 -2.15625q0.40625 -0.921875 1.234375 -1.375q0.84375 -0.46875 1.8125 -0.46875q1.25 0 2.03125 0.625q0.78125 0.625 1.015625 1.765625l-1.265625 0.203125q-0.171875 -0.765625 -0.625 -1.15625q-0.453125 -0.390625 -1.09375 -0.390625q-0.984375 0 -1.59375 0.703125q-0.609375 0.703125 -0.609375 2.203125q0 1.53125 0.578125 2.234375q0.59375 0.6875 1.546875 0.6875q0.75 0 1.265625 -0.453125q0.515625 -0.46875 0.640625 -1.4375zm1.890625 -1.015625q0 -2.109375 1.171875 -3.125q0.984375 -0.84375 2.390625 -0.84375q1.578125 0 2.5625 1.03125q1.0 1.015625 1.0 2.828125q0 1.46875 -0.4375 2.3125q-0.4375 0.828125 -1.28125 1.296875q-0.84375 0.46875 -1.84375 0.46875q-1.59375 0 -2.578125 -1.015625q-0.984375 -1.03125 -0.984375 -2.953125zm1.328125 0q0 1.453125 0.625 2.1875q0.640625 0.71875 1.609375 0.71875q0.96875 0 1.59375 -0.71875q0.640625 -0.734375 0.640625 -2.234375q0 -1.40625 -0.640625 -2.125q-0.640625 -0.734375 -1.59375 -0.734375q-0.96875 0 -1.609375 0.71875q-0.625 0.71875 -0.625 2.1875zm7.307358 3.796875l0 -7.59375l1.15625 0l0 1.078125q0.84375 -1.25 2.421875 -1.25q0.6874962 0 1.2656212 0.25q0.578125 0.234375 0.859375 0.640625q0.28125 0.40625 0.40625 0.953125q0.0625 0.359375 0.0625 1.25l0 4.671875l-1.28125 0l0 -4.625q0 -0.78125 -0.15625 -1.171875q-0.15625 -0.390625 -0.546875 -0.625q-0.375 -0.234375 -0.8906212 -0.234375q-0.8125 0 -1.421875 0.53125q-0.59375 0.515625 -0.59375 1.96875l0 4.15625l-1.28125 0zm10.963604 -1.15625l0.1875 1.140625q-0.546875 0.109375 -0.984375 0.109375q-0.6875 0 -1.078125 -0.21875q-0.390625 -0.21875 -0.546875 -0.578125q-0.15625 -0.359375 -0.15625 -1.515625l0 -4.375l-0.953125 0l0 -1.0l0.953125 0l0 -1.890625l1.28125 -0.765625l0 2.65625l1.296875 0l0 1.0l-1.296875 0l0 4.4375q0 0.546875 0.0625 0.71875q0.078125 0.15625 0.21875 0.25q0.15625 0.078125 0.453125 0.078125q0.203125 0 0.5625 -0.046875zm6.4626007 -1.296875l1.328125 0.171875q-0.3125 1.171875 -1.171875 1.8125q-0.84375 0.640625 -2.171875 0.640625q-1.671875 0 -2.65625 -1.015625q-0.96875 -1.03125 -0.96875 -2.890625q0 -1.921875 0.984375 -2.96875q1.0 -1.0625 2.578125 -1.0625q1.515625 0 2.484375 1.03125q0.96875 1.03125 0.96875 2.921875q0 0.109375 -0.015625 0.34375l-5.65625 0q0.0625 1.25 0.703125 1.921875q0.640625 0.65625 1.59375 0.65625q0.703125 0 1.203125 -0.359375q0.5 -0.375 0.796875 -1.203125zm-4.234375 -2.078125l4.25 0q-0.09375 -0.953125 -0.484375 -1.4375q-0.625 -0.75 -1.609375 -0.75q-0.875 0 -1.484375 0.59375q-0.609375 0.59375 -0.671875 1.59375zm7.182358 4.53125l0 -7.59375l1.15625 0l0 1.078125q0.84375 -1.25 2.421875 -1.25q0.6875 0 1.265625 0.25q0.578125 0.234375 0.859375 0.640625q0.28125 0.40625 0.40625 0.953125q0.0625 0.359375 0.0625 1.25l0 4.671875l-1.28125 0l0 -4.625q0 -0.78125 -0.15625 -1.171875q-0.15625 -0.390625 -0.546875 -0.625q-0.375 -0.234375 -0.890625 -0.234375q-0.8125 0 -1.421875 0.53125q-0.59375 0.515625 -0.59375 1.96875l0 4.15625l-1.28125 0zm10.963608 -1.15625l0.1875 1.140625q-0.546875 0.109375 -0.984375 0.109375q-0.6875 0 -1.078125 -0.21875q-0.390625 -0.21875 -0.546875 -0.578125q-0.15625 -0.359375 -0.15625 -1.515625l0 -4.375l-0.953125 0l0 -1.0l0.953125 0l0 -1.890625l1.28125 -0.765625l0 2.65625l1.296875 0l0 1.0l-1.296875 0l0 4.4375q0 0.546875 0.0625 0.71875q0.078125 0.15625 0.21875 0.25q0.15625 0.078125 0.453125 0.078125q0.203125 0 0.5625 -0.046875zm4.8158264 -1.109375l1.265625 -0.203125q0.109375 0.765625 0.59375 1.171875q0.5 0.40625 1.375 0.40625q0.890625 0 1.3125 -0.359375q0.4375 -0.359375 0.4375 -0.84375q0 -0.4375 -0.375 -0.6875q-0.265625 -0.171875 -1.3125 -0.4375q-1.421875 -0.359375 -1.96875 -0.609375q-0.546875 -0.265625 -0.828125 -0.734375q-0.28125 -0.46875 -0.28125 -1.015625q0 -0.515625 0.21875 -0.9375q0.234375 -0.4375 0.640625 -0.734375q0.296875 -0.21875 0.8125 -0.359375q0.53125 -0.15625 1.125 -0.15625q0.890625 0 1.5625 0.265625q0.671875 0.25 1.0 0.6875q0.328125 0.4375 0.4375 1.171875l-1.25 0.171875q-0.09375 -0.578125 -0.5 -0.90625q-0.40625 -0.34375 -1.15625 -0.34375q-0.890625 0 -1.28125 0.296875q-0.375 0.296875 -0.375 0.6875q0 0.25 0.15625 0.453125q0.15625 0.203125 0.5 0.34375q0.1875 0.078125 1.140625 0.328125q1.359375 0.359375 1.890625 0.59375q0.546875 0.234375 0.859375 0.6875q0.3125 0.4375 0.3125 1.09375q0 0.640625 -0.375 1.21875q-0.375 0.5625 -1.09375 0.875q-0.703125 0.3125 -1.59375 0.3125q-1.484375 0 -2.265625 -0.609375q-0.765625 -0.625 -0.984375 -1.828125zm13.046875 -0.1875l1.328125 0.171875q-0.3125 1.171875 -1.171875 1.8125q-0.84375 0.640625 -2.171875 0.640625q-1.671875 0 -2.65625 -1.015625q-0.96875 -1.03125 -0.96875 -2.890625q0 -1.921875 0.984375 -2.96875q1.0 -1.0625 2.578125 -1.0625q1.515625 0 2.484375 1.03125q0.96875 1.03125 0.96875 2.921875q0 0.109375 -0.015625 0.34375l-5.65625 0q0.0625 1.25 0.703125 1.921875q0.640625 0.65625 1.59375 0.65625q0.703125 0 1.203125 -0.359375q0.5 -0.375 0.796875 -1.203125zm-4.234375 -2.078125l4.25 0q-0.09375 -0.953125 -0.484375 -1.4375q-0.625 -0.75 -1.609375 -0.75q-0.875 0 -1.484375 0.59375q-0.609375 0.59375 -0.671875 1.59375zm7.166733 4.53125l0 -7.59375l1.15625 0l0 1.140625q0.453125 -0.796875 0.828125 -1.046875q0.375 -0.265625 0.8125 -0.265625q0.65625 0 1.328125 0.40625l-0.4375 1.203125q-0.46875 -0.28125 -0.953125 -0.28125q-0.421875 0 -0.765625 0.25q-0.328125 0.25 -0.46875 0.703125q-0.21875 0.6875 -0.21875 1.5l0 3.984375l-1.28125 0zm7.0056458 0l-2.890625 -7.59375l1.359375 0l1.625 4.546875q0.265625 0.734375 0.5 1.53125q0.15625 -0.609375 0.46875 -1.453125l1.6875 -4.625l1.328125 0l-2.875 7.59375l-1.203125 0zm10.421883 -2.453125l1.328125 0.171875q-0.3125 1.171875 -1.171875 1.8125q-0.84375 0.640625 -2.1718826 0.640625q-1.671875 0 -2.65625 -1.015625q-0.96875 -1.03125 -0.96875 -2.890625q0 -1.921875 0.984375 -2.96875q1.0 -1.0625 2.578125 -1.0625q1.5156326 0 2.4843826 1.03125q0.96875 1.03125 0.96875 2.921875q0 0.109375 -0.015625 0.34375l-5.6562576 0q0.0625 1.25 0.703125 1.921875q0.640625 0.65625 1.59375 0.65625q0.7031326 0 1.2031326 -0.359375q0.5 -0.375 0.796875 -1.203125zm-4.2343826 -2.078125l4.2500076 0q-0.09375 -0.953125 -0.484375 -1.4375q-0.625 -0.75 -1.6093826 -0.75q-0.875 0 -1.484375 0.59375q-0.609375 0.59375 -0.671875 1.59375zm7.166725 4.53125l0 -7.59375l1.15625 0l0 1.140625q0.453125 -0.796875 0.828125 -1.046875q0.375 -0.265625 0.8125 -0.265625q0.65625 0 1.328125 0.40625l-0.4375 1.203125q-0.46875 -0.28125 -0.953125 -0.28125q-0.421875 0 -0.765625 0.25q-0.328125 0.25 -0.46875 0.703125q-0.21875 0.6875 -0.21875 1.5l0 3.984375l-1.28125 0z" fill-rule="nonzero"/><path fill="#000000" fill-opacity="0.0" d="m141.276 135.66585l55.936996 0" fill-rule="evenodd"/><path stroke="#ffffff" stroke-width="1.0" stroke-linejoin="round" stroke-linecap="butt" d="m141.276 135.66586l49.93701 0" fill-rule="evenodd"/><path fill="#ffffff" stroke="#ffffff" stroke-width="1.0" stroke-linecap="butt" d="m191.21301 137.3176l4.538086 -1.6517334l-4.538086 -1.6517334z" fill-rule="evenodd"/><path fill="#000000" fill-opacity="0.0" d="m141.276 161.67897l55.936996 0" fill-rule="evenodd"/><path stroke="#ffffff" stroke-width="1.0" stroke-linejoin="round" stroke-linecap="butt" d="m141.276 161.67899l49.93701 0" fill-rule="evenodd"/><path fill="#ffffff" stroke="#ffffff" stroke-width="1.0" stroke-linecap="butt" d="m191.21301 163.33072l4.538086 -1.6517334l-4.538086 -1.6517334z" fill-rule="evenodd"/><path fill="#000000" fill-opacity="0.0" d="m126.55409 106.5005l82.48819 0l0 37.165344l-82.48819 0z" fill-rule="evenodd"/><path fill="#ffffff" d="m159.19766 120.62737q-0.96875 -0.203125 -1.6875 -0.203125q-1.671875 0 -1.671875 1.75l0 1.265625l3.140625 0l0 1.03125l-3.140625 0l0 5.1093826l-1.265625 0l0 -5.1093826l-2.3125 0l0 -1.03125l2.3125 0l0 -1.1875q0 -2.875 2.984375 -2.875q0.75 0 1.640625 0.171875l0 1.078125zm-7.515625 1.765625l0 0zm14.97995 7.1875076l-1.125 0l-0.03125 -1.15625q-0.328125 0.375 -0.625 0.625q-0.28125 0.234375 -0.578125 0.390625q-0.28125 0.140625 -0.578125 0.203125q-0.28125 0.0625 -0.59375 0.0625q-1.109375 0 -1.6875 -0.640625q-0.5625 -0.65625 -0.5625 -1.9687576l0 -4.703125l1.25 0l0 4.59375q0 1.6562576 1.25 1.6562576q0.21875 0 0.4375 -0.0625q0.21875 -0.078125 0.453125 -0.234375q0.25 -0.171875 0.515625 -0.45313263q0.28125 -0.296875 0.625 -0.734375l0 -4.765625l1.25 0l0 7.1875076zm2.276825 -7.1875076l1.109375 0l0.046875 1.15625q0.328125 -0.359375 0.609375 -0.609375q0.296875 -0.25 0.578125 -0.390625q0.28125 -0.15625 0.578125 -0.21875q0.296875 -0.0625 0.609375 -0.0625q1.109375 0 1.671875 0.65625q0.578125 0.65625 0.578125 1.96875l0 4.6875076l-1.25 0l0 -4.5937576q0 -0.84375 -0.3125 -1.234375q-0.3125 -0.40625 -0.9375 -0.40625q-0.234375 0 -0.453125 0.0625q-0.21875 0.0625 -0.453125 0.234375q-0.234375 0.171875 -0.515625 0.453125q-0.265625 0.28125 -0.609375 0.71875l0 4.7656326l-1.25 0l0 -7.1875076zm7.6987 3.75q0 -0.921875 0.25 -1.625q0.25 -0.71875 0.703125 -1.203125q0.46875 -0.5 1.109375 -0.75q0.65625 -0.25 1.453125 -0.25q0.34375 0 0.671875 0.046875q0.328125 0.03125 0.65625 0.125l0 -3.015625l1.25 0l0 10.109383l-1.109375 0l-0.046875 -1.359375q-0.515625 0.765625 -1.125 1.125q-0.609375 0.359375 -1.328125 0.359375q-0.609375 0 -1.078125 -0.25q-0.46875 -0.265625 -0.78125 -0.734375q-0.3125 -0.46875 -0.46875 -1.1250076q-0.15625 -0.65625 -0.15625 -1.453125zm1.265625 -0.078125q0 1.296875 0.375 1.9375076q0.390625 0.640625 1.09375 0.640625q0.484375 0 1.0 -0.421875q0.53125 -0.42188263 1.109375 -1.2500076l0 -3.34375q-0.3125 -0.140625 -0.6875 -0.203125q-0.359375 -0.078125 -0.734375 -0.078125q-1.015625 0 -1.59375 0.65625q-0.5625 0.65625 -0.5625 2.0625z" fill-rule="nonzero"/><path fill="#000000" fill-opacity="0.0" d="m126.55423 156.01756l94.3622 0l0 37.165344l-94.3622 0z" fill-rule="evenodd"/><path fill="#ffffff" d="m149.01866 170.14444q-0.96875 -0.203125 -1.6875 -0.203125q-1.671875 0 -1.671875 1.75l0 1.265625l3.140625 0l0 1.03125l-3.140625 0l0 5.109375l-1.265625 0l0 -5.109375l-2.3125 0l0 -1.03125l2.3125 0l0 -1.1875q0 -2.875 2.984375 -2.875q0.75 0 1.640625 0.171875l0 1.078125zm-7.515625 1.765625l0 0zm11.651825 1.03125l-2.125 0l0 -1.03125l3.390625 0l0 6.15625l2.125 0l0 1.03125l-5.75 0l0 -1.03125l2.359375 0l0 -5.125zm0.4375 -4.046875q0.203125 0 0.375 0.078125q0.1875 0.078125 0.3125 0.21875q0.140625 0.125 0.21875 0.3125q0.078125 0.171875 0.078125 0.375q0 0.203125 -0.078125 0.390625q-0.078125 0.171875 -0.21875 0.3125q-0.125 0.125 -0.3125 0.203125q-0.171875 0.078125 -0.375 0.078125q-0.203125 0 -0.390625 -0.078125q-0.171875 -0.078125 -0.3125 -0.203125q-0.125 -0.140625 -0.203125 -0.3125q-0.078125 -0.1875 -0.078125 -0.390625q0 -0.203125 0.078125 -0.375q0.078125 -0.1875 0.203125 -0.3125q0.140625 -0.140625 0.3125 -0.21875q0.1875 -0.078125 0.390625 -0.078125zm5.16745 3.015625l1.109375 0l0.046875 1.15625q0.328125 -0.359375 0.609375 -0.609375q0.296875 -0.25 0.578125 -0.390625q0.28125 -0.15625 0.578125 -0.21875q0.296875 -0.0625 0.609375 -0.0625q1.109375 0 1.671875 0.65625q0.578125 0.65625 0.578125 1.96875l0 4.6875l-1.25 0l0 -4.59375q0 -0.84375 -0.3125 -1.234375q-0.3125 -0.40625 -0.9375 -0.40625q-0.234375 0 -0.453125 0.0625q-0.21875 0.0625 -0.453125 0.234375q-0.234375 0.171875 -0.515625 0.453125q-0.265625 0.28125 -0.609375 0.71875l0 4.765625l-1.25 0l0 -7.1875zm12.683075 7.1875l-0.03125 -0.96875q-0.59375 0.578125 -1.203125 0.84375q-0.59375 0.25 -1.265625 0.25q-0.609375 0 -1.046875 -0.15625q-0.4375 -0.15625 -0.71875 -0.421875q-0.28125 -0.28125 -0.421875 -0.65625q-0.125 -0.375 -0.125 -0.8125q0 -1.078125 0.796875 -1.6875q0.8125 -0.609375 2.390625 -0.609375l1.484375 0l0 -0.640625q0 -0.625 -0.40625 -1.0q-0.40625 -0.390625 -1.25 -0.390625q-0.609375 0 -1.203125 0.140625q-0.578125 0.125 -1.21875 0.375l0 -1.125q0.25 -0.078125 0.53125 -0.15625q0.296875 -0.09375 0.609375 -0.15625q0.328125 -0.0625 0.671875 -0.09375q0.359375 -0.046875 0.71875 -0.046875q0.640625 0 1.15625 0.140625q0.53125 0.140625 0.890625 0.4375q0.359375 0.296875 0.546875 0.75q0.203125 0.4375 0.203125 1.03125l0 4.953125l-1.109375 0zm-0.140625 -3.265625l-1.578125 0q-0.46875 0 -0.8125 0.09375q-0.328125 0.09375 -0.546875 0.265625q-0.21875 0.171875 -0.328125 0.40625q-0.09375 0.234375 -0.09375 0.546875q0 0.203125 0.0625 0.390625q0.0625 0.1875 0.203125 0.34375q0.15625 0.140625 0.375 0.234375q0.234375 0.078125 0.5625 0.078125q0.4375 0 0.984375 -0.265625q0.5625 -0.265625 1.171875 -0.828125l0 -1.265625zm6.026825 -5.828125l-2.125 0l0 -1.015625l3.390625 0l0 9.078125l2.125 0l0 1.03125l-5.75 0l0 -1.03125l2.359375 0l0 -8.0625zm8.058075 2.9375l-2.125 0l0 -1.03125l3.390625 0l0 6.15625l2.125 0l0 1.03125l-5.75 0l0 -1.03125l2.359375 0l0 -5.125zm0.4375 -4.046875q0.203125 0 0.375 0.078125q0.1875 0.078125 0.3125 0.21875q0.140625 0.125 0.21875 0.3125q0.078125 0.171875 0.078125 0.375q0 0.203125 -0.078125 0.390625q-0.078125 0.171875 -0.21875 0.3125q-0.125 0.125 -0.3125 0.203125q-0.171875 0.078125 -0.375 0.078125q-0.203125 0 -0.390625 -0.078125q-0.171875 -0.078125 -0.3125 -0.203125q-0.125 -0.140625 -0.203125 -0.3125q-0.078125 -0.1875 -0.078125 -0.390625q0 -0.203125 0.078125 -0.375q0.078125 -0.1875 0.203125 -0.3125q0.140625 -0.140625 0.3125 -0.21875q0.1875 -0.078125 0.390625 -0.078125zm10.995575 10.203125l-5.796875 0l0 -0.890625l4.0625 -5.25l-3.953125 0l0 -1.046875l5.453125 0l0 0.96875l-4.0 5.171875l4.234375 0l0 1.046875zm8.308075 -3.96875q0 0.265625 -0.015625 0.453125q0 0.171875 -0.015625 0.328125l-5.046875 0q0 1.09375 0.609375 1.6875q0.625 0.59375 1.78125 0.59375q0.3125 0 0.625 -0.015625q0.3125 -0.03125 0.609375 -0.078125q0.296875 -0.046875 0.5625 -0.09375q0.265625 -0.0625 0.5 -0.125l0 1.03125q-0.515625 0.140625 -1.15625 0.21875q-0.640625 0.09375 -1.328125 0.09375q-0.921875 0 -1.59375 -0.25q-0.65625 -0.25 -1.078125 -0.71875q-0.421875 -0.484375 -0.625 -1.171875q-0.203125 -0.6875 -0.203125 -1.5625q0 -0.765625 0.21875 -1.4375q0.21875 -0.671875 0.625 -1.1875q0.421875 -0.515625 1.03125 -0.8125q0.609375 -0.296875 1.375 -0.296875q0.765625 0 1.34375 0.234375q0.578125 0.234375 0.96875 0.671875q0.40625 0.4375 0.609375 1.0625q0.203125 0.609375 0.203125 1.375zm-1.296875 -0.1875q0.015625 -0.46875 -0.109375 -0.859375q-0.109375 -0.40625 -0.34375 -0.6875q-0.234375 -0.296875 -0.59375 -0.453125q-0.359375 -0.15625 -0.828125 -0.15625q-0.40625 0 -0.75 0.15625q-0.328125 0.15625 -0.578125 0.4375q-0.25 0.28125 -0.40625 0.6875q-0.140625 0.40625 -0.171875 0.875l3.78125 0z" fill-rule="nonzero"/><path fill="#ffffff" d="m209.79916 134.33252l0 0c0 -3.391983 2.7497406 -6.1417236 6.1417236 -6.1417236l0 0c1.628891 0 3.1910706 0.6470642 4.342865 1.7988586c1.1517944 1.1518097 1.7988739 2.713974 1.7988739 4.342865l0 0c0 3.391983 -2.7497559 6.141739 -6.141739 6.141739l0 0c-3.391983 0 -6.1417236 -2.7497559 -6.1417236 -6.141739z" fill-rule="evenodd"/><path fill="#ffffff" d="m209.75453 161.67897l0 0c0 -3.391983 2.7497559 -6.1417236 6.141739 -6.1417236l0 0c1.628891 0 3.1910553 0.64707947 4.342865 1.7988739c1.1517944 1.1517944 1.7988739 2.713974 1.7988739 4.3428497l0 0c0 3.3919983 -2.7497559 6.141739 -6.141739 6.141739l0 0c-3.391983 0 -6.141739 -2.7497406 -6.141739 -6.141739z" fill-rule="evenodd"/><path fill="#000000" fill-opacity="0.0" d="m90.36655 116.117294l0 -19.748032" fill-rule="evenodd"/><path stroke="#ffffff" stroke-width="1.0" stroke-linejoin="round" stroke-linecap="butt" d="m90.366554 116.1173l0 -13.748032" fill-rule="evenodd"/><path fill="#ffffff" stroke="#ffffff" stroke-width="1.0" stroke-linecap="butt" d="m92.01829 102.36927l-1.6517334 -4.538101l-1.6517334 4.538101z" fill-rule="evenodd"/><path fill="#000000" fill-opacity="0.0" d="m319.31537 285.25772l0 0c0 -11.750183 9.525391 -21.275604 21.275574 -21.275604l0 0c5.642639 0 11.054169 2.2415466 15.044128 6.231476c3.9899597 3.9899597 6.231476 9.401489 6.231476 15.044128l0 0c0 11.750183 -9.525391 21.275574 -21.275604 21.275574l0 0c-11.750183 0 -21.275574 -9.525391 -21.275574 -21.275574z" fill-rule="evenodd"/><path fill="#000000" fill-opacity="0.0" d="m325.54684 270.2136l30.088226 30.088226m0 -30.088226l-30.088226 30.088226" fill-rule="evenodd"/><path fill="#000000" fill-opacity="0.0" d="m319.31537 285.25772l0 0c0 -11.750183 9.525391 -21.275604 21.275574 -21.275604l0 0c5.642639 0 11.054169 2.2415466 15.044128 6.231476c3.9899597 3.9899597 6.231476 9.401489 6.231476 15.044128l0 0c0 11.750183 -9.525391 21.275574 -21.275604 21.275574l0 0c-11.750183 0 -21.275574 -9.525391 -21.275574 -21.275574z" fill-rule="evenodd"/><path stroke="#ffffff" stroke-width="2.0" stroke-linejoin="round" stroke-linecap="butt" d="m325.54684 270.2136l30.088226 30.088226m0 -30.088226l-30.088226 30.088226" fill-rule="evenodd"/><path stroke="#ffffff" stroke-width="2.0" stroke-linejoin="round" stroke-linecap="butt" d="m319.31537 285.25772l0 0c0 -11.750183 9.525391 -21.275604 21.275574 -21.275604l0 0c5.642639 0 11.054169 2.2415466 15.044128 6.231476c3.9899597 3.9899597 6.231476 9.401489 6.231476 15.044128l0 0c0 11.750183 -9.525391 21.275574 -21.275604 21.275574l0 0c-11.750183 0 -21.275574 -9.525391 -21.275574 -21.275574z" fill-rule="evenodd"/><path fill="#000000" fill-opacity="0.0" d="m252.1172 308.68686l176.94487 0l0 37.165344l-176.94487 0z" fill-rule="evenodd"/><path fill="#ffffff" d="m294.37378 328.9856l1.265625 0.15625q-0.203125 1.3125 -1.0625 2.0625q-0.84375 0.734375 -2.09375 0.734375q-1.5625 0 -2.515625 -1.015625q-0.9375 -1.03125 -0.9375 -2.921875q0 -1.234375 0.40625 -2.15625q0.40625 -0.921875 1.234375 -1.375q0.84375 -0.46875 1.8125 -0.46875q1.25 0 2.03125 0.625q0.78125 0.625 1.015625 1.765625l-1.265625 0.203125q-0.171875 -0.765625 -0.625 -1.15625q-0.453125 -0.390625 -1.09375 -0.390625q-0.984375 0 -1.59375 0.703125q-0.609375 0.703125 -0.609375 2.203125q0 1.53125 0.578125 2.234375q0.59375 0.6875 1.546875 0.6875q0.75 0 1.265625 -0.453125q0.515625 -0.46875 0.640625 -1.4375zm1.890625 -1.015625q0 -2.109375 1.171875 -3.125q0.984375 -0.84375 2.390625 -0.84375q1.578125 0 2.5625 1.03125q1.0 1.015625 1.0 2.828125q0 1.46875 -0.4375 2.3125q-0.4375 0.828125 -1.28125 1.296875q-0.84375 0.46875 -1.84375 0.46875q-1.59375 0 -2.578125 -1.015625q-0.984375 -1.03125 -0.984375 -2.953125zm1.328125 0q0 1.453125 0.625 2.1875q0.640625 0.71875 1.609375 0.71875q0.96875 0 1.59375 -0.71875q0.640625 -0.734375 0.640625 -2.234375q0 -1.40625 -0.640625 -2.125q-0.640625 -0.734375 -1.59375 -0.734375q-0.96875 0 -1.609375 0.71875q-0.625 0.71875 -0.625 2.1875zm7.3073425 3.796875l0 -7.59375l1.15625 0l0 1.078125q0.84375 -1.25 2.421875 -1.25q0.6875 0 1.265625 0.25q0.578125 0.234375 0.859375 0.640625q0.28125 0.40625 0.40625 0.953125q0.0625 0.359375 0.0625 1.25l0 4.671875l-1.28125 0l0 -4.625q0 -0.78125 -0.15625 -1.171875q-0.15625 -0.390625 -0.546875 -0.625q-0.375 -0.234375 -0.890625 -0.234375q-0.8125 0 -1.421875 0.53125q-0.59375 0.515625 -0.59375 1.96875l0 4.15625l-1.28125 0zm10.963623 -1.15625l0.1875 1.140625q-0.546875 0.109375 -0.984375 0.109375q-0.6875 0 -1.078125 -0.21875q-0.390625 -0.21875 -0.546875 -0.578125q-0.15625 -0.359375 -0.15625 -1.515625l0 -4.375l-0.953125 0l0 -1.0l0.953125 0l0 -1.890625l1.28125 -0.765625l0 2.65625l1.296875 0l0 1.0l-1.296875 0l0 4.4375q0 0.546875 0.0625 0.71875q0.078125 0.15625 0.21875 0.25q0.15625 0.078125 0.453125 0.078125q0.203125 0 0.5625 -0.046875zm1.2438354 1.15625l0 -7.59375l1.15625 0l0 1.140625q0.453125 -0.796875 0.828125 -1.046875q0.375 -0.265625 0.8125 -0.265625q0.65625 0 1.328125 0.40625l-0.4375 1.203125q-0.46875 -0.28125 -0.953125 -0.28125q-0.421875 0 -0.765625 0.25q-0.328125 0.25 -0.46875 0.703125q-0.21875 0.6875 -0.21875 1.5l0 3.984375l-1.28125 0zm9.849396 -0.9375q-0.71875 0.609375 -1.375 0.859375q-0.65625 0.25 -1.421875 0.25q-1.25 0 -1.921875 -0.609375q-0.671875 -0.609375 -0.671875 -1.5625q0 -0.5625 0.25 -1.015625q0.25 -0.46875 0.65625 -0.75q0.421875 -0.28125 0.9375 -0.421875q0.375 -0.09375 1.140625 -0.1875q1.5625 -0.1875 2.296875 -0.453125q0.015625 -0.265625 0.015625 -0.328125q0 -0.796875 -0.375 -1.109375q-0.484375 -0.4375 -1.453125 -0.4375q-0.921875 0 -1.359375 0.328125q-0.421875 0.3125 -0.625 1.109375l-1.265625 -0.171875q0.171875 -0.796875 0.5625 -1.296875q0.390625 -0.5 1.140625 -0.765625q0.75 -0.265625 1.71875 -0.265625q0.984375 0 1.59375 0.234375q0.609375 0.21875 0.890625 0.5625q0.28125 0.34375 0.40625 0.875q0.0625 0.328125 0.0625 1.1875l0 1.71875q0 1.796875 0.078125 2.28125q0.078125 0.46875 0.328125 0.90625l-1.34375 0q-0.203125 -0.40625 -0.265625 -0.9375zm-0.109375 -2.875q-0.703125 0.28125 -2.09375 0.484375q-0.796875 0.109375 -1.125 0.265625q-0.328125 0.140625 -0.515625 0.421875q-0.171875 0.265625 -0.171875 0.59375q0 0.515625 0.390625 0.859375q0.390625 0.34375 1.140625 0.34375q0.734375 0 1.3125 -0.3125q0.59375 -0.328125 0.859375 -0.890625q0.203125 -0.4375 0.203125 -1.296875l0 -0.46875zm8.260498 1.03125l1.265625 0.15625q-0.203125 1.3125 -1.0625 2.0625q-0.84375 0.734375 -2.09375 0.734375q-1.5625 0 -2.515625 -1.015625q-0.9375 -1.03125 -0.9375 -2.921875q0 -1.234375 0.40625 -2.15625q0.40625 -0.921875 1.234375 -1.375q0.84375 -0.46875 1.8125 -0.46875q1.25 0 2.03125 0.625q0.78125 0.625 1.015625 1.765625l-1.265625 0.203125q-0.171875 -0.765625 -0.625 -1.15625q-0.453125 -0.390625 -1.09375 -0.390625q-0.984375 0 -1.59375 0.703125q-0.609375 0.703125 -0.609375 2.203125q0 1.53125 0.578125 2.234375q0.59375 0.6875 1.546875 0.6875q0.75 0 1.265625 -0.453125q0.515625 -0.46875 0.640625 -1.4375zm5.1875 1.625l0.1875 1.140625q-0.546875 0.109375 -0.984375 0.109375q-0.6875 0 -1.078125 -0.21875q-0.390625 -0.21875 -0.546875 -0.578125q-0.15625 -0.359375 -0.15625 -1.515625l0 -4.375l-0.953125 0l0 -1.0l0.953125 0l0 -1.890625l1.28125 -0.765625l0 2.65625l1.296875 0l0 1.0l-1.296875 0l0 4.4375q0 0.546875 0.0625 0.71875q0.078125 0.15625 0.21875 0.25q0.15625 0.078125 0.453125 0.078125q0.203125 0 0.5625 -0.046875zm5.3314514 -7.859375l0 -1.46875l1.296875 0l0 1.46875l-1.296875 0zm0 9.015625l0 -7.59375l1.296875 0l0 7.59375l-1.296875 0zm3.256134 0l0 -7.59375l1.15625 0l0 1.078125q0.84375 -1.25 2.421875 -1.25q0.6875 0 1.265625 0.25q0.578125 0.234375 0.859375 0.640625q0.28125 0.40625 0.40625 0.953125q0.0625 0.359375 0.0625 1.25l0 4.671875l-1.28125 0l0 -4.625q0 -0.78125 -0.15625 -1.171875q-0.15625 -0.390625 -0.546875 -0.625q-0.375 -0.234375 -0.890625 -0.234375q-0.8125 0 -1.421875 0.53125q-0.59375 0.515625 -0.59375 1.96875l0 4.15625l-1.28125 0zm13.072998 0l0 -0.953125q-0.71875 1.125 -2.125 1.125q-0.90625 0 -1.671875 -0.5q-0.75 -0.5 -1.171875 -1.390625q-0.421875 -0.90625 -0.421875 -2.078125q0 -1.140625 0.375 -2.0625q0.390625 -0.921875 1.140625 -1.40625q0.765625 -0.5 1.703125 -0.5q0.6875 0 1.21875 0.296875q0.53125 0.28125 0.875 0.734375l0 -3.75l1.28125 0l0 10.484375l-1.203125 0zm-4.0625 -3.796875q0 1.46875 0.609375 2.1875q0.625 0.71875 1.453125 0.71875q0.84375 0 1.4375 -0.6875q0.59375 -0.6875 0.59375 -2.109375q0 -1.5625 -0.609375 -2.28125q-0.59375 -0.734375 -1.484375 -0.734375q-0.84375 0 -1.421875 0.703125q-0.578125 0.703125 -0.578125 2.203125zm12.494843 1.34375l1.328125 0.171875q-0.3125 1.171875 -1.171875 1.8125q-0.84375 0.640625 -2.171875 0.640625q-1.671875 0 -2.65625 -1.015625q-0.96875 -1.03125 -0.96875 -2.890625q0 -1.921875 0.984375 -2.96875q1.0 -1.0625 2.578125 -1.0625q1.515625 0 2.484375 1.03125q0.96875 1.03125 0.96875 2.921875q0 0.109375 -0.015625 0.34375l-5.65625 0q0.0625 1.25 0.703125 1.921875q0.640625 0.65625 1.59375 0.65625q0.703125 0 1.203125 -0.359375q0.5 -0.375 0.796875 -1.203125zm-4.234375 -2.078125l4.25 0q-0.09375 -0.953125 -0.484375 -1.4375q-0.625 -0.75 -1.609375 -0.75q-0.875 0 -1.484375 0.59375q-0.609375 0.59375 -0.671875 1.59375zm6.322998 4.53125l2.78125 -3.953125l-2.578125 -3.640625l1.609375 0l1.171875 1.78125q0.328125 0.5 0.53125 0.84375q0.3125 -0.46875 0.578125 -0.828125l1.28125 -1.796875l1.53125 0l-2.625 3.578125l2.828125 4.015625l-1.578125 0l-1.5625 -2.359375l-0.40625 -0.640625l-2.0 3.0l-1.5625 0zm13.390625 -2.453125l1.328125 0.171875q-0.3125 1.171875 -1.171875 1.8125q-0.84375 0.640625 -2.171875 0.640625q-1.671875 0 -2.65625 -1.015625q-0.96875 -1.03125 -0.96875 -2.890625q0 -1.921875 0.984375 -2.96875q1.0 -1.0625 2.578125 -1.0625q1.515625 0 2.484375 1.03125q0.96875 1.03125 0.96875 2.921875q0 0.109375 -0.015625 0.34375l-5.65625 0q0.0625 1.25 0.703125 1.921875q0.640625 0.65625 1.59375 0.65625q0.703125 0 1.203125 -0.359375q0.5 -0.375 0.796875 -1.203125zm-4.234375 -2.078125l4.25 0q-0.09375 -0.953125 -0.484375 -1.4375q-0.625 -0.75 -1.609375 -0.75q-0.875 0 -1.484375 0.59375q-0.609375 0.59375 -0.671875 1.59375zm7.166748 4.53125l0 -7.59375l1.15625 0l0 1.140625q0.453125 -0.796875 0.828125 -1.046875q0.375 -0.265625 0.8125 -0.265625q0.65625 0 1.328125 0.40625l-0.4375 1.203125q-0.46875 -0.28125 -0.953125 -0.28125q-0.421875 0 -0.765625 0.25q-0.328125 0.25 -0.46875 0.703125q-0.21875 0.6875 -0.21875 1.5l0 3.984375l-1.28125 0z" fill-rule="nonzero"/><path fill="#000000" fill-opacity="0.0" d="m378.74188 108.71966l76.78476 0l0 80.12336l-76.78476 0z" fill-rule="evenodd"/><path fill="#000000" fill-opacity="0.0" d="m388.33997 108.71966l0 80.12336m-9.5980835 -70.10794l76.78476 0" fill-rule="evenodd"/><path fill="#000000" fill-opacity="0.0" d="m378.74188 108.71966l76.78476 0l0 80.12336l-76.78476 0z" fill-rule="evenodd"/><path stroke="#ffffff" stroke-width="2.0" stroke-linejoin="round" stroke-linecap="butt" d="m388.33997 108.71966l0 80.12336m-9.5980835 -70.10794l76.78476 0" fill-rule="evenodd"/><path stroke="#ffffff" stroke-width="2.0" stroke-linejoin="round" stroke-linecap="butt" d="m378.74188 108.71966l76.78476 0l0 80.12336l-76.78476 0z" fill-rule="evenodd"/><path fill="#000000" fill-opacity="0.0" d="m328.66183 194.1173l176.94489 0l0 37.16536l-176.94489 0z" fill-rule="evenodd"/><path fill="#ffffff" d="m363.1418 214.93167l1.265625 -0.203125q0.109375 0.765625 0.59375 1.171875q0.5 0.40625 1.375 0.40625q0.890625 0 1.3125 -0.359375q0.4375 -0.359375 0.4375 -0.84375q0 -0.4375 -0.375 -0.6875q-0.265625 -0.171875 -1.3125 -0.4375q-1.421875 -0.359375 -1.96875 -0.609375q-0.546875 -0.265625 -0.828125 -0.734375q-0.28125 -0.46875 -0.28125 -1.015625q0 -0.515625 0.21875 -0.9375q0.234375 -0.4375 0.640625 -0.734375q0.296875 -0.21875 0.8125 -0.359375q0.53125 -0.15625 1.125 -0.15625q0.890625 0 1.5625 0.265625q0.671875 0.25 1.0 0.6875q0.328125 0.4375 0.4375 1.171875l-1.25 0.171875q-0.09375 -0.578125 -0.5 -0.90625q-0.40625 -0.34375 -1.15625 -0.34375q-0.890625 0 -1.28125 0.296875q-0.375 0.296875 -0.375 0.6875q0 0.25 0.15625 0.453125q0.15625 0.203125 0.5 0.34375q0.1875 0.078125 1.140625 0.328125q1.359375 0.359375 1.890625 0.59375q0.546875 0.234375 0.859375 0.6875q0.3125 0.4375 0.3125 1.09375q0 0.640625 -0.375 1.21875q-0.375 0.5625 -1.09375 0.875q-0.703125 0.3125 -1.59375 0.3125q-1.484375 0 -2.265625 -0.609375q-0.765625 -0.625 -0.984375 -1.828125zm13.046875 -0.1875l1.328125 0.171875q-0.3125 1.171875 -1.171875 1.8125q-0.84375 0.640625 -2.171875 0.640625q-1.671875 0 -2.65625 -1.015625q-0.96875 -1.03125 -0.96875 -2.890625q0 -1.921875 0.984375 -2.96875q1.0 -1.0625 2.578125 -1.0625q1.515625 0 2.484375 1.03125q0.96875 1.03125 0.96875 2.921875q0 0.109375 -0.015625 0.34375l-5.65625 0q0.0625 1.25 0.703125 1.921875q0.640625 0.65625 1.59375 0.65625q0.703125 0 1.203125 -0.359375q0.5 -0.375 0.796875 -1.203125zm-4.234375 -2.078125l4.25 0q-0.09375 -0.953125 -0.484375 -1.4375q-0.625 -0.75 -1.609375 -0.75q-0.875 0 -1.484375 0.59375q-0.609375 0.59375 -0.671875 1.59375zm7.1510925 4.53125l0 -10.484375l1.28125 0l0 10.484375l-1.28125 0zm3.2561646 0l0 -10.484375l1.28125 0l0 10.484375l-1.28125 0zm8.490509 -2.453125l1.328125 0.171875q-0.3125 1.171875 -1.171875 1.8125q-0.84375 0.640625 -2.171875 0.640625q-1.671875 0 -2.65625 -1.015625q-0.96875 -1.03125 -0.96875 -2.890625q0 -1.921875 0.984375 -2.96875q1.0 -1.0625 2.578125 -1.0625q1.515625 0 2.484375 1.03125q0.96875 1.03125 0.96875 2.921875q0 0.109375 -0.015625 0.34375l-5.65625 0q0.0625 1.25 0.703125 1.921875q0.640625 0.65625 1.59375 0.65625q0.703125 0 1.203125 -0.359375q0.5 -0.375 0.796875 -1.203125zm-4.234375 -2.078125l4.25 0q-0.09375 -0.953125 -0.484375 -1.4375q-0.625 -0.75 -1.609375 -0.75q-0.875 0 -1.484375 0.59375q-0.609375 0.59375 -0.671875 1.59375zm7.166748 4.53125l0 -7.59375l1.15625 0l0 1.140625q0.453125 -0.796875 0.828125 -1.046875q0.375 -0.265625 0.8125 -0.265625q0.65625 0 1.328125 0.40625l-0.4375 1.203125q-0.46875 -0.28125 -0.953125 -0.28125q-0.421875 0 -0.765625 0.25q-0.328125 0.25 -0.46875 0.703125q-0.21875 0.6875 -0.21875 1.5l0 3.984375l-1.28125 0zm10.155731 0l-1.203125 0l0 -10.484375l1.296875 0l0 3.734375q0.8125 -1.015625 2.078125 -1.015625q0.703125 0 1.328125 0.28125q0.625 0.28125 1.03125 0.796875q0.40625 0.5 0.625 1.234375q0.234375 0.71875 0.234375 1.53125q0 1.96875 -0.96875 3.03125q-0.953125 1.0625 -2.3125 1.0625q-1.34375 0 -2.109375 -1.125l0 0.953125zm-0.015625 -3.859375q0 1.375 0.375 1.984375q0.609375 0.984375 1.640625 0.984375q0.84375 0 1.453125 -0.734375q0.625 -0.734375 0.625 -2.1875q0 -1.484375 -0.59375 -2.1875q-0.59375 -0.71875 -1.421875 -0.71875q-0.84375 0 -1.46875 0.734375q-0.609375 0.734375 -0.609375 2.125zm11.932373 2.921875q-0.71875 0.609375 -1.375 0.859375q-0.65625 0.25 -1.421875 0.25q-1.25 0 -1.921875 -0.609375q-0.671875 -0.609375 -0.671875 -1.5625q0 -0.5625 0.25 -1.015625q0.25 -0.46875 0.65625 -0.75q0.421875 -0.28125 0.9375 -0.421875q0.375 -0.09375 1.140625 -0.1875q1.5625 -0.1875 2.296875 -0.453125q0.015625 -0.265625 0.015625 -0.328125q0 -0.796875 -0.375 -1.109375q-0.484375 -0.4375 -1.453125 -0.4375q-0.921875 0 -1.359375 0.328125q-0.421875 0.3125 -0.625 1.109375l-1.265625 -0.171875q0.171875 -0.796875 0.5625 -1.296875q0.390625 -0.5 1.140625 -0.765625q0.75 -0.265625 1.71875 -0.265625q0.984375 0 1.59375 0.234375q0.609375 0.21875 0.890625 0.5625q0.28125 0.34375 0.40625 0.875q0.0625 0.328125 0.0625 1.1875l0 1.71875q0 1.796875 0.078125 2.28125q0.078125 0.46875 0.328125 0.90625l-1.34375 0q-0.203125 -0.40625 -0.265625 -0.9375zm-0.109375 -2.875q-0.703125 0.28125 -2.09375 0.484375q-0.796875 0.109375 -1.125 0.265625q-0.328125 0.140625 -0.515625 0.421875q-0.171875 0.265625 -0.171875 0.59375q0 0.515625 0.390625 0.859375q0.390625 0.34375 1.140625 0.34375q0.734375 0 1.3125 -0.3125q0.59375 -0.328125 0.859375 -0.890625q0.203125 -0.4375 0.203125 -1.296875l0 -0.46875zm8.260468 1.03125l1.265625 0.15625q-0.203125 1.3125 -1.0625 2.0625q-0.84375 0.734375 -2.09375 0.734375q-1.5625 0 -2.515625 -1.015625q-0.9375 -1.03125 -0.9375 -2.921875q0 -1.234375 0.40625 -2.15625q0.40625 -0.921875 1.234375 -1.375q0.84375 -0.46875 1.8125 -0.46875q1.25 0 2.03125 0.625q0.78125 0.625 1.015625 1.765625l-1.265625 0.203125q-0.171875 -0.765625 -0.625 -1.15625q-0.453125 -0.390625 -1.09375 -0.390625q-0.984375 0 -1.59375 0.703125q-0.609375 0.703125 -0.609375 2.203125q0 1.53125 0.578125 2.234375q0.59375 0.6875 1.546875 0.6875q0.75 0 1.265625 -0.453125q0.515625 -0.46875 0.640625 -1.4375zm2.375 2.78125l0 -10.484375l1.296875 0l0 5.96875l3.046875 -3.078125l1.671875 0l-2.90625 2.8125l3.1875 4.78125l-1.578125 0l-2.515625 -3.890625l-0.90625 0.875l0 3.015625l-1.296875 0zm10.915741 -3.796875q0 -2.109375 1.171875 -3.125q0.984375 -0.84375 2.390625 -0.84375q1.578125 0 2.5625 1.03125q1.0 1.015625 1.0 2.828125q0 1.46875 -0.4375 2.3125q-0.4375 0.828125 -1.28125 1.296875q-0.84375 0.46875 -1.84375 0.46875q-1.59375 0 -2.578125 -1.015625q-0.984375 -1.03125 -0.984375 -2.953125zm1.328125 0q0 1.453125 0.625 2.1875q0.640625 0.71875 1.609375 0.71875q0.96875 0 1.59375 -0.71875q0.640625 -0.734375 0.640625 -2.234375q0 -1.40625 -0.640625 -2.125q-0.640625 -0.734375 -1.59375 -0.734375q-0.96875 0 -1.609375 0.71875q-0.625 0.71875 -0.625 2.1875zm7.6198425 3.796875l0 -6.59375l-1.140625 0l0 -1.0l1.140625 0l0 -0.8125q0 -0.765625 0.125 -1.140625q0.1875 -0.5 0.65625 -0.8125q0.46875 -0.3125 1.3125 -0.3125q0.546875 0 1.203125 0.125l-0.1875 1.125q-0.40625 -0.0625 -0.765625 -0.0625q-0.578125 0 -0.828125 0.25q-0.234375 0.25 -0.234375 0.9375l0 0.703125l1.46875 0l0 1.0l-1.46875 0l0 6.59375l-1.28125 0zm3.8070068 0l0 -6.59375l-1.140625 0l0 -1.0l1.140625 0l0 -0.8125q0 -0.765625 0.125 -1.140625q0.1875 -0.5 0.65625 -0.8125q0.46875 -0.3125 1.3125 -0.3125q0.546875 0 1.203125 0.125l-0.1875 1.125q-0.40625 -0.0625 -0.765625 -0.0625q-0.578125 0 -0.828125 0.25q-0.234375 0.25 -0.234375 0.9375l0 0.703125l1.46875 0l0 1.0l-1.46875 0l0 6.59375l-1.28125 0zm3.759491 -9.015625l0 -1.46875l1.296875 0l0 1.46875l-1.296875 0zm0 9.015625l0 -7.59375l1.296875 0l0 7.59375l-1.296875 0zm8.209259 -2.78125l1.265625 0.15625q-0.203125 1.3125 -1.0625 2.0625q-0.84375 0.734375 -2.09375 0.734375q-1.5625 0 -2.515625 -1.015625q-0.9375 -1.03125 -0.9375 -2.921875q0 -1.234375 0.40625 -2.15625q0.40625 -0.921875 1.234375 -1.375q0.84375 -0.46875 1.8125 -0.46875q1.25 0 2.03125 0.625q0.78125 0.625 1.015625 1.765625l-1.265625 0.203125q-0.171875 -0.765625 -0.625 -1.15625q-0.453125 -0.390625 -1.09375 -0.390625q-0.984375 0 -1.59375 0.703125q-0.609375 0.703125 -0.609375 2.203125q0 1.53125 0.578125 2.234375q0.59375 0.6875 1.546875 0.6875q0.75 0 1.265625 -0.453125q0.515625 -0.46875 0.640625 -1.4375zm7.578125 0.328125l1.328125 0.171875q-0.3125 1.171875 -1.171875 1.8125q-0.84375 0.640625 -2.171875 0.640625q-1.671875 0 -2.65625 -1.015625q-0.96875 -1.03125 -0.96875 -2.890625q0 -1.921875 0.984375 -2.96875q1.0 -1.0625 2.578125 -1.0625q1.515625 0 2.484375 1.03125q0.96875 1.03125 0.96875 2.921875q0 0.109375 -0.015625 0.34375l-5.65625 0q0.0625 1.25 0.703125 1.921875q0.640625 0.65625 1.59375 0.65625q0.703125 0 1.203125 -0.359375q0.5 -0.375 0.796875 -1.203125zm-4.234375 -2.078125l4.25 0q-0.09375 -0.953125 -0.484375 -1.4375q-0.625 -0.75 -1.609375 -0.75q-0.875 0 -1.484375 0.59375q-0.609375 0.59375 -0.671875 1.59375z" fill-rule="nonzero"/><path fill="#000000" fill-opacity="0.0" d="m114.995155 67.16979l302.14175 0l0 41.543304" fill-rule="evenodd"/><path stroke="#ffffff" stroke-width="2.0" stroke-linejoin="round" stroke-linecap="butt" d="m126.99516 67.16979l290.14172 0l0 41.543312" fill-rule="evenodd"/><path fill="#ffffff" stroke="#ffffff" stroke-width="2.0" stroke-linecap="butt" d="m126.99516 63.866325l-9.076195 3.3034668l9.076195 3.3034592z" fill-rule="evenodd"/><path fill="#000000" fill-opacity="0.0" d="m253.75107 223.2984l0 61.95276l65.5748 0" fill-rule="evenodd"/><path stroke="#ffffff" stroke-width="2.0" stroke-linejoin="round" stroke-linecap="butt" d="m253.75107 223.29839l0 61.952774l53.5748 0" fill-rule="evenodd"/><path fill="#ffffff" stroke="#ffffff" stroke-width="2.0" stroke-linecap="butt" d="m307.32587 288.55463l9.076202 -3.3034668l-9.076202 -3.3034668z" fill-rule="evenodd"/><path fill="#000000" fill-opacity="0.0" d="m361.86655 285.25772l55.275604 0l0 -53.984253" fill-rule="evenodd"/><path stroke="#ffffff" stroke-width="2.0" stroke-linejoin="round" stroke-linecap="butt" d="m361.86655 285.25772l55.275604 0l0 -41.98427" fill-rule="evenodd"/><path fill="#ffffff" stroke="#ffffff" stroke-width="2.0" stroke-linecap="butt" d="m420.44562 243.27345l-3.3034668 -9.076187l-3.3034668 9.076187z" fill-rule="evenodd"/><path fill="#000000" fill-opacity="0.0" d="m295.12103 106.5005l82.48816 0l0 37.165344l-82.48816 0z" fill-rule="evenodd"/><path fill="#ffffff" d="m317.9565 129.5805l-0.03125 -0.96875q-0.59375 0.578125 -1.203125 0.84375q-0.59375 0.25 -1.265625 0.25q-0.609375 0 -1.046875 -0.15625q-0.4375 -0.15625 -0.71875 -0.421875q-0.28125 -0.28125 -0.421875 -0.65625q-0.125 -0.375 -0.125 -0.8125076q0 -1.078125 0.796875 -1.6875q0.8125 -0.609375 2.390625 -0.609375l1.484375 0l0 -0.640625q0 -0.625 -0.40625 -1.0q-0.40625 -0.390625 -1.25 -0.390625q-0.609375 0 -1.203125 0.140625q-0.578125 0.125 -1.21875 0.375l0 -1.125q0.25 -0.078125 0.53125 -0.15625q0.296875 -0.09375 0.609375 -0.15625q0.328125 -0.0625 0.671875 -0.09375q0.359375 -0.046875 0.71875 -0.046875q0.640625 0 1.15625 0.140625q0.53125 0.140625 0.890625 0.4375q0.359375 0.296875 0.546875 0.75q0.203125 0.4375 0.203125 1.03125l0 4.9531326l-1.109375 0zm-0.140625 -3.2656326l-1.578125 0q-0.46875 0 -0.8125 0.09375q-0.328125 0.09375 -0.546875 0.265625q-0.21875 0.171875 -0.328125 0.40625q-0.09375 0.234375 -0.09375 0.546875q0 0.203125 0.0625 0.39063263q0.0625 0.1875 0.203125 0.34375q0.15625 0.140625 0.375 0.234375q0.234375 0.078125 0.5625 0.078125q0.4375 0 0.984375 -0.265625q0.5625 -0.265625 1.171875 -0.8281326l0 -1.265625zm9.16745 3.0000076q-0.5 0.1875 -1.015625 0.265625q-0.5 0.09375 -1.046875 0.09375q-1.703125 0 -2.625 -0.921875q-0.921875 -0.9218826 -0.921875 -2.6875076q0 -0.859375 0.265625 -1.546875q0.265625 -0.703125 0.75 -1.1875q0.484375 -0.5 1.140625 -0.765625q0.671875 -0.265625 1.46875 -0.265625q0.5625 0 1.046875 0.078125q0.484375 0.078125 0.9375 0.25l0 1.1875q-0.46875 -0.234375 -0.953125 -0.34375q-0.484375 -0.109375 -1.0 -0.109375q-0.484375 0 -0.90625 0.1875q-0.421875 0.171875 -0.75 0.515625q-0.3125 0.34375 -0.5 0.84375q-0.1875 0.484375 -0.1875 1.109375q0 1.296875 0.625 1.953125q0.640625 0.6406326 1.765625 0.6406326q0.5 0 0.96875 -0.109375q0.484375 -0.109375 0.9375 -0.34375l0 1.15625zm8.058075 0q-0.5 0.1875 -1.015625 0.265625q-0.5 0.09375 -1.046875 0.09375q-1.703125 0 -2.625 -0.921875q-0.921875 -0.9218826 -0.921875 -2.6875076q0 -0.859375 0.265625 -1.546875q0.265625 -0.703125 0.75 -1.1875q0.484375 -0.5 1.140625 -0.765625q0.671875 -0.265625 1.46875 -0.265625q0.5625 0 1.046875 0.078125q0.484375 0.078125 0.9375 0.25l0 1.1875q-0.46875 -0.234375 -0.953125 -0.34375q-0.484375 -0.109375 -1.0 -0.109375q-0.484375 0 -0.90625 0.1875q-0.421875 0.171875 -0.75 0.515625q-0.3125 0.34375 -0.5 0.84375q-0.1875 0.484375 -0.1875 1.109375q0 1.296875 0.625 1.953125q0.640625 0.6406326 1.765625 0.6406326q0.5 0 0.96875 -0.109375q0.484375 -0.109375 0.9375 -0.34375l0 1.15625zm8.54245 -3.7031326q0 0.265625 -0.015625 0.453125q0 0.171875 -0.015625 0.328125l-5.046875 0q0 1.09375 0.609375 1.6875076q0.625 0.59375 1.78125 0.59375q0.3125 0 0.625 -0.015625q0.3125 -0.03125 0.609375 -0.078125q0.296875 -0.046875 0.5625 -0.09375q0.265625 -0.0625 0.5 -0.125l0 1.03125q-0.515625 0.140625 -1.15625 0.21875q-0.640625 0.09375 -1.328125 0.09375q-0.921875 0 -1.59375 -0.25q-0.65625 -0.25 -1.078125 -0.71875q-0.421875 -0.484375 -0.625 -1.1718826q-0.203125 -0.6875 -0.203125 -1.5625q0 -0.765625 0.21875 -1.4375q0.21875 -0.671875 0.625 -1.1875q0.421875 -0.515625 1.03125 -0.8125q0.609375 -0.296875 1.375 -0.296875q0.765625 0 1.34375 0.234375q0.578125 0.234375 0.96875 0.671875q0.40625 0.4375 0.609375 1.0625q0.203125 0.609375 0.203125 1.375zm-1.296875 -0.1875q0.015625 -0.46875 -0.109375 -0.859375q-0.109375 -0.40625 -0.34375 -0.6875q-0.234375 -0.296875 -0.59375 -0.453125q-0.359375 -0.15625 -0.828125 -0.15625q-0.40625 0 -0.75 0.15625q-0.328125 0.15625 -0.578125 0.4375q-0.25 0.28125 -0.40625 0.6875q-0.140625 0.40625 -0.171875 0.875l3.78125 0zm9.41745 0.4375q0 0.953125 -0.265625 1.671875q-0.265625 0.7187576 -0.75 1.1875076q-0.46875 0.46875 -1.109375 0.703125q-0.640625 0.234375 -1.390625 0.234375q-0.34375 0 -0.6875 -0.03125q-0.34375 -0.03125 -0.6875 -0.125l0 3.015625l-1.25 0l0 -10.125008l1.109375 0l0.078125 1.203125q0.546875 -0.734375 1.15625 -1.03125q0.609375 -0.296875 1.3125 -0.296875q0.609375 0 1.078125 0.265625q0.46875 0.25 0.78125 0.71875q0.3125 0.46875 0.46875 1.140625q0.15625 0.65625 0.15625 1.46875zm-1.265625 0.046875q0 -0.5625 -0.09375 -1.03125q-0.078125 -0.46875 -0.265625 -0.796875q-0.171875 -0.34375 -0.453125 -0.53125q-0.265625 -0.1875 -0.65625 -0.1875q-0.234375 0 -0.484375 0.078125q-0.234375 0.0625 -0.5 0.25q-0.265625 0.171875 -0.5625 0.46875q-0.28125 0.28125 -0.609375 0.703125l0 3.4843826q0.34375 0.140625 0.71875 0.234375q0.390625 0.078125 0.75 0.078125q1.0 0 1.578125 -0.6875076q0.578125 -0.6875 0.578125 -2.0625zm8.97995 3.5781326q-0.421875 0.09375 -0.875 0.140625q-0.453125 0.046875 -0.921875 0.046875q-1.34375 0 -2.015625 -0.609375q-0.65625 -0.609375 -0.65625 -1.8750076l0 -3.75l-2.015625 0l0 -1.046875l2.015625 0l0 -1.96875l1.234375 -0.328125l0 2.296875l3.234375 0l0 1.046875l-3.234375 0l0 3.65625q0 0.765625 0.40625 1.1562576q0.421875 0.375 1.21875 0.375q0.34375 0 0.75 -0.046875q0.40625 -0.0625 0.859375 -0.171875l0 1.078125z" fill-rule="nonzero"/><path fill="#000000" fill-opacity="0.0" d="m290.9453 152.76822l94.36221 0l0 37.165344l-94.36221 0z" fill-rule="evenodd"/><path fill="#ffffff" d="m323.74686 175.84822l-0.03125 -0.96875q-0.59375 0.578125 -1.203125 0.84375q-0.59375 0.25 -1.265625 0.25q-0.609375 0 -1.046875 -0.15625q-0.4375 -0.15625 -0.71875 -0.421875q-0.28125 -0.28125 -0.421875 -0.65625q-0.125 -0.375 -0.125 -0.8125q0 -1.078125 0.796875 -1.6875q0.8125 -0.609375 2.390625 -0.609375l1.484375 0l0 -0.640625q0 -0.625 -0.40625 -1.0q-0.40625 -0.390625 -1.25 -0.390625q-0.609375 0 -1.203125 0.140625q-0.578125 0.125 -1.21875 0.375l0 -1.125q0.25 -0.078125 0.53125 -0.15625q0.296875 -0.09375 0.609375 -0.15625q0.328125 -0.0625 0.671875 -0.09375q0.359375 -0.046875 0.71875 -0.046875q0.640625 0 1.15625 0.140625q0.53125 0.140625 0.890625 0.4375q0.359375 0.296875 0.546875 0.75q0.203125 0.4375 0.203125 1.03125l0 4.953125l-1.109375 0zm-0.140625 -3.265625l-1.578125 0q-0.46875 0 -0.8125 0.09375q-0.328125 0.09375 -0.546875 0.265625q-0.21875 0.171875 -0.328125 0.40625q-0.09375 0.234375 -0.09375 0.546875q0 0.203125 0.0625 0.390625q0.0625 0.1875 0.203125 0.34375q0.15625 0.140625 0.375 0.234375q0.234375 0.078125 0.5625 0.078125q0.4375 0 0.984375 -0.265625q0.5625 -0.265625 1.171875 -0.828125l0 -1.265625zm9.714325 -0.453125q0 0.890625 -0.25 1.59375q-0.234375 0.703125 -0.703125 1.203125q-0.453125 0.484375 -1.109375 0.75q-0.640625 0.25 -1.453125 0.25q-0.640625 0 -1.3125 -0.109375q-0.65625 -0.125 -1.3125 -0.390625l0 -9.6875l1.25 0l0 2.78125l-0.0625 1.328125q0.546875 -0.71875 1.15625 -1.015625q0.609375 -0.296875 1.3125 -0.296875q0.609375 0 1.078125 0.265625q0.46875 0.25 0.78125 0.71875q0.3125 0.46875 0.46875 1.140625q0.15625 0.65625 0.15625 1.46875zm-1.265625 0.046875q0 -0.5625 -0.09375 -1.03125q-0.078125 -0.46875 -0.265625 -0.796875q-0.171875 -0.34375 -0.453125 -0.53125q-0.265625 -0.1875 -0.65625 -0.1875q-0.234375 0 -0.484375 0.078125q-0.234375 0.0625 -0.5 0.25q-0.265625 0.171875 -0.5625 0.46875q-0.28125 0.28125 -0.609375 0.703125l0 3.484375q0.359375 0.140625 0.734375 0.234375q0.390625 0.078125 0.734375 0.078125q0.421875 0 0.8125 -0.125q0.390625 -0.140625 0.6875 -0.453125q0.296875 -0.328125 0.46875 -0.859375q0.1875 -0.53125 0.1875 -1.3125zm9.4487 0.015625q0 0.84375 -0.25 1.546875q-0.234375 0.6875 -0.671875 1.1875q-0.4375 0.5 -1.078125 0.78125q-0.640625 0.265625 -1.453125 0.265625q-0.765625 0 -1.390625 -0.234375q-0.609375 -0.234375 -1.03125 -0.703125q-0.421875 -0.46875 -0.65625 -1.15625q-0.21875 -0.6875 -0.21875 -1.578125q0 -0.84375 0.234375 -1.53125q0.234375 -0.6875 0.671875 -1.1875q0.453125 -0.5 1.09375 -0.765625q0.640625 -0.28125 1.4375 -0.28125q0.78125 0 1.390625 0.25q0.609375 0.234375 1.03125 0.703125q0.4375 0.453125 0.65625 1.140625q0.234375 0.6875 0.234375 1.5625zm-1.28125 0.0625q0 -0.671875 -0.15625 -1.15625q-0.140625 -0.5 -0.421875 -0.828125q-0.265625 -0.34375 -0.65625 -0.5q-0.375 -0.171875 -0.859375 -0.171875q-0.5625 0 -0.96875 0.21875q-0.390625 0.21875 -0.640625 0.578125q-0.25 0.359375 -0.375 0.84375q-0.109375 0.484375 -0.109375 1.015625q0 0.671875 0.140625 1.171875q0.140625 0.5 0.40625 0.828125q0.28125 0.328125 0.671875 0.5q0.390625 0.171875 0.875 0.171875q0.5625 0 0.953125 -0.21875q0.390625 -0.21875 0.640625 -0.578125q0.265625 -0.375 0.375 -0.859375q0.125 -0.484375 0.125 -1.015625zm3.370575 -3.59375l1.140625 0l0.03125 1.328125q0.640625 -0.765625 1.25 -1.109375q0.625 -0.34375 1.25 -0.34375q1.125 0 1.703125 0.71875q0.578125 0.71875 0.53125 2.15625l-1.265625 0q0.03125 -0.953125 -0.265625 -1.375q-0.296875 -0.421875 -0.875 -0.421875q-0.25 0 -0.515625 0.09375q-0.25 0.078125 -0.515625 0.28125q-0.265625 0.1875 -0.5625 0.5q-0.296875 0.3125 -0.640625 0.75l0 4.609375l-1.265625 0l0 -7.1875zm13.558075 7.09375q-0.421875 0.09375 -0.875 0.140625q-0.453125 0.046875 -0.921875 0.046875q-1.34375 0 -2.015625 -0.609375q-0.65625 -0.609375 -0.65625 -1.875l0 -3.75l-2.015625 0l0 -1.046875l2.015625 0l0 -1.96875l1.234375 -0.328125l0 2.296875l3.234375 0l0 1.046875l-3.234375 0l0 3.65625q0 0.765625 0.40625 1.15625q0.421875 0.375 1.21875 0.375q0.34375 0 0.75 -0.046875q0.40625 -0.0625 0.859375 -0.171875l0 1.078125z" fill-rule="nonzero"/><path fill="#ffffff" d="m285.27036 134.39413l0 0c0 -3.3919983 2.7497559 -6.141739 6.1417236 -6.141739l0 0c1.6289062 0 3.1910706 0.64707947 4.342865 1.7988739c1.1517944 1.1517944 1.7988892 2.713974 1.7988892 4.342865l0 0c0 3.391983 -2.7497559 6.1417236 -6.141754 6.1417236l0 0c-3.3919678 0 -6.1417236 -2.7497406 -6.1417236 -6.1417236z" fill-rule="evenodd"/><path fill="#ffffff" d="m285.22574 161.74059l0 0c0 -3.391983 2.7497559 -6.141739 6.1417236 -6.141739l0 0c1.6289062 0 3.1910706 0.64707947 4.342865 1.7988739c1.1517944 1.1517944 1.7988892 2.713974 1.7988892 4.342865l0 0c0 3.391983 -2.7497559 6.1417236 -6.141754 6.1417236l0 0c-3.3919678 0 -6.1417236 -2.7497406 -6.1417236 -6.1417236z" fill-rule="evenodd"/><path fill="#000000" fill-opacity="0.0" d="m366.0949 135.40338l-55.93701 0" fill-rule="evenodd"/><path stroke="#ffffff" stroke-width="1.0" stroke-linejoin="round" stroke-linecap="butt" d="m366.0949 135.4034l-49.93701 0" fill-rule="evenodd"/><path fill="#ffffff" stroke="#ffffff" stroke-width="1.0" stroke-linecap="butt" d="m316.1579 133.75166l-4.5381165 1.6517334l4.5381165 1.6517181z" fill-rule="evenodd"/><path fill="#000000" fill-opacity="0.0" d="m366.0949 161.4165l-55.93701 0" fill-rule="evenodd"/><path stroke="#ffffff" stroke-width="1.0" stroke-linejoin="round" stroke-linecap="butt" d="m366.0949 161.41652l-49.93701 0" fill-rule="evenodd"/><path fill="#ffffff" stroke="#ffffff" stroke-width="1.0" stroke-linecap="butt" d="m316.1579 159.76479l-4.5381165 1.6517334l4.5381165 1.6517334z" fill-rule="evenodd"/></g></svg>