<svg version="1.1" viewBox="0.0 0.0 530.8503937007874 223.01837270341207" fill="none" stroke="none" stroke-linecap="square" stroke-miterlimit="10" xmlns:xlink="http://www.w3.org/1999/xlink" xmlns="http://www.w3.org/2000/svg"><clipPath id="p.0"><path d="m0 0l530.8504 0l0 223.01837l-530.8504 0l0 -223.01837z" clip-rule="nonzero"/></clipPath><g clip-path="url(#p.0)"><path fill="#000000" fill-opacity="0.0" d="m0 0l530.8504 0l0 223.01837l-530.8504 0z" fill-rule="evenodd"/><path fill="#000000" fill-opacity="0.0" d="m16.327984 85.82706l0 0c0 -8.055412 6.530205 -14.585617 14.585621 -14.585617l0 0c3.8683472 0 7.5782585 1.5366898 10.313591 4.272026c2.7353363 2.7353363 4.27203 6.445244 4.27203 10.313591l0 0c0 8.05542 -6.530205 14.585625 -14.585621 14.585625l0 0c-8.055416 0 -14.585621 -6.530205 -14.585621 -14.585625z" fill-rule="evenodd"/><path stroke="#ffffff" stroke-width="2.0" stroke-linejoin="round" stroke-linecap="butt" d="m16.327984 85.82706l0 0c0 -8.055412 6.530205 -14.585617 14.585621 -14.585617l0 0c3.8683472 0 7.5782585 1.5366898 10.313591 4.272026c2.7353363 2.7353363 4.27203 6.445244 4.27203 10.313591l0 0c0 8.05542 -6.530205 14.585625 -14.585621 14.585625l0 0c-8.055416 0 -14.585621 -6.530205 -14.585621 -14.585625z" fill-rule="evenodd"/><path fill="#000000" fill-opacity="0.0" d="m9.055779 136.5443c-4.1217747 -9.8929825 -1.0849438 -21.320992 7.4041452 -27.862808c8.489088 -6.5418167 20.313684 -6.5662537 28.829733 -0.059570312c8.516052 6.5066833 11.600082 17.922043 7.519226 27.83197z" fill-rule="evenodd"/><path stroke="#ffffff" stroke-width="2.0" stroke-linejoin="round" stroke-linecap="butt" d="m9.055779 136.5443c-4.1217747 -9.8929825 -1.0849438 -21.320992 7.4041452 -27.862808c8.489088 -6.5418167 20.313684 -6.5662537 28.829733 -0.059570312c8.516052 6.5066833 11.600082 17.922043 7.519226 27.83197z" fill-rule="evenodd"/><path fill="#000000" fill-opacity="0.0" d="m0 147.09186l61.82677 0l0 35.559067l-61.82677 0z" fill-rule="evenodd"/><path fill="#ffffff" d="m18.895075 168.89186l-2.625 -6.90625l1.234375 0l1.484375 4.140625q0.234375 0.65625 0.4375 1.390625q0.15625 -0.546875 0.4375 -1.3125l1.53125 -4.21875l1.21875 0l-2.625 6.90625l-1.09375 0zm4.3046875 -3.453125q0 -1.921875 1.078125 -2.84375q0.890625 -0.765625 2.171875 -0.765625q1.421875 0 2.328125 0.9375q0.90625 0.921875 0.90625 2.578125q0 1.328125 -0.40625 2.09375q-0.390625 0.765625 -1.15625 1.1875q-0.765625 0.421875 -1.671875 0.421875q-1.453125 0 -2.359375 -0.921875q-0.890625 -0.9375 -0.890625 -2.6875zm1.203125 0q0 1.328125 0.578125 1.984375q0.59375 0.65625 1.46875 0.65625q0.875 0 1.453125 -0.65625q0.578125 -0.671875 0.578125 -2.03125q0 -1.28125 -0.59375 -1.9375q-0.578125 -0.65625 -1.4375 -0.65625q-0.875 0 -1.46875 0.65625q-0.578125 0.65625 -0.578125 1.984375zm9.209349 2.40625l0.171875 1.03125q-0.5 0.109375 -0.890625 0.109375q-0.640625 0 -0.9999981 -0.203125q-0.34375 -0.203125 -0.484375 -0.53125q-0.140625 -0.328125 -0.140625 -1.390625l0 -3.96875l-0.859375 0l0 -0.90625l0.859375 0l0 -1.71875l1.1718731 -0.703125l0 2.421875l1.171875 0l0 0.90625l-1.171875 0l0 4.046875q0 0.5 0.046875 0.640625q0.0625 0.140625 0.203125 0.234375q0.140625 0.078125 0.40625 0.078125q0.203125 0 0.515625 -0.046875zm5.8748627 -1.171875l1.203125 0.140625q-0.28125 1.0625 -1.0625 1.65625q-0.765625 0.578125 -1.96875 0.578125q-1.515625 0 -2.40625 -0.9375q-0.890625 -0.9375 -0.890625 -2.609375q0 -1.75 0.890625 -2.703125q0.90625 -0.96875 2.34375 -0.96875q1.390625 0 2.265625 0.9375q0.875 0.9375 0.875 2.65625q0 0.109375 0 0.3125l-5.15625 0q0.0625 1.140625 0.640625 1.75q0.578125 0.59375 1.4375 0.59375q0.65625 0 1.109375 -0.328125q0.453125 -0.34375 0.71875 -1.078125zm-3.84375 -1.90625l3.859375 0q-0.078125 -0.859375 -0.4375 -1.296875q-0.5625 -0.6875 -1.453125 -0.6875q-0.8125 0 -1.359375 0.546875q-0.546875 0.53125 -0.609375 1.4375zm6.5062256 4.125l0 -6.90625l1.0625 0l0 1.046875q0.40625 -0.734375 0.734375 -0.96875q0.34375 -0.234375 0.765625 -0.234375q0.59375 0 1.203125 0.375l-0.40625 1.078125q-0.4375 -0.25 -0.859375 -0.25q-0.390625 0 -0.703125 0.234375q-0.296875 0.234375 -0.421875 0.640625q-0.203125 0.625 -0.203125 1.359375l0 3.625l-1.171875 0z" fill-rule="nonzero"/><path fill="#000000" fill-opacity="0.0" d="m390.90814 147.09186l137.10236 0l0 35.559067l-137.10236 0z" fill-rule="evenodd"/><path fill="#ffffff" d="m437.44202 166.36061l1.15625 0.15625q-0.1875 1.1875 -0.96875 1.859375q-0.78125 0.671875 -1.921875 0.671875q-1.40625 0 -2.28125 -0.921875q-0.859375 -0.9375 -0.859375 -2.65625q0 -1.125 0.375 -1.96875q0.375 -0.84375 1.125 -1.25q0.765625 -0.421875 1.65625 -0.421875q1.125 0 1.84375 0.578125q0.71875 0.5625 0.921875 1.609375l-1.140625 0.171875q-0.171875 -0.703125 -0.59375 -1.046875q-0.40625 -0.359375 -0.984375 -0.359375q-0.890625 0 -1.453125 0.640625q-0.546875 0.640625 -0.546875 2.0q0 1.40625 0.53125 2.03125q0.546875 0.625 1.40625 0.625q0.6875 0 1.140625 -0.421875q0.46875 -0.421875 0.59375 -1.296875zm2.1484375 2.53125l0 -9.546875l1.171875 0l0 3.421875q0.828125 -0.9375 2.078125 -0.9375q0.765625 0 1.328125 0.296875q0.5625 0.296875 0.8125 0.84375q0.25 0.53125 0.25 1.546875l0 4.375l-1.171875 0l0 -4.375q0 -0.890625 -0.390625 -1.28125q-0.375 -0.40625 -1.078125 -0.40625q-0.515625 0 -0.984375 0.28125q-0.453125 0.265625 -0.65625 0.734375q-0.1875 0.453125 -0.1875 1.265625l0 3.78125l-1.171875 0zm11.928101 -0.859375q-0.65625 0.5625 -1.265625 0.796875q-0.59375 0.21875 -1.28125 0.21875q-1.140625 0 -1.75 -0.546875q-0.609375 -0.5625 -0.609375 -1.4375q0 -0.5 0.21875 -0.921875q0.234375 -0.421875 0.609375 -0.671875q0.375 -0.25 0.84375 -0.390625q0.34375 -0.078125 1.046875 -0.171875q1.421875 -0.171875 2.09375 -0.40625q0 -0.234375 0 -0.296875q0 -0.71875 -0.328125 -1.015625q-0.453125 -0.390625 -1.34375 -0.390625q-0.8125 0 -1.21875 0.296875q-0.390625 0.28125 -0.578125 1.015625l-1.140625 -0.15625q0.15625 -0.734375 0.515625 -1.1875q0.359375 -0.453125 1.03125 -0.6875q0.671875 -0.25 1.5625 -0.25q0.890625 0 1.4375 0.203125q0.5625 0.203125 0.8125 0.53125q0.265625 0.3125 0.375 0.796875q0.046875 0.296875 0.046875 1.078125l0 1.5625q0 1.625 0.078125 2.0625q0.078125 0.4375 0.296875 0.828125l-1.21875 0q-0.1875 -0.359375 -0.234375 -0.859375zm-0.09375 -2.609375q-0.640625 0.265625 -1.921875 0.4375q-0.71875 0.109375 -1.015625 0.25q-0.296875 0.125 -0.46875 0.375q-0.15625 0.25 -0.15625 0.546875q0 0.46875 0.34375 0.78125q0.359375 0.3125 1.046875 0.3125q0.671875 0 1.203125 -0.296875q0.53125 -0.296875 0.78125 -0.8125q0.1875 -0.390625 0.1875 -1.171875l0 -0.421875zm3.0062256 -4.71875l0 -1.359375l1.171875 0l0 1.359375l-1.171875 0zm0 8.1875l0 -6.90625l1.171875 0l0 6.90625l-1.171875 0zm2.92984 0l0 -6.90625l1.0625 0l0 1.046875q0.40625 -0.734375 0.734375 -0.96875q0.34375 -0.234375 0.765625 -0.234375q0.59375 0 1.203125 0.375l-0.40625 1.078125q-0.4375 -0.25 -0.859375 -0.25q-0.390625 0 -0.703125 0.234375q-0.296875 0.234375 -0.421875 0.640625q-0.203125 0.625 -0.203125 1.359375l0 3.625l-1.171875 0zm4.4539795 0l0 -6.90625l1.046875 0l0 0.96875q0.328125 -0.515625 0.859375 -0.8125q0.546875 -0.3125 1.234375 -0.3125q0.78125 0 1.265625 0.3125q0.484375 0.3125 0.6875 0.890625q0.828125 -1.203125 2.140625 -1.203125q1.03125 0 1.578125 0.578125q0.5625 0.5625 0.5625 1.734375l0 4.75l-1.171875 0l0 -4.359375q0 -0.703125 -0.125 -1.0q-0.109375 -0.3125 -0.40625 -0.5q-0.296875 -0.1875 -0.703125 -0.1875q-0.71875 0 -1.203125 0.484375q-0.484375 0.484375 -0.484375 1.546875l0 4.015625l-1.171875 0l0 -4.484375q0 -0.78125 -0.296875 -1.171875q-0.28125 -0.390625 -0.921875 -0.390625q-0.5 0 -0.921875 0.265625q-0.421875 0.25 -0.609375 0.75q-0.1875 0.5 -0.1875 1.453125l0 3.578125l-1.171875 0zm15.6180725 -0.859375q-0.65625 0.5625 -1.265625 0.796875q-0.59375 0.21875 -1.28125 0.21875q-1.140625 0 -1.75 -0.546875q-0.609375 -0.5625 -0.609375 -1.4375q0 -0.5 0.21875 -0.921875q0.234375 -0.421875 0.609375 -0.671875q0.375 -0.25 0.84375 -0.390625q0.34375 -0.078125 1.046875 -0.171875q1.421875 -0.171875 2.09375 -0.40625q0 -0.234375 0 -0.296875q0 -0.71875 -0.328125 -1.015625q-0.453125 -0.390625 -1.34375 -0.390625q-0.8125 0 -1.21875 0.296875q-0.390625 0.28125 -0.578125 1.015625l-1.140625 -0.15625q0.15625 -0.734375 0.515625 -1.1875q0.359375 -0.453125 1.03125 -0.6875q0.671875 -0.25 1.5625 -0.25q0.890625 0 1.4375 0.203125q0.5625 0.203125 0.8125 0.53125q0.265625 0.3125 0.375 0.796875q0.046875 0.296875 0.046875 1.078125l0 1.5625q0 1.625 0.078125 2.0625q0.078125 0.4375 0.296875 0.828125l-1.21875 0q-0.1875 -0.359375 -0.234375 -0.859375zm-0.09375 -2.609375q-0.640625 0.265625 -1.921875 0.4375q-0.71875 0.109375 -1.015625 0.25q-0.296875 0.125 -0.46875 0.375q-0.15625 0.25 -0.15625 0.546875q0 0.46875 0.34375 0.78125q0.359375 0.3125 1.046875 0.3125q0.671875 0 1.203125 -0.296875q0.53125 -0.296875 0.78125 -0.8125q0.1875 -0.390625 0.1875 -1.171875l0 -0.421875zm2.9906006 3.46875l0 -6.90625l1.0625 0l0 0.984375q0.75 -1.140625 2.1875 -1.140625q0.625 0 1.15625 0.21875q0.53125 0.21875 0.78125 0.59375q0.265625 0.359375 0.375 0.859375q0.0625 0.328125 0.0625 1.140625l0 4.25l-1.171875 0l0 -4.203125q0 -0.71875 -0.140625 -1.0625q-0.140625 -0.359375 -0.484375 -0.5625q-0.34375 -0.21875 -0.8125 -0.21875q-0.75 0 -1.296875 0.46875q-0.546875 0.46875 -0.546875 1.796875l0 3.78125l-1.171875 0z" fill-rule="nonzero"/><path fill="#000000" fill-opacity="0.0" d="m444.8739 85.82706l0 0c0 -8.055412 6.5302124 -14.585617 14.585632 -14.585617l0 0c3.8683472 0 7.578247 1.5366898 10.313599 4.272026c2.735321 2.7353363 4.2720337 6.445244 4.2720337 10.313591l0 0c0 8.05542 -6.5302124 14.585625 -14.585632 14.585625l0 0c-8.05542 0 -14.585632 -6.530205 -14.585632 -14.585625z" fill-rule="evenodd"/><path stroke="#ffffff" stroke-width="2.0" stroke-linejoin="round" stroke-linecap="butt" d="m444.8739 85.82706l0 0c0 -8.055412 6.5302124 -14.585617 14.585632 -14.585617l0 0c3.8683472 0 7.578247 1.5366898 10.313599 4.272026c2.735321 2.7353363 4.2720337 6.445244 4.2720337 10.313591l0 0c0 8.05542 -6.5302124 14.585625 -14.585632 14.585625l0 0c-8.05542 0 -14.585632 -6.530205 -14.585632 -14.585625z" fill-rule="evenodd"/><path fill="#000000" fill-opacity="0.0" d="m437.6017 136.5443c-4.121765 -9.8929825 -1.0849609 -21.320992 7.4041443 -27.862808c8.489075 -6.5418167 20.31369 -6.5662537 28.829742 -0.059570312c8.516052 6.5066833 11.600067 17.922043 7.519226 27.83197z" fill-rule="evenodd"/><path stroke="#ffffff" stroke-width="2.0" stroke-linejoin="round" stroke-linecap="butt" d="m437.6017 136.5443c-4.121765 -9.8929825 -1.0849609 -21.320992 7.4041443 -27.862808c8.489075 -6.5418167 20.31369 -6.5662537 28.829742 -0.059570312c8.516052 6.5066833 11.600067 17.922043 7.519226 27.83197z" fill-rule="evenodd"/><path fill="#000000" fill-opacity="0.0" d="m205.5643 71.24147l71.811035 0l0 80.4751l-23.178452 23.178452l-48.632584 0z" fill-rule="evenodd"/><path fill="#000000" fill-opacity="0.0" d="m254.19688 174.89502l4.6356964 -18.542755l18.542755 -4.6356964z" fill-rule="evenodd"/><path fill="#000000" fill-opacity="0.0" d="m254.19688 174.89502l4.6356964 -18.542755l18.542755 -4.6356964l-23.178452 23.178452l-48.632584 0l0 -103.65355l71.811035 0l0 80.4751" fill-rule="evenodd"/><path fill="#000000" fill-opacity="0.2" d="m254.19688 174.89502l4.6356964 -18.542755l18.542755 -4.6356964z" fill-rule="evenodd"/><path stroke="#ffffff" stroke-width="1.0" stroke-linejoin="round" stroke-linecap="butt" d="m254.19688 174.89502l4.6356964 -18.542755l18.542755 -4.6356964l-23.178452 23.178452l-48.632584 0l0 -103.65355l71.811035 0l0 80.4751" fill-rule="evenodd"/><path fill="#000000" fill-opacity="0.0" d="m88.74278 94.05774l88.18898 0" fill-rule="evenodd"/><path stroke="#ffffff" stroke-width="1.0" stroke-linejoin="round" stroke-linecap="butt" d="m88.74278 94.05774l82.18898 0" fill-rule="evenodd"/><path fill="#ffffff" stroke="#ffffff" stroke-width="1.0" stroke-linecap="butt" d="m170.93176 95.70947l4.538086 -1.6517334l-4.538086 -1.6517258z" fill-rule="evenodd"/><path fill="#000000" fill-opacity="0.0" d="m89.59974 123.068245l88.18897 0" fill-rule="evenodd"/><path stroke="#ffffff" stroke-width="1.0" stroke-linejoin="round" stroke-linecap="butt" d="m89.59974 123.068245l82.18897 0" fill-rule="evenodd"/><path fill="#ffffff" stroke="#ffffff" stroke-width="1.0" stroke-linecap="butt" d="m171.78871 124.71997l4.538101 -1.6517258l-4.538101 -1.6517334z" fill-rule="evenodd"/><path fill="#000000" fill-opacity="0.0" d="m386.7257 78.3832l-77.98425 0.4409485" fill-rule="evenodd"/><path stroke="#ffffff" stroke-width="1.0" stroke-linejoin="round" stroke-linecap="butt" d="m386.7257 78.3832l-71.984344 0.40702057" fill-rule="evenodd"/><path fill="#ffffff" stroke="#ffffff" stroke-width="1.0" stroke-linecap="butt" d="m314.73203 77.13852l-4.5286865 1.6773605l4.5473633 1.6260452z" fill-rule="evenodd"/><path fill="#000000" fill-opacity="0.0" d="m386.7257 118.36614l-77.98425 0.44094086" fill-rule="evenodd"/><path stroke="#ffffff" stroke-width="1.0" stroke-linejoin="round" stroke-linecap="butt" d="m386.7257 118.36614l-71.984344 0.40702057" fill-rule="evenodd"/><path fill="#ffffff" stroke="#ffffff" stroke-width="1.0" stroke-linecap="butt" d="m314.73203 117.12145l-4.5286865 1.6773682l4.5473633 1.6260452z" fill-rule="evenodd"/><path fill="#000000" fill-opacity="0.0" d="m386.7257 158.34908l-77.98425 0.4409485" fill-rule="evenodd"/><path stroke="#ffffff" stroke-width="1.0" stroke-linejoin="round" stroke-linecap="butt" d="m386.7257 158.34908l-71.984344 0.4070282" fill-rule="evenodd"/><path fill="#ffffff" stroke="#ffffff" stroke-width="1.0" stroke-linecap="butt" d="m314.73203 157.1044l-4.5286865 1.6773529l4.5473633 1.6260529z" fill-rule="evenodd"/><path fill="#000000" fill-opacity="0.0" d="m101.92388 58.498688l61.826775 0l0 35.55905l-61.826775 0z" fill-rule="evenodd"/><path fill="#ffffff" d="m118.60342 73.76743l1.296875 0l1.59375 4.3125l0.34375 1.0625l0.359375 -1.078125l1.59375 -4.296875l1.25 0l-2.578125 6.53125l-1.296875 0l-2.5625 -6.53125zm13.640358 3.21875q0 0.75 -0.21875 1.390625q-0.21875 0.640625 -0.625 1.09375q-0.390625 0.4375 -0.984375 0.6875q-0.578125 0.25 -1.3125 0.25q-0.703125 0 -1.2656174 -0.203125q-0.546875 -0.21875 -0.9375 -0.640625q-0.375 -0.4375 -0.59375 -1.0625q-0.203125 -0.625 -0.203125 -1.4375q0 -0.75 0.21875 -1.375q0.21875 -0.640625 0.609375 -1.09375q0.40625 -0.453125 0.984375 -0.703125q0.5937424 -0.25 1.3281174 -0.25q0.703125 0 1.25 0.21875q0.5625 0.21875 0.9375 0.640625q0.390625 0.421875 0.59375 1.046875q0.21875 0.625 0.21875 1.4375zm-1.15625 0.046875q0 -0.609375 -0.140625 -1.0625q-0.140625 -0.453125 -0.390625 -0.75q-0.234375 -0.296875 -0.59375 -0.453125q-0.359375 -0.15625 -0.796875 -0.15625q-0.5 0 -0.859375 0.203125q-0.35936737 0.1875 -0.5937424 0.53125q-0.234375 0.328125 -0.34375 0.765625q-0.109375 0.4375 -0.109375 0.921875q0 0.609375 0.140625 1.0625q0.140625 0.453125 0.375 0.765625q0.24999237 0.296875 0.5937424 0.453125q0.359375 0.140625 0.796875 0.140625q0.515625 0 0.875 -0.1875q0.359375 -0.203125 0.59375 -0.53125q0.234375 -0.34375 0.34375 -0.78125q0.109375 -0.4375 0.109375 -0.921875zm8.062241 3.171875q-0.390625 0.09375 -0.796875 0.140625q-0.40625 0.046875 -0.84375 0.046875q-1.21875 0 -1.828125 -0.546875q-0.609375 -0.5625 -0.609375 -1.71875l0 -3.40625l-1.828125 0l0 -0.953125l1.828125 0l0 -1.796875l1.140625 -0.296875l0 2.09375l2.9375 0l0 0.953125l-2.9375 0l0 3.3125q0 0.703125 0.375 1.0625q0.375 0.34375 1.09375 0.34375q0.3125 0 0.6875 -0.046875q0.375 -0.0625 0.78125 -0.15625l0 0.96875zm7.5778656 -3.515625q0 0.234375 -0.015625 0.40625q0 0.15625 -0.015625 0.296875l-4.578125 0q0 1.0 0.546875 1.546875q0.5625 0.53125 1.625 0.53125q0.28125 0 0.5625 -0.015625q0.296875 -0.03125 0.5625 -0.0625q0.265625 -0.046875 0.5 -0.09375q0.25 -0.046875 0.453125 -0.109375l0 0.9375q-0.453125 0.125 -1.046875 0.203125q-0.578125 0.078125 -1.203125 0.078125q-0.828125 0 -1.4375 -0.21875q-0.609375 -0.234375 -1.0 -0.65625q-0.390625 -0.4375 -0.578125 -1.0625q-0.171875 -0.625 -0.171875 -1.421875q0 -0.6875 0.1875 -1.296875q0.203125 -0.625 0.578125 -1.09375q0.390625 -0.46875 0.9375 -0.734375q0.5625 -0.28125 1.265625 -0.28125q0.671875 0 1.203125 0.21875q0.53125 0.21875 0.890625 0.609375q0.359375 0.390625 0.546875 0.953125q0.1875 0.5625 0.1875 1.265625zm-1.1875 -0.171875q0.03125 -0.421875 -0.078125 -0.78125q-0.109375 -0.375 -0.328125 -0.625q-0.21875 -0.265625 -0.546875 -0.40625q-0.3125 -0.15625 -0.75 -0.15625q-0.359375 0 -0.671875 0.15625q-0.3125 0.140625 -0.53125 0.40625q-0.21875 0.25 -0.359375 0.625q-0.125 0.359375 -0.15625 0.78125l3.421875 0z" fill-rule="nonzero"/><path fill="#000000" fill-opacity="0.0" d="m102.78084 123.068245l61.826767 0l0 35.55906l-61.826767 0z" fill-rule="evenodd"/><path fill="#ffffff" d="m127.9368 144.86824l-0.015625 -0.875q-0.546875 0.53125 -1.09375 0.765625q-0.546875 0.21875 -1.15625 0.21875q-0.546875 0 -0.953125 -0.140625q-0.390625 -0.140625 -0.65625 -0.390625q-0.25 -0.25 -0.375 -0.578125q-0.125 -0.34375 -0.125 -0.75q0 -0.984375 0.734375 -1.53125q0.734375 -0.5625 2.171875 -0.5625l1.34375 0l0 -0.5625q0 -0.578125 -0.375 -0.921875q-0.359375 -0.359375 -1.125 -0.359375q-0.546875 0 -1.09375 0.125q-0.53125 0.125 -1.109375 0.34375l0 -1.015625q0.21875 -0.078125 0.484375 -0.15625q0.265625 -0.078125 0.546875 -0.125q0.296875 -0.0625 0.609375 -0.09375q0.328125 -0.046875 0.65625 -0.046875q0.59375 0 1.0625 0.140625q0.484375 0.125 0.8125 0.390625q0.328125 0.265625 0.5 0.671875q0.171875 0.40625 0.171875 0.953125l0 4.5l-1.015625 0zm-0.125 -2.96875l-1.4375 0q-0.421875 0 -0.734375 0.078125q-0.296875 0.078125 -0.5 0.234375q-0.1875 0.15625 -0.28125 0.375q-0.09375 0.21875 -0.09375 0.5q0 0.1875 0.0625 0.359375q0.0625 0.171875 0.1875 0.3125q0.125 0.125 0.328125 0.203125q0.21875 0.078125 0.515625 0.078125q0.390625 0 0.890625 -0.234375q0.515625 -0.234375 1.0625 -0.75l0 -1.15625zm2.9216156 -0.15625q0 -0.84375 0.234375 -1.484375q0.234375 -0.65625 0.640625 -1.09375q0.421875 -0.453125 1.015625 -0.671875q0.59375 -0.234375 1.3125 -0.234375q0.3125 0 0.609375 0.046875q0.3125 0.03125 0.59375 0.109375l0 -2.75l1.140625 0l0 9.203125l-1.015625 0l-0.03125 -1.234375q-0.484375 0.6875 -1.03125 1.015625q-0.546875 0.328125 -1.203125 0.328125q-0.546875 0 -0.984375 -0.21875q-0.421875 -0.234375 -0.703125 -0.65625q-0.28125 -0.4375 -0.4375 -1.03125q-0.140625 -0.609375 -0.140625 -1.328125zm1.171875 -0.078125q0 1.1875 0.34375 1.765625q0.34375 0.578125 0.984375 0.578125q0.421875 0 0.90625 -0.375q0.484375 -0.390625 1.0 -1.140625l0 -3.03125q-0.28125 -0.125 -0.625 -0.1875q-0.328125 -0.078125 -0.65625 -0.078125q-0.921875 0 -1.4375 0.59375q-0.515625 0.59375 -0.515625 1.875zm6.1559906 0.078125q0 -0.84375 0.234375 -1.484375q0.234375 -0.65625 0.640625 -1.09375q0.421875 -0.453125 1.015625 -0.671875q0.59375 -0.234375 1.3125 -0.234375q0.3125 0 0.609375 0.046875q0.3125 0.03125 0.59375 0.109375l0 -2.75l1.140625 0l0 9.203125l-1.015625 0l-0.03125 -1.234375q-0.484375 0.6875 -1.03125 1.015625q-0.546875 0.328125 -1.203125 0.328125q-0.546875 0 -0.984375 -0.21875q-0.421875 -0.234375 -0.703125 -0.65625q-0.28125 -0.4375 -0.4375 -1.03125q-0.140625 -0.609375 -0.140625 -1.328125zm1.171875 -0.078125q0 1.1875 0.34375 1.765625q0.34375 0.578125 0.984375 0.578125q0.421875 0 0.90625 -0.375q0.484375 -0.390625 1.0 -1.140625l0 -3.03125q-0.28125 -0.125 -0.625 -0.1875q-0.328125 -0.078125 -0.65625 -0.078125q-0.921875 0 -1.4375 0.59375q-0.515625 0.59375 -0.515625 1.875z" fill-rule="nonzero"/><path fill="#000000" fill-opacity="0.0" d="m313.96982 43.267715l77.98425 0l0 35.55906l-77.98425 0z" fill-rule="evenodd"/><path fill="#ffffff" d="m324.96298 58.536465l1.03125 0l0.03125 1.203125q0.578125 -0.703125 1.140625 -1.015625q0.5625 -0.3125 1.140625 -0.3125q1.015625 0 1.53125 0.65625q0.53125 0.65625 0.484375 1.953125l-1.140625 0q0.015625 -0.859375 -0.25 -1.234375q-0.265625 -0.390625 -0.796875 -0.390625q-0.21875 0 -0.453125 0.078125q-0.234375 0.078125 -0.484375 0.265625q-0.234375 0.171875 -0.515625 0.453125q-0.265625 0.28125 -0.578125 0.671875l0 4.203129l-1.140625 0l0 -6.531254zm12.57785 2.921875q0 0.234375 -0.015625 0.40625q0 0.15625 -0.015625 0.296875l-4.578125 0q0 1.0 0.546875 1.546875q0.5625 0.5312538 1.625 0.5312538q0.28125 0 0.5625 -0.015625q0.296875 -0.03125 0.5625 -0.0625q0.265625 -0.046875 0.5 -0.09375q0.25 -0.046875 0.453125 -0.109378815l0 0.9375038q-0.453125 0.125 -1.046875 0.203125q-0.578125 0.078125 -1.203125 0.078125q-0.828125 0 -1.4375 -0.21875q-0.609375 -0.234375 -1.0 -0.65625q-0.390625 -0.4375038 -0.578125 -1.0625038q-0.171875 -0.625 -0.171875 -1.421875q0 -0.6875 0.1875 -1.296875q0.203125 -0.625 0.578125 -1.09375q0.390625 -0.46875 0.9375 -0.734375q0.5625 -0.28125 1.265625 -0.28125q0.671875 0 1.203125 0.21875q0.53125 0.21875 0.890625 0.609375q0.359375 0.390625 0.546875 0.953125q0.1875 0.5625 0.1875 1.265625zm-1.1875 -0.171875q0.03125 -0.421875 -0.078125 -0.78125q-0.109375 -0.375 -0.328125 -0.625q-0.21875 -0.265625 -0.546875 -0.40625q-0.3125 -0.15625 -0.75 -0.15625q-0.359375 0 -0.671875 0.15625q-0.3125 0.140625 -0.53125 0.40625q-0.21875 0.25 -0.359375 0.625q-0.125 0.359375 -0.15625 0.78125l3.421875 0zm7.702881 -1.828125q0.171875 0.234375 0.265625 0.53125q0.109375 0.296875 0.109375 0.65625q0 0.5 -0.1875 0.921875q-0.171875 0.421875 -0.515625 0.71875q-0.34375 0.296875 -0.8125 0.46875q-0.46875 0.171875 -1.03125 0.171875q-0.421875 0 -0.78125 -0.09375q-0.34375 -0.09375 -0.5625 -0.21875q-0.125 0.1875 -0.203125 0.34375q-0.078125 0.15625 -0.078125 0.359375q0 0.25 0.234375 0.421875q0.234375 0.15625 0.625 0.171875l1.71875 0.0625q0.484375 0.015625 0.890625 0.12500381q0.421875 0.109375 0.71875 0.328125q0.296875 0.203125 0.453125 0.515625q0.171875 0.296875 0.171875 0.703125q0 0.4375 -0.1875 0.828125q-0.1875 0.390625 -0.578125 0.671875q-0.390625 0.296875 -1.0 0.46875q-0.609375 0.1875 -1.4375 0.1875q-0.796875 0 -1.359375 -0.125q-0.546875 -0.125 -0.90625 -0.359375q-0.359375 -0.21875 -0.53125 -0.53125q-0.15625 -0.3125 -0.15625 -0.671875q0 -0.484375 0.21875 -0.84375q0.21875 -0.359375 0.6875 -0.6875q-0.171875 -0.078125 -0.296875 -0.1875q-0.125 -0.125 -0.203125 -0.265625q-0.078125 -0.14062881 -0.125 -0.2968788q-0.03125 -0.15625 -0.03125 -0.296875q0 -0.421875 0.203125 -0.765625q0.203125 -0.359375 0.46875 -0.671875q-0.125 -0.15625 -0.21875 -0.296875q-0.09375 -0.140625 -0.15625 -0.296875q-0.0625 -0.171875 -0.109375 -0.359375q-0.03125 -0.203125 -0.03125 -0.453125q0 -0.5 0.1875 -0.921875q0.1875 -0.421875 0.515625 -0.71875q0.34375 -0.296875 0.8125 -0.46875q0.46875 -0.171875 1.046875 -0.171875q0.234375 0 0.453125 0.03125q0.21875 0.03125 0.390625 0.09375l2.375 0l0 0.921875l-1.046875 0zm-3.9375 6.546879q0 0.46875 0.484375 0.671875q0.484375 0.21875 1.34375 0.21875q0.53125 0 0.890625 -0.09375q0.375 -0.09375 0.59375 -0.265625q0.234375 -0.15625 0.328125 -0.359375q0.109375 -0.203125 0.109375 -0.421875q0 -0.390625 -0.328125 -0.578125q-0.328125 -0.1875 -1.0 -0.21875l-1.703125 -0.0625q-0.21875 0.140625 -0.359375 0.265625q-0.140625 0.140625 -0.21875 0.28125q-0.078125 0.140625 -0.109375 0.28125q-0.03125 0.140625 -0.03125 0.28125zm0.34375 -5.343754q0 0.3125 0.109375 0.578125q0.109375 0.265625 0.296875 0.453125q0.1875 0.171875 0.4375 0.28125q0.265625 0.09375 0.578125 0.09375q0.328125 0 0.59375 -0.109375q0.265625 -0.125 0.4375 -0.3125q0.1875 -0.203125 0.28125 -0.453125q0.09375 -0.25 0.09375 -0.53125q0 -0.3125 -0.109375 -0.5625q-0.09375 -0.265625 -0.28125 -0.4375q-0.1875 -0.1875 -0.453125 -0.28125q-0.25 -0.109375 -0.5625 -0.109375q-0.34375 0 -0.609375 0.125q-0.265625 0.109375 -0.453125 0.296875q-0.171875 0.1875 -0.265625 0.453125q-0.09375 0.25 -0.09375 0.515625zm8.437225 -1.1875l-1.9375 0l0 -0.9375l3.078125 0l0 5.593754l1.953125 0l0 0.9375l-5.234375 0l0 -0.9375l2.140625 0l0 -4.656254zm0.390625 -3.6875q0.203125 0 0.359375 0.078125q0.15625 0.0625 0.28125 0.1875q0.125 0.125 0.1875 0.28125q0.078125 0.15625 0.078125 0.359375q0 0.171875 -0.078125 0.34375q-0.0625 0.15625 -0.1875 0.28125q-0.125 0.125 -0.28125 0.203125q-0.15625 0.0625 -0.359375 0.0625q-0.1875 0 -0.34375 -0.0625q-0.15625 -0.078125 -0.28125 -0.203125q-0.125 -0.125 -0.203125 -0.28125q-0.0625 -0.171875 -0.0625 -0.34375q0 -0.203125 0.0625 -0.359375q0.078125 -0.15625 0.203125 -0.28125q0.125 -0.125 0.28125 -0.1875q0.15625 -0.078125 0.34375 -0.078125zm9.890381 7.5q0 0.34375 -0.125 0.625q-0.109375 0.2656288 -0.3125 0.4843788q-0.203125 0.203125 -0.46875 0.359375q-0.265625 0.140625 -0.578125 0.25q-0.296875 0.09375 -0.625 0.125q-0.3125 0.046875 -0.609375 0.046875q-0.671875 0 -1.234375 -0.0625q-0.546875 -0.046875 -1.078125 -0.171875l0 -1.0468788q0.5625 0.15625381 1.125 0.2500038q0.578125 0.078125 1.140625 0.078125q0.8125 0 1.203125 -0.21875q0.390625 -0.21875381 0.390625 -0.6250038q0 -0.1875 -0.0625 -0.3125q-0.0625 -0.140625 -0.234375 -0.265625q-0.15625 -0.140625 -0.5 -0.265625q-0.34375 -0.140625 -0.9375 -0.3125q-0.4375 -0.140625 -0.8125 -0.296875q-0.375 -0.171875 -0.65625 -0.390625q-0.265625 -0.234375 -0.421875 -0.53125q-0.15625 -0.3125 -0.15625 -0.734375q0 -0.265625 0.125 -0.59375q0.125 -0.328125 0.4375 -0.609375q0.3125 -0.28125 0.828125 -0.46875q0.515625 -0.1875 1.296875 -0.1875q0.390625 0 0.859375 0.046875q0.46875 0.046875 0.96875 0.140625l0 1.015625q-0.53125 -0.125 -1.015625 -0.1875q-0.46875 -0.0625 -0.828125 -0.0625q-0.421875 0 -0.71875 0.0625q-0.28125 0.0625 -0.46875 0.1875q-0.171875 0.109375 -0.25 0.265625q-0.078125 0.140625 -0.078125 0.3125q0 0.1875 0.0625 0.328125q0.078125 0.140625 0.265625 0.28125q0.1875 0.125 0.515625 0.265625q0.328125 0.125 0.859375 0.28125q0.59375 0.171875 0.984375 0.359375q0.390625 0.1875 0.640625 0.421875q0.25 0.21875 0.359375 0.515625q0.109375 0.28125 0.109375 0.640625zm7.4216003 1.6875038q-0.390625 0.09375 -0.796875 0.140625q-0.40625 0.046875 -0.84375 0.046875q-1.21875 0 -1.828125 -0.546875q-0.609375 -0.5625 -0.609375 -1.7187538l0 -3.40625l-1.828125 0l0 -0.953125l1.828125 0l0 -1.796875l1.140625 -0.296875l0 2.09375l2.9375 0l0 0.953125l-2.9375 0l0 3.3125q0 0.703125 0.375 1.0625q0.375 0.3437538 1.09375 0.3437538q0.3125 0 0.6875 -0.046875q0.375 -0.0625 0.78125 -0.15625l0 0.96875zm7.577881 -3.5156288q0 0.234375 -0.015625 0.40625q0 0.15625 -0.015625 0.296875l-4.578125 0q0 1.0 0.546875 1.546875q0.5625 0.5312538 1.625 0.5312538q0.28125 0 0.5625 -0.015625q0.296875 -0.03125 0.5625 -0.0625q0.265625 -0.046875 0.5 -0.09375q0.25 -0.046875 0.453125 -0.109378815l0 0.9375038q-0.453125 0.125 -1.046875 0.203125q-0.578125 0.078125 -1.203125 0.078125q-0.828125 0 -1.4375 -0.21875q-0.609375 -0.234375 -1.0 -0.65625q-0.390625 -0.4375038 -0.578125 -1.0625038q-0.171875 -0.625 -0.171875 -1.421875q0 -0.6875 0.1875 -1.296875q0.203125 -0.625 0.578125 -1.09375q0.390625 -0.46875 0.9375 -0.734375q0.5625 -0.28125 1.265625 -0.28125q0.671875 0 1.203125 0.21875q0.53125 0.21875 0.890625 0.609375q0.359375 0.390625 0.546875 0.953125q0.1875 0.5625 0.1875 1.265625zm-1.1875 -0.171875q0.03125 -0.421875 -0.078125 -0.78125q-0.109375 -0.375 -0.328125 -0.625q-0.21875 -0.265625 -0.546875 -0.40625q-0.3125 -0.15625 -0.75 -0.15625q-0.359375 0 -0.671875 0.15625q-0.3125 0.140625 -0.53125 0.40625q-0.21875 0.25 -0.359375 0.625q-0.125 0.359375 -0.15625 0.78125l3.421875 0zm3.2653503 -2.75l1.03125 0l0.03125 1.203125q0.578125 -0.703125 1.140625 -1.015625q0.5625 -0.3125 1.140625 -0.3125q1.015625 0 1.53125 0.65625q0.53125 0.65625 0.484375 1.953125l-1.140625 0q0.015625 -0.859375 -0.25 -1.234375q-0.265625 -0.390625 -0.796875 -0.390625q-0.21875 0 -0.453125 0.078125q-0.234375 0.078125 -0.484375 0.265625q-0.234375 0.171875 -0.515625 0.453125q-0.265625 0.28125 -0.578125 0.671875l0 4.203129l-1.140625 0l0 -6.531254z" fill-rule="nonzero"/><path fill="#000000" fill-opacity="0.0" d="m313.9685 87.509186l77.98425 0l0 35.55906l-77.98425 0z" fill-rule="evenodd"/><path fill="#ffffff" d="m340.8597 107.52794q0 0.34375 -0.125 0.625q-0.109375 0.265625 -0.3125 0.484375q-0.203125 0.203125 -0.46875 0.359375q-0.265625 0.140625 -0.578125 0.25q-0.296875 0.09375 -0.625 0.125q-0.3125 0.046875 -0.609375 0.046875q-0.671875 0 -1.234375 -0.0625q-0.546875 -0.046875 -1.078125 -0.171875l0 -1.046875q0.5625 0.15625 1.125 0.25q0.578125 0.078125 1.140625 0.078125q0.8125 0 1.203125 -0.21875q0.390625 -0.21875 0.390625 -0.625q0 -0.1875 -0.0625 -0.3125q-0.0625 -0.140625 -0.234375 -0.265625q-0.15625 -0.140625 -0.5 -0.265625q-0.34375 -0.140625 -0.9375 -0.3125q-0.4375 -0.140625 -0.8125 -0.296875q-0.375 -0.171875 -0.65625 -0.390625q-0.265625 -0.234375 -0.421875 -0.53125q-0.15625 -0.3125 -0.15625 -0.734375q0 -0.265625 0.125 -0.59375q0.125 -0.328125 0.4375 -0.609375q0.3125 -0.28125 0.828125 -0.46875q0.515625 -0.1875 1.296875 -0.1875q0.390625 0 0.859375 0.046875q0.46875 0.046875 0.96875 0.140625l0 1.015625q-0.53125 -0.125 -1.015625 -0.1875q-0.46875 -0.0625 -0.828125 -0.0625q-0.421875 0 -0.71875 0.0625q-0.28125 0.0625 -0.46875 0.1875q-0.171875 0.109375 -0.25 0.265625q-0.078125 0.140625 -0.078125 0.3125q0 0.1875 0.0625 0.328125q0.078125 0.140625 0.265625 0.28125q0.1875 0.125 0.515625 0.265625q0.328125 0.125 0.859375 0.28125q0.59375 0.171875 0.984375 0.359375q0.390625 0.1875 0.640625 0.421875q0.25 0.21875 0.359375 0.515625q0.109375 0.28125 0.109375 0.640625zm7.421631 1.6875q-0.390625 0.09375 -0.796875 0.140625q-0.40625 0.046875 -0.84375 0.046875q-1.21875 0 -1.828125 -0.546875q-0.609375 -0.5625 -0.609375 -1.71875l0 -3.40625l-1.828125 0l0 -0.953125l1.828125 0l0 -1.796875l1.140625 -0.296875l0 2.09375l2.9375 0l0 0.953125l-2.9375 0l0 3.3125q0 0.703125 0.375 1.0625q0.375 0.34375 1.09375 0.34375q0.3125 0 0.6875 -0.046875q0.375 -0.0625 0.78125 -0.15625l0 0.96875zm6.2497253 0.09375l-0.015625 -0.875q-0.546875 0.53125 -1.09375 0.765625q-0.546875 0.21875 -1.15625 0.21875q-0.546875 0 -0.953125 -0.140625q-0.390625 -0.140625 -0.65625 -0.390625q-0.25 -0.25 -0.375 -0.578125q-0.125 -0.34375 -0.125 -0.75q0 -0.984375 0.734375 -1.53125q0.734375 -0.5625 2.171875 -0.5625l1.34375 0l0 -0.5625q0 -0.578125 -0.375 -0.921875q-0.359375 -0.359375 -1.125 -0.359375q-0.546875 0 -1.09375 0.125q-0.53125 0.125 -1.109375 0.34375l0 -1.015625q0.21875 -0.078125 0.484375 -0.15625q0.265625 -0.078125 0.546875 -0.125q0.296875 -0.0625 0.609375 -0.09375q0.328125 -0.046875 0.65625 -0.046875q0.59375 0 1.0625 0.140625q0.484375 0.125 0.8125 0.390625q0.328125 0.265625 0.5 0.671875q0.171875 0.40625 0.171875 0.953125l0 4.5l-1.015625 0zm-0.125 -2.96875l-1.4375 0q-0.421875 0 -0.734375 0.078125q-0.296875 0.078125 -0.5 0.234375q-0.1875 0.15625 -0.28125 0.375q-0.09375 0.21875 -0.09375 0.5q0 0.1875 0.0625 0.359375q0.0625 0.171875 0.1875 0.3125q0.125 0.125 0.328125 0.203125q0.21875 0.078125 0.515625 0.078125q0.390625 0 0.890625 -0.234375q0.515625 -0.234375 1.0625 -0.75l0 -1.15625zm3.5310059 -3.5625l1.03125 0l0.03125 1.203125q0.578125 -0.703125 1.140625 -1.015625q0.5625 -0.3125 1.140625 -0.3125q1.015625 0 1.53125 0.65625q0.53125 0.65625 0.484375 1.953125l-1.140625 0q0.015625 -0.859375 -0.25 -1.234375q-0.265625 -0.390625 -0.796875 -0.390625q-0.21875 0 -0.453125 0.078125q-0.234375 0.078125 -0.484375 0.265625q-0.234375 0.171875 -0.515625 0.453125q-0.265625 0.28125 -0.578125 0.671875l0 4.203125l-1.140625 0l0 -6.53125zm12.32785 6.4375q-0.390625 0.09375 -0.796875 0.140625q-0.40625 0.046875 -0.84375 0.046875q-1.21875 0 -1.828125 -0.546875q-0.609375 -0.5625 -0.609375 -1.71875l0 -3.40625l-1.828125 0l0 -0.953125l1.828125 0l0 -1.796875l1.140625 -0.296875l0 2.09375l2.9375 0l0 0.953125l-2.9375 0l0 3.3125q0 0.703125 0.375 1.0625q0.375 0.34375 1.09375 0.34375q0.3125 0 0.6875 -0.046875q0.375 -0.0625 0.78125 -0.15625l0 0.96875z" fill-rule="nonzero"/><path fill="#000000" fill-opacity="0.0" d="m313.96982 127.144356l77.98425 0l0 35.55906l-77.98425 0z" fill-rule="evenodd"/><path fill="#ffffff" d="m348.53265 145.33498q0 0.234375 -0.015625 0.40625q0 0.15625 -0.015625 0.296875l-4.578125 0q0 1.0 0.546875 1.546875q0.5625 0.53125 1.625 0.53125q0.28125 0 0.5625 -0.015625q0.296875 -0.03125 0.5625 -0.0625q0.265625 -0.046875 0.5 -0.09375q0.25 -0.046875 0.453125 -0.109375l0 0.9375q-0.453125 0.125 -1.046875 0.203125q-0.578125 0.078125 -1.203125 0.078125q-0.828125 0 -1.4375 -0.21875q-0.609375 -0.234375 -1.0 -0.65625q-0.390625 -0.4375 -0.578125 -1.0625q-0.171875 -0.625 -0.171875 -1.421875q0 -0.6875 0.1875 -1.296875q0.203125 -0.625 0.578125 -1.09375q0.390625 -0.46875 0.9375 -0.734375q0.5625 -0.28125 1.265625 -0.28125q0.671875 0 1.203125 0.21875q0.53125 0.21875 0.890625 0.609375q0.359375 0.390625 0.546875 0.953125q0.1875 0.5625 0.1875 1.265625zm-1.1875 -0.171875q0.03125 -0.421875 -0.078125 -0.78125q-0.109375 -0.375 -0.328125 -0.625q-0.21875 -0.265625 -0.546875 -0.40625q-0.3125 -0.15625 -0.75 -0.15625q-0.359375 0 -0.671875 0.15625q-0.3125 0.140625 -0.53125 0.40625q-0.21875 0.25 -0.359375 0.625q-0.125 0.359375 -0.15625 0.78125l3.421875 0zm2.9997253 -2.75l1.0 0l0.046875 1.046875q0.28125 -0.328125 0.546875 -0.546875q0.28125 -0.234375 0.53125 -0.375q0.25 -0.140625 0.515625 -0.1875q0.28125 -0.0625 0.5625 -0.0625q1.015625 0 1.53125 0.609375q0.515625 0.59375 0.515625 1.78125l0 4.265625l-1.140625 0l0 -4.171875q0 -0.765625 -0.28125 -1.125q-0.28125 -0.375 -0.859375 -0.375q-0.203125 0 -0.40625 0.0625q-0.1875 0.0625 -0.40625 0.21875q-0.21875 0.140625 -0.46875 0.40625q-0.25 0.265625 -0.5625 0.65625l0 4.328125l-1.125 0l0 -6.53125zm6.984131 3.40625q0 -0.84375 0.234375 -1.484375q0.234375 -0.65625 0.640625 -1.09375q0.421875 -0.453125 1.015625 -0.671875q0.59375 -0.234375 1.3125 -0.234375q0.3125 0 0.609375 0.046875q0.3125 0.03125 0.59375 0.109375l0 -2.75l1.140625 0l0 9.203125l-1.015625 0l-0.03125 -1.234375q-0.484375 0.6875 -1.03125 1.015625q-0.546875 0.328125 -1.203125 0.328125q-0.546875 0 -0.984375 -0.21875q-0.421875 -0.234375 -0.703125 -0.65625q-0.28125 -0.4375 -0.4375 -1.03125q-0.140625 -0.609375 -0.140625 -1.328125zm1.171875 -0.078125q0 1.1875 0.34375 1.765625q0.34375 0.578125 0.984375 0.578125q0.421875 0 0.90625 -0.375q0.484375 -0.390625 1.0 -1.140625l0 -3.03125q-0.28125 -0.125 -0.625 -0.1875q-0.328125 -0.078125 -0.65625 -0.078125q-0.921875 0 -1.4375 0.59375q-0.515625 0.59375 -0.515625 1.875z" fill-rule="nonzero"/><path fill="#000000" fill-opacity="0.0" d="m186.46194 186.72704l110.01575 0l0 35.55905l-110.01575 0z" fill-rule="evenodd"/><path fill="#ffffff" d="m199.65945 206.46454l1.15625 -0.1875q0.109375 0.703125 0.546875 1.078125q0.453125 0.359375 1.25 0.359375q0.8125 0 1.203125 -0.328125q0.390625 -0.328125 0.390625 -0.765625q0 -0.390625 -0.359375 -0.625q-0.234375 -0.15625 -1.1875 -0.390625q-1.296875 -0.328125 -1.796875 -0.5625q-0.484375 -0.25 -0.75 -0.65625q-0.25 -0.421875 -0.25 -0.9375q0 -0.453125 0.203125 -0.84375q0.21875 -0.40625 0.578125 -0.671875q0.28125 -0.1875 0.75 -0.328125q0.46875 -0.140625 1.015625 -0.140625q0.8125 0 1.421875 0.234375q0.609375 0.234375 0.90625 0.640625q0.296875 0.390625 0.40625 1.0625l-1.140625 0.15625q-0.078125 -0.53125 -0.453125 -0.828125q-0.375 -0.3125 -1.0625 -0.3125q-0.8125 0 -1.15625 0.265625q-0.34375 0.265625 -0.34375 0.625q0 0.234375 0.140625 0.421875q0.15625 0.1875 0.453125 0.3125q0.171875 0.0625 1.03125 0.296875q1.25 0.328125 1.734375 0.546875q0.5 0.203125 0.78125 0.609375q0.28125 0.40625 0.28125 1.0q0 0.59375 -0.34375 1.109375q-0.34375 0.515625 -1.0 0.796875q-0.640625 0.28125 -1.453125 0.28125q-1.34375 0 -2.046875 -0.5625q-0.703125 -0.5625 -0.90625 -1.65625zm7.1328125 2.0625l0 -6.90625l1.046875 0l0 0.96875q0.328125 -0.515625 0.859375 -0.8125q0.546875 -0.3125 1.234375 -0.3125q0.78125 0 1.265625 0.3125q0.484375 0.3125 0.6875 0.890625q0.828125 -1.203125 2.140625 -1.203125q1.03125 0 1.578125 0.578125q0.5625 0.5625 0.5625 1.734375l0 4.75l-1.171875 0l0 -4.359375q0 -0.703125 -0.125 -1.0q-0.109375 -0.3125 -0.40625 -0.5q-0.296875 -0.1875 -0.703125 -0.1875q-0.71875 0 -1.203125 0.484375q-0.484375 0.484375 -0.484375 1.546875l0 4.015625l-1.171875 0l0 -4.484375q0 -0.78125 -0.296875 -1.171875q-0.28125 -0.390625 -0.921875 -0.390625q-0.5 0 -0.921875 0.265625q-0.421875 0.25 -0.609375 0.75q-0.1875 0.5 -0.1875 1.453125l0 3.578125l-1.171875 0zm15.618057 -0.859375q-0.65625 0.5625 -1.265625 0.796875q-0.59375 0.21875 -1.28125 0.21875q-1.140625 0 -1.75 -0.546875q-0.609375 -0.5625 -0.609375 -1.4375q0 -0.5 0.21875 -0.921875q0.234375 -0.421875 0.609375 -0.671875q0.375 -0.25 0.84375 -0.390625q0.34375 -0.078125 1.046875 -0.171875q1.421875 -0.171875 2.09375 -0.40625q0 -0.234375 0 -0.296875q0 -0.71875 -0.328125 -1.015625q-0.453125 -0.390625 -1.34375 -0.390625q-0.8125 0 -1.21875 0.296875q-0.390625 0.28125 -0.578125 1.015625l-1.140625 -0.15625q0.15625 -0.734375 0.515625 -1.1875q0.359375 -0.453125 1.03125 -0.6875q0.671875 -0.25 1.5625 -0.25q0.890625 0 1.4375 0.203125q0.5625 0.203125 0.8125 0.53125q0.265625 0.3125 0.375 0.796875q0.046875 0.296875 0.046875 1.078125l0 1.5625q0 1.625 0.078125 2.0625q0.078125 0.4375 0.296875 0.828125l-1.21875 0q-0.1875 -0.359375 -0.234375 -0.859375zm-0.09375 -2.609375q-0.640625 0.265625 -1.921875 0.4375q-0.71875 0.109375 -1.015625 0.25q-0.296875 0.125 -0.46875 0.375q-0.15625 0.25 -0.15625 0.546875q0 0.46875 0.34375 0.78125q0.359375 0.3125 1.046875 0.3125q0.671875 0 1.203125 -0.296875q0.53125 -0.296875 0.78125 -0.8125q0.1875 -0.390625 0.1875 -1.171875l0 -0.421875zm2.9749756 3.46875l0 -6.90625l1.0625 0l0 1.046875q0.40625 -0.734375 0.734375 -0.96875q0.34375 -0.234375 0.765625 -0.234375q0.59375 0 1.203125 0.375l-0.40625 1.078125q-0.4375 -0.25 -0.859375 -0.25q-0.390625 0 -0.703125 0.234375q-0.296875 0.234375 -0.421875 0.640625q-0.203125 0.625 -0.203125 1.359375l0 3.625l-1.171875 0zm7.0164948 -1.046875l0.171875 1.03125q-0.5 0.109375 -0.890625 0.109375q-0.640625 0 -1.0 -0.203125q-0.34375 -0.203125 -0.484375 -0.53125q-0.140625 -0.328125 -0.140625 -1.390625l0 -3.96875l-0.859375 0l0 -0.90625l0.859375 0l0 -1.71875l1.171875 -0.703125l0 2.421875l1.171875 0l0 0.90625l-1.171875 0l0 4.046875q0 0.5 0.046875 0.640625q0.0625 0.140625 0.203125 0.234375q0.140625 0.078125 0.40625 0.078125q0.203125 0 0.515625 -0.046875zm9.3591 -1.484375l1.15625 0.15625q-0.1875 1.1875 -0.96875 1.859375q-0.78125 0.671875 -1.921875 0.671875q-1.40625 0 -2.28125 -0.921875q-0.859375 -0.9375 -0.859375 -2.65625q0 -1.125 0.375 -1.96875q0.375 -0.84375 1.125 -1.25q0.765625 -0.421875 1.65625 -0.421875q1.125 0 1.84375 0.578125q0.71875 0.5625 0.921875 1.609375l-1.140625 0.171875q-0.171875 -0.703125 -0.59375 -1.046875q-0.40625 -0.359375 -0.984375 -0.359375q-0.890625 0 -1.453125 0.640625q-0.546875 0.640625 -0.546875 2.0q0 1.40625 0.53125 2.03125q0.546875 0.625 1.40625 0.625q0.6875 0 1.140625 -0.421875q0.46875 -0.421875 0.59375 -1.296875zm1.7109375 -0.921875q0 -1.921875 1.078125 -2.84375q0.890625 -0.765625 2.171875 -0.765625q1.421875 0 2.328125 0.9375q0.90625 0.921875 0.90625 2.578125q0 1.328125 -0.40625 2.09375q-0.390625 0.765625 -1.15625 1.1875q-0.765625 0.421875 -1.671875 0.421875q-1.453125 0 -2.359375 -0.921875q-0.890625 -0.9375 -0.890625 -2.6875zm1.203125 0q0 1.328125 0.578125 1.984375q0.59375 0.65625 1.46875 0.65625q0.875 0 1.453125 -0.65625q0.578125 -0.671875 0.578125 -2.03125q0 -1.28125 -0.59375 -1.9375q-0.578125 -0.65625 -1.4375 -0.65625q-0.875 0 -1.46875 0.65625q-0.578125 0.65625 -0.578125 1.984375zm6.6468506 3.453125l0 -6.90625l1.0625 0l0 0.984375q0.75 -1.140625 2.1875 -1.140625q0.625 0 1.15625 0.21875q0.53125 0.21875 0.78125 0.59375q0.265625 0.359375 0.375 0.859375q0.0625 0.328125 0.0625 1.140625l0 4.25l-1.171875 0l0 -4.203125q0 -0.71875 -0.140625 -1.0625q-0.140625 -0.359375 -0.484375 -0.5625q-0.34375 -0.21875 -0.8125 -0.21875q-0.75 0 -1.296875 0.46875q-0.546875 0.46875 -0.546875 1.796875l0 3.78125l-1.171875 0zm9.974976 -1.046875l0.171875 1.03125q-0.5 0.109375 -0.890625 0.109375q-0.640625 0 -1.0 -0.203125q-0.34375 -0.203125 -0.484375 -0.53125q-0.140625 -0.328125 -0.140625 -1.390625l0 -3.96875l-0.859375 0l0 -0.90625l0.859375 0l0 -1.71875l1.171875 -0.703125l0 2.421875l1.171875 0l0 0.90625l-1.171875 0l0 4.046875q0 0.5 0.046875 0.640625q0.0625 0.140625 0.203125 0.234375q0.140625 0.078125 0.40625 0.078125q0.203125 0 0.515625 -0.046875zm1.1248779 1.046875l0 -6.90625l1.0625 0l0 1.046875q0.40625 -0.734375 0.734375 -0.96875q0.34375 -0.234375 0.765625 -0.234375q0.59375 0 1.203125 0.375l-0.40625 1.078125q-0.4375 -0.25 -0.859375 -0.25q-0.390625 0 -0.703125 0.234375q-0.296875 0.234375 -0.421875 0.640625q-0.203125 0.625 -0.203125 1.359375l0 3.625l-1.171875 0zm8.9696045 -0.859375q-0.65625 0.5625 -1.265625 0.796875q-0.59375 0.21875 -1.28125 0.21875q-1.140625 0 -1.75 -0.546875q-0.609375 -0.5625 -0.609375 -1.4375q0 -0.5 0.21875 -0.921875q0.234375 -0.421875 0.609375 -0.671875q0.375 -0.25 0.84375 -0.390625q0.34375 -0.078125 1.046875 -0.171875q1.421875 -0.171875 2.09375 -0.40625q0 -0.234375 0 -0.296875q0 -0.71875 -0.328125 -1.015625q-0.453125 -0.390625 -1.34375 -0.390625q-0.8125 0 -1.21875 0.296875q-0.390625 0.28125 -0.578125 1.015625l-1.140625 -0.15625q0.15625 -0.734375 0.515625 -1.1875q0.359375 -0.453125 1.03125 -0.6875q0.671875 -0.25 1.5625 -0.25q0.890625 0 1.4375 0.203125q0.5625 0.203125 0.8125 0.53125q0.265625 0.3125 0.375 0.796875q0.046875 0.296875 0.046875 1.078125l0 1.5625q0 1.625 0.078125 2.0625q0.078125 0.4375 0.296875 0.828125l-1.21875 0q-0.1875 -0.359375 -0.234375 -0.859375zm-0.09375 -2.609375q-0.640625 0.265625 -1.921875 0.4375q-0.71875 0.109375 -1.015625 0.25q-0.296875 0.125 -0.46875 0.375q-0.15625 0.25 -0.15625 0.546875q0 0.46875 0.34375 0.78125q0.359375 0.3125 1.046875 0.3125q0.671875 0 1.203125 -0.296875q0.53125 -0.296875 0.78125 -0.8125q0.1875 -0.390625 0.1875 -1.171875l0 -0.421875zm7.5062256 0.9375l1.15625 0.15625q-0.1875 1.1875 -0.96875 1.859375q-0.78125 0.671875 -1.921875 0.671875q-1.40625 0 -2.28125 -0.921875q-0.859375 -0.9375 -0.859375 -2.65625q0 -1.125 0.375 -1.96875q0.375 -0.84375 1.125 -1.25q0.765625 -0.421875 1.65625 -0.421875q1.125 0 1.84375 0.578125q0.71875 0.5625 0.921875 1.609375l-1.140625 0.171875q-0.171875 -0.703125 -0.59375 -1.046875q-0.40625 -0.359375 -0.984375 -0.359375q-0.890625 0 -1.453125 0.640625q-0.546875 0.640625 -0.546875 2.0q0 1.40625 0.53125 2.03125q0.546875 0.625 1.40625 0.625q0.6875 0 1.140625 -0.421875q0.46875 -0.421875 0.59375 -1.296875zm4.7109375 1.484375l0.171875 1.03125q-0.5 0.109375 -0.890625 0.109375q-0.640625 0 -1.0 -0.203125q-0.34375 -0.203125 -0.484375 -0.53125q-0.140625 -0.328125 -0.140625 -1.390625l0 -3.96875l-0.859375 0l0 -0.90625l0.859375 0l0 -1.71875l1.171875 -0.703125l0 2.421875l1.171875 0l0 0.90625l-1.171875 0l0 4.046875q0 0.5 0.046875 0.640625q0.0625 0.140625 0.203125 0.234375q0.140625 0.078125 0.40625 0.078125q0.203125 0 0.515625 -0.046875z" fill-rule="nonzero"/><path fill="#000000" fill-opacity="0.0" d="m221.46982 94.05774l39.08661 0" fill-rule="evenodd"/><path stroke="#ffffff" stroke-width="1.0" stroke-linejoin="round" stroke-linecap="butt" d="m221.46982 94.05774l39.08661 0" fill-rule="evenodd"/><path fill="#000000" fill-opacity="0.0" d="m221.46982 105.28871l39.08661 0" fill-rule="evenodd"/><path stroke="#ffffff" stroke-width="1.0" stroke-linejoin="round" stroke-linecap="butt" d="m221.46982 105.28871l39.08661 0" fill-rule="evenodd"/><path fill="#000000" fill-opacity="0.0" d="m221.46982 116.784775l39.08661 0" fill-rule="evenodd"/><path stroke="#ffffff" stroke-width="1.0" stroke-linejoin="round" stroke-linecap="butt" d="m221.46982 116.784775l39.08661 0" fill-rule="evenodd"/><path fill="#000000" fill-opacity="0.0" d="m77.8294 0l110.01574 0l0 51.716534l-110.01574 0z" fill-rule="evenodd"/><path fill="#ffffff" d="m103.12205 21.8l0 -9.546875l3.28125 0q1.109375 0 1.703125 0.140625q0.8125 0.1875 1.390625 0.6875q0.765625 0.640625 1.140625 1.640625q0.375 0.984375 0.375 2.25q0 1.09375 -0.265625 1.9375q-0.25 0.828125 -0.65625 1.390625q-0.390625 0.546875 -0.859375 0.859375q-0.46875 0.3125 -1.140625 0.484375q-0.65625 0.15625 -1.53125 0.15625l-3.4375 0zm1.265625 -1.125l2.03125 0q0.9375 0 1.46875 -0.171875q0.546875 -0.1875 0.875 -0.5q0.4375 -0.453125 0.6875 -1.203125q0.25 -0.765625 0.25 -1.84375q0 -1.5 -0.5 -2.296875q-0.484375 -0.8125 -1.1875 -1.078125q-0.5 -0.203125 -1.625 -0.203125l-2.0 0l0 7.296875zm7.3126526 1.125l3.65625 -9.546875l1.359375 0l3.90625 9.546875l-1.4375 0l-1.109375 -2.890625l-3.984375 0l-1.046875 2.890625l-1.34375 0zm2.75 -3.921875l3.234375 0l-1.0 -2.640625q-0.453125 -1.203125 -0.671875 -1.96875q-0.1875 0.90625 -0.515625 1.8125l-1.046875 2.796875zm7.0303802 6.578125l0 -9.5625l1.078125 0l0 0.890625q0.375 -0.53125 0.84375 -0.78125q0.484375 -0.265625 1.15625 -0.265625q0.875 0 1.546875 0.453125q0.6875 0.453125 1.03125 1.28125q0.34375 0.828125 0.34375 1.828125q0 1.046875 -0.375 1.90625q-0.375 0.84375 -1.109375 1.296875q-0.71875 0.453125 -1.53125 0.453125q-0.578125 0 -1.046875 -0.25q-0.46875 -0.25 -0.765625 -0.625l0 3.375l-1.171875 0zm1.0625 -6.078125q0 1.34375 0.53125 1.984375q0.546875 0.625 1.3125 0.625q0.78125 0 1.34375 -0.65625q0.5625 -0.65625 0.5625 -2.046875q0 -1.3125 -0.546875 -1.96875q-0.546875 -0.671875 -1.296875 -0.671875q-0.75 0 -1.328125 0.703125q-0.578125 0.703125 -0.578125 2.03125zm6.349968 6.078125l0 -9.5625l1.078125 0l0 0.890625q0.375 -0.53125 0.84375 -0.78125q0.484375 -0.265625 1.15625 -0.265625q0.875 0 1.546875 0.453125q0.6875 0.453125 1.03125 1.28125q0.34375 0.828125 0.34375 1.828125q0 1.046875 -0.375 1.90625q-0.375 0.84375 -1.109375 1.296875q-0.71875 0.453125 -1.53125 0.453125q-0.578125 0 -1.046875 -0.25q-0.46875 -0.25 -0.765625 -0.625l0 3.375l-1.171875 0zm1.0625 -6.078125q0 1.34375 0.53125 1.984375q0.546875 0.625 1.3125 0.625q0.78125 0 1.34375 -0.65625q0.5625 -0.65625 0.5625 -2.046875q0 -1.3125 -0.546875 -1.96875q-0.546875 -0.671875 -1.296875 -0.671875q-0.75 0 -1.328125 0.703125q-0.578125 0.703125 -0.578125 2.03125zm11.334213 3.421875l-2.125 -6.90625l1.21875 0l1.09375 3.984375l0.421875 1.484375q0.015625 -0.109375 0.359375 -1.421875l1.09375 -4.046875l1.203125 0l1.03125 4.0l0.34375 1.328125l0.40625 -1.34375l1.171875 -3.984375l1.140625 0l-2.15625 6.90625l-1.21875 0l-1.09375 -4.140625l-0.265625 -1.171875l-1.40625 5.3125l-1.21875 0zm13.078278 -2.21875l1.203125 0.140625q-0.28125 1.0625 -1.0625 1.65625q-0.765625 0.578125 -1.96875 0.578125q-1.515625 0 -2.40625 -0.9375q-0.890625 -0.9375 -0.890625 -2.609375q0 -1.75 0.890625 -2.703125q0.90625 -0.96875 2.34375 -0.96875q1.390625 0 2.265625 0.9375q0.875 0.9375 0.875 2.65625q0 0.109375 0 0.3125l-5.15625 0q0.0625 1.140625 0.640625 1.75q0.578125 0.59375 1.4375 0.59375q0.65625 0 1.109375 -0.328125q0.453125 -0.34375 0.71875 -1.078125zm-3.84375 -1.90625l3.859375 0q-0.078125 -0.859375 -0.4375 -1.296875q-0.5625 -0.6875 -1.453125 -0.6875q-0.8125 0 -1.359375 0.546875q-0.546875 0.53125 -0.609375 1.4375zm7.5999756 4.125l-1.078125 0l0 -9.546875l1.171875 0l0 3.40625q0.734375 -0.921875 1.890625 -0.921875q0.640625 0 1.203125 0.265625q0.578125 0.25 0.9375 0.71875q0.375 0.453125 0.578125 1.109375q0.203125 0.65625 0.203125 1.40625q0 1.78125 -0.875 2.75q-0.875 0.96875 -2.109375 0.96875q-1.21875 0 -1.921875 -1.015625l0 0.859375zm0 -3.5q0 1.234375 0.328125 1.78125q0.5625 0.90625 1.5 0.90625q0.765625 0 1.328125 -0.65625q0.5625 -0.671875 0.5625 -2.0q0 -1.34375 -0.546875 -1.984375q-0.53125 -0.65625 -1.296875 -0.65625q-0.765625 0 -1.328125 0.671875q-0.546875 0.671875 -0.546875 1.9375z" fill-rule="nonzero"/><path fill="#ffffff" d="m108.1682 29.6125l0 -1.359375l1.171875 0l0 1.359375l-1.171875 0zm0 8.1875l0 -6.90625l1.171875 0l0 6.90625l-1.171875 0zm2.945465 0l0 -6.90625l1.0625 0l0 0.984375q0.75 -1.140625 2.1875 -1.140625q0.625 0 1.15625 0.21875q0.53125 0.21875 0.78125 0.59375q0.265625 0.359375 0.375 0.859375q0.0625 0.328125 0.0625 1.140625l0 4.25l-1.171875 0l0 -4.203125q0 -0.71875 -0.140625 -1.0625q-0.140625 -0.359375 -0.484375 -0.5625q-0.34375 -0.21875 -0.8125 -0.21875q-0.75 0 -1.296875 0.46875q-0.546875 0.46875 -0.546875 1.796875l0 3.78125l-1.171875 0zm9.974976 -1.046875l0.171875 1.03125q-0.5 0.109375 -0.890625 0.109375q-0.640625 0 -1.0 -0.203125q-0.34375 -0.203125 -0.484375 -0.53125q-0.140625 -0.328125 -0.140625 -1.390625l0 -3.96875l-0.859375 0l0 -0.90625l0.859375 0l0 -1.71875l1.171875 -0.703125l0 2.421875l1.171875 0l0 0.90625l-1.171875 0l0 4.046875q0 0.5 0.046875 0.640625q0.0625 0.140625 0.203125 0.234375q0.140625 0.078125 0.40625 0.078125q0.203125 0 0.515625 -0.046875zm5.8748627 -1.171875l1.203125 0.140625q-0.28125 1.0625 -1.0625 1.65625q-0.765625 0.578125 -1.96875 0.578125q-1.515625 0 -2.40625 -0.9375q-0.890625 -0.9375 -0.890625 -2.609375q0 -1.75 0.890625 -2.703125q0.90625 -0.96875 2.34375 -0.96875q1.390625 0 2.265625 0.9375q0.875 0.9375 0.875 2.65625q0 0.109375 0 0.3125l-5.15625 0q0.0625 1.140625 0.640625 1.75q0.578125 0.59375 1.4375 0.59375q0.65625 0 1.109375 -0.328125q0.453125 -0.34375 0.71875 -1.078125zm-3.84375 -1.90625l3.859375 0q-0.078125 -0.859375 -0.4375 -1.296875q-0.5625 -0.6875 -1.453125 -0.6875q-0.8125 0 -1.359375 0.546875q-0.546875 0.53125 -0.609375 1.4375zm6.5062256 4.125l0 -6.90625l1.0625 0l0 1.046875q0.40625 -0.734375 0.734375 -0.96875q0.34375 -0.234375 0.765625 -0.234375q0.59375 0 1.203125 0.375l-0.40625 1.078125q-0.4375 -0.25 -0.859375 -0.25q-0.390625 0 -0.703125 0.234375q-0.296875 0.234375 -0.421875 0.640625q-0.203125 0.625 -0.203125 1.359375l0 3.625l-1.171875 0zm4.7352448 0l0 -6.0l-1.03125 0l0 -0.90625l1.03125 0l0 -0.734375q0 -0.703125 0.125 -1.046875q0.171875 -0.453125 0.59375 -0.734375q0.421875 -0.28125 1.203125 -0.28125q0.484375 0 1.09375 0.109375l-0.1875 1.03125q-0.359375 -0.0625 -0.6875 -0.0625q-0.53125 0 -0.75 0.234375q-0.21875 0.21875 -0.21875 0.84375l0 0.640625l1.34375 0l0 0.90625l-1.34375 0l0 6.0l-1.171875 0zm7.9373627 -0.859375q-0.65625 0.5625 -1.265625 0.796875q-0.59375 0.21875 -1.28125 0.21875q-1.140625 0 -1.75 -0.546875q-0.609375 -0.5625 -0.609375 -1.4375q0 -0.5 0.21875 -0.921875q0.234375 -0.421875 0.609375 -0.671875q0.375 -0.25 0.84375 -0.390625q0.34375 -0.078125 1.046875 -0.171875q1.421875 -0.171875 2.09375 -0.40625q0 -0.234375 0 -0.296875q0 -0.71875 -0.328125 -1.015625q-0.453125 -0.390625 -1.34375 -0.390625q-0.8125 0 -1.21875 0.296875q-0.390625 0.28125 -0.578125 1.015625l-1.140625 -0.15625q0.15625 -0.734375 0.515625 -1.1875q0.359375 -0.453125 1.03125 -0.6875q0.671875 -0.25 1.5625 -0.25q0.890625 0 1.4375 0.203125q0.5625 0.203125 0.8125 0.53125q0.265625 0.3125 0.375 0.796875q0.046875 0.296875 0.046875 1.078125l0 1.5625q0 1.625 0.078125 2.0625q0.078125 0.4375 0.296875 0.828125l-1.21875 0q-0.1875 -0.359375 -0.234375 -0.859375zm-0.09375 -2.609375q-0.640625 0.265625 -1.921875 0.4375q-0.71875 0.109375 -1.015625 0.25q-0.296875 0.125 -0.46875 0.375q-0.15625 0.25 -0.15625 0.546875q0 0.46875 0.34375 0.78125q0.359375 0.3125 1.046875 0.3125q0.671875 0 1.203125 -0.296875q0.53125 -0.296875 0.78125 -0.8125q0.1875 -0.390625 0.1875 -1.171875l0 -0.421875zm7.5062256 0.9375l1.15625 0.15625q-0.1875 1.1875 -0.96875 1.859375q-0.78125 0.671875 -1.921875 0.671875q-1.40625 0 -2.28125 -0.921875q-0.859375 -0.9375 -0.859375 -2.65625q0 -1.125 0.375 -1.96875q0.375 -0.84375 1.125 -1.25q0.765625 -0.421875 1.65625 -0.421875q1.125 0 1.84375 0.578125q0.71875 0.5625 0.921875 1.609375l-1.140625 0.171875q-0.171875 -0.703125 -0.59375 -1.046875q-0.40625 -0.359375 -0.984375 -0.359375q-0.890625 0 -1.453125 0.640625q-0.546875 0.640625 -0.546875 2.0q0 1.40625 0.53125 2.03125q0.546875 0.625 1.40625 0.625q0.6875 0 1.140625 -0.421875q0.46875 -0.421875 0.59375 -1.296875zm6.8828125 0.3125l1.203125 0.140625q-0.28125 1.0625 -1.0625 1.65625q-0.765625 0.578125 -1.96875 0.578125q-1.515625 0 -2.40625 -0.9375q-0.890625 -0.9375 -0.890625 -2.609375q0 -1.75 0.890625 -2.703125q0.90625 -0.96875 2.34375 -0.96875q1.390625 0 2.265625 0.9375q0.875 0.9375 0.875 2.65625q0 0.109375 0 0.3125l-5.15625 0q0.0625 1.140625 0.640625 1.75q0.578125 0.59375 1.4375 0.59375q0.65625 0 1.109375 -0.328125q0.453125 -0.34375 0.71875 -1.078125zm-3.84375 -1.90625l3.859375 0q-0.078125 -0.859375 -0.4375 -1.296875q-0.5625 -0.6875 -1.453125 -0.6875q-0.8125 0 -1.359375 0.546875q-0.546875 0.53125 -0.609375 1.4375z" fill-rule="nonzero"/></g></svg>