<?xml version="1.0" encoding="UTF-8" standalone="no"?>
<svg
   xmlns:dc="http://purl.org/dc/elements/1.1/"
   xmlns:cc="http://creativecommons.org/ns#"
   xmlns:rdf="http://www.w3.org/1999/02/22-rdf-syntax-ns#"
   xmlns:svg="http://www.w3.org/2000/svg"
   xmlns="http://www.w3.org/2000/svg"
   xmlns:sodipodi="http://sodipodi.sourceforge.net/DTD/sodipodi-0.dtd"
   xmlns:inkscape="http://www.inkscape.org/namespaces/inkscape"
   sodipodi:docname="logo.svg"
   inkscape:version="1.0 (4035a4f, 2020-05-01)"
   id="svg8"
   version="1.1"
   viewBox="0 0 170.15231 33.172402"
   height="33.172401mm"
   width="170.15231mm">
  <defs
     id="defs2" />
  <sodipodi:namedview
     inkscape:window-maximized="0"
     inkscape:window-y="25"
     inkscape:window-x="0"
     inkscape:window-height="735"
     inkscape:window-width="1424"
     inkscape:pagecheckerboard="true"
     fit-margin-bottom="0"
     fit-margin-right="0"
     fit-margin-left="0"
     fit-margin-top="0"
     showgrid="false"
     inkscape:document-rotation="0"
     inkscape:current-layer="layer1"
     inkscape:document-units="mm"
     inkscape:cy="286.78554"
     inkscape:cx="-97.66026"
     inkscape:zoom="0.35"
     inkscape:pageshadow="2"
     inkscape:pageopacity="0.0"
     borderopacity="1.0"
     bordercolor="#666666"
     pagecolor="#ffffff"
     id="base" />
  <metadata
     id="metadata5">
    <rdf:RDF>
      <cc:Work
         rdf:about="">
        <dc:format>image/svg+xml</dc:format>
        <dc:type
           rdf:resource="http://purl.org/dc/dcmitype/StillImage" />
        <dc:title></dc:title>
      </cc:Work>
    </rdf:RDF>
  </metadata>
  <g
     transform="translate(-36.704211,-47.314151)"
     id="layer1"
     inkscape:groupmode="layer"
     inkscape:label="Calque 1">
    <g
       transform="matrix(0.491401,0,0,0.491401,43.018433,32.499655)"
       style="font-size:50.8px;line-height:1.25;font-family:'Alegreya Sans SC';-inkscape-font-specification:'Alegreya Sans SC';fill:#ffffff;stroke-width:0.264583"
       id="text835"
       aria-label="Completium">
      <path
         id="path837"
         style="fill:#ffffff;stroke-width:0.264583"
         d="m 51.131411,47.314151 q 5.1308,0 8.89,2.4384 l -0.8128,3.7084 -0.4572,0.1016 q -3.4036,-2.8448 -7.8232,-2.8448 -4.826,0 -7.4168,3.3528 -2.5908,3.302 -2.5908,9.7028 0,6.4516 2.5908,9.8552 2.5908,3.4036 7.3152,3.4036 2.2352,0 4.4196,-0.8128 2.2352,-0.8128 4.064,-2.286 l 0.508,0.254 -0.3556,3.8608 q -4.4196,2.4384 -8.9916,2.4384 -6.5532,0 -10.16,-4.2164 -3.6068,-4.2672 -3.6068,-12.1412 0,-8.0772 3.7592,-12.446 3.7592,-4.3688 10.668,-4.3688 z" />
      <path
         id="path839"
         style="fill:#ffffff;stroke-width:0.264583"
         d="m 75.59558,54.527751 q 5.5372,0 8.4836,3.2512 2.9972,3.2512 2.9972,9.1948 0,6.4516 -3.2004,10.0076 -3.1496,3.5052 -9.0424,3.5052 -5.4864,0 -8.4836,-3.302 -2.9972,-3.3528 -2.9972,-9.4996 0,-6.2992 3.2004,-9.7028 3.2004,-3.4544 9.0424,-3.4544 z m -0.3556,3.2004 q -4.0132,0 -5.9944,2.286 -1.9304,2.286 -1.9304,7.2136 0,5.2832 1.9304,7.6708 1.9304,2.3876 5.8928,2.3876 4.064,0 6.0452,-2.3368 1.9812,-2.3368 1.9812,-7.3152 0,-5.1308 -1.9812,-7.5184 -1.9304,-2.3876 -5.9436,-2.3876 z" />
      <path
         id="path841"
         style="fill:#ffffff;stroke-width:0.264583"
         d="m 120.84012,80.130951 h -3.4036 l -0.5588,-7.7216 -1.3716,-11.684 h -0.3048 l -7.2644,16.5608 h -2.9972 l -6.857996,-16.5608 h -0.3048 l -1.3208,11.3792 -0.7112,8.0264 h -3.2512 l 2.794,-25.2984 h 4.4196 l 1.269996,3.81 5.5372,13.6144 h 0.3048 l 5.7912,-13.8176 1.3208,-3.6068 h 4.318 z" />
      <path
         id="path843"
         style="fill:#ffffff;stroke-width:0.264583"
         d="m 137.27869,54.781751 q 4.0132,0 6.1468,1.9304 2.1844,1.9304 2.1844,5.588 0,4.2672 -2.7432,6.7056 -2.6924,2.3876 -7.4676,2.3876 h -3.0988 v 0.8128 l 0.1016,7.9248 h -3.7592 l 0.1524,-7.62 -0.1524,-17.6784 z m -0.6604,13.6652 q 5.0292,-0.8636 5.0292,-5.842 0,-2.3876 -1.3716,-3.556 -1.3208,-1.1684 -4.0132,-1.27 l -3.8608,0.0508 -0.0508,10.5156 z" />
      <path
         id="path845"
         style="fill:#ffffff;stroke-width:0.264583"
         d="m 165.97037,77.286151 -0.254,2.8448 h -13.462 l 0.1524,-7.62 -0.1524,-17.6784 h 3.81 l -0.1524,17.3736 0.1016,4.7244 h 9.7536 z" />
      <path
         id="path847"
         style="fill:#ffffff;stroke-width:0.264583"
         d="m 186.94839,76.879751 0.3048,0.3048 -0.3556,2.9464 h -15.3924 l 0.1524,-7.62 -0.1524,-17.6784 h 15.494 l 0.254,0.3048 -0.3048,2.9464 -6.4008,-0.2032 -5.2832,0.0508 -0.0508,7.6708 5.0292,0.0508 4.4196,-0.1524 0.254,0.3556 -0.3048,2.9972 -4.6736,-0.1524 -4.7244,0.0508 -0.0508,3.4544 0.0508,4.826 4.9784,0.0508 z" />
      <path
         id="path849"
         style="fill:#ffffff;stroke-width:0.264583"
         d="m 209.63297,55.137351 -0.254,3.2004 -4.7244,-0.3556 h -2.54 l -0.1524,14.224 0.1524,7.9248 h -3.81 l 0.1524,-7.62 -0.1016,-14.5288 h -2.54 l -4.826,0.3556 -0.3048,-0.3556 0.3048,-3.1496 h 18.4404 z" />
      <path
         id="path851"
         style="fill:#ffffff;stroke-width:0.264583"
         d="m 219.51357,72.206151 0.1016,7.9248 h -3.7592 l 0.1524,-7.62 -0.1524,-17.6784 h 3.81 z" />
      <path
         id="path853"
         style="fill:#ffffff;stroke-width:0.264583"
         d="m 248.50846,67.684951 v 3.6576 q 0.0508,4.318 -2.6416,6.7056 -2.6416,2.3876 -7.62,2.3876 -4.9276,0 -7.5184,-2.3368 -2.5908,-2.3876 -2.4892,-6.7564 l 0.0508,-3.8608 -0.0508,-12.6492 h 3.81 l -0.2032,15.9004 q -0.0508,3.2004 1.5748,4.826 1.6764,1.6256 4.9784,1.6256 3.2512,0 4.9276,-1.6256 1.6764,-1.6256 1.6256,-4.826 l -0.1524,-15.9004 h 3.8608 z" />
      <path
         id="path855"
         style="fill:#ffffff;stroke-width:0.264583"
         d="m 283.85653,80.130951 h -3.4036 l -0.5588,-7.7216 -1.3716,-11.684 h -0.3048 l -7.2644,16.5608 h -2.9972 l -6.858,-16.5608 h -0.3048 l -1.3208,11.3792 -0.7112,8.0264 h -3.2512 l 2.794,-25.2984 h 4.4196 l 1.27,3.81 5.5372,13.6144 h 0.3048 l 5.7912,-13.8176 1.3208,-3.6068 h 4.318 z" />
    </g>
  </g>
</svg>
