<svg xmlns="http://www.w3.org/2000/svg" version="1.1" xmlns:xlink="http://www.w3.org/1999/xlink" xmlns:svgjs="http://svgjs.com/svgjs" viewBox="0 0 200 200" width="200" height="200"><g transform="matrix(2,0,0,2,0,0)"><path d="M36.426,31.015H17.169a3.339,3.339,0,0,0-3.339,3.339v6.678" fill="none" stroke="#c1c0c0" stroke-linecap="round" stroke-linejoin="round"></path><path d="M86.17,41.032V34.354a3.339,3.339,0,0,0-3.339-3.339h-19.4" fill="none" stroke="#c1c0c0" stroke-linecap="round" stroke-linejoin="round"></path><path d="M62.653,41.032H86.17V86.661A3.339,3.339,0,0,1,82.831,90H17.169a3.339,3.339,0,0,1-3.339-3.339V41.032H37.284" fill="none" stroke="#c1c0c0" stroke-linecap="round" stroke-linejoin="round"></path><path d="M48.442,77.911c-.358,5.946-2.8,7.125-3.918,8.526a5.286,5.286,0,0,0-5.12-4.006c-1.019,0-.757.163-.757-.378A4.142,4.142,0,0,0,31.92,78.8,8.7,8.7,0,1,0,18.8,90H81.2A8.7,8.7,0,1,0,68.08,78.8a4.142,4.142,0,0,0-6.727,3.257c0,.541.262.378-.757.378a5.286,5.286,0,0,0-5.12,4.006c-1.123-1.4-3.564-2.563-3.919-8.537" fill="none" stroke="#c1c0c0" stroke-linecap="round" stroke-linejoin="round"></path><path d="M34.615,85.46A5.3,5.3,0,0,1,39.4,82.431" fill="none" stroke="#c1c0c0" stroke-linecap="round" stroke-linejoin="round"></path><path d="M30.321,82.053a4.229,4.229,0,0,1,1.6-3.257" fill="none" stroke="#c1c0c0" stroke-linecap="round" stroke-linejoin="round"></path><path d="M65.385,85.46A5.3,5.3,0,0,0,60.6,82.431" fill="none" stroke="#c1c0c0" stroke-linecap="round" stroke-linejoin="round"></path><path d="M69.679,82.053a4.155,4.155,0,0,0-1.588-3.271" fill="none" stroke="#c1c0c0" stroke-linecap="round" stroke-linejoin="round"></path><path d="M54.958,52.612l-9.911,0a27.849,27.849,0,0,0-2.48,10.384c0,3.921,4.236,11.989,6.311,15.7a1.346,1.346,0,0,0,2.237,0c2.077-3.714,6.317-11.779,6.318-15.7A27.859,27.859,0,0,0,54.958,52.612Z" fill="none" stroke="#c1c0c0" stroke-linecap="round" stroke-linejoin="round"></path><path d="M51.24,52.612s3.094,6.919-.132,12.074a1.392,1.392,0,0,1-2.218,0c-3.224-5.156-.127-12.074-.127-12.074Z" fill="none" stroke="#c1c0c0" stroke-linecap="round" stroke-linejoin="round"></path><path d="M60.285,26.473a13.759,13.759,0,0,0-3.494-10.666l-4.243-4.678a3.44,3.44,0,0,0-5.1,0l-4.243,4.678a13.759,13.759,0,0,0-3.494,10.666L42.429,52.61H57.571Z" fill="none" stroke="#c1c0c0" stroke-linecap="round" stroke-linejoin="round"></path><path d="M42.429,52.61l-4.308,4.677a1.3,1.3,0,0,1-2.141-.337c-1.485-3.219-3.45-10.377,5.333-15.088Z" fill="none" stroke="#c1c0c0" stroke-linecap="round" stroke-linejoin="round"></path><path d="M57.571,52.61l4.308,4.677a1.3,1.3,0,0,0,2.141-.337c1.485-3.219,3.45-10.377-5.333-15.088Z" fill="none" stroke="#c1c0c0" stroke-linecap="round" stroke-linejoin="round"></path><path d="M41.616 44.78L42.429 52.61 57.571 52.61 58.384 44.78 41.616 44.78z" fill="none" stroke="#c1c0c0" stroke-linecap="round" stroke-linejoin="round"></path><path d="M45.442 25.018 A4.558 4.558 0 1 0 54.558 25.018 A4.558 4.558 0 1 0 45.442 25.018 Z" fill="none" stroke="#c1c0c0" stroke-linecap="round" stroke-linejoin="round"></path><path d="M50 41.862L50 58.622" fill="none" stroke="#c1c0c0" stroke-linecap="round" stroke-linejoin="round"></path><path d="M17.169 36.024 A1.724 1.724 0 1 0 20.617 36.024 A1.724 1.724 0 1 0 17.169 36.024 Z" fill="none" stroke="#c1c0c0" stroke-linecap="round" stroke-linejoin="round"></path><path d="M23.891 36.024 A1.724 1.724 0 1 0 27.339 36.024 A1.724 1.724 0 1 0 23.891 36.024 Z" fill="none" stroke="#c1c0c0" stroke-linecap="round" stroke-linejoin="round"></path><path d="M30.614 36.024 A1.724 1.724 0 1 0 34.062 36.024 A1.724 1.724 0 1 0 30.614 36.024 Z" fill="none" stroke="#c1c0c0" stroke-linecap="round" stroke-linejoin="round"></path></g></svg>