<svg xmlns="http://www.w3.org/2000/svg" version="1.1" xmlns:xlink="http://www.w3.org/1999/xlink" xmlns:svgjs="http://svgjs.com/svgjs" viewBox="0 0 200 200" width="200" height="200"><g transform="matrix(2,0,0,2,0,0)"><path d="M9.113 50.111 A40.000 40.000 0 1 0 89.113 50.111 A40.000 40.000 0 1 0 9.113 50.111 Z" fill="#012b3a"></path><path d="M33.192 82.568 A13.377 2.021 0 1 0 59.946 82.568 A13.377 2.021 0 1 0 33.192 82.568 Z" fill="#3d3d3f"></path><path d="M66.183,64.656,30.928,74.41a2,2,0,0,1-2.461-1.394L16.114,28.372a2,2,0,0,1,1.394-2.461l33.328-9.222A2,2,0,0,1,53.3,18.083Z" fill="#3d3d3f" stroke="#00ace7" stroke-linecap="round" stroke-linejoin="round"></path><path d="M29.000 24.622 L67.580 24.622 L67.580 74.944 L29.000 74.944 Z" fill="#1c1e21"></path><path d="M29.000 24.622 L67.580 24.622 L67.580 74.944 L29.000 74.944 Z" fill="none" stroke="#00ace7" stroke-linecap="round" stroke-linejoin="round"></path><path d="M41.581 34.686L37.387 38.88 41.581 43.073" fill="none" stroke="#00ace7" stroke-linecap="round" stroke-linejoin="round"></path><path d="M50.806 34.686L55 38.88 50.806 43.073" fill="none" stroke="#00ace7" stroke-linecap="round" stroke-linejoin="round"></path><path d="M47.451 34.686L44.097 43.073" fill="none" stroke="#00ace7" stroke-linecap="round" stroke-linejoin="round"></path><path d="M35.71 49.783L57.516 49.783" fill="none" stroke="#00ace7" stroke-linecap="round" stroke-linejoin="round"></path><path d="M35.71 54.815L51.645 54.815" fill="none" stroke="#00ace7" stroke-linecap="round" stroke-linejoin="round"></path><path d="M35.71 59.847L47.451 59.847" fill="none" stroke="#00ace7" stroke-linecap="round" stroke-linejoin="round"></path><path d="M56.354 47.589H88.224V54.299H56.354z" fill="#1c1e21" transform="translate(-14.85 66.035) rotate(-44.998)"></path><path d="M58.65,59.84c-.112.037-2.064,4.7-3.029,7.025a.562.562,0,0,0,.742.732l7.031-3.013Z" fill="#1c1e21" stroke="#00ace7" stroke-linecap="round" stroke-linejoin="round"></path><path d="M56.354 47.589H88.224V54.299H56.354z" fill="none" stroke="#00ace7" stroke-linecap="round" stroke-linejoin="round" transform="translate(-14.85 66.035) rotate(-44.998)"></path><path d="M83.066 35.135H86.421V41.845H83.066z" fill="#3d3d3f" stroke="#00ace7" stroke-linecap="round" stroke-linejoin="round" transform="translate(-2.396 71.197) rotate(-45)"></path><path d="M90.081,37.9a3.355,3.355,0,0,0-4.744-4.744l-1.779,1.779L88.3,39.676Z" fill="#1c1e21" stroke="#00ace7" stroke-linecap="round" stroke-linejoin="round"></path><path d="M60.073,66.007l-2.884-2.883c-.556,1.311-1.153,2.744-1.568,3.741a.562.562,0,0,0,.742.732Z" fill="#3d3d3f" stroke="#00ace7" stroke-linecap="round" stroke-linejoin="round"></path></g></svg>