<svg xmlns="http://www.w3.org/2000/svg" version="1.1" xmlns:xlink="http://www.w3.org/1999/xlink" xmlns:svgjs="http://svgjs.com/svgjs" viewBox="0 0 140 140" width="140" height="140"><g transform="matrix(1.4,0,0,1.4,0,0)"><path d="M9.013 49.964 A40.000 40.000 0 1 0 89.013 49.964 A40.000 40.000 0 1 0 9.013 49.964 Z" fill="#441655"></path><path d="M22.493 80.835 A16.906 2.536 0 1 0 56.305 80.835 A16.906 2.536 0 1 0 22.493 80.835 Z" fill="#424242"></path><path d="M55.784,73.676H23.325v-7.33a2.814,2.814,0,0,1,2.814-2.814H52.97a2.814,2.814,0,0,1,2.814,2.814Z" fill="#000000"></path><path d="M55.784,73.676H23.325v-7.33a2.814,2.814,0,0,1,2.814-2.814H52.97a2.814,2.814,0,0,1,2.814,2.814Z" fill="none" stroke="#b339e0" stroke-linecap="round" stroke-linejoin="round"></path><path d="M57.813,76.719a3.044,3.044,0,0,1-3.044,3.043H24.339a3.043,3.043,0,0,1,0-6.086h30.43A3.043,3.043,0,0,1,57.813,76.719Z" fill="#424242" stroke="#b339e0" stroke-linecap="round" stroke-linejoin="round"></path><path d="M51.727,63.532a4.057,4.057,0,0,0-4.058-4.057H31.44a4.057,4.057,0,0,0-4.058,4.057Z" fill="#000000" stroke="#b339e0" stroke-linecap="round" stroke-linejoin="round"></path><path d="M45.117 22.414H57.289V40.672H45.117z" fill="#000000" stroke="#b339e0" stroke-linecap="round" stroke-linejoin="round" transform="translate(-7.307 45.445) rotate(-45.001)"></path><path d="M89.217,65.254a3.043,3.043,0,0,1-4.3,4.3L55.506,40.15l4.3-4.3Z" fill="#424242" stroke="#b339e0" stroke-linecap="round" stroke-linejoin="round"></path><path d="M37.573,32.262a1.968,1.968,0,0,0-2.784,0,4.111,4.111,0,0,0,0,5.813l9.967,9.967a4.05,4.05,0,0,0,5.728,0,2.029,2.029,0,0,0,0-2.869Z" fill="#424242" stroke="#b339e0" stroke-linecap="round" stroke-linejoin="round"></path><path d="M51.922,17.913a1.968,1.968,0,0,1,0-2.784,4.111,4.111,0,0,1,5.813,0L67.7,25.1a4.05,4.05,0,0,1,0,5.728,2.029,2.029,0,0,1-2.869,0Z" fill="#424242" stroke="#b339e0" stroke-linecap="round" stroke-linejoin="round"></path><path d="M43.436 28.152H47.493V46.41H43.436z" fill="#424242" stroke="#b339e0" stroke-linecap="round" stroke-linejoin="round" transform="translate(-13.046 43.066) rotate(-44.998)"></path><path d="M54.912 16.675H58.972V34.933H54.912z" fill="#424242" stroke="#b339e0" stroke-linecap="round" stroke-linejoin="round" transform="translate(-1.569 47.82) rotate(-44.998)"></path></g></svg>