<svg xmlns="http://www.w3.org/2000/svg" version="1.1" xmlns:xlink="http://www.w3.org/1999/xlink" xmlns:svgjs="http://svgjs.com/svgjs" viewBox="0 0 140 140" width="140" height="140"><g transform="matrix(1.4,0,0,1.4,0,0)"><path d="M90,50A40,40,0,1,0,13.564,66.5H86.436A39.829,39.829,0,0,0,90,50Z" fill="#340000"></path><path d="M11 66.5L89 66.5" fill="none" stroke="#ba1a5f" stroke-linecap="round" stroke-linejoin="round"></path><path d="M6.5 66.5L9 66.5" fill="none" stroke="#ba1a5f" stroke-linecap="round" stroke-linejoin="round"></path><path d="M91 66.5L93.5 66.5" fill="none" stroke="#ba1a5f" stroke-linecap="round" stroke-linejoin="round"></path><path d="M22.469,29.558l-.335.139a1.322,1.322,0,0,0-.714,1.728l.436,1.051a1.352,1.352,0,0,0,.7.719A27.131,27.131,0,0,0,43.9,33.43L72.166,21.7a4.187,4.187,0,0,0,2.57-3.054,4.091,4.091,0,0,0-1.476-3.957,11.094,11.094,0,0,0-11.108-1.6L30.391,26.269,24.4,20.5a1.323,1.323,0,0,0-1.427-.268l-2.5,1.042a1.321,1.321,0,0,0-.714,1.724Z" fill="#242526"></path><path d="M22.469,29.558l-.335.139a1.322,1.322,0,0,0-.714,1.728l.436,1.051a1.352,1.352,0,0,0,.7.719A27.131,27.131,0,0,0,43.9,33.43L72.166,21.7a4.187,4.187,0,0,0,2.57-3.054,4.091,4.091,0,0,0-1.476-3.957,11.094,11.094,0,0,0-11.108-1.6L30.391,26.269,24.4,20.5a1.323,1.323,0,0,0-1.427-.268l-2.5,1.042a1.321,1.321,0,0,0-.714,1.724Z" fill="none" stroke="#ba1a5f" stroke-linecap="round" stroke-linejoin="round"></path><path d="M59.914,22.229,28.871,35.1a27.135,27.135,0,0,0,14.381-1.414l.029-.012.254-.1.088-.036c.082-.032.164-.066.246-.1l.035-.014L69.466,22.818A11.035,11.035,0,0,0,59.914,22.229Z" fill="#424242" stroke="#ba1a5f" stroke-linecap="round" stroke-linejoin="round"></path><path d="M40.452,22.092,30.264,15.821a1.323,1.323,0,0,1,.187-2.348l4.108-1.7a1.32,1.32,0,0,1,1.012,0l14.91,6.162Z" fill="#424242" stroke="#ba1a5f" stroke-linecap="round" stroke-linejoin="round"></path><path d="M42.593,45.848,46.7,44.142a1.321,1.321,0,0,0,.715-.716L55.4,24.112,44.505,28.634,40.8,44.322A1.323,1.323,0,0,0,42.593,45.848Z" fill="#424242" stroke="#ba1a5f" stroke-linecap="round" stroke-linejoin="round"></path><path d="M62.152,13.083l-2.563,1.064a5.128,5.128,0,0,0,6.689,2.808l6.479-2.644A11.083,11.083,0,0,0,62.152,13.083Z" fill="#424242" stroke="#ba1a5f" stroke-linecap="round" stroke-linejoin="round"></path><path d="M88.759,36.428a3.061,3.061,0,0,0-2.4-.051,5.269,5.269,0,0,0-10.411,0,3.062,3.062,0,0,0-2.393.047,3.166,3.166,0,0,0,1.251,6.08H87.5a3.166,3.166,0,0,0,1.258-6.076Z" fill="#242526" stroke="#ba1a5f" stroke-linejoin="round"></path><path d="M46.503 76.543 A19.838 1.984 0 1 0 86.179 76.543 A19.838 1.984 0 1 0 46.503 76.543 Z" fill="#340000"></path><path d="M80.865,52.026a1.329,1.329,0,0,0-1.084.581,2.363,2.363,0,0,1-3.869,0,1.328,1.328,0,0,0-1.084-.581H47.694a1.587,1.587,0,0,0-1.587,1.587V72.657a1.586,1.586,0,0,0,1.587,1.587H74.828a1.327,1.327,0,0,0,1.084-.58,2.362,2.362,0,0,1,3.869,0,1.328,1.328,0,0,0,1.084.58h4.917a1.587,1.587,0,0,0,1.587-1.587V53.613a1.588,1.588,0,0,0-1.587-1.587Z" fill="#242526"></path><path d="M80.865,52.026a1.329,1.329,0,0,0-1.084.581,2.363,2.363,0,0,1-3.869,0,1.328,1.328,0,0,0-1.084-.581H47.694a1.587,1.587,0,0,0-1.587,1.587V72.657a1.586,1.586,0,0,0,1.587,1.587H74.828a1.327,1.327,0,0,0,1.084-.58,2.362,2.362,0,0,1,3.869,0,1.328,1.328,0,0,0,1.084.58h4.917a1.587,1.587,0,0,0,1.587-1.587V53.613a1.588,1.588,0,0,0-1.587-1.587Z" fill="none" stroke="#ba1a5f" stroke-linecap="round" stroke-linejoin="round"></path><path d="M77.847,59.168a.794.794,0,1,0,.793.793.793.793,0,0,0-.793-.793Z" fill="#ba1a5f"></path><path d="M77.847,62.342a.794.794,0,1,0,.793.793.793.793,0,0,0-.793-.793Z" fill="#ba1a5f"></path><path d="M77.847,65.516a.794.794,0,1,0,.793.793.793.793,0,0,0-.793-.793Z" fill="#ba1a5f"></path><path d="M77.847,68.69a.794.794,0,1,0,.793.793.793.793,0,0,0-.793-.793Z" fill="#ba1a5f"></path><path d="M50.074 69.483L57.216 69.483" fill="none" stroke="#ba1a5f" stroke-linecap="round" stroke-linejoin="round"></path><path d="M66.738 69.483L72.292 69.483" fill="none" stroke="#ba1a5f" stroke-linecap="round" stroke-linejoin="round"></path><path d="M50.074 61.548L57.216 61.548" fill="none" stroke="#ba1a5f" stroke-linecap="round" stroke-linejoin="round"></path><path d="M50.074 64.722L65.151 64.722" fill="none" stroke="#ba1a5f" stroke-linecap="round" stroke-linejoin="round"></path><path d="M85.782,52.026H80.865a1.329,1.329,0,0,0-1.084.581,2.363,2.363,0,0,1-3.869,0,1.328,1.328,0,0,0-1.084-.581H47.694a1.587,1.587,0,0,0-1.587,1.587v3.174H87.369V53.613A1.588,1.588,0,0,0,85.782,52.026Z" fill="#424242" stroke="#ba1a5f" stroke-linecap="round" stroke-linejoin="round"></path><path d="M31.824,66.625H19.26V50.168a1,1,0,0,1,1-1H30.824a1,1,0,0,1,1,1Z" fill="#424242" stroke="#ba1a5f" stroke-linecap="round" stroke-linejoin="round"></path><path d="M38.436,57.1H31.824v9.522h7.935v-8.2A1.322,1.322,0,0,0,38.436,57.1Z" fill="#424242" stroke="#ba1a5f" stroke-linecap="round" stroke-linejoin="round"></path><path d="M19.26,66.625H11.325V55.471a1.322,1.322,0,0,1,2-1.134L19.26,57.9Z" fill="#424242" stroke="#ba1a5f" stroke-linecap="round" stroke-linejoin="round"></path><path d="M15.454,58.69H14.47a.5.5,0,0,0-.5.5v.983a.5.5,0,0,0,.5.5h.984a.5.5,0,0,0,.5-.5V59.19a.5.5,0,0,0-.5-.5Z" fill="#ba1a5f"></path><path d="M15.454,62H14.47a.5.5,0,0,0-.5.5v.984a.5.5,0,0,0,.5.5h.984a.5.5,0,0,0,.5-.5V62.5a.5.5,0,0,0-.5-.5Z" fill="#ba1a5f"></path><path d="M36.614,58.69H35.63a.5.5,0,0,0-.5.5v.983a.5.5,0,0,0,.5.5h.984a.5.5,0,0,0,.5-.5V59.19a.5.5,0,0,0-.5-.5Z" fill="#ba1a5f"></path><path d="M22.728,52.077h-.984a.5.5,0,0,0-.5.5v.984a.5.5,0,0,0,.5.5h.984a.5.5,0,0,0,.5-.5v-.984a.5.5,0,0,0-.5-.5Z" fill="#ba1a5f"></path><path d="M26.034,52.077H25.05a.5.5,0,0,0-.5.5v.984a.5.5,0,0,0,.5.5h.984a.5.5,0,0,0,.5-.5v-.984a.5.5,0,0,0-.5-.5Z" fill="#ba1a5f"></path><path d="M29.34,52.077h-.984a.5.5,0,0,0-.5.5v.984a.5.5,0,0,0,.5.5h.984a.5.5,0,0,0,.5-.5v-.984a.5.5,0,0,0-.5-.5Z" fill="#ba1a5f"></path><path d="M22.728,55.383h-.984a.5.5,0,0,0-.5.5v.984a.5.5,0,0,0,.5.5h.984a.5.5,0,0,0,.5-.5v-.984a.5.5,0,0,0-.5-.5Z" fill="#ba1a5f"></path><path d="M26.034,55.383H25.05a.5.5,0,0,0-.5.5v.984a.5.5,0,0,0,.5.5h.984a.5.5,0,0,0,.5-.5v-.984a.5.5,0,0,0-.5-.5Z" fill="#ba1a5f"></path><path d="M29.34,55.383h-.984a.5.5,0,0,0-.5.5v.984a.5.5,0,0,0,.5.5h.984a.5.5,0,0,0,.5-.5v-.984a.5.5,0,0,0-.5-.5Z" fill="#ba1a5f"></path><path d="M22.728,58.69h-.984a.5.5,0,0,0-.5.5v.983a.5.5,0,0,0,.5.5h.984a.5.5,0,0,0,.5-.5V59.19a.5.5,0,0,0-.5-.5Z" fill="#ba1a5f"></path><path d="M26.034,58.69H25.05a.5.5,0,0,0-.5.5v.983a.5.5,0,0,0,.5.5h.984a.5.5,0,0,0,.5-.5V59.19a.5.5,0,0,0-.5-.5Z" fill="#ba1a5f"></path><path d="M29.34,58.69h-.984a.5.5,0,0,0-.5.5v.983a.5.5,0,0,0,.5.5h.984a.5.5,0,0,0,.5-.5V59.19a.5.5,0,0,0-.5-.5Z" fill="#ba1a5f"></path><path d="M22.728,62h-.984a.5.5,0,0,0-.5.5v.984a.5.5,0,0,0,.5.5h.984a.5.5,0,0,0,.5-.5V62.5a.5.5,0,0,0-.5-.5Z" fill="#ba1a5f"></path><path d="M26.034,62H25.05a.5.5,0,0,0-.5.5v.984a.5.5,0,0,0,.5.5h.984a.5.5,0,0,0,.5-.5V62.5a.5.5,0,0,0-.5-.5Z" fill="#ba1a5f"></path><path d="M29.34,62h-.984a.5.5,0,0,0-.5.5v.984a.5.5,0,0,0,.5.5h.984a.5.5,0,0,0,.5-.5V62.5a.5.5,0,0,0-.5-.5Z" fill="#ba1a5f"></path><path d="M36.614,62H35.63a.5.5,0,0,0-.5.5v.984a.5.5,0,0,0,.5.5h.984a.5.5,0,0,0,.5-.5V62.5a.5.5,0,0,0-.5-.5Z" fill="#ba1a5f"></path></g></svg>