<svg xmlns="http://www.w3.org/2000/svg" version="1.1" xmlns:xlink="http://www.w3.org/1999/xlink" xmlns:svgjs="http://svgjs.com/svgjs" viewBox="0 0 200 200" width="200" height="200"><g transform="matrix(2,0,0,2,0,0)"><path d="M10.000 50.000 A40.000 40.000 0 1 0 90.000 50.000 A40.000 40.000 0 1 0 10.000 50.000 Z" fill="#1c1e21"></path><path d="M37.5,86.329V61.164a1.254,1.254,0,0,1,1.215-1.26H55.728a1.254,1.254,0,0,1,1.216,1.26V86.329Z" fill="#252426"></path><path d="M65.472,36.153a2.43,2.43,0,0,0-3.438,0c-.425.425-3.427,3.8-4.142,3.763-1.533-.085-2.855-2.816-2.472-5.65l1.786-14.99a2.431,2.431,0,1,0-4.808-.721l-1.843,14.07.4-15.936a2.431,2.431,0,1,0-4.85-.339l-.284,16.273-.745-14.45a2.431,2.431,0,1,0-4.85.339l.23,3.289a2.424,2.424,0,0,0-4.342,1.748l1.675,16.442a44.783,44.783,0,0,0,2.142,12.38v3.887H54.194c0-2.9,2.563-5.4,11.278-16.667A2.432,2.432,0,0,0,65.472,36.153Z" fill="#00ace7"></path><path d="M40.452 21.801L41.469 33.164" fill="#00ace7"></path><path d="M37.5,86.329V61.164a1.254,1.254,0,0,1,1.215-1.26H55.728a1.254,1.254,0,0,1,1.216,1.26V86.329" fill="none" stroke="#424242" stroke-linecap="round" stroke-linejoin="round"></path><path d="M55.121,59.9V57.518a1.255,1.255,0,0,0-1.216-1.26H40.216c-.672,0-1.505.589-1.505,1.26V59.9Z" fill="#00ace7" stroke="#424242" stroke-linecap="round" stroke-linejoin="round"></path><path d="M40.452 21.801L41.469 33.164" fill="none" stroke="#424242" stroke-linecap="round" stroke-linejoin="round"></path><path d="M65.472,36.153a2.43,2.43,0,0,0-3.438,0c-.425.425-3.427,3.8-4.142,3.763-1.533-.085-2.855-2.816-2.472-5.65l1.786-14.99a2.431,2.431,0,1,0-4.808-.721l-1.843,14.07.4-15.936a2.431,2.431,0,1,0-4.85-.339l-.284,16.273-.745-14.45a2.431,2.431,0,1,0-4.85.339l.23,3.289a2.424,2.424,0,0,0-4.342,1.748l1.675,16.442a44.783,44.783,0,0,0,2.142,12.38v3.887H54.194c0-2.9,2.563-5.4,11.278-16.667A2.432,2.432,0,0,0,65.472,36.153Z" fill="none" stroke="#424242" stroke-linecap="round" stroke-linejoin="round"></path><path d="M67.131,84.691V72.946a.921.921,0,0,1,.921-.921H80.189a.92.92,0,0,1,.92.921V84.691Z" fill="#252426"></path><path d="M87.559,53.758a1.84,1.84,0,0,0-2.6,0c-.323.323-2.6,2.881-3.137,2.851-1.162-.065-2.163-2.133-1.873-4.28L81.3,40.976a1.841,1.841,0,1,0-3.641-.546l-1.4,10.656.3-12.069a1.841,1.841,0,1,0-3.673-.257l-.215,12.325-.565-10.944a1.841,1.841,0,1,0-3.673.257l.174,2.49a1.836,1.836,0,0,0-3.289,1.324l1.269,12.454c0,4.862,1.841,9.009,1.758,9.377v2.943h10.67c0-2.2,1.942-4.091,8.542-12.624A1.841,1.841,0,0,0,87.559,53.758Z" fill="#00ace7"></path><path d="M67.131,84.691V72.946a.921.921,0,0,1,.921-.921H80.189a.92.92,0,0,1,.92.921V84.691" fill="none" stroke="#424242" stroke-linecap="round" stroke-linejoin="round"></path><path d="M80.511,72.025V69.907a.921.921,0,0,0-.921-.921H68.66a.921.921,0,0,0-.921.921v2.118Z" fill="#00ace7" stroke="#424242" stroke-linecap="round" stroke-linejoin="round"></path><path d="M87.559,53.758a1.84,1.84,0,0,0-2.6,0c-.323.323-2.6,2.881-3.137,2.851-1.162-.065-2.163-2.133-1.873-4.28L81.3,40.976a1.841,1.841,0,1,0-3.641-.546l-1.4,10.656.3-12.069a1.841,1.841,0,1,0-3.673-.257l-.215,12.325-.565-10.944a1.841,1.841,0,1,0-3.673.257l.174,2.49a1.836,1.836,0,0,0-3.289,1.324l1.269,12.454c0,4.862,1.841,9.009,1.758,9.377v2.943h10.67c0-2.2,1.942-4.091,8.542-12.624A1.841,1.841,0,0,0,87.559,53.758Z" fill="none" stroke="#424242" stroke-linecap="round" stroke-linejoin="round"></path><path d="M68.609 42.888L69.38 51.691" fill="none" stroke="#424242" stroke-linecap="round" stroke-linejoin="round"></path><path d="M15.691,83.863V72.726a.921.921,0,0,1,.921-.921H28.749a.922.922,0,0,1,.921.921V83.863Z" fill="#252426"></path><path d="M36.119,53.539a1.84,1.84,0,0,0-2.6,0c-.322.322-2.6,2.88-3.137,2.85-1.162-.064-2.163-2.132-1.873-4.279l1.352-11.354a1.841,1.841,0,1,0-3.641-.546l-1.4,10.657.3-12.07a1.841,1.841,0,1,0-3.673-.257l-.215,12.326-.565-10.945A1.841,1.841,0,1,0,17,40.178l.174,2.491a1.836,1.836,0,0,0-3.289,1.324l1.269,12.453c0,4.862,1.841,9.009,1.758,9.377v2.944H27.578c0-2.195,1.941-4.092,8.541-12.624A1.841,1.841,0,0,0,36.119,53.539Z" fill="#00ace7"></path><path d="M15.691,83.863V72.726a.921.921,0,0,1,.921-.921H28.749a.922.922,0,0,1,.921.921V83.863" fill="none" stroke="#424242" stroke-linecap="round" stroke-linejoin="round"></path><path d="M29.071,71.805V69.687a.92.92,0,0,0-.921-.92H17.22a.92.92,0,0,0-.921.92v2.118Z" fill="#00ace7" stroke="#424242" stroke-linecap="round" stroke-linejoin="round"></path><path d="M36.119,53.539a1.84,1.84,0,0,0-2.6,0c-.322.322-2.6,2.88-3.137,2.85-1.162-.064-2.163-2.132-1.873-4.279l1.352-11.354a1.841,1.841,0,1,0-3.641-.546l-1.4,10.657.3-12.07a1.841,1.841,0,1,0-3.673-.257l-.215,12.326-.565-10.945A1.841,1.841,0,1,0,17,40.178l.174,2.491a1.836,1.836,0,0,0-3.289,1.324l1.269,12.453c0,4.862,1.841,9.009,1.758,9.377v2.944H27.578c0-2.195,1.941-4.092,8.541-12.624A1.841,1.841,0,0,0,36.119,53.539Z" fill="none" stroke="#424242" stroke-linecap="round" stroke-linejoin="round"></path><path d="M17.169 42.669L17.94 51.471" fill="none" stroke="#424242" stroke-linecap="round" stroke-linejoin="round"></path></g></svg>