<svg xmlns="http://www.w3.org/2000/svg" version="1.1" xmlns:xlink="http://www.w3.org/1999/xlink" xmlns:svgjs="http://svgjs.com/svgjs" viewBox="0 0 200 200" width="200" height="200"><g transform="matrix(2,0,0,2,0,0)"><path d="M10.000 50.000 A40.000 40.000 0 1 0 90.000 50.000 A40.000 40.000 0 1 0 10.000 50.000 Z" fill="#1c1e21"></path><path d="M26.075 49.512 A23.925 23.925 0 1 0 73.925 49.512 A23.925 23.925 0 1 0 26.075 49.512 Z" fill="#242526"></path><path d="M26.075 49.512 A23.925 23.925 0 1 0 73.925 49.512 A23.925 23.925 0 1 0 26.075 49.512 Z" fill="none" stroke="#424242" stroke-linecap="round" stroke-linejoin="round"></path><path d="M30.200 49.512 A19.800 19.800 0 1 0 69.800 49.512 A19.800 19.800 0 1 0 30.200 49.512 Z" fill="none" stroke="#424242" stroke-linecap="round" stroke-linejoin="round"></path><path d="M50 62.693L33.082 55.025 50 47.358 66.918 55.025 50 62.693z" fill="#00ace7" stroke="#424242" stroke-linecap="round" stroke-linejoin="round"></path><path d="M50 57.184L33.082 49.517 50 41.849 66.918 49.517 50 57.184z" fill="#00ace7" stroke="#424242" stroke-linecap="round" stroke-linejoin="round"></path><path d="M50 51.676L33.082 44.008 50 36.341 66.918 44.008 50 51.676z" fill="#00ace7" stroke="#424242" stroke-linecap="round" stroke-linejoin="round"></path><path d="M34.497 82.266 A15.503 1.897 0 1 0 65.503 82.266 A15.503 1.897 0 1 0 34.497 82.266 Z" fill="#242526"></path></g></svg>