<svg version="1.1" viewBox="0.0 0.0 488.5721784776903 214.28608923884514" fill="none" stroke="none" stroke-linecap="square" stroke-miterlimit="10" xmlns:xlink="http://www.w3.org/1999/xlink" xmlns="http://www.w3.org/2000/svg"><clipPath id="p.0"><path d="m0 0l488.57217 0l0 214.28609l-488.57217 0l0 -214.28609z" clip-rule="nonzero"/></clipPath><g clip-path="url(#p.0)"><path fill="#000000" fill-opacity="0.0" d="m0 0l488.57217 0l0 214.28609l-488.57217 0z" fill-rule="evenodd"/><path fill="#000000" fill-opacity="0.0" d="m111.45102 21.533993l0 0c0 -10.2890215 8.340897 -18.629921 18.629929 -18.629921l0 0c4.9409485 0 9.67955 1.9627895 13.17334 5.456578c3.4937897 3.4937878 5.4565735 8.232382 5.4565735 13.173344l0 0c0 10.289021 -8.340897 18.629921 -18.629913 18.629921l0 0c-10.289032 0 -18.629929 -8.3409 -18.629929 -18.629921z" fill-rule="evenodd"/><path stroke="#ffffff" stroke-width="2.0" stroke-linejoin="round" stroke-linecap="butt" d="m111.45102 21.533993l0 0c0 -10.2890215 8.340897 -18.629921 18.629929 -18.629921l0 0c4.9409485 0 9.67955 1.9627895 13.17334 5.456578c3.4937897 3.4937878 5.4565735 8.232382 5.4565735 13.173344l0 0c0 10.289021 -8.340897 18.629921 -18.629913 18.629921l0 0c-10.289032 0 -18.629929 -8.3409 -18.629929 -18.629921z" fill-rule="evenodd"/><path fill="#000000" fill-opacity="0.0" d="m116.443146 21.533993l0 0c0 -7.531946 6.10585 -13.637795 13.637802 -13.637795l0 0c3.6169586 0 7.085785 1.4368353 9.643372 3.9944181c2.5575867 2.5575829 3.9944153 6.026409 3.9944153 9.643377l0 0c0 7.531946 -6.10585 13.6377945 -13.637787 13.6377945l0 0c-7.531952 0 -13.637802 -6.1058483 -13.637802 -13.6377945z" fill-rule="evenodd"/><path stroke="#ffffff" stroke-width="2.0" stroke-linejoin="round" stroke-linecap="butt" d="m116.443146 21.533993l0 0c0 -7.531946 6.10585 -13.637795 13.637802 -13.637795l0 0c3.6169586 0 7.085785 1.4368353 9.643372 3.9944181c2.5575867 2.5575829 3.9944153 6.026409 3.9944153 9.643377l0 0c0 7.531946 -6.10585 13.6377945 -13.637787 13.6377945l0 0c-7.531952 0 -13.637802 -6.1058483 -13.637802 -13.6377945z" fill-rule="evenodd"/><path fill="#000000" fill-opacity="0.0" d="m116.443146 107.53399l0 0c0 -7.5319443 6.10585 -13.6377945 13.637802 -13.6377945l0 0c3.6169586 0 7.085785 1.4368362 9.643372 3.994423c2.5575867 2.557579 3.9944153 6.0264053 3.9944153 9.643372l0 0c0 7.531952 -6.10585 13.637802 -13.637787 13.637802l0 0c-7.531952 0 -13.637802 -6.10585 -13.637802 -13.637802z" fill-rule="evenodd"/><path stroke="#ffffff" stroke-width="2.0" stroke-linejoin="round" stroke-linecap="butt" d="m116.443146 107.53399l0 0c0 -7.5319443 6.10585 -13.6377945 13.637802 -13.6377945l0 0c3.6169586 0 7.085785 1.4368362 9.643372 3.994423c2.5575867 2.557579 3.9944153 6.0264053 3.9944153 9.643372l0 0c0 7.531952 -6.10585 13.637802 -13.637787 13.637802l0 0c-7.531952 0 -13.637802 -6.10585 -13.637802 -13.637802z" fill-rule="evenodd"/><path fill="#000000" fill-opacity="0.0" d="m116.443146 193.534l0 0c0 -7.531952 6.10585 -13.637802 13.637802 -13.637802l0 0c3.6169586 0 7.085785 1.4368439 9.643372 3.9944153c2.5575867 2.5575867 3.9944153 6.026413 3.9944153 9.643387l0 0c0 7.5319366 -6.10585 13.637787 -13.637787 13.637787l0 0c-7.531952 0 -13.637802 -6.10585 -13.637802 -13.637787z" fill-rule="evenodd"/><path stroke="#ffffff" stroke-width="2.0" stroke-linejoin="round" stroke-linecap="butt" d="m116.443146 193.534l0 0c0 -7.531952 6.10585 -13.637802 13.637802 -13.637802l0 0c3.6169586 0 7.085785 1.4368439 9.643372 3.9944153c2.5575867 2.5575867 3.9944153 6.026413 3.9944153 9.643387l0 0c0 7.5319366 -6.10585 13.637787 -13.637787 13.637787l0 0c-7.531952 0 -13.637802 -6.10585 -13.637802 -13.637787z" fill-rule="evenodd"/><path fill="#000000" fill-opacity="0.0" d="m316.0783 107.53399l0 0c0 -7.5319443 6.1058655 -13.6377945 13.637817 -13.6377945l0 0c3.6169434 0 7.085785 1.4368362 9.643372 3.994423c2.5575867 2.557579 3.9944153 6.0264053 3.9944153 9.643372l0 0c0 7.531952 -6.1058655 13.637802 -13.637787 13.637802l0 0c-7.531952 0 -13.637817 -6.10585 -13.637817 -13.637802z" fill-rule="evenodd"/><path stroke="#ffffff" stroke-width="2.0" stroke-linejoin="round" stroke-linecap="butt" d="m316.0783 107.53399l0 0c0 -7.5319443 6.1058655 -13.6377945 13.637817 -13.6377945l0 0c3.6169434 0 7.085785 1.4368362 9.643372 3.994423c2.5575867 2.557579 3.9944153 6.0264053 3.9944153 9.643372l0 0c0 7.531952 -6.1058655 13.637802 -13.637787 13.637802l0 0c-7.531952 0 -13.637817 -6.10585 -13.637817 -13.637802z" fill-rule="evenodd"/><path fill="#000000" fill-opacity="0.0" d="m130.08095 35.171787l0 58.74016" fill-rule="evenodd"/><path stroke="#ffffff" stroke-width="2.0" stroke-linejoin="round" stroke-linecap="butt" d="m130.08095 35.171787l0 46.74016" fill-rule="evenodd"/><path fill="#ffffff" stroke="#ffffff" stroke-width="2.0" stroke-linecap="butt" d="m126.77748 81.91195l3.3034668 9.076195l3.3034668 -9.076195z" fill-rule="evenodd"/><path fill="#000000" fill-opacity="0.0" d="m130.08095 121.17179l0 58.74015" fill-rule="evenodd"/><path stroke="#ffffff" stroke-width="2.0" stroke-linejoin="round" stroke-linecap="butt" d="m130.08095 121.17179l0 46.740166" fill-rule="evenodd"/><path fill="#ffffff" stroke="#ffffff" stroke-width="2.0" stroke-linecap="butt" d="m126.77748 167.91196l3.3034668 9.076187l3.3034668 -9.076187z" fill-rule="evenodd"/><path fill="#000000" fill-opacity="0.0" d="m143.71873 107.53399l172.34645 0" fill-rule="evenodd"/><path stroke="#ffffff" stroke-width="2.0" stroke-linejoin="round" stroke-linecap="butt" d="m143.71873 107.534l160.34645 0" fill-rule="evenodd"/><path fill="#ffffff" stroke="#ffffff" stroke-width="2.0" stroke-linecap="butt" d="m304.0652 110.83746l9.076202 -3.3034668l-9.076202 -3.3034668z" fill-rule="evenodd"/><path fill="#000000" fill-opacity="0.0" d="m20.545507 2.9513154l85.448814 0l0 37.16535l-85.448814 0z" fill-rule="evenodd"/><path fill="#000000" fill-opacity="0.0" d="m35.066658 15.146474l56.406525 0l0 17.16098l-56.406525 0l0 -17.16098z" fill-rule="nonzero"/><path fill="#ffffff" d="m42.191658 25.687565q-1.125 0.453125 -2.359375 0.453125q-1.984375 0 -3.046875 -1.171875q-1.0625 -1.1875 -1.0625 -3.515625q0 -1.125 0.296875 -2.03125q0.296875 -0.90625 0.828125 -1.53125q0.546875 -0.640625 1.3125 -0.984375q0.78125 -0.34375 1.75 -0.34375q0.640625 0 1.203125 0.109375q0.5625 0.109375 1.078125 0.34375l0 1.25q-0.515625 -0.28125 -1.0625 -0.421875q-0.53125 -0.15625 -1.1875 -0.15625q-0.65625 0 -1.1875 0.25q-0.53125 0.25 -0.90625 0.71875q-0.375 0.46875 -0.578125 1.15625q-0.1875 0.671875 -0.1875 1.53125q0 1.8125 0.734375 2.75q0.734375 0.921875 2.15625 0.921875q0.609375 0 1.15625 -0.140625q0.546875 -0.140625 1.0625 -0.390625l0 1.203125zm2.370575 -6.84375l1.140625 0l0.03125 1.328125q0.640625 -0.765625 1.25 -1.109375q0.625 -0.34375 1.25 -0.34375q1.125 0 1.703125 0.71875q0.578125 0.71875 0.53125 2.15625l-1.265625 0q0.03125 -0.953125 -0.265625 -1.375q-0.296875 -0.421875 -0.875 -0.421875q-0.25 0 -0.515625 0.09375q-0.25 0.078125 -0.515625 0.28125q-0.265625 0.1875 -0.5625 0.5q-0.296875 0.3125 -0.640625 0.75l0 4.609375l-1.265625 0l0 -7.1875zm13.839325 3.21875q0 0.265625 -0.015625 0.453125q0 0.171875 -0.015625 0.328125l-5.046875 0q0 1.09375 0.609375 1.6875q0.625 0.59375 1.78125 0.59375q0.3125 0 0.625 -0.015625q0.3125 -0.03125 0.609375 -0.078125q0.296875 -0.046875 0.5625 -0.09375q0.265625 -0.0625 0.5 -0.125l0 1.03125q-0.515625 0.140625 -1.15625 0.21875q-0.640625 0.09375 -1.328125 0.09375q-0.921875 0 -1.59375 -0.25q-0.65625 -0.25 -1.078125 -0.71875q-0.421875 -0.484375 -0.625 -1.171875q-0.203125 -0.6875 -0.203125 -1.5625q0 -0.765625 0.21875 -1.4375q0.21875 -0.671875 0.625 -1.1875q0.421875 -0.515625 1.03125 -0.8125q0.609375 -0.296875 1.375 -0.296875q0.765625 0 1.34375 0.234375q0.578125 0.234375 0.96875 0.671875q0.40625 0.4375 0.609375 1.0625q0.203125 0.609375 0.203125 1.375zm-1.296875 -0.1875q0.015625 -0.46875 -0.109375 -0.859375q-0.109375 -0.40625 -0.34375 -0.6875q-0.234375 -0.296875 -0.59375 -0.453125q-0.359375 -0.15625 -0.828125 -0.15625q-0.40625 0 -0.75 0.15625q-0.328125 0.15625 -0.578125 0.4375q-0.25 0.28125 -0.40625 0.6875q-0.140625 0.40625 -0.171875 0.875l3.78125 0zm7.901825 4.15625l-0.03125 -0.96875q-0.59375 0.578125 -1.203125 0.84375q-0.59375 0.25 -1.265625 0.25q-0.609375 0 -1.046875 -0.15625q-0.4375 -0.15625 -0.71875 -0.421875q-0.28125 -0.28125 -0.421875 -0.65625q-0.125 -0.375 -0.125 -0.8125q0 -1.078125 0.796875 -1.6875q0.8125 -0.609375 2.390625 -0.609375l1.484375 0l0 -0.640625q0 -0.625 -0.40625 -1.0q-0.40625 -0.390625 -1.25 -0.390625q-0.609375 0 -1.203125 0.140625q-0.578125 0.125 -1.21875 0.375l0 -1.125q0.25 -0.078125 0.53125 -0.15625q0.296875 -0.09375 0.609375 -0.15625q0.328125 -0.0625 0.671875 -0.09375q0.359375 -0.046875 0.71875 -0.046875q0.640625 0 1.15625 0.140625q0.53125 0.140625 0.890625 0.4375q0.359375 0.296875 0.546875 0.75q0.203125 0.4375 0.203125 1.03125l0 4.953125l-1.109375 0zm-0.140625 -3.265625l-1.578125 0q-0.46875 0 -0.8125 0.09375q-0.328125 0.09375 -0.546875 0.265625q-0.21875 0.171875 -0.328125 0.40625q-0.09375 0.234375 -0.09375 0.546875q0 0.203125 0.0625 0.390625q0.0625 0.1875 0.203125 0.34375q0.15625 0.140625 0.375 0.234375q0.234375 0.078125 0.5625 0.078125q0.4375 0 0.984375 -0.265625q0.5625 -0.265625 1.171875 -0.828125l0 -1.265625zm9.370575 3.171875q-0.421875 0.09375 -0.875 0.140625q-0.453125 0.046875 -0.921875 0.046875q-1.34375 0 -2.015625 -0.609375q-0.65625 -0.609375 -0.65625 -1.875l0 -3.75l-2.015625 0l0 -1.046875l2.015625 0l0 -1.96875l1.234375 -0.328125l0 2.296875l3.234375 0l0 1.046875l-3.234375 0l0 3.65625q0 0.765625 0.40625 1.15625q0.421875 0.375 1.21875 0.375q0.34375 0 0.75 -0.046875q0.40625 -0.0625 0.859375 -0.171875l0 1.078125zm8.339325 -3.875q0 0.265625 -0.015625 0.453125q0 0.171875 -0.015625 0.328125l-5.046875 0q0 1.09375 0.609375 1.6875q0.625 0.59375 1.78125 0.59375q0.3125 0 0.625 -0.015625q0.3125 -0.03125 0.609375 -0.078125q0.296875 -0.046875 0.5625 -0.09375q0.265625 -0.0625 0.5 -0.125l0 1.03125q-0.515625 0.140625 -1.15625 0.21875q-0.640625 0.09375 -1.328125 0.09375q-0.921875 0 -1.59375 -0.25q-0.65625 -0.25 -1.078125 -0.71875q-0.421875 -0.484375 -0.625 -1.171875q-0.203125 -0.6875 -0.203125 -1.5625q0 -0.765625 0.21875 -1.4375q0.21875 -0.671875 0.625 -1.1875q0.421875 -0.515625 1.03125 -0.8125q0.609375 -0.296875 1.375 -0.296875q0.765625 0 1.34375 0.234375q0.578125 0.234375 0.96875 0.671875q0.40625 0.4375 0.609375 1.0625q0.203125 0.609375 0.203125 1.375zm-1.296875 -0.1875q0.015625 -0.46875 -0.109375 -0.859375q-0.109375 -0.40625 -0.34375 -0.6875q-0.234375 -0.296875 -0.59375 -0.453125q-0.359375 -0.15625 -0.828125 -0.15625q-0.40625 0 -0.75 0.15625q-0.328125 0.15625 -0.578125 0.4375q-0.25 0.28125 -0.40625 0.6875q-0.140625 0.40625 -0.171875 0.875l3.78125 0zm2.91745 0.71875q0 -0.921875 0.25 -1.625q0.25 -0.71875 0.703125 -1.203125q0.46875 -0.5 1.109375 -0.75q0.65625 -0.25 1.453125 -0.25q0.34375 0 0.671875 0.046875q0.328125 0.03125 0.65625 0.125l0 -3.015624l1.25 0l0 10.109374l-1.109375 0l-0.046875 -1.359375q-0.515625 0.765625 -1.125 1.125q-0.609375 0.359375 -1.328125 0.359375q-0.609375 0 -1.078125 -0.25q-0.46875 -0.265625 -0.78125 -0.734375q-0.3125 -0.46875 -0.46875 -1.125q-0.15625 -0.65625 -0.15625 -1.453125zm1.265625 -0.078125q0 1.296875 0.375 1.9375q0.390625 0.640625 1.09375 0.640625q0.484375 0 1.0 -0.421875q0.53125 -0.421875 1.109375 -1.25l0 -3.34375q-0.3125 -0.140625 -0.6875 -0.203125q-0.359375 -0.078125 -0.734375 -0.078125q-1.015625 0 -1.59375 0.65625q-0.5625 0.65625 -0.5625 2.0625z" fill-rule="nonzero"/><path fill="#000000" fill-opacity="0.0" d="m91.47318 15.146474l0 0l0 17.16098l0 0l0 -17.16098z" fill-rule="nonzero"/><path fill="#ffffff" d="m35.066658 26.98465l56.406525 0l0 1.3199997l-56.406525 0l0 -1.3199997z" fill-rule="nonzero"/><path fill="#000000" fill-opacity="0.0" d="m4.1780534 88.95132l107.27559 0l0 37.16535l-107.27559 0z" fill-rule="evenodd"/><path fill="#000000" fill-opacity="0.0" d="m17.525473 101.14648l80.58075 0l0 17.16098l-80.58075 0l0 -17.16098z" fill-rule="nonzero"/><path fill="#ffffff" d="m20.916098 103.75007l-2.15625 0l0 -1.078125l5.59375 0l0 1.078125l-2.15625 0l0 7.1875l2.15625 0l0 1.09375l-5.59375 0l0 -1.09375l2.15625 0l0 -7.1875zm5.808075 1.09375l1.109375 0l0.046875 1.15625q0.328125 -0.359375 0.609375 -0.609375q0.296875 -0.25 0.578125 -0.390625q0.28125 -0.15625 0.578125 -0.21875q0.296875 -0.0625 0.609375 -0.0625q1.109375 0 1.671875 0.65625q0.5781269 0.65625 0.5781269 1.96875l0 4.6875l-1.2500019 0l0 -4.59375q0 -0.84375 -0.3125 -1.234375q-0.3125 -0.40625 -0.9375 -0.40625q-0.234375 0 -0.453125 0.0625q-0.21875 0.0625 -0.453125 0.234375q-0.234375 0.171875 -0.515625 0.453125q-0.265625 0.28125 -0.609375 0.71875l0 4.765625l-1.25 0l0 -7.1875zm14.183077 0.703125q0 0.5625 -0.21875 1.125q-0.203125 0.5625 -0.65625 1.015625q-0.453125 0.4375 -1.15625 0.71875q-0.703125 0.265625 -1.671875 0.265625l-1.15625 0l0 3.359375l-1.28125 0l0 -9.359375l2.640625 0q0.6875 0 1.328125 0.15625q0.640625 0.15625 1.125 0.5q0.484375 0.34375 0.765625 0.890625q0.28125 0.546875 0.28125 1.328125zm-1.3125 0.046875q0 -0.890625 -0.59375 -1.375q-0.59375 -0.484375 -1.65625 -0.484375l-1.296875 0l0 3.859375l1.1875 0q1.125 0 1.734375 -0.5q0.625 -0.5 0.625 -1.5zm3.54245 -0.75l1.140625 0l0.03125 1.328125q0.640625 -0.765625 1.25 -1.109375q0.625 -0.34375 1.25 -0.34375q1.125 0 1.703125 0.71875q0.578125 0.71875 0.53125 2.15625l-1.265625 0q0.03125 -0.953125 -0.265625 -1.375q-0.296875 -0.421875 -0.875 -0.421875q-0.25 0 -0.515625 0.09375q-0.25 0.078125 -0.515625 0.28125q-0.265625 0.1875 -0.5625 0.5q-0.296875 0.3125 -0.640625 0.75l0 4.609375l-1.265625 0l0 -7.1875zm14.026825 3.53125q0 0.84375 -0.25 1.546875q-0.234375 0.6875 -0.671875 1.1875q-0.4375 0.5 -1.078125 0.78125q-0.640625 0.265625 -1.453125 0.265625q-0.765625 0 -1.390625 -0.234375q-0.609375 -0.234375 -1.03125 -0.703125q-0.421875 -0.46875 -0.65625 -1.15625q-0.21875 -0.6875 -0.21875 -1.578125q0 -0.84375 0.234375 -1.53125q0.234375 -0.6875 0.671875 -1.1875q0.453125 -0.5 1.09375 -0.765625q0.640625 -0.28125 1.4375 -0.28125q0.78125 0 1.390625 0.25q0.609375 0.234375 1.03125 0.703125q0.4375 0.453125 0.65625 1.140625q0.234375 0.6875 0.234375 1.5625zm-1.28125 0.0625q0 -0.671875 -0.15625 -1.15625q-0.140625 -0.5 -0.421875 -0.828125q-0.265625 -0.34375 -0.65625 -0.5q-0.375 -0.171875 -0.859375 -0.171875q-0.5625 0 -0.96875 0.21875q-0.390625 0.21875 -0.640625 0.578125q-0.25 0.359375 -0.375 0.84375q-0.109375 0.484375 -0.109375 1.015625q0 0.671875 0.140625 1.171875q0.140625 0.5 0.40625 0.828125q0.28125 0.328125 0.671875 0.5q0.390625 0.171875 0.875 0.171875q0.5625 0 0.953125 -0.21875q0.390625 -0.21875 0.640625 -0.578125q0.265625 -0.375 0.375 -0.859375q0.125 -0.484375 0.125 -1.015625zm8.245575 -2.578125q0.203125 0.25 0.3125 0.59375q0.109375 0.328125 0.109375 0.71875q0 0.546875 -0.203125 1.015625q-0.203125 0.453125 -0.578125 0.78125q-0.359375 0.328125 -0.890625 0.515625q-0.515625 0.1875 -1.140625 0.1875q-0.4375 0 -0.84375 -0.09375q-0.390625 -0.109375 -0.609375 -0.25q-0.140625 0.203125 -0.234375 0.390625q-0.09375 0.171875 -0.09375 0.390625q0 0.28125 0.25 0.46875q0.265625 0.171875 0.703125 0.171875l1.890625 0.078125q0.53125 0.015625 0.984375 0.140625q0.453125 0.125 0.78125 0.359375q0.328125 0.21875 0.5 0.5625q0.1875 0.328125 0.1875 0.765625q0 0.484375 -0.203125 0.90625q-0.203125 0.4375 -0.640625 0.765625q-0.4375 0.328125 -1.109375 0.515625q-0.65625 0.1875 -1.5625 0.1875q-0.875 0 -1.5 -0.140625q-0.609375 -0.125 -1.0 -0.375q-0.390625 -0.25 -0.578125 -0.59375q-0.171875 -0.34375 -0.171875 -0.75q0 -0.515625 0.234375 -0.921875q0.25 -0.390625 0.765625 -0.75q-0.1875 -0.078125 -0.328125 -0.203125q-0.140625 -0.140625 -0.234375 -0.296875q-0.078125 -0.15625 -0.125 -0.328125q-0.03125 -0.171875 -0.03125 -0.328125q0 -0.46875 0.21875 -0.84375q0.21875 -0.390625 0.515625 -0.734375q-0.140625 -0.171875 -0.25 -0.328125q-0.09375 -0.15625 -0.171875 -0.328125q-0.078125 -0.1875 -0.125 -0.390625q-0.03125 -0.21875 -0.03125 -0.5q0 -0.5625 0.203125 -1.015625q0.21875 -0.46875 0.578125 -0.796875q0.375 -0.328125 0.890625 -0.5q0.515625 -0.1875 1.140625 -0.1875q0.265625 0 0.515625 0.03125q0.25 0.03125 0.421875 0.09375l2.609375 0l0 1.015625l-1.15625 0zm-4.3125 7.203125q0 0.515625 0.53125 0.75q0.53125 0.234375 1.46875 0.234375q0.59375 0 1.0 -0.109375q0.40625 -0.109375 0.640625 -0.28125q0.25 -0.171875 0.359375 -0.40625q0.109375 -0.21875 0.109375 -0.453125q0 -0.4375 -0.359375 -0.65625q-0.359375 -0.203125 -1.09375 -0.234375l-1.875 -0.0625q-0.234375 0.15625 -0.390625 0.296875q-0.15625 0.15625 -0.25 0.3125q-0.078125 0.15625 -0.109375 0.296875q-0.03125 0.15625 -0.03125 0.3125zm0.375 -5.875q0 0.34375 0.109375 0.640625q0.125 0.28125 0.328125 0.484375q0.203125 0.203125 0.484375 0.3125q0.28125 0.109375 0.625 0.109375q0.375 0 0.65625 -0.125q0.296875 -0.125 0.5 -0.34375q0.203125 -0.21875 0.296875 -0.484375q0.109375 -0.28125 0.109375 -0.59375q0 -0.34375 -0.125 -0.625q-0.109375 -0.28125 -0.3125 -0.484375q-0.203125 -0.203125 -0.5 -0.3125q-0.28125 -0.109375 -0.625 -0.109375q-0.359375 0 -0.65625 0.125q-0.28125 0.125 -0.484375 0.34375q-0.203125 0.203125 -0.3125 0.484375q-0.09375 0.28125 -0.09375 0.578125zm7.120575 -2.34375l1.140625 0l0.03125 1.328125q0.640625 -0.765625 1.25 -1.109375q0.625 -0.34375 1.25 -0.34375q1.125 0 1.703125 0.71875q0.578125 0.71875 0.53125 2.15625l-1.265625 0q0.03125 -0.953125 -0.265625 -1.375q-0.296875 -0.421875 -0.875 -0.421875q-0.25 0 -0.515625 0.09375q-0.25 0.078125 -0.515625 0.28125q-0.265625 0.1875 -0.5625 0.5q-0.296875 0.3125 -0.640625 0.75l0 4.609375l-1.265625 0l0 -7.1875zm13.839325 3.21875q0 0.265625 -0.015625 0.453125q0 0.171875 -0.015625 0.328125l-5.046875 0q0 1.09375 0.609375 1.6875q0.625 0.59375 1.78125 0.59375q0.3125 0 0.625 -0.015625q0.3125 -0.03125 0.609375 -0.078125q0.296875 -0.046875 0.5625 -0.09375q0.265625 -0.0625 0.5 -0.125l0 1.03125q-0.515625 0.140625 -1.15625 0.21875q-0.640625 0.09375 -1.328125 0.09375q-0.921875 0 -1.59375 -0.25q-0.65625 -0.25 -1.078125 -0.71875q-0.421875 -0.484375 -0.625 -1.171875q-0.203125 -0.6875 -0.203125 -1.5625q0 -0.765625 0.21875 -1.4375q0.21875 -0.671875 0.625 -1.1875q0.421875 -0.515625 1.03125 -0.8125q0.609375 -0.296875 1.375 -0.296875q0.765625 0 1.34375 0.234375q0.578125 0.234375 0.96875 0.671875q0.40625 0.4375 0.609375 1.0625q0.203125 0.609375 0.203125 1.375zm-1.296875 -0.1875q0.015625 -0.46875 -0.109375 -0.859375q-0.109375 -0.40625 -0.34375 -0.6875q-0.234375 -0.296875 -0.59375 -0.453125q-0.359375 -0.15625 -0.828125 -0.15625q-0.40625 0 -0.75 0.15625q-0.328125 0.15625 -0.578125 0.4375q-0.25 0.28125 -0.40625 0.6875q-0.140625 0.40625 -0.171875 0.875l3.78125 0zm8.964325 2.203125q0 0.375 -0.125 0.671875q-0.125 0.296875 -0.34375 0.53125q-0.21875 0.234375 -0.515625 0.40625q-0.296875 0.15625 -0.640625 0.265625q-0.328125 0.109375 -0.6875 0.15625q-0.34375 0.046875 -0.671875 0.046875q-0.734375 0 -1.34375 -0.0625q-0.609375 -0.0625 -1.203125 -0.203125l0 -1.140625q0.640625 0.171875 1.25 0.265625q0.625 0.09375 1.25 0.09375q0.890625 0 1.3125 -0.234375q0.4375 -0.25 0.4375 -0.703125q0 -0.1875 -0.078125 -0.34375q-0.0625 -0.15625 -0.25 -0.296875q-0.171875 -0.140625 -0.546875 -0.28125q-0.375 -0.15625 -1.015625 -0.359375q-0.5 -0.140625 -0.90625 -0.3125q-0.40625 -0.1875 -0.71875 -0.4375q-0.296875 -0.25 -0.46875 -0.578125q-0.171875 -0.34375 -0.171875 -0.8125q0 -0.296875 0.140625 -0.65625q0.140625 -0.359375 0.46875 -0.65625q0.34375 -0.3125 0.921875 -0.515625q0.578125 -0.203125 1.421875 -0.203125q0.421875 0 0.9375 0.046875q0.515625 0.046875 1.078125 0.15625l0 1.109375q-0.578125 -0.140625 -1.109375 -0.203125q-0.53125 -0.078125 -0.90625 -0.078125q-0.46875 0 -0.796875 0.078125q-0.3125 0.0625 -0.515625 0.203125q-0.1875 0.125 -0.28125 0.296875q-0.078125 0.15625 -0.078125 0.34375q0 0.203125 0.0625 0.359375q0.078125 0.15625 0.28125 0.3125q0.21875 0.140625 0.578125 0.28125q0.359375 0.140625 0.953125 0.3125q0.640625 0.1875 1.0625 0.390625q0.4375 0.203125 0.703125 0.46875q0.28125 0.25 0.390625 0.5625q0.125 0.3125 0.125 0.71875zm8.058075 0q0 0.375 -0.125 0.671875q-0.125 0.296875 -0.34375 0.53125q-0.21875 0.234375 -0.515625 0.40625q-0.296875 0.15625 -0.640625 0.265625q-0.328125 0.109375 -0.6875 0.15625q-0.34375 0.046875 -0.671875 0.046875q-0.734375 0 -1.34375 -0.0625q-0.609375 -0.0625 -1.203125 -0.203125l0 -1.140625q0.640625 0.171875 1.25 0.265625q0.625 0.09375 1.25 0.09375q0.890625 0 1.3125 -0.234375q0.4375 -0.25 0.4375 -0.703125q0 -0.1875 -0.078125 -0.34375q-0.0625 -0.15625 -0.25 -0.296875q-0.171875 -0.140625 -0.546875 -0.28125q-0.375 -0.15625 -1.015625 -0.359375q-0.5 -0.140625 -0.90625 -0.3125q-0.40625 -0.1875 -0.71875 -0.4375q-0.296875 -0.25 -0.46875 -0.578125q-0.171875 -0.34375 -0.171875 -0.8125q0 -0.296875 0.140625 -0.65625q0.140625 -0.359375 0.46875 -0.65625q0.34375 -0.3125 0.921875 -0.515625q0.578125 -0.203125 1.421875 -0.203125q0.421875 0 0.9375 0.046875q0.515625 0.046875 1.078125 0.15625l0 1.109375q-0.578125 -0.140625 -1.109375 -0.203125q-0.53125 -0.078125 -0.90625 -0.078125q-0.46875 0 -0.796875 0.078125q-0.3125 0.0625 -0.515625 0.203125q-0.1875 0.125 -0.28125 0.296875q-0.078125 0.15625 -0.078125 0.34375q0 0.203125 0.0625 0.359375q0.078125 0.15625 0.28125 0.3125q0.21875 0.140625 0.578125 0.28125q0.359375 0.140625 0.953125 0.3125q0.640625 0.1875 1.0625 0.390625q0.4375 0.203125 0.703125 0.46875q0.28125 0.25 0.390625 0.5625q0.125 0.3125 0.125 0.71875z" fill-rule="nonzero"/><path fill="#000000" fill-opacity="0.0" d="m98.106224 101.14648l0 0l0 17.16098l0 0l0 -17.16098z" fill-rule="nonzero"/><path fill="#ffffff" d="m17.525473 112.98465l80.58075 0l0 1.3199997l-80.58075 0l0 -1.3199997z" fill-rule="nonzero"/><path fill="#000000" fill-opacity="0.0" d="m4.1806784 174.90407l107.27559 0l0 37.16536l-107.27559 0z" fill-rule="evenodd"/><path fill="#000000" fill-opacity="0.0" d="m21.557135 187.09923l72.522675 0l0 17.16098l-72.522675 0l0 -17.16098z" fill-rule="nonzero"/><path fill="#ffffff" d="m28.682135 197.64032q-1.125 0.453125 -2.359375 0.453125q-1.984375 0 -3.046875 -1.171875q-1.0625 -1.1875 -1.0625 -3.515625q0 -1.125 0.296875 -2.03125q0.296875 -0.90625 0.828125 -1.53125q0.546875 -0.640625 1.3125 -0.984375q0.78125 -0.34375 1.75 -0.34375q0.640625 0 1.203125 0.109375q0.5625 0.109375 1.078125 0.34375l0 1.25q-0.515625 -0.28125 -1.0625 -0.421875q-0.53125 -0.15625 -1.1875 -0.15625q-0.65625 0 -1.1875 0.25q-0.53125 0.25 -0.90625 0.71875q-0.375 0.46875 -0.578125 1.15625q-0.1875 0.671875 -0.1875 1.53125q0 1.8125 0.734375 2.75q0.734375 0.921875 2.15625 0.921875q0.609375 0 1.15625 -0.140625q0.546875 -0.140625 1.0625 -0.390625l0 1.203125zm8.339327 -3.3125q0 0.84375 -0.25 1.546875q-0.234375 0.6875 -0.671875 1.1875q-0.4375 0.5 -1.078125 0.78125q-0.640625 0.265625 -1.453125 0.265625q-0.765625 0 -1.390625 -0.234375q-0.6093769 -0.234375 -1.0312519 -0.703125q-0.421875 -0.46875 -0.65625 -1.15625q-0.21875 -0.6875 -0.21875 -1.578125q0 -0.84375 0.234375 -1.53125q0.234375 -0.6875 0.671875 -1.1875q0.453125 -0.5 1.0937519 -0.765625q0.640625 -0.28125 1.4375 -0.28125q0.78125 0 1.390625 0.25q0.609375 0.234375 1.03125 0.703125q0.4375 0.453125 0.65625 1.140625q0.234375 0.6875 0.234375 1.5625zm-1.28125 0.0625q0 -0.671875 -0.15625 -1.15625q-0.140625 -0.5 -0.421875 -0.828125q-0.265625 -0.34375 -0.65625 -0.5q-0.375 -0.171875 -0.859375 -0.171875q-0.5625 0 -0.96875 0.21875q-0.390625 0.21875 -0.640625 0.578125q-0.2500019 0.359375 -0.3750019 0.84375q-0.109375 0.484375 -0.109375 1.015625q0 0.671875 0.140625 1.171875q0.140625 0.5 0.4062519 0.828125q0.28125 0.328125 0.671875 0.5q0.390625 0.171875 0.875 0.171875q0.5625 0 0.953125 -0.21875q0.390625 -0.21875 0.640625 -0.578125q0.265625 -0.375 0.375 -0.859375q0.125 -0.484375 0.125 -1.015625zm8.1987 3.59375l0 -5.15625q0 -0.34375 -0.03125 -0.546875q-0.015625 -0.21875 -0.078125 -0.34375q-0.046875 -0.125 -0.125 -0.171875q-0.078125 -0.0625 -0.203125 -0.0625q-0.140625 0 -0.265625 0.09375q-0.125 0.078125 -0.265625 0.28125q-0.140625 0.1875 -0.3125 0.515625q-0.15625 0.3125 -0.390625 0.78125l0 4.609375l-1.140625 0l0 -5.03125q0 -0.390625 -0.03125 -0.625q-0.015625 -0.25 -0.078125 -0.375q-0.046875 -0.140625 -0.140625 -0.1875q-0.078125 -0.0625 -0.203125 -0.0625q-0.125 0 -0.25 0.078125q-0.109375 0.0625 -0.25 0.25q-0.125 0.1875 -0.296875 0.515625q-0.171875 0.328125 -0.40625 0.828125l0 4.609375l-1.15625 0l0 -7.1875l0.953125 0l0.0625 1.375q0.1875 -0.40625 0.359375 -0.6875q0.171875 -0.296875 0.359375 -0.46875q0.1875 -0.1875 0.390625 -0.265625q0.21875 -0.078125 0.46875 -0.078125q0.59375 0 0.890625 0.375q0.296875 0.375 0.296875 1.171875q0.171875 -0.375 0.328125 -0.65625q0.171875 -0.296875 0.359375 -0.484375q0.1875 -0.203125 0.421875 -0.296875q0.234375 -0.109375 0.53125 -0.109375q1.34375 0 1.34375 2.078125l0 5.234375l-1.140625 0zm9.0737 -3.71875q0 0.953125 -0.265625 1.671875q-0.265625 0.71875 -0.75 1.1875q-0.46875 0.46875 -1.109375 0.703125q-0.640625 0.234375 -1.390625 0.234375q-0.34375 0 -0.6875 -0.03125q-0.34375 -0.03125 -0.6875 -0.125l0 3.015625l-1.25 0l0 -10.125l1.109375 0l0.078125 1.203125q0.546875 -0.734375 1.15625 -1.03125q0.609375 -0.296875 1.3125 -0.296875q0.609375 0 1.078125 0.265625q0.46875 0.25 0.78125 0.71875q0.3125 0.46875 0.46875 1.140625q0.15625 0.65625 0.15625 1.46875zm-1.265625 0.046875q0 -0.5625 -0.09375 -1.03125q-0.078125 -0.46875 -0.265625 -0.796875q-0.171875 -0.34375 -0.453125 -0.53125q-0.265625 -0.1875 -0.65625 -0.1875q-0.234375 0 -0.484375 0.078125q-0.234375 0.0625 -0.5 0.25q-0.265625 0.171875 -0.5625 0.46875q-0.28125 0.28125 -0.609375 0.703125l0 3.484375q0.34375 0.140625 0.71875 0.234375q0.390625 0.078125 0.75 0.078125q1.0 0 1.578125 -0.6875q0.578125 -0.6875 0.578125 -2.0625zm5.6362 -5.421875l-2.125 0l0 -1.015625l3.390625 0l0 9.078125l2.125 0l0 1.03125l-5.75 0l0 -1.03125l2.359375 0l0 -8.0625zm11.683075 5.125q0 0.265625 -0.015625 0.453125q0 0.171875 -0.015625 0.328125l-5.046875 0q0 1.09375 0.609375 1.6875q0.625 0.59375 1.78125 0.59375q0.3125 0 0.625 -0.015625q0.3125 -0.03125 0.609375 -0.078125q0.296875 -0.046875 0.5625 -0.09375q0.265625 -0.0625 0.5 -0.125l0 1.03125q-0.515625 0.140625 -1.15625 0.21875q-0.640625 0.09375 -1.328125 0.09375q-0.921875 0 -1.59375 -0.25q-0.65625 -0.25 -1.078125 -0.71875q-0.421875 -0.484375 -0.625 -1.171875q-0.203125 -0.6875 -0.203125 -1.5625q0 -0.765625 0.21875 -1.4375q0.21875 -0.671875 0.625 -1.1875q0.421875 -0.515625 1.03125 -0.8125q0.609375 -0.296875 1.375 -0.296875q0.765625 0 1.34375 0.234375q0.578125 0.234375 0.96875 0.671875q0.40625 0.4375 0.609375 1.0625q0.203125 0.609375 0.203125 1.375zm-1.296875 -0.1875q0.015625 -0.46875 -0.109375 -0.859375q-0.109375 -0.40625 -0.34375 -0.6875q-0.234375 -0.296875 -0.59375 -0.453125q-0.359375 -0.15625 -0.828125 -0.15625q-0.40625 0 -0.75 0.15625q-0.328125 0.15625 -0.578125 0.4375q-0.25 0.28125 -0.40625 0.6875q-0.140625 0.40625 -0.171875 0.875l3.78125 0zm9.0737 4.0625q-0.421875 0.09375 -0.875 0.140625q-0.453125 0.046875 -0.921875 0.046875q-1.34375 0 -2.015625 -0.609375q-0.65625 -0.609375 -0.65625 -1.875l0 -3.75l-2.015625 0l0 -1.046875l2.015625 0l0 -1.96875l1.234375 -0.328125l0 2.296875l3.234375 0l0 1.046875l-3.234375 0l0 3.65625q0 0.765625 0.40625 1.15625q0.421875 0.375 1.21875 0.375q0.34375 0 0.75 -0.046875q0.40625 -0.0625 0.859375 -0.171875l0 1.078125zm8.339325 -3.875q0 0.265625 -0.015625 0.453125q0 0.171875 -0.015625 0.328125l-5.046875 0q0 1.09375 0.609375 1.6875q0.625 0.59375 1.78125 0.59375q0.3125 0 0.625 -0.015625q0.3125 -0.03125 0.609375 -0.078125q0.296875 -0.046875 0.5625 -0.09375q0.265625 -0.0625 0.5 -0.125l0 1.03125q-0.515625 0.140625 -1.15625 0.21875q-0.640625 0.09375 -1.328125 0.09375q-0.921875 0 -1.59375 -0.25q-0.65625 -0.25 -1.078125 -0.71875q-0.421875 -0.484375 -0.625 -1.171875q-0.203125 -0.6875 -0.203125 -1.5625q0 -0.765625 0.21875 -1.4375q0.21875 -0.671875 0.625 -1.1875q0.421875 -0.515625 1.03125 -0.8125q0.609375 -0.296875 1.375 -0.296875q0.765625 0 1.34375 0.234375q0.578125 0.234375 0.96875 0.671875q0.40625 0.4375 0.609375 1.0625q0.203125 0.609375 0.203125 1.375zm-1.296875 -0.1875q0.015625 -0.46875 -0.109375 -0.859375q-0.109375 -0.40625 -0.34375 -0.6875q-0.234375 -0.296875 -0.59375 -0.453125q-0.359375 -0.15625 -0.828125 -0.15625q-0.40625 0 -0.75 0.15625q-0.328125 0.15625 -0.578125 0.4375q-0.25 0.28125 -0.40625 0.6875q-0.140625 0.40625 -0.171875 0.875l3.78125 0zm2.91745 0.71875q0 -0.921875 0.25 -1.625q0.25 -0.71875 0.703125 -1.203125q0.46875 -0.5 1.109375 -0.75q0.65625 -0.25 1.453125 -0.25q0.34375 0 0.671875 0.046875q0.328125 0.03125 0.65625 0.125l0 -3.015625l1.25 0l0 10.109375l-1.109375 0l-0.046875 -1.359375q-0.515625 0.765625 -1.125 1.125q-0.609375 0.359375 -1.328125 0.359375q-0.609375 0 -1.078125 -0.25q-0.46875 -0.265625 -0.78125 -0.734375q-0.3125 -0.46875 -0.46875 -1.125q-0.15625 -0.65625 -0.15625 -1.453125zm1.265625 -0.078125q0 1.296875 0.375 1.9375q0.390625 0.640625 1.09375 0.640625q0.484375 0 1.0 -0.421875q0.53125 -0.421875 1.109375 -1.25l0 -3.34375q-0.3125 -0.140625 -0.6875 -0.203125q-0.359375 -0.078125 -0.734375 -0.078125q-1.015625 0 -1.59375 0.65625q-0.5625 0.65625 -0.5625 2.0625z" fill-rule="nonzero"/><path fill="#000000" fill-opacity="0.0" d="m94.07981 187.09923l0 0l0 17.16098l0 0l0 -17.16098z" fill-rule="nonzero"/><path fill="#ffffff" d="m21.557135 198.93741l72.522675 0l0 1.3199921l-72.522675 0l0 -1.3199921z" fill-rule="nonzero"/><path fill="#000000" fill-opacity="0.0" d="m352.9077 88.95132l131.65353 0l0 37.16535l-131.65353 0z" fill-rule="evenodd"/><path fill="#000000" fill-opacity="0.0" d="m374.41507 101.14648l88.638824 0l0 17.16098l-88.638824 0l0 -17.16098z" fill-rule="nonzero"/><path fill="#ffffff" d="m377.8057 103.75007l-2.15625 0l0 -1.078125l5.59375 0l0 1.078125l-2.15625 0l0 7.1875l2.15625 0l0 1.09375l-5.59375 0l0 -1.09375l2.15625 0l0 -7.1875zm5.808075 1.09375l1.109375 0l0.046875 1.15625q0.328125 -0.359375 0.609375 -0.609375q0.296875 -0.25 0.578125 -0.390625q0.28125 -0.15625 0.578125 -0.21875q0.296875 -0.0625 0.609375 -0.0625q1.109375 0 1.671875 0.65625q0.578125 0.65625 0.578125 1.96875l0 4.6875l-1.25 0l0 -4.59375q0 -0.84375 -0.3125 -1.234375q-0.3125 -0.40625 -0.9375 -0.40625q-0.234375 0 -0.453125 0.0625q-0.21875 0.0625 -0.453125 0.234375q-0.234375 0.171875 -0.515625 0.453125q-0.265625 0.28125 -0.609375 0.71875l0 4.765625l-1.25 0l0 -7.1875zm13.85495 7.09375q-0.421875 0.09375 -0.875 0.140625q-0.453125 0.046875 -0.921875 0.046875q-1.34375 0 -2.015625 -0.609375q-0.65625 -0.609375 -0.65625 -1.875l0 -3.75l-2.015625 0l0 -1.046875l2.015625 0l0 -1.96875l1.234375 -0.328125l0 2.296875l3.234375 0l0 1.046875l-3.234375 0l0 3.65625q0 0.765625 0.40625 1.15625q0.421875 0.375 1.21875 0.375q0.34375 0 0.75 -0.046875q0.40625 -0.0625 0.859375 -0.171875l0 1.078125zm8.339325 -3.875q0 0.265625 -0.015625 0.453125q0 0.171875 -0.015625 0.328125l-5.046875 0q0 1.09375 0.609375 1.6875q0.625 0.59375 1.78125 0.59375q0.3125 0 0.625 -0.015625q0.3125 -0.03125 0.609375 -0.078125q0.296875 -0.046875 0.5625 -0.09375q0.265625 -0.0625 0.5 -0.125l0 1.03125q-0.515625 0.140625 -1.15625 0.21875q-0.640625 0.09375 -1.328125 0.09375q-0.921875 0 -1.59375 -0.25q-0.65625 -0.25 -1.078125 -0.71875q-0.421875 -0.484375 -0.625 -1.171875q-0.203125 -0.6875 -0.203125 -1.5625q0 -0.765625 0.21875 -1.4375q0.21875 -0.671875 0.625 -1.1875q0.421875 -0.515625 1.03125 -0.8125q0.609375 -0.296875 1.375 -0.296875q0.765625 0 1.34375 0.234375q0.578125 0.234375 0.96875 0.671875q0.40625 0.4375 0.609375 1.0625q0.203125 0.609375 0.203125 1.375zm-1.296875 -0.1875q0.015625 -0.46875 -0.109375 -0.859375q-0.109375 -0.40625 -0.34375 -0.6875q-0.234375 -0.296875 -0.59375 -0.453125q-0.359375 -0.15625 -0.828125 -0.15625q-0.40625 0 -0.75 0.15625q-0.328125 0.15625 -0.578125 0.4375q-0.25 0.28125 -0.40625 0.6875q-0.140625 0.40625 -0.171875 0.875l3.78125 0zm3.5737 -3.03125l1.140625 0l0.03125 1.328125q0.640625 -0.765625 1.25 -1.109375q0.625 -0.34375 1.25 -0.34375q1.125 0 1.703125 0.71875q0.578125 0.71875 0.53125 2.15625l-1.265625 0q0.03125 -0.953125 -0.265625 -1.375q-0.296875 -0.421875 -0.875 -0.421875q-0.25 0 -0.515625 0.09375q-0.25 0.078125 -0.515625 0.28125q-0.265625 0.1875 -0.5625 0.5q-0.296875 0.3125 -0.640625 0.75l0 4.609375l-1.265625 0l0 -7.1875zm8.058075 0l1.140625 0l0.03125 1.328125q0.640625 -0.765625 1.25 -1.109375q0.625 -0.34375 1.25 -0.34375q1.125 0 1.703125 0.71875q0.578125 0.71875 0.53125 2.15625l-1.265625 0q0.03125 -0.953125 -0.265625 -1.375q-0.296875 -0.421875 -0.875 -0.421875q-0.25 0 -0.515625 0.09375q-0.25 0.078125 -0.515625 0.28125q-0.265625 0.1875 -0.5625 0.5q-0.296875 0.3125 -0.640625 0.75l0 4.609375l-1.265625 0l0 -7.1875zm13.54245 7.1875l-1.125 0l-0.03125 -1.15625q-0.328125 0.375 -0.625 0.625q-0.28125 0.234375 -0.578125 0.390625q-0.28125 0.140625 -0.578125 0.203125q-0.28125 0.0625 -0.59375 0.0625q-1.109375 0 -1.6875 -0.640625q-0.5625 -0.65625 -0.5625 -1.96875l0 -4.703125l1.25 0l0 4.59375q0 1.65625 1.25 1.65625q0.21875 0 0.4375 -0.0625q0.21875 -0.078125 0.453125 -0.234375q0.25 -0.171875 0.515625 -0.453125q0.28125 -0.296875 0.625 -0.734375l0 -4.765625l1.25 0l0 7.1875zm8.41745 -3.71875q0 0.953125 -0.265625 1.671875q-0.265625 0.71875 -0.75 1.1875q-0.46875 0.46875 -1.109375 0.703125q-0.640625 0.234375 -1.390625 0.234375q-0.34375 0 -0.6875 -0.03125q-0.34375 -0.03125 -0.6875 -0.125l0 3.015625l-1.25 0l0 -10.125l1.109375 0l0.078125 1.203125q0.546875 -0.734375 1.15625 -1.03125q0.609375 -0.296875 1.3125 -0.296875q0.609375 0 1.078125 0.265625q0.46875 0.25 0.78125 0.71875q0.3125 0.46875 0.46875 1.140625q0.15625 0.65625 0.15625 1.46875zm-1.265625 0.046875q0 -0.5625 -0.09375 -1.03125q-0.078125 -0.46875 -0.265625 -0.796875q-0.171875 -0.34375 -0.453125 -0.53125q-0.265625 -0.1875 -0.65625 -0.1875q-0.234375 0 -0.484375 0.078125q-0.234375 0.0625 -0.5 0.25q-0.265625 0.171875 -0.5625 0.46875q-0.28125 0.28125 -0.609375 0.703125l0 3.484375q0.34375 0.140625 0.71875 0.234375q0.390625 0.078125 0.75 0.078125q1.0 0 1.578125 -0.6875q0.578125 -0.6875 0.578125 -2.0625zm8.97995 3.578125q-0.421875 0.09375 -0.875 0.140625q-0.453125 0.046875 -0.921875 0.046875q-1.34375 0 -2.015625 -0.609375q-0.65625 -0.609375 -0.65625 -1.875l0 -3.75l-2.015625 0l0 -1.046875l2.015625 0l0 -1.96875l1.234375 -0.328125l0 2.296875l3.234375 0l0 1.046875l-3.234375 0l0 3.65625q0 0.765625 0.40625 1.15625q0.421875 0.375 1.21875 0.375q0.34375 0 0.75 -0.046875q0.40625 -0.0625 0.859375 -0.171875l0 1.078125zm8.339325 -3.875q0 0.265625 -0.015625 0.453125q0 0.171875 -0.015625 0.328125l-5.046875 0q0 1.09375 0.609375 1.6875q0.625 0.59375 1.78125 0.59375q0.3125 0 0.625 -0.015625q0.3125 -0.03125 0.609375 -0.078125q0.296875 -0.046875 0.5625 -0.09375q0.265625 -0.0625 0.5 -0.125l0 1.03125q-0.515625 0.140625 -1.15625 0.21875q-0.640625 0.09375 -1.328125 0.09375q-0.921875 0 -1.59375 -0.25q-0.65625 -0.25 -1.078125 -0.71875q-0.421875 -0.484375 -0.625 -1.171875q-0.203125 -0.6875 -0.203125 -1.5625q0 -0.765625 0.21875 -1.4375q0.21875 -0.671875 0.625 -1.1875q0.421875 -0.515625 1.03125 -0.8125q0.609375 -0.296875 1.375 -0.296875q0.765625 0 1.34375 0.234375q0.578125 0.234375 0.96875 0.671875q0.40625 0.4375 0.609375 1.0625q0.203125 0.609375 0.203125 1.375zm-1.296875 -0.1875q0.015625 -0.46875 -0.109375 -0.859375q-0.109375 -0.40625 -0.34375 -0.6875q-0.234375 -0.296875 -0.59375 -0.453125q-0.359375 -0.15625 -0.828125 -0.15625q-0.40625 0 -0.75 0.15625q-0.328125 0.15625 -0.578125 0.4375q-0.25 0.28125 -0.40625 0.6875q-0.140625 0.40625 -0.171875 0.875l3.78125 0zm2.91745 0.71875q0 -0.921875 0.25 -1.625q0.25 -0.71875 0.703125 -1.203125q0.46875 -0.5 1.109375 -0.75q0.65625 -0.25 1.453125 -0.25q0.34375 0 0.671875 0.046875q0.328125 0.03125 0.65625 0.125l0 -3.015625l1.25 0l0 10.109375l-1.109375 0l-0.046875 -1.359375q-0.515625 0.765625 -1.125 1.125q-0.609375 0.359375 -1.328125 0.359375q-0.609375 0 -1.078125 -0.25q-0.46875 -0.265625 -0.78125 -0.734375q-0.3125 -0.46875 -0.46875 -1.125q-0.15625 -0.65625 -0.15625 -1.453125zm1.265625 -0.078125q0 1.296875 0.375 1.9375q0.390625 0.640625 1.09375 0.640625q0.484375 0 1.0 -0.421875q0.53125 -0.421875 1.109375 -1.25l0 -3.34375q-0.3125 -0.140625 -0.6875 -0.203125q-0.359375 -0.078125 -0.734375 -0.078125q-1.015625 0 -1.59375 0.65625q-0.5625 0.65625 -0.5625 2.0625z" fill-rule="nonzero"/><path fill="#000000" fill-opacity="0.0" d="m463.0539 101.14648l0 0l0 17.16098l0 0l0 -17.16098z" fill-rule="nonzero"/><path fill="#ffffff" d="m374.41507 112.98465l88.638824 0l0 1.3199997l-88.638824 0l0 -1.3199997z" fill-rule="nonzero"/><path fill="#000000" fill-opacity="0.0" d="m207.07306 8.11667l85.44882 0l0 37.165356l-85.44882 0z" fill-rule="evenodd"/><path fill="#ffffff" d="m219.66681 25.04042l-2.125 0l0 -1.03125l3.390625 0l0 6.15625l2.125 0l0 1.03125l-5.75 0l0 -1.03125l2.359375 0l0 -5.125zm0.4375 -4.046875q0.203125 0 0.375 0.078125q0.1875 0.078125 0.3125 0.21875q0.140625 0.125 0.21875 0.3125q0.078125 0.171875 0.078125 0.375q0 0.203125 -0.078125 0.390625q-0.078125 0.171875 -0.21875 0.3125q-0.125 0.125 -0.3125 0.203125q-0.171875 0.078125 -0.375 0.078125q-0.203125 0 -0.390625 -0.078125q-0.171875 -0.078125 -0.3125 -0.203125q-0.125 -0.140625 -0.203125 -0.3125q-0.078125 -0.1875 -0.078125 -0.390625q0 -0.203125 0.078125 -0.375q0.078125 -0.1875 0.203125 -0.3125q0.140625 -0.140625 0.3125 -0.21875q0.1875 -0.078125 0.390625 -0.078125zm5.16745 3.015625l1.109375 0l0.046875 1.15625q0.328125 -0.359375 0.609375 -0.609375q0.296875 -0.25 0.578125 -0.390625q0.28125 -0.15625 0.578125 -0.21875q0.296875 -0.0625 0.609375 -0.0625q1.109375 0 1.671875 0.65625q0.578125 0.65625 0.578125 1.96875l0 4.6875l-1.25 0l0 -4.59375q0 -0.84375 -0.3125 -1.234375q-0.3125 -0.40625 -0.9375 -0.40625q-0.234375 0 -0.453125 0.0625q-0.21875 0.0625 -0.453125 0.234375q-0.234375 0.171875 -0.515625 0.453125q-0.265625 0.28125 -0.609375 0.71875l0 4.765625l-1.25 0l0 -7.1875zm10.5112 1.03125l-2.125 0l0 -1.03125l3.390625 0l0 6.15625l2.125 0l0 1.03125l-5.75 0l0 -1.03125l2.359375 0l0 -5.125zm0.4375 -4.046875q0.203125 0 0.375 0.078125q0.1875 0.078125 0.3125 0.21875q0.140625 0.125 0.21875 0.3125q0.078125 0.171875 0.078125 0.375q0 0.203125 -0.078125 0.390625q-0.078125 0.171875 -0.21875 0.3125q-0.125 0.125 -0.3125 0.203125q-0.171875 0.078125 -0.375 0.078125q-0.203125 0 -0.390625 -0.078125q-0.171875 -0.078125 -0.3125 -0.203125q-0.125 -0.140625 -0.203125 -0.3125q-0.078125 -0.1875 -0.078125 -0.390625q0 -0.203125 0.078125 -0.375q0.078125 -0.1875 0.203125 -0.3125q0.140625 -0.140625 0.3125 -0.21875q0.1875 -0.078125 0.390625 -0.078125zm10.964325 10.109375q-0.421875 0.09375 -0.875 0.140625q-0.453125 0.046875 -0.921875 0.046875q-1.34375 0 -2.015625 -0.609375q-0.65625 -0.609375 -0.65625 -1.875l0 -3.75l-2.015625 0l0 -1.046875l2.015625 0l0 -1.96875l1.234375 -0.328125l0 2.296875l3.234375 0l0 1.046875l-3.234375 0l0 3.65625q0 0.765625 0.40625 1.15625q0.421875 0.375 1.21875 0.375q0.34375 0 0.75 -0.046875q0.40625 -0.0625 0.859375 -0.171875l0 1.078125z" fill-rule="nonzero"/><path fill="#000000" fill-opacity="0.0" d="m140.71086 126.11667l164.18898 0l0 37.16536l-164.18898 0z" fill-rule="evenodd"/><path fill="#ffffff" d="m156.44524 148.93105q-0.5 0.1875 -1.015625 0.265625q-0.5 0.09375 -1.046875 0.09375q-1.703125 0 -2.625 -0.921875q-0.921875 -0.921875 -0.921875 -2.6875q0 -0.859375 0.265625 -1.546875q0.265625 -0.703125 0.75 -1.1875q0.484375 -0.5 1.140625 -0.765625q0.671875 -0.265625 1.46875 -0.265625q0.5625 0 1.046875 0.078125q0.484375 0.078125 0.9375 0.25l0 1.1875q-0.46875 -0.234375 -0.953125 -0.34375q-0.484375 -0.109375 -1.0 -0.109375q-0.484375 0 -0.90625 0.1875q-0.421875 0.171875 -0.75 0.515625q-0.3125 0.34375 -0.5 0.84375q-0.1875 0.484375 -0.1875 1.109375q0 1.296875 0.625 1.953125q0.640625 0.640625 1.765625 0.640625q0.5 0 0.96875 -0.109375q0.484375 -0.109375 0.9375 -0.34375l0 1.15625zm8.72995 -3.390625q0 0.84375 -0.25 1.546875q-0.234375 0.6875 -0.671875 1.1875q-0.4375 0.5 -1.078125 0.78125q-0.640625 0.265625 -1.453125 0.265625q-0.765625 0 -1.390625 -0.234375q-0.609375 -0.234375 -1.03125 -0.703125q-0.421875 -0.46875 -0.65625 -1.15625q-0.21875 -0.6875 -0.21875 -1.578125q0 -0.84375 0.234375 -1.53125q0.234375 -0.6875 0.671875 -1.1875q0.453125 -0.5 1.09375 -0.765625q0.640625 -0.28125 1.4375 -0.28125q0.78125 0 1.390625 0.25q0.609375 0.234375 1.03125 0.703125q0.4375 0.453125 0.65625 1.140625q0.234375 0.6875 0.234375 1.5625zm-1.28125 0.0625q0 -0.671875 -0.15625 -1.15625q-0.140625 -0.5 -0.421875 -0.828125q-0.265625 -0.34375 -0.65625 -0.5q-0.375 -0.171875 -0.859375 -0.171875q-0.5625 0 -0.96875 0.21875q-0.390625 0.21875 -0.640625 0.578125q-0.25 0.359375 -0.375 0.84375q-0.109375 0.484375 -0.109375 1.015625q0 0.671875 0.140625 1.171875q0.140625 0.5 0.40625 0.828125q0.28125 0.328125 0.671875 0.5q0.390625 0.171875 0.875 0.171875q0.5625 0 0.953125 -0.21875q0.390625 -0.21875 0.640625 -0.578125q0.265625 -0.375 0.375 -0.859375q0.125 -0.484375 0.125 -1.015625zm8.1987 3.59375l0 -5.15625q0 -0.34375 -0.03125 -0.546875q-0.015625 -0.21875 -0.078125 -0.34375q-0.046875 -0.125 -0.125 -0.171875q-0.078125 -0.0625 -0.203125 -0.0625q-0.140625 0 -0.265625 0.09375q-0.125 0.078125 -0.265625 0.28125q-0.140625 0.1875 -0.3125 0.515625q-0.15625 0.3125 -0.390625 0.78125l0 4.609375l-1.140625 0l0 -5.03125q0 -0.390625 -0.03125 -0.625q-0.015625 -0.25 -0.078125 -0.375q-0.046875 -0.140625 -0.140625 -0.1875q-0.078125 -0.0625 -0.203125 -0.0625q-0.125 0 -0.25 0.078125q-0.109375 0.0625 -0.25 0.25q-0.125 0.1875 -0.296875 0.515625q-0.171875 0.328125 -0.40625 0.828125l0 4.609375l-1.15625 0l0 -7.1875l0.953125 0l0.0625 1.375q0.1875 -0.40625 0.359375 -0.6875q0.171875 -0.296875 0.359375 -0.46875q0.1875 -0.1875 0.390625 -0.265625q0.21875 -0.078125 0.46875 -0.078125q0.59375 0 0.890625 0.375q0.296875 0.375 0.296875 1.171875q0.171875 -0.375 0.328125 -0.65625q0.171875 -0.296875 0.359375 -0.484375q0.1875 -0.203125 0.421875 -0.296875q0.234375 -0.109375 0.53125 -0.109375q1.34375 0 1.34375 2.078125l0 5.234375l-1.140625 0zm9.0737 -3.71875q0 0.953125 -0.265625 1.671875q-0.265625 0.71875 -0.75 1.1875q-0.46875 0.46875 -1.109375 0.703125q-0.640625 0.234375 -1.390625 0.234375q-0.34375 0 -0.6875 -0.03125q-0.34375 -0.03125 -0.6875 -0.125l0 3.015625l-1.25 0l0 -10.125l1.109375 0l0.078125 1.203125q0.546875 -0.734375 1.15625 -1.03125q0.609375 -0.296875 1.3125 -0.296875q0.609375 0 1.078125 0.265625q0.46875 0.25 0.78125 0.71875q0.3125 0.46875 0.46875 1.140625q0.15625 0.65625 0.15625 1.46875zm-1.265625 0.046875q0 -0.5625 -0.09375 -1.03125q-0.078125 -0.46875 -0.265625 -0.796875q-0.171875 -0.34375 -0.453125 -0.53125q-0.265625 -0.1875 -0.65625 -0.1875q-0.234375 0 -0.484375 0.078125q-0.234375 0.0625 -0.5 0.25q-0.265625 0.171875 -0.5625 0.46875q-0.28125 0.28125 -0.609375 0.703125l0 3.484375q0.34375 0.140625 0.71875 0.234375q0.390625 0.078125 0.75 0.078125q1.0 0 1.578125 -0.6875q0.578125 -0.6875 0.578125 -2.0625zm5.6362 -5.421875l-2.125 0l0 -1.015625l3.390625 0l0 9.078125l2.125 0l0 1.03125l-5.75 0l0 -1.03125l2.359375 0l0 -8.0625zm11.683075 5.125q0 0.265625 -0.015625 0.453125q0 0.171875 -0.015625 0.328125l-5.046875 0q0 1.09375 0.609375 1.6875q0.625 0.59375 1.78125 0.59375q0.3125 0 0.625 -0.015625q0.3125 -0.03125 0.609375 -0.078125q0.296875 -0.046875 0.5625 -0.09375q0.265625 -0.0625 0.5 -0.125l0 1.03125q-0.515625 0.140625 -1.15625 0.21875q-0.640625 0.09375 -1.328125 0.09375q-0.921875 0 -1.59375 -0.25q-0.65625 -0.25 -1.078125 -0.71875q-0.421875 -0.484375 -0.625 -1.171875q-0.203125 -0.6875 -0.203125 -1.5625q0 -0.765625 0.21875 -1.4375q0.21875 -0.671875 0.625 -1.1875q0.421875 -0.515625 1.03125 -0.8125q0.609375 -0.296875 1.375 -0.296875q0.765625 0 1.34375 0.234375q0.578125 0.234375 0.96875 0.671875q0.40625 0.4375 0.609375 1.0625q0.203125 0.609375 0.203125 1.375zm-1.296875 -0.1875q0.015625 -0.46875 -0.109375 -0.859375q-0.109375 -0.40625 -0.34375 -0.6875q-0.234375 -0.296875 -0.59375 -0.453125q-0.359375 -0.15625 -0.828125 -0.15625q-0.40625 0 -0.75 0.15625q-0.328125 0.15625 -0.578125 0.4375q-0.25 0.28125 -0.40625 0.6875q-0.140625 0.40625 -0.171875 0.875l3.78125 0zm9.0737 4.0625q-0.421875 0.09375 -0.875 0.140625q-0.453125 0.046875 -0.921875 0.046875q-1.34375 0 -2.015625 -0.609375q-0.65625 -0.609375 -0.65625 -1.875l0 -3.75l-2.015625 0l0 -1.046875l2.015625 0l0 -1.96875l1.234375 -0.328125l0 2.296875l3.234375 0l0 1.046875l-3.234375 0l0 3.65625q0 0.765625 0.40625 1.15625q0.421875 0.375 1.21875 0.375q0.34375 0 0.75 -0.046875q0.40625 -0.0625 0.859375 -0.171875l0 1.078125zm8.339325 -3.875q0 0.265625 -0.015625 0.453125q0 0.171875 -0.015625 0.328125l-5.046875 0q0 1.09375 0.609375 1.6875q0.625 0.59375 1.78125 0.59375q0.3125 0 0.625 -0.015625q0.3125 -0.03125 0.609375 -0.078125q0.296875 -0.046875 0.5625 -0.09375q0.265625 -0.0625 0.5 -0.125l0 1.03125q-0.515625 0.140625 -1.15625 0.21875q-0.640625 0.09375 -1.328125 0.09375q-0.921875 0 -1.59375 -0.25q-0.65625 -0.25 -1.078125 -0.71875q-0.421875 -0.484375 -0.625 -1.171875q-0.203125 -0.6875 -0.203125 -1.5625q0 -0.765625 0.21875 -1.4375q0.21875 -0.671875 0.625 -1.1875q0.421875 -0.515625 1.03125 -0.8125q0.609375 -0.296875 1.375 -0.296875q0.765625 0 1.34375 0.234375q0.578125 0.234375 0.96875 0.671875q0.40625 0.4375 0.609375 1.0625q0.203125 0.609375 0.203125 1.375zm-1.296875 -0.1875q0.015625 -0.46875 -0.109375 -0.859375q-0.109375 -0.40625 -0.34375 -0.6875q-0.234375 -0.296875 -0.59375 -0.453125q-0.359375 -0.15625 -0.828125 -0.15625q-0.40625 0 -0.75 0.15625q-0.328125 0.15625 -0.578125 0.4375q-0.25 0.28125 -0.40625 0.6875q-0.140625 0.40625 -0.171875 0.875l3.78125 0z" fill-rule="nonzero"/><path fill="#000000" fill-opacity="0.0" d="m196.71075 75.46313l95.811035 0l0 37.16535l-95.811035 0z" fill-rule="evenodd"/><path fill="#ffffff" d="m209.3045 92.38688l-2.125 0l0 -1.03125l3.390625 0l0 6.15625l2.125 0l0 1.03125l-5.75 0l0 -1.03125l2.359375 0l0 -5.125zm0.4375 -4.046875q0.203125 0 0.375 0.078125q0.1875 0.078125 0.3125 0.21875q0.140625 0.125 0.21875 0.3125q0.078125 0.171875 0.078125 0.375q0 0.203125 -0.078125 0.390625q-0.078125 0.171875 -0.21875 0.3125q-0.125 0.125 -0.3125 0.203125q-0.171875 0.078125 -0.375 0.078125q-0.203125 0 -0.390625 -0.078125q-0.171875 -0.078125 -0.3125 -0.203125q-0.125 -0.140625 -0.203125 -0.3125q-0.078125 -0.1875 -0.078125 -0.390625q0 -0.203125 0.078125 -0.375q0.078125 -0.1875 0.203125 -0.3125q0.140625 -0.140625 0.3125 -0.21875q0.1875 -0.078125 0.390625 -0.078125zm5.16745 3.015625l1.109375 0l0.046875 1.15625q0.328125 -0.359375 0.609375 -0.609375q0.296875 -0.25 0.578125 -0.390625q0.28125 -0.15625 0.578125 -0.21875q0.296875 -0.0625 0.609375 -0.0625q1.109375 0 1.671875 0.65625q0.578125 0.65625 0.578125 1.96875l0 4.6875l-1.25 0l0 -4.59375q0 -0.84375 -0.3125 -1.234375q-0.3125 -0.40625 -0.9375 -0.40625q-0.234375 0 -0.453125 0.0625q-0.21875 0.0625 -0.453125 0.234375q-0.234375 0.171875 -0.515625 0.453125q-0.265625 0.28125 -0.609375 0.71875l0 4.765625l-1.25 0l0 -7.1875zm13.85495 7.09375q-0.421875 0.09375 -0.875 0.140625q-0.453125 0.046875 -0.921875 0.046875q-1.34375 0 -2.015625 -0.609375q-0.65625 -0.609375 -0.65625 -1.875l0 -3.75l-2.015625 0l0 -1.046875l2.015625 0l0 -1.96875l1.234375 -0.328125l0 2.296875l3.234375 0l0 1.046875l-3.234375 0l0 3.65625q0 0.765625 0.40625 1.15625q0.421875 0.375 1.21875 0.375q0.34375 0 0.75 -0.046875q0.40625 -0.0625 0.859375 -0.171875l0 1.078125zm8.339325 -3.875q0 0.265625 -0.015625 0.453125q0 0.171875 -0.015625 0.328125l-5.046875 0q0 1.09375 0.609375 1.6875q0.625 0.59375 1.78125 0.59375q0.3125 0 0.625 -0.015625q0.3125 -0.03125 0.609375 -0.078125q0.296875 -0.046875 0.5625 -0.09375q0.265625 -0.0625 0.5 -0.125l0 1.03125q-0.515625 0.140625 -1.15625 0.21875q-0.640625 0.09375 -1.328125 0.09375q-0.921875 0 -1.59375 -0.25q-0.65625 -0.25 -1.078125 -0.71875q-0.421875 -0.484375 -0.625 -1.171875q-0.203125 -0.6875 -0.203125 -1.5625q0 -0.765625 0.21875 -1.4375q0.21875 -0.671875 0.625 -1.1875q0.421875 -0.515625 1.03125 -0.8125q0.609375 -0.296875 1.375 -0.296875q0.765625 0 1.34375 0.234375q0.578125 0.234375 0.96875 0.671875q0.40625 0.4375 0.609375 1.0625q0.203125 0.609375 0.203125 1.375zm-1.296875 -0.1875q0.015625 -0.46875 -0.109375 -0.859375q-0.109375 -0.40625 -0.34375 -0.6875q-0.234375 -0.296875 -0.59375 -0.453125q-0.359375 -0.15625 -0.828125 -0.15625q-0.40625 0 -0.75 0.15625q-0.328125 0.15625 -0.578125 0.4375q-0.25 0.28125 -0.40625 0.6875q-0.140625 0.40625 -0.171875 0.875l3.78125 0zm3.5737 -3.03125l1.140625 0l0.03125 1.328125q0.640625 -0.765625 1.25 -1.109375q0.625 -0.34375 1.25 -0.34375q1.125 0 1.703125 0.71875q0.578125 0.71875 0.53125 2.15625l-1.265625 0q0.03125 -0.953125 -0.265625 -1.375q-0.296875 -0.421875 -0.875 -0.421875q-0.25 0 -0.515625 0.09375q-0.25 0.078125 -0.515625 0.28125q-0.265625 0.1875 -0.5625 0.5q-0.296875 0.3125 -0.640625 0.75l0 4.609375l-1.265625 0l0 -7.1875zm8.058075 0l1.140625 0l0.03125 1.328125q0.640625 -0.765625 1.25 -1.109375q0.625 -0.34375 1.25 -0.34375q1.125 0 1.703125 0.71875q0.578125 0.71875 0.53125 2.15625l-1.265625 0q0.03125 -0.953125 -0.265625 -1.375q-0.296875 -0.421875 -0.875 -0.421875q-0.25 0 -0.515625 0.09375q-0.25 0.078125 -0.515625 0.28125q-0.265625 0.1875 -0.5625 0.5q-0.296875 0.3125 -0.640625 0.75l0 4.609375l-1.265625 0l0 -7.1875zm13.54245 7.1875l-1.125 0l-0.03125 -1.15625q-0.328125 0.375 -0.625 0.625q-0.28125 0.234375 -0.578125 0.390625q-0.28125 0.140625 -0.578125 0.203125q-0.28125 0.0625 -0.59375 0.0625q-1.109375 0 -1.6875 -0.640625q-0.5625 -0.65625 -0.5625 -1.96875l0 -4.703125l1.25 0l0 4.59375q0 1.65625 1.25 1.65625q0.21875 0 0.4375 -0.0625q0.21875 -0.078125 0.453125 -0.234375q0.25 -0.171875 0.515625 -0.453125q0.28125 -0.296875 0.625 -0.734375l0 -4.765625l1.25 0l0 7.1875zm8.41745 -3.71875q0 0.953125 -0.265625 1.671875q-0.265625 0.71875 -0.75 1.1875q-0.46875 0.46875 -1.109375 0.703125q-0.640625 0.234375 -1.390625 0.234375q-0.34375 0 -0.6875 -0.03125q-0.34375 -0.03125 -0.6875 -0.125l0 3.015625l-1.25 0l0 -10.125l1.109375 0l0.078125 1.203125q0.546875 -0.734375 1.15625 -1.03125q0.609375 -0.296875 1.3125 -0.296875q0.609375 0 1.078125 0.265625q0.46875 0.25 0.78125 0.71875q0.3125 0.46875 0.46875 1.140625q0.15625 0.65625 0.15625 1.46875zm-1.265625 0.046875q0 -0.5625 -0.09375 -1.03125q-0.078125 -0.46875 -0.265625 -0.796875q-0.171875 -0.34375 -0.453125 -0.53125q-0.265625 -0.1875 -0.65625 -0.1875q-0.234375 0 -0.484375 0.078125q-0.234375 0.0625 -0.5 0.25q-0.265625 0.171875 -0.5625 0.46875q-0.28125 0.28125 -0.609375 0.703125l0 3.484375q0.34375 0.140625 0.71875 0.234375q0.390625 0.078125 0.75 0.078125q1.0 0 1.578125 -0.6875q0.578125 -0.6875 0.578125 -2.0625zm8.97995 3.578125q-0.421875 0.09375 -0.875 0.140625q-0.453125 0.046875 -0.921875 0.046875q-1.34375 0 -2.015625 -0.609375q-0.65625 -0.609375 -0.65625 -1.875l0 -3.75l-2.015625 0l0 -1.046875l2.015625 0l0 -1.96875l1.234375 -0.328125l0 2.296875l3.234375 0l0 1.046875l-3.234375 0l0 3.65625q0 0.765625 0.40625 1.15625q0.421875 0.375 1.21875 0.375q0.34375 0 0.75 -0.046875q0.40625 -0.0625 0.859375 -0.171875l0 1.078125z" fill-rule="nonzero"/></g></svg>