<svg xmlns="http://www.w3.org/2000/svg" version="1.1" xmlns:xlink="http://www.w3.org/1999/xlink" xmlns:svgjs="http://svgjs.com/svgjs" viewBox="0 0 200 200" width="200" height="200"><g transform="matrix(2,0,0,2,0,0)"><path d="M10.000 50.000 A40.000 40.000 0 1 0 90.000 50.000 A40.000 40.000 0 1 0 10.000 50.000 Z" fill="#012b3a"></path><path d="M64.051,84.908c0-1.058-6.291-1.917-14.053-1.917s-14.055.859-14.055,1.917S42.236,86.824,50,86.824,64.051,85.966,64.051,84.908Z" fill="#3d3d3f"></path><path d="M60.017,76.505a1.122,1.122,0,0,0,2.044,0l3.442-7.6a1.279,1.279,0,0,1,1.532-.7l7.986,2.4a1.123,1.123,0,0,0,1.346-1.539L62.527,38.626l-16.35,7.431Z" fill="#3d3d3f" stroke="#00ace7" stroke-linecap="round" stroke-linejoin="round"></path><path d="M37.959,76.5l-3.441-7.6a1.279,1.279,0,0,0-1.532-.7L25,70.613a1.122,1.122,0,0,1-1.345-1.539L37.493,38.626l16.35,7.431L40,76.505A1.123,1.123,0,0,1,37.959,76.5Z" fill="#3d3d3f" stroke="#00ace7" stroke-linecap="round" stroke-linejoin="round"></path><path d="M29.555 36.781 A20.442 20.442 0 1 0 70.439 36.781 A20.442 20.442 0 1 0 29.555 36.781 Z" fill="#1c1e21"></path><path d="M29.555 36.781 A20.442 20.442 0 1 0 70.439 36.781 A20.442 20.442 0 1 0 29.555 36.781 Z" fill="none" stroke="#00ace7" stroke-linecap="round" stroke-linejoin="round"></path><path d="M34.665 36.781 A15.332 15.332 0 1 0 65.329 36.781 A15.332 15.332 0 1 0 34.665 36.781 Z" fill="#3d3d3f" stroke="#00ace7" stroke-miterlimit="10"></path><path d="M54.979,30.521l-7.227,7.228-2.711-2.71a1.277,1.277,0,0,0-1.806,0l-1.807,1.806a1.278,1.278,0,0,0,0,1.807l2.71,2.71,2.71,2.711a1.278,1.278,0,0,0,1.807,0l2.71-2.711,7.228-7.227a1.278,1.278,0,0,0,0-1.807l-1.807-1.807A1.278,1.278,0,0,0,54.979,30.521Z" fill="#1c1e21" stroke="#00ace7" stroke-linecap="round" stroke-linejoin="round"></path></g></svg>