<svg version="1.1" viewBox="0.0 0.0 351.08923884514434 325.34120734908134" fill="none" stroke="none" stroke-linecap="square" stroke-miterlimit="10" xmlns:xlink="http://www.w3.org/1999/xlink" xmlns="http://www.w3.org/2000/svg"><clipPath id="p.0"><path d="m0 0l351.08923 0l0 325.34122l-351.08923 0l0 -325.34122z" clip-rule="nonzero"/></clipPath><g clip-path="url(#p.0)"><path fill="#000000" fill-opacity="0.0" d="m0 0l351.08923 0l0 325.34122l-351.08923 0z" fill-rule="evenodd"/><path fill="#000000" fill-opacity="0.0" d="m11.130589 133.27953l98.18111 0l0 95.456696l-98.18111 0z" fill-rule="evenodd"/><path fill="#000000" fill-opacity="0.0" d="m23.403227 133.27953l0 95.456696m-12.272638 -83.52461l98.18111 0" fill-rule="evenodd"/><path fill="#000000" fill-opacity="0.0" d="m11.130589 133.27953l98.18111 0l0 95.456696l-98.18111 0z" fill-rule="evenodd"/><path stroke="#ffffff" stroke-width="2.0" stroke-linejoin="round" stroke-linecap="butt" d="m23.403227 133.27953l0 95.456696m-12.272638 -83.52461l98.18111 0" fill-rule="evenodd"/><path stroke="#ffffff" stroke-width="2.0" stroke-linejoin="round" stroke-linecap="butt" d="m11.130589 133.27953l98.18111 0l0 95.456696l-98.18111 0z" fill-rule="evenodd"/><path fill="#ffffff" d="m40.299595 176.39392q0 -3.328125 1.78125 -5.203125q1.78125 -1.890625 4.609375 -1.890625q1.84375 0 3.328125 0.890625q1.484375 0.875 2.265625 2.46875q0.78125 1.578125 0.78125 3.578125q0 2.03125 -0.828125 3.640625q-0.8125 1.59375 -2.3125 2.421875q-1.5 0.828125 -3.25 0.828125q-1.875 0 -3.359375 -0.90625q-1.484375 -0.921875 -2.25 -2.5q-0.765625 -1.578125 -0.765625 -3.328125zm1.8125 0.015625q0 2.421875 1.296875 3.8125q1.296875 1.390625 3.265625 1.390625q2.0 0 3.28125 -1.40625q1.28125 -1.40625 1.28125 -3.984375q0 -1.625 -0.546875 -2.84375q-0.546875 -1.21875 -1.609375 -1.875q-1.0625 -0.671875 -2.375 -0.671875q-1.890625 0 -3.25 1.296875q-1.34375 1.28125 -1.34375 4.28125zm13.027054 6.484375l0 -9.671875l1.46875 0l0 1.375q1.0625 -1.59375 3.078125 -1.59375q0.875 0 1.609375 0.3125q0.734375 0.3125 1.09375 0.828125q0.375 0.5 0.515625 1.203125q0.09375 0.453125 0.09375 1.59375l0 5.953125l-1.640625 0l0 -5.890625q0 -1.0 -0.203125 -1.484375q-0.1875 -0.5 -0.671875 -0.796875q-0.484375 -0.296875 -1.140625 -0.296875q-1.046875 0 -1.8125 0.671875q-0.75 0.65625 -0.75 2.515625l0 5.28125l-1.640625 0zm10.328846 0l0 -13.359375l1.640625 0l0 13.359375l-1.640625 0zm4.191696 -11.46875l0 -1.890625l1.640625 0l0 1.890625l-1.640625 0zm0 11.46875l0 -9.671875l1.640625 0l0 9.671875l-1.640625 0zm4.144821 0l0 -9.671875l1.46875 0l0 1.375q1.0625 -1.59375 3.078125 -1.59375q0.875 0 1.609375 0.3125q0.734375 0.3125 1.09375 0.828125q0.375 0.5 0.515625 1.203125q0.09375 0.453125 0.09375 1.59375l0 5.953125l-1.640625 0l0 -5.890625q0 -1.0 -0.203125 -1.484375q-0.1875 -0.5 -0.671875 -0.796875q-0.484375 -0.296875 -1.140625 -0.296875q-1.046875 0 -1.8125 0.671875q-0.75 0.65625 -0.75 2.515625l0 5.28125l-1.640625 0zm17.000717 -3.109375l1.6875 0.203125q-0.40625 1.484375 -1.484375 2.3125q-1.078125 0.8125 -2.765625 0.8125q-2.125 0 -3.375 -1.296875q-1.234375 -1.3125 -1.234375 -3.671875q0 -2.453125 1.25 -3.796875q1.265625 -1.34375 3.265625 -1.34375q1.9375 0 3.15625 1.328125q1.234375 1.3125 1.234375 3.703125q0 0.15625 0 0.4375l-7.21875 0q0.09375 1.59375 0.90625 2.453125q0.8125 0.84375 2.015625 0.84375q0.90625 0 1.546875 -0.46875q0.640625 -0.484375 1.015625 -1.515625zm-5.390625 -2.65625l5.40625 0q-0.109375 -1.21875 -0.625 -1.828125q-0.78125 -0.953125 -2.03125 -0.953125q-1.125 0 -1.90625 0.765625q-0.765625 0.75 -0.84375 2.015625z" fill-rule="nonzero"/><path fill="#ffffff" d="m50.882854 201.78455l1.6875 0.203125q-0.40625 1.484375 -1.484375 2.3125q-1.078125 0.8125 -2.765625 0.8125q-2.125 0 -3.375 -1.296875q-1.234375 -1.3125 -1.234375 -3.671875q0 -2.453125 1.25 -3.796875q1.265625 -1.34375 3.265625 -1.34375q1.9375 0 3.15625 1.328125q1.234375 1.3125 1.234375 3.703125q0 0.15625 0 0.4375l-7.21875 0q0.09375 1.59375 0.90625 2.453125q0.8125 0.84375 2.015625 0.84375q0.90625 0 1.546875 -0.46875q0.640625 -0.484375 1.015625 -1.515625zm-5.390625 -2.65625l5.40625 0q-0.109375 -1.21875 -0.625 -1.828125q-0.78125 -0.953125 -2.03125 -0.953125q-1.125 0 -1.90625 0.765625q-0.765625 0.75 -0.84375 2.015625zm15.406967 5.765625l0 -1.21875q-0.90625 1.4375 -2.703125 1.4375q-1.15625 0 -2.125 -0.640625q-0.96875 -0.640625 -1.5 -1.78125q-0.53125 -1.140625 -0.53125 -2.625q0 -1.453125 0.484375 -2.625q0.484375 -1.1875 1.4375 -1.8125q0.96875 -0.625 2.171875 -0.625q0.875 0 1.546875 0.375q0.6875 0.359375 1.109375 0.953125l0 -4.796875l1.640625 0l0 13.359375l-1.53125 0zm-5.171875 -4.828125q0 1.859375 0.78125 2.78125q0.78125 0.921875 1.84375 0.921875q1.078125 0 1.828125 -0.875q0.75 -0.890625 0.75 -2.6875q0 -1.984375 -0.765625 -2.90625q-0.765625 -0.9375 -1.890625 -0.9375q-1.078125 0 -1.8125 0.890625q-0.734375 0.890625 -0.734375 2.8125zm9.281971 -6.640625l0 -1.890625l1.640625 0l0 1.890625l-1.640625 0zm0 11.46875l0 -9.671875l1.640625 0l0 9.671875l-1.640625 0zm7.722946 -1.46875l0.234375 1.453125q-0.6875 0.140625 -1.234375 0.140625q-0.890625 0 -1.390625 -0.28125q-0.484375 -0.28125 -0.6875 -0.734375q-0.203125 -0.46875 -0.203125 -1.9375l0 -5.578125l-1.203125 0l0 -1.265625l1.203125 0l0 -2.390625l1.625 -0.984375l0 3.375l1.65625 0l0 1.265625l-1.65625 0l0 5.671875q0 0.6875 0.078125 0.890625q0.09375 0.203125 0.28125 0.328125q0.203125 0.109375 0.578125 0.109375q0.265625 0 0.71875 -0.0625zm0.99580383 -3.375q0 -2.6875 1.484375 -3.96875q1.25 -1.078125 3.046875 -1.078125q2.0 0 3.265625 1.3125q1.265625 1.296875 1.265625 3.609375q0 1.859375 -0.5625 2.9375q-0.5625 1.0625 -1.640625 1.65625q-1.0625 0.59375 -2.328125 0.59375q-2.03125 0 -3.28125 -1.296875q-1.25 -1.3125 -1.25 -3.765625zm1.6875 0q0 1.859375 0.796875 2.796875q0.8125 0.921875 2.046875 0.921875q1.21875 0 2.03125 -0.921875q0.8125 -0.9375 0.8125 -2.84375q0 -1.796875 -0.8125 -2.71875q-0.8125 -0.921875 -2.03125 -0.921875q-1.234375 0 -2.046875 0.921875q-0.796875 0.90625 -0.796875 2.765625zm9.281967 4.84375l0 -9.671875l1.46875 0l0 1.46875q0.5625 -1.03125 1.03125 -1.359375q0.484375 -0.328125 1.0625 -0.328125q0.828125 0 1.6875 0.53125l-0.5625 1.515625q-0.609375 -0.359375 -1.203125 -0.359375q-0.546875 0 -0.96875 0.328125q-0.421875 0.328125 -0.609375 0.890625q-0.28125 0.875 -0.28125 1.921875l0 5.0625l-1.625 0z" fill-rule="nonzero"/><path fill="#000000" fill-opacity="0.0" d="m209.67389 46.0l0 270.01575" fill-rule="evenodd"/><path stroke="#ffffff" stroke-width="4.0" stroke-linejoin="round" stroke-linecap="butt" stroke-dasharray="16.0,12.0" d="m209.67389 46.0l0 270.01575" fill-rule="evenodd"/><path fill="#000000" fill-opacity="0.0" d="m251.58466 135.37007l86.36221 0l0 92.88161l-14.393982 14.393997l-71.96823 0z" fill-rule="evenodd"/><path fill="#000000" fill-opacity="0.0" d="m323.5529 242.64568l2.8787842 -11.515198l11.515198 -2.8787994z" fill-rule="evenodd"/><path fill="#000000" fill-opacity="0.0" d="m323.5529 242.64568l2.8787842 -11.515198l11.515198 -2.8787994l-14.393982 14.393997l-71.96823 0l0 -107.275604l86.36221 0l0 92.88161" fill-rule="evenodd"/><path fill="#000000" fill-opacity="0.2" d="m323.5529 242.64568l2.8787842 -11.515198l11.515198 -2.8787994z" fill-rule="evenodd"/><path stroke="#ffffff" stroke-width="2.0" stroke-linejoin="round" stroke-linecap="butt" d="m323.5529 242.64568l2.8787842 -11.515198l11.515198 -2.8787994l-14.393982 14.393997l-71.96823 0l0 -107.275604l86.36221 0l0 92.88161" fill-rule="evenodd"/><path fill="#ffffff" d="m276.4845 166.73088l0 -1.640625l6.84375 -8.546875q0.71875 -0.921875 1.375 -1.59375l-7.453125 0l0 -1.578125l9.578125 0l0 1.578125l-7.5 9.265625l-0.8125 0.9375l8.53125 0l0 1.578125l-10.5625 0zm21.989746 -4.6875l1.765625 0.453125q-0.5625 2.171875 -2.0 3.328125q-1.4375 1.140625 -3.53125 1.140625q-2.15625 0 -3.515625 -0.875q-1.34375 -0.890625 -2.0625 -2.546875q-0.703125 -1.671875 -0.703125 -3.59375q0 -2.078125 0.796875 -3.625q0.796875 -1.5625 2.265625 -2.359375q1.484375 -0.8125 3.25 -0.8125q2.0 0 3.359375 1.015625q1.375 1.015625 1.90625 2.875l-1.734375 0.40625q-0.46875 -1.453125 -1.359375 -2.109375q-0.875 -0.671875 -2.203125 -0.671875q-1.546875 0 -2.578125 0.734375q-1.03125 0.734375 -1.453125 1.984375q-0.421875 1.234375 -0.421875 2.5625q0 1.703125 0.5 2.96875q0.5 1.265625 1.546875 1.90625q1.046875 0.625 2.265625 0.625q1.484375 0 2.515625 -0.859375q1.03125 -0.859375 1.390625 -2.546875zm3.863556 4.6875l0 -13.359375l5.015625 0q1.53125 0 2.453125 0.40625q0.921875 0.40625 1.4375 1.25q0.53125 0.84375 0.53125 1.765625q0 0.859375 -0.46875 1.625q-0.453125 0.75 -1.390625 1.203125q1.203125 0.359375 1.859375 1.21875q0.65625 0.859375 0.65625 2.015625q0 0.9375 -0.40625 1.75q-0.390625 0.796875 -0.984375 1.234375q-0.578125 0.4375 -1.453125 0.671875q-0.875 0.21875 -2.15625 0.21875l-5.09375 0zm1.78125 -7.75l2.875 0q1.1875 0 1.6875 -0.140625q0.671875 -0.203125 1.015625 -0.671875q0.34375 -0.46875 0.34375 -1.171875q0 -0.65625 -0.328125 -1.15625q-0.3125 -0.515625 -0.90625 -0.703125q-0.59375 -0.1875 -2.03125 -0.1875l-2.65625 0l0 4.03125zm0 6.171875l3.3125 0q0.859375 0 1.203125 -0.0625q0.609375 -0.109375 1.015625 -0.359375q0.421875 -0.265625 0.6875 -0.75q0.265625 -0.484375 0.265625 -1.125q0 -0.75 -0.390625 -1.296875q-0.375 -0.546875 -1.0625 -0.765625q-0.671875 -0.234375 -1.953125 -0.234375l-3.078125 0l0 4.59375z" fill-rule="nonzero"/><path fill="#ffffff" d="m272.02356 185.84026l1.625 -0.25q0.125 0.96875 0.75 1.5q0.625 0.515625 1.75 0.515625q1.125 0 1.671875 -0.453125q0.546875 -0.46875 0.546875 -1.09375q0 -0.546875 -0.484375 -0.875q-0.328125 -0.21875 -1.671875 -0.546875q-1.8125 -0.46875 -2.515625 -0.796875q-0.6875 -0.328125 -1.046875 -0.90625q-0.359375 -0.59375 -0.359375 -1.3125q0 -0.640625 0.296875 -1.1875q0.296875 -0.5625 0.8125 -0.921875q0.375 -0.28125 1.03125 -0.46875q0.671875 -0.203125 1.421875 -0.203125q1.140625 0 2.0 0.328125q0.859375 0.328125 1.265625 0.890625q0.421875 0.5625 0.578125 1.5l-1.609375 0.21875q-0.109375 -0.75 -0.640625 -1.171875q-0.515625 -0.421875 -1.46875 -0.421875q-1.140625 0 -1.625 0.375q-0.46875 0.375 -0.46875 0.875q0 0.3125 0.1875 0.578125q0.203125 0.265625 0.640625 0.4375q0.234375 0.09375 1.4375 0.421875q1.75 0.453125 2.4375 0.75q0.6875 0.296875 1.078125 0.859375q0.390625 0.5625 0.390625 1.40625q0 0.828125 -0.484375 1.546875q-0.46875 0.71875 -1.375 1.125q-0.90625 0.390625 -2.046875 0.390625q-1.875 0 -2.875 -0.78125q-0.984375 -0.78125 -1.25 -2.328125zm9.984375 2.890625l0 -9.671875l1.46875 0l0 1.359375q0.453125 -0.71875 1.203125 -1.140625q0.765625 -0.4375 1.71875 -0.4375q1.078125 0 1.765625 0.453125q0.6875 0.4375 0.96875 1.234375q1.15625 -1.6875 2.984375 -1.6875q1.453125 0 2.21875 0.796875q0.78125 0.796875 0.78125 2.453125l0 6.640625l-1.640625 0l0 -6.09375q0 -0.984375 -0.15625 -1.40625q-0.15625 -0.4375 -0.578125 -0.703125q-0.421875 -0.265625 -0.984375 -0.265625q-1.015625 0 -1.6875 0.6875q-0.671875 0.671875 -0.671875 2.15625l0 5.625l-1.640625 0l0 -6.28125q0 -1.09375 -0.40625 -1.640625q-0.40625 -0.546875 -1.3125 -0.546875q-0.6875 0 -1.28125 0.359375q-0.59375 0.359375 -0.859375 1.0625q-0.25 0.703125 -0.25 2.03125l0 5.015625l-1.640625 0zm21.853302 -1.1875q-0.921875 0.765625 -1.765625 1.09375q-0.828125 0.3125 -1.796875 0.3125q-1.59375 0 -2.453125 -0.78125q-0.859375 -0.78125 -0.859375 -1.984375q0 -0.71875 0.328125 -1.296875q0.328125 -0.59375 0.84375 -0.9375q0.53125 -0.359375 1.1875 -0.546875q0.46875 -0.125 1.453125 -0.25q1.984375 -0.234375 2.921875 -0.5625q0.015625 -0.34375 0.015625 -0.421875q0 -1.0 -0.46875 -1.421875q-0.625 -0.546875 -1.875 -0.546875q-1.15625 0 -1.703125 0.40625q-0.546875 0.40625 -0.8125 1.421875l-1.609375 -0.21875q0.21875 -1.015625 0.71875 -1.640625q0.5 -0.640625 1.453125 -0.984375q0.953125 -0.34375 2.1875 -0.34375q1.25 0 2.015625 0.296875q0.78125 0.28125 1.140625 0.734375q0.375 0.4375 0.515625 1.109375q0.078125 0.421875 0.078125 1.515625l0 2.1875q0 2.28125 0.109375 2.890625q0.109375 0.59375 0.40625 1.15625l-1.703125 0q-0.265625 -0.515625 -0.328125 -1.1875zm-0.140625 -3.671875q-0.890625 0.375 -2.671875 0.625q-1.015625 0.140625 -1.4375 0.328125q-0.421875 0.1875 -0.65625 0.53125q-0.21875 0.34375 -0.21875 0.78125q0 0.65625 0.5 1.09375q0.5 0.4375 1.453125 0.4375q0.9375 0 1.671875 -0.40625q0.75 -0.421875 1.09375 -1.140625q0.265625 -0.5625 0.265625 -1.640625l0 -0.609375zm4.1882324 4.859375l0 -9.671875l1.46875 0l0 1.46875q0.5625 -1.03125 1.03125 -1.359375q0.484375 -0.328125 1.0625 -0.328125q0.828125 0 1.6875 0.53125l-0.5625 1.515625q-0.609375 -0.359375 -1.203125 -0.359375q-0.546875 0 -0.96875 0.328125q-0.421875 0.328125 -0.609375 0.890625q-0.28125 0.875 -0.28125 1.921875l0 5.0625l-1.625 0zm9.806427 -1.46875l0.234375 1.453125q-0.6875 0.140625 -1.234375 0.140625q-0.890625 0 -1.390625 -0.28125q-0.484375 -0.28125 -0.6875 -0.734375q-0.203125 -0.46875 -0.203125 -1.9375l0 -5.578125l-1.203125 0l0 -1.265625l1.203125 0l0 -2.390625l1.625 -0.984375l0 3.375l1.65625 0l0 1.265625l-1.65625 0l0 5.671875q0 0.6875 0.078125 0.890625q0.09375 0.203125 0.28125 0.328125q0.203125 0.109375 0.578125 0.109375q0.265625 0 0.71875 -0.0625z" fill-rule="nonzero"/><path fill="#ffffff" d="m269.1313 207.18399l1.609375 0.21875q-0.265625 1.65625 -1.359375 2.609375q-1.078125 0.9375 -2.671875 0.9375q-1.984375 0 -3.1875 -1.296875q-1.203125 -1.296875 -1.203125 -3.71875q0 -1.578125 0.515625 -2.75q0.515625 -1.171875 1.578125 -1.75q1.0625 -0.59375 2.3125 -0.59375q1.578125 0 2.578125 0.796875q1.0 0.796875 1.28125 2.265625l-1.59375 0.234375q-0.234375 -0.96875 -0.8125 -1.453125q-0.578125 -0.5 -1.390625 -0.5q-1.234375 0 -2.015625 0.890625q-0.78125 0.890625 -0.78125 2.8125q0 1.953125 0.75 2.84375q0.75 0.875 1.953125 0.875q0.96875 0 1.609375 -0.59375q0.65625 -0.59375 0.828125 -1.828125zm2.40625 -1.296875q0 -2.6875 1.484375 -3.96875q1.25 -1.078125 3.046875 -1.078125q2.0 0 3.265625 1.3125q1.265625 1.296875 1.265625 3.609375q0 1.859375 -0.5625 2.9375q-0.5625 1.0625 -1.640625 1.65625q-1.0625 0.59375 -2.328125 0.59375q-2.03125 0 -3.28125 -1.296875q-1.25 -1.3125 -1.25 -3.765625zm1.6875 0q0 1.859375 0.796875 2.796875q0.8125 0.921875 2.046875 0.921875q1.21875 0 2.03125 -0.921875q0.8125 -0.9375 0.8125 -2.84375q0 -1.796875 -0.8125 -2.71875q-0.8125 -0.921875 -2.03125 -0.921875q-1.234375 0 -2.046875 0.921875q-0.796875 0.90625 -0.796875 2.765625zm9.297607 4.84375l0 -9.671875l1.46875 0l0 1.375q1.0625 -1.59375 3.078125 -1.59375q0.875 0 1.609375 0.3125q0.734375 0.3125 1.09375 0.828125q0.375 0.5 0.515625 1.203125q0.09375 0.453125 0.09375 1.59375l0 5.953125l-1.640625 0l0 -5.890625q0 -1.0 -0.203125 -1.484375q-0.1875 -0.5 -0.671875 -0.796875q-0.484375 -0.296875 -1.140625 -0.296875q-1.046875 0 -1.8125 0.671875q-0.75 0.65625 -0.75 2.515625l0 5.28125l-1.640625 0zm13.953827 -1.46875l0.234375 1.453125q-0.6875 0.140625 -1.234375 0.140625q-0.890625 0 -1.390625 -0.28125q-0.484375 -0.28125 -0.6875 -0.734375q-0.203125 -0.46875 -0.203125 -1.9375l0 -5.578125l-1.203125 0l0 -1.265625l1.203125 0l0 -2.390625l1.625 -0.984375l0 3.375l1.65625 0l0 1.265625l-1.65625 0l0 5.671875q0 0.6875 0.078125 0.890625q0.09375 0.203125 0.28125 0.328125q0.203125 0.109375 0.578125 0.109375q0.265625 0 0.71875 -0.0625zm1.5895691 1.46875l0 -9.671875l1.46875 0l0 1.46875q0.5625 -1.03125 1.03125 -1.359375q0.484375 -0.328125 1.0625 -0.328125q0.828125 0 1.6875 0.53125l-0.5625 1.515625q-0.609375 -0.359375 -1.203125 -0.359375q-0.546875 0 -0.96875 0.328125q-0.421875 0.328125 -0.609375 0.890625q-0.28125 0.875 -0.28125 1.921875l0 5.0625l-1.625 0zm12.540802 -1.1875q-0.921875 0.765625 -1.765625 1.09375q-0.828125 0.3125 -1.796875 0.3125q-1.59375 0 -2.453125 -0.78125q-0.859375 -0.78125 -0.859375 -1.984375q0 -0.71875 0.328125 -1.296875q0.328125 -0.59375 0.84375 -0.9375q0.53125 -0.359375 1.1875 -0.546875q0.46875 -0.125 1.453125 -0.25q1.984375 -0.234375 2.921875 -0.5625q0.015625 -0.34375 0.015625 -0.421875q0 -1.0 -0.46875 -1.421875q-0.625 -0.546875 -1.875 -0.546875q-1.15625 0 -1.703125 0.40625q-0.546875 0.40625 -0.8125 1.421875l-1.609375 -0.21875q0.21875 -1.015625 0.71875 -1.640625q0.5 -0.640625 1.453125 -0.984375q0.953125 -0.34375 2.1875 -0.34375q1.25 0 2.015625 0.296875q0.78125 0.28125 1.140625 0.734375q0.375 0.4375 0.515625 1.109375q0.078125 0.421875 0.078125 1.515625l0 2.1875q0 2.28125 0.109375 2.890625q0.109375 0.59375 0.40625 1.15625l-1.703125 0q-0.265625 -0.515625 -0.328125 -1.1875zm-0.140625 -3.671875q-0.890625 0.375 -2.671875 0.625q-1.015625 0.140625 -1.4375 0.328125q-0.421875 0.1875 -0.65625 0.53125q-0.21875 0.34375 -0.21875 0.78125q0 0.65625 0.5 1.09375q0.5 0.4375 1.453125 0.4375q0.9375 0 1.671875 -0.40625q0.75 -0.421875 1.09375 -1.140625q0.265625 -0.5625 0.265625 -1.640625l0 -0.609375zm10.516327 1.3125l1.609375 0.21875q-0.265625 1.65625 -1.359375 2.609375q-1.078125 0.9375 -2.671875 0.9375q-1.984375 0 -3.1875 -1.296875q-1.203125 -1.296875 -1.203125 -3.71875q0 -1.578125 0.515625 -2.75q0.515625 -1.171875 1.578125 -1.75q1.0625 -0.59375 2.3125 -0.59375q1.578125 0 2.578125 0.796875q1.0 0.796875 1.28125 2.265625l-1.59375 0.234375q-0.234375 -0.96875 -0.8125 -1.453125q-0.578125 -0.5 -1.390625 -0.5q-1.234375 0 -2.015625 0.890625q-0.78125 0.890625 -0.78125 2.8125q0 1.953125 0.75 2.84375q0.75 0.875 1.953125 0.875q0.96875 0 1.609375 -0.59375q0.65625 -0.59375 0.828125 -1.828125zm6.59375 2.078125l0.234375 1.453125q-0.6875 0.140625 -1.234375 0.140625q-0.890625 0 -1.390625 -0.28125q-0.484375 -0.28125 -0.6875 -0.734375q-0.203125 -0.46875 -0.203125 -1.9375l0 -5.578125l-1.203125 0l0 -1.265625l1.203125 0l0 -2.390625l1.625 -0.984375l0 3.375l1.65625 0l0 1.265625l-1.65625 0l0 5.671875q0 0.6875 0.078125 0.890625q0.09375 0.203125 0.28125 0.328125q0.203125 0.109375 0.578125 0.109375q0.265625 0 0.71875 -0.0625z" fill-rule="nonzero"/><path fill="#000000" fill-opacity="0.0" d="m133.85762 140.72704l100.91339 0" fill-rule="evenodd"/><path stroke="#ffffff" stroke-width="2.0" stroke-linejoin="round" stroke-linecap="butt" d="m133.85762 140.72704l88.91339 0" fill-rule="evenodd"/><path fill="#ffffff" stroke="#ffffff" stroke-width="2.0" stroke-linecap="butt" d="m222.77101 144.0305l9.076202 -3.3034668l-9.076202 -3.3034668z" fill-rule="evenodd"/><path fill="#000000" fill-opacity="0.0" d="m129.99149 171.09186l100.913376 0" fill-rule="evenodd"/><path stroke="#ffffff" stroke-width="2.0" stroke-linejoin="round" stroke-linecap="butt" d="m129.99149 171.09186l88.91339 0" fill-rule="evenodd"/><path fill="#ffffff" stroke="#ffffff" stroke-width="2.0" stroke-linecap="butt" d="m218.90488 174.39532l9.076202 -3.3034668l-9.076202 -3.3034668z" fill-rule="evenodd"/><path fill="#000000" fill-opacity="0.0" d="m129.99149 198.91077l100.913376 0" fill-rule="evenodd"/><path stroke="#ffffff" stroke-width="2.0" stroke-linejoin="round" stroke-linecap="butt" d="m129.99149 198.91077l88.91339 0" fill-rule="evenodd"/><path fill="#ffffff" stroke="#ffffff" stroke-width="2.0" stroke-linecap="butt" d="m218.90488 202.21423l9.076202 -3.3034668l-9.076202 -3.3034668z" fill-rule="evenodd"/><path fill="#000000" fill-opacity="0.0" d="m129.99149 228.73753l100.913376 0" fill-rule="evenodd"/><path stroke="#ffffff" stroke-width="2.0" stroke-linejoin="round" stroke-linecap="butt" d="m129.99149 228.73753l88.91339 0" fill-rule="evenodd"/><path fill="#ffffff" stroke="#ffffff" stroke-width="2.0" stroke-linecap="butt" d="m218.90488 232.041l9.076202 -3.3034668l-9.076202 -3.3034668z" fill-rule="evenodd"/><path fill="#ffffff" d="m232.21983 172.72704l0 0c0 -4.2704163 3.461853 -7.7322845 7.7322845 -7.7322845l0 0c2.0507202 0 4.017456 0.8146515 5.4675446 2.26474c1.4500885 1.4500732 2.2647247 3.416809 2.2647247 5.4675446l0 0c0 4.2704163 -3.461853 7.7322845 -7.7322693 7.7322845l0 0c-4.2704315 0 -7.7322845 -3.4618683 -7.7322845 -7.7322845z" fill-rule="evenodd"/><path fill="#ffffff" d="m232.21983 200.3634l0 0c0 -4.2704315 3.461853 -7.7322845 7.7322845 -7.7322845l0 0c2.0507202 0 4.017456 0.8146515 5.4675446 2.2647247c1.4500885 1.4500885 2.2647247 3.4168243 2.2647247 5.46756l0 0c0 4.2704163 -3.461853 7.7322845 -7.7322693 7.7322845l0 0c-4.2704315 0 -7.7322845 -3.4618683 -7.7322845 -7.7322845z" fill-rule="evenodd"/><path fill="#ffffff" d="m232.21983 229.63612l0 0c0 -4.2704163 3.461853 -7.7322845 7.7322845 -7.7322845l0 0c2.0507202 0 4.017456 0.8146515 5.4675446 2.26474c1.4500885 1.4500732 2.2647247 3.4168243 2.2647247 5.4675446l0 0c0 4.2704163 -3.461853 7.7322845 -7.7322693 7.7322845l0 0c-4.2704315 0 -7.7322845 -3.4618683 -7.7322845 -7.7322845z" fill-rule="evenodd"/><path fill="#000000" fill-opacity="0.0" d="m124.86216 105.98401l137.25986 0l0 37.16536l-137.25986 0z" fill-rule="evenodd"/><path fill="#ffffff" d="m141.2684 125.40776q0 0.84375 -0.25 1.546875q-0.234375 0.6875 -0.671875 1.1875q-0.4375 0.5 -1.078125 0.78125q-0.640625 0.265625 -1.453125 0.265625q-0.765625 0 -1.390625 -0.234375q-0.609375 -0.234375 -1.03125 -0.703125q-0.421875 -0.46875 -0.65625 -1.15625q-0.21875 -0.6875 -0.21875 -1.578125q0 -0.84375 0.234375 -1.53125q0.234375 -0.6875 0.671875 -1.1875q0.453125 -0.5 1.09375 -0.765625q0.640625 -0.28125 1.4375 -0.28125q0.78125 0 1.390625 0.25q0.609375 0.234375 1.03125 0.703125q0.4375 0.453125 0.65625 1.140625q0.234375 0.6875 0.234375 1.5625zm-1.28125 0.0625q0 -0.671875 -0.15625 -1.15625q-0.140625 -0.5 -0.421875 -0.828125q-0.265625 -0.34375 -0.65625 -0.5q-0.375 -0.171875 -0.859375 -0.171875q-0.5625 0 -0.96875 0.21875q-0.390625 0.21875 -0.640625 0.578125q-0.25 0.359375 -0.375 0.84375q-0.109375 0.484375 -0.109375 1.015625q0 0.671875 0.140625 1.171875q0.140625 0.5 0.40625 0.828125q0.28125 0.328125 0.671875 0.5q0.390625 0.171875 0.875 0.171875q0.5625 0 0.953125 -0.21875q0.390625 -0.21875 0.640625 -0.578125q0.265625 -0.375 0.375 -0.859375q0.125 -0.484375 0.125 -1.015625zm3.370575 -3.59375l1.140625 0l0.03125 1.328125q0.640625 -0.765625 1.25 -1.109375q0.625 -0.34375 1.25 -0.34375q1.125 0 1.703125 0.71875q0.578125 0.71875 0.53125 2.15625l-1.265625 0q0.03125 -0.953125 -0.265625 -1.375q-0.296875 -0.421875 -0.875 -0.421875q-0.25 0 -0.515625 0.09375q-0.25 0.078125 -0.515625 0.28125q-0.265625 0.1875 -0.5625 0.5q-0.296875 0.3125 -0.640625 0.75l0 4.609375l-1.265625 0l0 -7.1875zm10.214325 1.03125l-2.125 0l0 -1.03125l3.390625 0l0 6.15625l2.125 0l0 1.03125l-5.75 0l0 -1.03125l2.359375 0l0 -5.125zm0.4375 -4.046875q0.203125 0 0.375 0.078125q0.1875 0.078125 0.3125 0.21875q0.140625 0.125 0.21875 0.3125q0.078125 0.171875 0.078125 0.375q0 0.203125 -0.078125 0.390625q-0.078125 0.171875 -0.21875 0.3125q-0.125 0.125 -0.3125 0.203125q-0.171875 0.078125 -0.375 0.078125q-0.203125 0 -0.390625 -0.078125q-0.171875 -0.078125 -0.3125 -0.203125q-0.125 -0.140625 -0.203125 -0.3125q-0.078125 -0.1875 -0.078125 -0.390625q0 -0.203125 0.078125 -0.375q0.078125 -0.1875 0.203125 -0.3125q0.140625 -0.140625 0.3125 -0.21875q0.1875 -0.078125 0.390625 -0.078125zm10.339325 4.03125q0.203125 0.25 0.3125 0.59375q0.109375 0.328125 0.109375 0.71875q0 0.546875 -0.203125 1.015625q-0.203125 0.453125 -0.578125 0.78125q-0.359375 0.328125 -0.890625 0.515625q-0.515625 0.1875 -1.140625 0.1875q-0.4375 0 -0.84375 -0.09375q-0.390625 -0.109375 -0.609375 -0.25q-0.140625 0.203125 -0.234375 0.390625q-0.09375 0.171875 -0.09375 0.390625q0 0.28125 0.25 0.46875q0.265625 0.171875 0.703125 0.171875l1.890625 0.078125q0.53125 0.015625 0.984375 0.140625q0.453125 0.125 0.78125 0.359375q0.328125 0.21875 0.5 0.5625q0.1875 0.328125 0.1875 0.765625q0 0.484375 -0.203125 0.90625q-0.203125 0.4375 -0.640625 0.765625q-0.4375 0.328125 -1.109375 0.515625q-0.65625 0.1875 -1.5625 0.1875q-0.875 0 -1.5 -0.140625q-0.609375 -0.125 -1.0 -0.375q-0.390625 -0.25 -0.578125 -0.59375q-0.171875 -0.34375 -0.171875 -0.75q0 -0.515625 0.234375 -0.921875q0.25 -0.390625 0.765625 -0.75q-0.1875 -0.078125 -0.328125 -0.203125q-0.140625 -0.140625 -0.234375 -0.296875q-0.078125 -0.15625 -0.125 -0.328125q-0.03125 -0.171875 -0.03125 -0.328125q0 -0.46875 0.21875 -0.84375q0.21875 -0.390625 0.515625 -0.734375q-0.140625 -0.171875 -0.25 -0.328125q-0.09375 -0.15625 -0.171875 -0.328125q-0.078125 -0.1875 -0.125 -0.390625q-0.03125 -0.21875 -0.03125 -0.5q0 -0.5625 0.203125 -1.015625q0.21875 -0.46875 0.578125 -0.796875q0.375 -0.328125 0.890625 -0.5q0.515625 -0.1875 1.140625 -0.1875q0.265625 0 0.515625 0.03125q0.25 0.03125 0.421875 0.09375l2.609375 0l0 1.015625l-1.15625 0zm-4.3125 7.203125q0 0.515625 0.53125 0.75q0.53125 0.234375 1.46875 0.234375q0.59375 0 1.0 -0.109375q0.40625 -0.109375 0.640625 -0.28125q0.25 -0.171875 0.359375 -0.40625q0.109375 -0.21875 0.109375 -0.453125q0 -0.4375 -0.359375 -0.65625q-0.359375 -0.203125 -1.09375 -0.234375l-1.875 -0.0625q-0.234375 0.15625 -0.390625 0.296875q-0.15625 0.15625 -0.25 0.3125q-0.078125 0.15625 -0.109375 0.296875q-0.03125 0.15625 -0.03125 0.3125zm0.375 -5.875q0 0.34375 0.109375 0.640625q0.125 0.28125 0.328125 0.484375q0.203125 0.203125 0.484375 0.3125q0.28125 0.109375 0.625 0.109375q0.375 0 0.65625 -0.125q0.296875 -0.125 0.5 -0.34375q0.203125 -0.21875 0.296875 -0.484375q0.109375 -0.28125 0.109375 -0.59375q0 -0.34375 -0.125 -0.625q-0.109375 -0.28125 -0.3125 -0.484375q-0.203125 -0.203125 -0.5 -0.3125q-0.28125 -0.109375 -0.625 -0.109375q-0.359375 0 -0.65625 0.125q-0.28125 0.125 -0.484375 0.34375q-0.203125 0.203125 -0.3125 0.484375q-0.09375 0.28125 -0.09375 0.578125zm9.276825 -1.3125l-2.125 0l0 -1.03125l3.390625 0l0 6.15625l2.125 0l0 1.03125l-5.75 0l0 -1.03125l2.359375 0l0 -5.125zm0.4375 -4.046875q0.203125 0 0.375 0.078125q0.1875 0.078125 0.3125 0.21875q0.140625 0.125 0.21875 0.3125q0.078125 0.171875 0.078125 0.375q0 0.203125 -0.078125 0.390625q-0.078125 0.171875 -0.21875 0.3125q-0.125 0.125 -0.3125 0.203125q-0.171875 0.078125 -0.375 0.078125q-0.203125 0 -0.390625 -0.078125q-0.171875 -0.078125 -0.3125 -0.203125q-0.125 -0.140625 -0.203125 -0.3125q-0.078125 -0.1875 -0.078125 -0.390625q0 -0.203125 0.078125 -0.375q0.078125 -0.1875 0.203125 -0.3125q0.140625 -0.140625 0.3125 -0.21875q0.1875 -0.078125 0.390625 -0.078125zm5.16745 3.015625l1.109375 0l0.046875 1.15625q0.328125 -0.359375 0.609375 -0.609375q0.296875 -0.25 0.578125 -0.390625q0.28125 -0.15625 0.578125 -0.21875q0.296875 -0.0625 0.609375 -0.0625q1.109375 0 1.671875 0.65625q0.578125 0.65625 0.578125 1.96875l0 4.6875l-1.25 0l0 -4.59375q0 -0.84375 -0.3125 -1.234375q-0.3125 -0.40625 -0.9375 -0.40625q-0.234375 0 -0.453125 0.0625q-0.21875 0.0625 -0.453125 0.234375q-0.234375 0.171875 -0.515625 0.453125q-0.265625 0.28125 -0.609375 0.71875l0 4.765625l-1.25 0l0 -7.1875zm12.683075 7.1875l-0.03125 -0.96875q-0.59375 0.578125 -1.203125 0.84375q-0.59375 0.25 -1.265625 0.25q-0.609375 0 -1.046875 -0.15625q-0.4375 -0.15625 -0.71875 -0.421875q-0.28125 -0.28125 -0.421875 -0.65625q-0.125 -0.375 -0.125 -0.8125q0 -1.078125 0.796875 -1.6875q0.8125 -0.609375 2.390625 -0.609375l1.484375 0l0 -0.640625q0 -0.625 -0.40625 -1.0q-0.40625 -0.390625 -1.25 -0.390625q-0.609375 0 -1.203125 0.140625q-0.578125 0.125 -1.21875 0.375l0 -1.125q0.25 -0.078125 0.53125 -0.15625q0.296875 -0.09375 0.609375 -0.15625q0.328125 -0.0625 0.671875 -0.09375q0.359375 -0.046875 0.71875 -0.046875q0.640625 0 1.15625 0.140625q0.53125 0.140625 0.890625 0.4375q0.359375 0.296875 0.546875 0.75q0.203125 0.4375 0.203125 1.03125l0 4.953125l-1.109375 0zm-0.140625 -3.265625l-1.578125 0q-0.46875 0 -0.8125 0.09375q-0.328125 0.09375 -0.546875 0.265625q-0.21875 0.171875 -0.328125 0.40625q-0.09375 0.234375 -0.09375 0.546875q0 0.203125 0.0625 0.390625q0.0625 0.1875 0.203125 0.34375q0.15625 0.140625 0.375 0.234375q0.234375 0.078125 0.5625 0.078125q0.4375 0 0.984375 -0.265625q0.5625 -0.265625 1.171875 -0.828125l0 -1.265625zm9.370575 3.171875q-0.421875 0.09375 -0.875 0.140625q-0.453125 0.046875 -0.921875 0.046875q-1.34375 0 -2.015625 -0.609375q-0.65625 -0.609375 -0.65625 -1.875l0 -3.75l-2.015625 0l0 -1.046875l2.015625 0l0 -1.96875l1.234375 -0.328125l0 2.296875l3.234375 0l0 1.046875l-3.234375 0l0 3.65625q0 0.765625 0.40625 1.15625q0.421875 0.375 1.21875 0.375q0.34375 0 0.75 -0.046875q0.40625 -0.0625 0.859375 -0.171875l0 1.078125zm8.339325 -3.875q0 0.265625 -0.015625 0.453125q0 0.171875 -0.015625 0.328125l-5.046875 0q0 1.09375 0.609375 1.6875q0.625 0.59375 1.78125 0.59375q0.3125 0 0.625 -0.015625q0.3125 -0.03125 0.609375 -0.078125q0.296875 -0.046875 0.5625 -0.09375q0.265625 -0.0625 0.5 -0.125l0 1.03125q-0.515625 0.140625 -1.15625 0.21875q-0.640625 0.09375 -1.328125 0.09375q-0.921875 0 -1.59375 -0.25q-0.65625 -0.25 -1.078125 -0.71875q-0.421875 -0.484375 -0.625 -1.171875q-0.203125 -0.6875 -0.203125 -1.5625q0 -0.765625 0.21875 -1.4375q0.21875 -0.671875 0.625 -1.1875q0.421875 -0.515625 1.03125 -0.8125q0.609375 -0.296875 1.375 -0.296875q0.765625 0 1.34375 0.234375q0.578125 0.234375 0.96875 0.671875q0.40625 0.4375 0.609375 1.0625q0.203125 0.609375 0.203125 1.375zm-1.296875 -0.1875q0.015625 -0.46875 -0.109375 -0.859375q-0.109375 -0.40625 -0.34375 -0.6875q-0.234375 -0.296875 -0.59375 -0.453125q-0.359375 -0.15625 -0.828125 -0.15625q-0.40625 0 -0.75 0.15625q-0.328125 0.15625 -0.578125 0.4375q-0.25 0.28125 -0.40625 0.6875q-0.140625 0.40625 -0.171875 0.875l3.78125 0z" fill-rule="nonzero"/><path fill="#000000" fill-opacity="0.0" d="m101.77125 136.8931l92.44094 0l0 37.16536l-92.44094 0z" fill-rule="evenodd"/><path fill="#ffffff" d="m138.7037 158.01997q0 0.375 -0.125 0.671875q-0.125 0.296875 -0.34375 0.53125q-0.21875 0.234375 -0.515625 0.40625q-0.296875 0.15625 -0.640625 0.265625q-0.328125 0.109375 -0.6875 0.15625q-0.34375 0.046875 -0.671875 0.046875q-0.734375 0 -1.34375 -0.0625q-0.609375 -0.0625 -1.203125 -0.203125l0 -1.140625q0.640625 0.171875 1.25 0.265625q0.625 0.09375 1.25 0.09375q0.890625 0 1.3125 -0.234375q0.4375 -0.25 0.4375 -0.703125q0 -0.1875 -0.078125 -0.34375q-0.0625 -0.15625 -0.25 -0.296875q-0.171875 -0.140625 -0.546875 -0.28125q-0.375 -0.15625 -1.015625 -0.359375q-0.5 -0.140625 -0.90625 -0.3125q-0.40625 -0.1875 -0.71875 -0.4375q-0.296875 -0.25 -0.46875 -0.578125q-0.171875 -0.34375 -0.171875 -0.8125q0 -0.296875 0.140625 -0.65625q0.140625 -0.359375 0.46875 -0.65625q0.34375 -0.3125 0.921875 -0.515625q0.578125 -0.203125 1.421875 -0.203125q0.421875 0 0.9375 0.046875q0.515625 0.046875 1.078125 0.15625l0 1.109375q-0.578125 -0.140625 -1.109375 -0.203125q-0.53125 -0.078125 -0.90625 -0.078125q-0.46875 0 -0.796875 0.078125q-0.3125 0.0625 -0.515625 0.203125q-0.1875 0.125 -0.28125 0.296875q-0.078125 0.15625 -0.078125 0.34375q0 0.203125 0.0625 0.359375q0.078125 0.15625 0.28125 0.3125q0.21875 0.140625 0.578125 0.28125q0.359375 0.140625 0.953125 0.3125q0.640625 0.1875 1.0625 0.390625q0.4375 0.203125 0.703125 0.46875q0.28125 0.25 0.390625 0.5625q0.125 0.3125 0.125 0.71875zm4.8237 -4.203125l-2.125 0l0 -1.03125l3.390625 0l0 6.15625l2.125 0l0 1.03125l-5.75 0l0 -1.03125l2.359375 0l0 -5.125zm0.4375 -4.046875q0.203125 0 0.375 0.078125q0.1875 0.078125 0.3125 0.21875q0.140625 0.125 0.21875 0.3125q0.078125 0.171875 0.078125 0.375q0 0.203125 -0.078125 0.390625q-0.078125 0.171875 -0.21875 0.3125q-0.125 0.125 -0.3125 0.203125q-0.171875 0.078125 -0.375 0.078125q-0.203125 0 -0.390625 -0.078125q-0.171875 -0.078125 -0.3125 -0.203125q-0.125 -0.140625 -0.203125 -0.3125q-0.078125 -0.1875 -0.078125 -0.390625q0 -0.203125 0.078125 -0.375q0.078125 -0.1875 0.203125 -0.3125q0.140625 -0.140625 0.3125 -0.21875q0.1875 -0.078125 0.390625 -0.078125zm10.339325 4.03125q0.203125 0.25 0.3125 0.59375q0.109375 0.328125 0.109375 0.71875q0 0.546875 -0.203125 1.015625q-0.203125 0.453125 -0.578125 0.78125q-0.359375 0.328125 -0.890625 0.515625q-0.515625 0.1875 -1.140625 0.1875q-0.4375 0 -0.84375 -0.09375q-0.390625 -0.109375 -0.609375 -0.25q-0.140625 0.203125 -0.234375 0.390625q-0.09375 0.171875 -0.09375 0.390625q0 0.28125 0.25 0.46875q0.265625 0.171875 0.703125 0.171875l1.890625 0.078125q0.53125 0.015625 0.984375 0.140625q0.453125 0.125 0.78125 0.359375q0.328125 0.21875 0.5 0.5625q0.1875 0.328125 0.1875 0.765625q0 0.484375 -0.203125 0.90625q-0.203125 0.4375 -0.640625 0.765625q-0.4375 0.328125 -1.109375 0.515625q-0.65625 0.1875 -1.5625 0.1875q-0.875 0 -1.5 -0.140625q-0.609375 -0.125 -1.0 -0.375q-0.390625 -0.25 -0.578125 -0.59375q-0.171875 -0.34375 -0.171875 -0.75q0 -0.515625 0.234375 -0.921875q0.25 -0.390625 0.765625 -0.75q-0.1875 -0.078125 -0.328125 -0.203125q-0.140625 -0.140625 -0.234375 -0.296875q-0.078125 -0.15625 -0.125 -0.328125q-0.03125 -0.171875 -0.03125 -0.328125q0 -0.46875 0.21875 -0.84375q0.21875 -0.390625 0.515625 -0.734375q-0.140625 -0.171875 -0.25 -0.328125q-0.09375 -0.15625 -0.171875 -0.328125q-0.078125 -0.1875 -0.125 -0.390625q-0.03125 -0.21875 -0.03125 -0.5q0 -0.5625 0.203125 -1.015625q0.21875 -0.46875 0.578125 -0.796875q0.375 -0.328125 0.890625 -0.5q0.515625 -0.1875 1.140625 -0.1875q0.265625 0 0.515625 0.03125q0.25 0.03125 0.421875 0.09375l2.609375 0l0 1.015625l-1.15625 0zm-4.3125 7.203125q0 0.515625 0.53125 0.75q0.53125 0.234375 1.46875 0.234375q0.59375 0 1.0 -0.109375q0.40625 -0.109375 0.640625 -0.28125q0.25 -0.171875 0.359375 -0.40625q0.109375 -0.21875 0.109375 -0.453125q0 -0.4375 -0.359375 -0.65625q-0.359375 -0.203125 -1.09375 -0.234375l-1.875 -0.0625q-0.234375 0.15625 -0.390625 0.296875q-0.15625 0.15625 -0.25 0.3125q-0.078125 0.15625 -0.109375 0.296875q-0.03125 0.15625 -0.03125 0.3125zm0.375 -5.875q0 0.34375 0.109375 0.640625q0.125 0.28125 0.328125 0.484375q0.203125 0.203125 0.484375 0.3125q0.28125 0.109375 0.625 0.109375q0.375 0 0.65625 -0.125q0.296875 -0.125 0.5 -0.34375q0.203125 -0.21875 0.296875 -0.484375q0.109375 -0.28125 0.109375 -0.59375q0 -0.34375 -0.125 -0.625q-0.109375 -0.28125 -0.3125 -0.484375q-0.203125 -0.203125 -0.5 -0.3125q-0.28125 -0.109375 -0.625 -0.109375q-0.359375 0 -0.65625 0.125q-0.28125 0.125 -0.484375 0.34375q-0.203125 0.203125 -0.3125 0.484375q-0.09375 0.28125 -0.09375 0.578125zm6.8237 -2.34375l1.109375 0l0.046875 1.15625q0.328125 -0.359375 0.609375 -0.609375q0.296875 -0.25 0.578125 -0.390625q0.28125 -0.15625 0.578125 -0.21875q0.296875 -0.0625 0.609375 -0.0625q1.109375 0 1.671875 0.65625q0.578125 0.65625 0.578125 1.96875l0 4.6875l-1.25 0l0 -4.59375q0 -0.84375 -0.3125 -1.234375q-0.3125 -0.40625 -0.9375 -0.40625q-0.234375 0 -0.453125 0.0625q-0.21875 0.0625 -0.453125 0.234375q-0.234375 0.171875 -0.515625 0.453125q-0.265625 0.28125 -0.609375 0.71875l0 4.765625l-1.25 0l0 -7.1875z" fill-rule="nonzero"/><path fill="#000000" fill-opacity="0.0" d="m121.22521 167.98354l113.007866 0l0 37.16536l-113.007866 0z" fill-rule="evenodd"/><path fill="#ffffff" d="m137.1627 190.96979q-0.421875 0.09375 -0.875 0.140625q-0.453125 0.046875 -0.921875 0.046875q-1.34375 0 -2.015625 -0.609375q-0.65625 -0.609375 -0.65625 -1.875l0 -3.75l-2.015625 0l0 -1.046875l2.015625 0l0 -1.96875l1.234375 -0.328125l0 2.296875l3.234375 0l0 1.046875l-3.234375 0l0 3.65625q0 0.765625 0.40625 1.15625q0.421875 0.375 1.21875 0.375q0.34375 0 0.75 -0.046875q0.40625 -0.0625 0.859375 -0.171875l0 1.078125zm8.339325 -3.875q0 0.265625 -0.015625 0.453125q0 0.171875 -0.015625 0.328125l-5.046875 0q0 1.09375 0.609375 1.6875q0.625 0.59375 1.78125 0.59375q0.3125 0 0.625 -0.015625q0.3125 -0.03125 0.609375 -0.078125q0.296875 -0.046875 0.5625 -0.09375q0.265625 -0.0625 0.5 -0.125l0 1.03125q-0.515625 0.140625 -1.15625 0.21875q-0.640625 0.09375 -1.328125 0.09375q-0.921875 0 -1.59375 -0.25q-0.65625 -0.25 -1.078125 -0.71875q-0.421875 -0.484375 -0.625 -1.171875q-0.203125 -0.6875 -0.203125 -1.5625q0 -0.765625 0.21875 -1.4375q0.21875 -0.671875 0.625 -1.1875q0.421875 -0.515625 1.03125 -0.8125q0.609375 -0.296875 1.375 -0.296875q0.765625 0 1.34375 0.234375q0.578125 0.234375 0.96875 0.671875q0.40625 0.4375 0.609375 1.0625q0.203125 0.609375 0.203125 1.375zm-1.296875 -0.1875q0.015625 -0.46875 -0.109375 -0.859375q-0.109375 -0.40625 -0.34375 -0.6875q-0.234375 -0.296875 -0.59375 -0.453125q-0.359375 -0.15625 -0.828125 -0.15625q-0.40625 0 -0.75 0.15625q-0.328125 0.15625 -0.578125 0.4375q-0.25 0.28125 -0.40625 0.6875q-0.140625 0.40625 -0.171875 0.875l3.78125 0zm3.5737 -3.03125l1.140625 0l0.03125 1.328125q0.640625 -0.765625 1.25 -1.109375q0.625 -0.34375 1.25 -0.34375q1.125 0 1.703125 0.71875q0.578125 0.71875 0.53125 2.15625l-1.265625 0q0.03125 -0.953125 -0.265625 -1.375q-0.296875 -0.421875 -0.875 -0.421875q-0.25 0 -0.515625 0.09375q-0.25 0.078125 -0.515625 0.28125q-0.265625 0.1875 -0.5625 0.5q-0.296875 0.3125 -0.640625 0.75l0 4.609375l-1.265625 0l0 -7.1875zm12.8862 7.1875l0 -5.15625q0 -0.34375 -0.03125 -0.546875q-0.015625 -0.21875 -0.078125 -0.34375q-0.046875 -0.125 -0.125 -0.171875q-0.078125 -0.0625 -0.203125 -0.0625q-0.140625 0 -0.265625 0.09375q-0.125 0.078125 -0.265625 0.28125q-0.140625 0.1875 -0.3125 0.515625q-0.15625 0.3125 -0.390625 0.78125l0 4.609375l-1.140625 0l0 -5.03125q0 -0.390625 -0.03125 -0.625q-0.015625 -0.25 -0.078125 -0.375q-0.046875 -0.140625 -0.140625 -0.1875q-0.078125 -0.0625 -0.203125 -0.0625q-0.125 0 -0.25 0.078125q-0.109375 0.0625 -0.25 0.25q-0.125 0.1875 -0.296875 0.515625q-0.171875 0.328125 -0.40625 0.828125l0 4.609375l-1.15625 0l0 -7.1875l0.953125 0l0.0625 1.375q0.1875 -0.40625 0.359375 -0.6875q0.171875 -0.296875 0.359375 -0.46875q0.1875 -0.1875 0.390625 -0.265625q0.21875 -0.078125 0.46875 -0.078125q0.59375 0 0.890625 0.375q0.296875 0.375 0.296875 1.171875q0.171875 -0.375 0.328125 -0.65625q0.171875 -0.296875 0.359375 -0.484375q0.1875 -0.203125 0.421875 -0.296875q0.234375 -0.109375 0.53125 -0.109375q1.34375 0 1.34375 2.078125l0 5.234375l-1.140625 0zm5.3862 -6.15625l-2.125 0l0 -1.03125l3.390625 0l0 6.15625l2.125 0l0 1.03125l-5.75 0l0 -1.03125l2.359375 0l0 -5.125zm0.4375 -4.046875q0.203125 0 0.375 0.078125q0.1875 0.078125 0.3125 0.21875q0.140625 0.125 0.21875 0.3125q0.078125 0.171875 0.078125 0.375q0 0.203125 -0.078125 0.390625q-0.078125 0.171875 -0.21875 0.3125q-0.125 0.125 -0.3125 0.203125q-0.171875 0.078125 -0.375 0.078125q-0.203125 0 -0.390625 -0.078125q-0.171875 -0.078125 -0.3125 -0.203125q-0.125 -0.140625 -0.203125 -0.3125q-0.078125 -0.1875 -0.078125 -0.390625q0 -0.203125 0.078125 -0.375q0.078125 -0.1875 0.203125 -0.3125q0.140625 -0.140625 0.3125 -0.21875q0.1875 -0.078125 0.390625 -0.078125zm5.16745 3.015625l1.109375 0l0.046875 1.15625q0.328125 -0.359375 0.609375 -0.609375q0.296875 -0.25 0.578125 -0.390625q0.28125 -0.15625 0.578125 -0.21875q0.296875 -0.0625 0.609375 -0.0625q1.109375 0 1.671875 0.65625q0.578125 0.65625 0.578125 1.96875l0 4.6875l-1.25 0l0 -4.59375q0 -0.84375 -0.3125 -1.234375q-0.3125 -0.40625 -0.9375 -0.40625q-0.234375 0 -0.453125 0.0625q-0.21875 0.0625 -0.453125 0.234375q-0.234375 0.171875 -0.515625 0.453125q-0.265625 0.28125 -0.609375 0.71875l0 4.765625l-1.25 0l0 -7.1875zm12.683075 7.1875l-0.03125 -0.96875q-0.59375 0.578125 -1.203125 0.84375q-0.59375 0.25 -1.265625 0.25q-0.609375 0 -1.046875 -0.15625q-0.4375 -0.15625 -0.71875 -0.421875q-0.28125 -0.28125 -0.421875 -0.65625q-0.125 -0.375 -0.125 -0.8125q0 -1.078125 0.796875 -1.6875q0.8125 -0.609375 2.390625 -0.609375l1.484375 0l0 -0.640625q0 -0.625 -0.40625 -1.0q-0.40625 -0.390625 -1.25 -0.390625q-0.609375 0 -1.203125 0.140625q-0.578125 0.125 -1.21875 0.375l0 -1.125q0.25 -0.078125 0.53125 -0.15625q0.296875 -0.09375 0.609375 -0.15625q0.328125 -0.0625 0.671875 -0.09375q0.359375 -0.046875 0.71875 -0.046875q0.640625 0 1.15625 0.140625q0.53125 0.140625 0.890625 0.4375q0.359375 0.296875 0.546875 0.75q0.203125 0.4375 0.203125 1.03125l0 4.953125l-1.109375 0zm-0.140625 -3.265625l-1.578125 0q-0.46875 0 -0.8125 0.09375q-0.328125 0.09375 -0.546875 0.265625q-0.21875 0.171875 -0.328125 0.40625q-0.09375 0.234375 -0.09375 0.546875q0 0.203125 0.0625 0.390625q0.0625 0.1875 0.203125 0.34375q0.15625 0.140625 0.375 0.234375q0.234375 0.078125 0.5625 0.078125q0.4375 0 0.984375 -0.265625q0.5625 -0.265625 1.171875 -0.828125l0 -1.265625zm9.370575 3.171875q-0.421875 0.09375 -0.875 0.140625q-0.453125 0.046875 -0.921875 0.046875q-1.34375 0 -2.015625 -0.609375q-0.65625 -0.609375 -0.65625 -1.875l0 -3.75l-2.015625 0l0 -1.046875l2.015625 0l0 -1.96875l1.234375 -0.328125l0 2.296875l3.234375 0l0 1.046875l-3.234375 0l0 3.65625q0 0.765625 0.40625 1.15625q0.421875 0.375 1.21875 0.375q0.34375 0 0.75 -0.046875q0.40625 -0.0625 0.859375 -0.171875l0 1.078125zm8.339325 -3.875q0 0.265625 -0.015625 0.453125q0 0.171875 -0.015625 0.328125l-5.046875 0q0 1.09375 0.609375 1.6875q0.625 0.59375 1.78125 0.59375q0.3125 0 0.625 -0.015625q0.3125 -0.03125 0.609375 -0.078125q0.296875 -0.046875 0.5625 -0.09375q0.265625 -0.0625 0.5 -0.125l0 1.03125q-0.515625 0.140625 -1.15625 0.21875q-0.640625 0.09375 -1.328125 0.09375q-0.921875 0 -1.59375 -0.25q-0.65625 -0.25 -1.078125 -0.71875q-0.421875 -0.484375 -0.625 -1.171875q-0.203125 -0.6875 -0.203125 -1.5625q0 -0.765625 0.21875 -1.4375q0.21875 -0.671875 0.625 -1.1875q0.421875 -0.515625 1.03125 -0.8125q0.609375 -0.296875 1.375 -0.296875q0.765625 0 1.34375 0.234375q0.578125 0.234375 0.96875 0.671875q0.40625 0.4375 0.609375 1.0625q0.203125 0.609375 0.203125 1.375zm-1.296875 -0.1875q0.015625 -0.46875 -0.109375 -0.859375q-0.109375 -0.40625 -0.34375 -0.6875q-0.234375 -0.296875 -0.59375 -0.453125q-0.359375 -0.15625 -0.828125 -0.15625q-0.40625 0 -0.75 0.15625q-0.328125 0.15625 -0.578125 0.4375q-0.25 0.28125 -0.40625 0.6875q-0.140625 0.40625 -0.171875 0.875l3.78125 0z" fill-rule="nonzero"/><path fill="#000000" fill-opacity="0.0" d="m123.04339 198.16536l113.00788 0l0 37.165344l-113.00788 0z" fill-rule="evenodd"/><path fill="#ffffff" d="m132.82465 217.80786q0 -0.921875 0.25 -1.625q0.25 -0.71875 0.703125 -1.203125q0.46875 -0.5 1.109375 -0.75q0.65625 -0.25 1.453125 -0.25q0.34375 0 0.671875 0.046875q0.328125 0.03125 0.65625 0.125l0 -3.015625l1.25 0l0 10.109375l-1.109375 0l-0.046875 -1.359375q-0.515625 0.765625 -1.125 1.125q-0.609375 0.359375 -1.328125 0.359375q-0.609375 0 -1.078125 -0.25q-0.46875 -0.265625 -0.78125 -0.734375q-0.3125 -0.46875 -0.46875 -1.125q-0.15625 -0.65625 -0.15625 -1.453125zm1.265625 -0.078125q0 1.296875 0.375 1.9375q0.390625 0.640625 1.09375 0.640625q0.484375 0 1.0 -0.421875q0.53125 -0.421875 1.109375 -1.25l0 -3.34375q-0.3125 -0.140625 -0.6875 -0.203125q-0.359375 -0.078125 -0.734375 -0.078125q-1.015625 0 -1.59375 0.65625q-0.5625 0.65625 -0.5625 2.0625zm9.60495 -2.640625l-2.125 0l0 -1.03125l3.390625 0l0 6.15625l2.125 0l0 1.03125l-5.75 0l0 -1.03125l2.359375 0l0 -5.125zm0.4375 -4.046875q0.203125 0 0.375 0.078125q0.1875 0.078125 0.3125 0.21875q0.140625 0.125 0.21875 0.3125q0.078125 0.171875 0.078125 0.375q0 0.203125 -0.078125 0.390625q-0.078125 0.171875 -0.21875 0.3125q-0.125 0.125 -0.3125 0.203125q-0.171875 0.078125 -0.375 0.078125q-0.203125 0 -0.390625 -0.078125q-0.171875 -0.078125 -0.3125 -0.203125q-0.125 -0.140625 -0.203125 -0.3125q-0.078125 -0.1875 -0.078125 -0.390625q0 -0.203125 0.078125 -0.375q0.078125 -0.1875 0.203125 -0.3125q0.140625 -0.140625 0.3125 -0.21875q0.1875 -0.078125 0.390625 -0.078125zm10.85495 8.25q0 0.375 -0.125 0.671875q-0.125 0.296875 -0.34375 0.53125q-0.21875 0.234375 -0.515625 0.40625q-0.296875 0.15625 -0.640625 0.265625q-0.328125 0.109375 -0.6875 0.15625q-0.34375 0.046875 -0.671875 0.046875q-0.734375 0 -1.34375 -0.0625q-0.609375 -0.0625 -1.203125 -0.203125l0 -1.140625q0.640625 0.171875 1.25 0.265625q0.625 0.09375 1.25 0.09375q0.890625 0 1.3125 -0.234375q0.4375 -0.25 0.4375 -0.703125q0 -0.1875 -0.078125 -0.34375q-0.0625 -0.15625 -0.25 -0.296875q-0.171875 -0.140625 -0.546875 -0.28125q-0.375 -0.15625 -1.015625 -0.359375q-0.5 -0.140625 -0.90625 -0.3125q-0.40625 -0.1875 -0.71875 -0.4375q-0.296875 -0.25 -0.46875 -0.578125q-0.171875 -0.34375 -0.171875 -0.8125q0 -0.296875 0.140625 -0.65625q0.140625 -0.359375 0.46875 -0.65625q0.34375 -0.3125 0.921875 -0.515625q0.578125 -0.203125 1.421875 -0.203125q0.421875 0 0.9375 0.046875q0.515625 0.046875 1.078125 0.15625l0 1.109375q-0.578125 -0.140625 -1.109375 -0.203125q-0.53125 -0.078125 -0.90625 -0.078125q-0.46875 0 -0.796875 0.078125q-0.3125 0.0625 -0.515625 0.203125q-0.1875 0.125 -0.28125 0.296875q-0.078125 0.15625 -0.078125 0.34375q0 0.203125 0.0625 0.359375q0.078125 0.15625 0.28125 0.3125q0.21875 0.140625 0.578125 0.28125q0.359375 0.140625 0.953125 0.3125q0.640625 0.1875 1.0625 0.390625q0.4375 0.203125 0.703125 0.46875q0.28125 0.25 0.390625 0.5625q0.125 0.3125 0.125 0.71875zm8.5112 -1.765625q0 0.953125 -0.265625 1.671875q-0.265625 0.71875 -0.75 1.1875q-0.46875 0.46875 -1.109375 0.703125q-0.640625 0.234375 -1.390625 0.234375q-0.34375 0 -0.6875 -0.03125q-0.34375 -0.03125 -0.6875 -0.125l0 3.015625l-1.25 0l0 -10.125l1.109375 0l0.078125 1.203125q0.546875 -0.734375 1.15625 -1.03125q0.609375 -0.296875 1.3125 -0.296875q0.609375 0 1.078125 0.265625q0.46875 0.25 0.78125 0.71875q0.3125 0.46875 0.46875 1.140625q0.15625 0.65625 0.15625 1.46875zm-1.265625 0.046875q0 -0.5625 -0.09375 -1.03125q-0.078125 -0.46875 -0.265625 -0.796875q-0.171875 -0.34375 -0.453125 -0.53125q-0.265625 -0.1875 -0.65625 -0.1875q-0.234375 0 -0.484375 0.078125q-0.234375 0.0625 -0.5 0.25q-0.265625 0.171875 -0.5625 0.46875q-0.28125 0.28125 -0.609375 0.703125l0 3.484375q0.34375 0.140625 0.71875 0.234375q0.390625 0.078125 0.75 0.078125q1.0 0 1.578125 -0.6875q0.578125 -0.6875 0.578125 -2.0625zm8.964325 3.671875l-1.125 0l-0.03125 -1.15625q-0.328125 0.375 -0.625 0.625q-0.28125 0.234375 -0.578125 0.390625q-0.28125 0.140625 -0.578125 0.203125q-0.28125 0.0625 -0.59375 0.0625q-1.109375 0 -1.6875 -0.640625q-0.5625 -0.65625 -0.5625 -1.96875l0 -4.703125l1.25 0l0 4.59375q0 1.65625 1.25 1.65625q0.21875 0 0.4375 -0.0625q0.21875 -0.078125 0.453125 -0.234375q0.25 -0.171875 0.515625 -0.453125q0.28125 -0.296875 0.625 -0.734375l0 -4.765625l1.25 0l0 7.1875zm8.0737 -0.09375q-0.421875 0.09375 -0.875 0.140625q-0.453125 0.046875 -0.921875 0.046875q-1.34375 0 -2.015625 -0.609375q-0.65625 -0.609375 -0.65625 -1.875l0 -3.75l-2.015625 0l0 -1.046875l2.015625 0l0 -1.96875l1.234375 -0.328125l0 2.296875l3.234375 0l0 1.046875l-3.234375 0l0 3.65625q0 0.765625 0.40625 1.15625q0.421875 0.375 1.21875 0.375q0.34375 0 0.75 -0.046875q0.40625 -0.0625 0.859375 -0.171875l0 1.078125zm8.339325 -3.875q0 0.265625 -0.015625 0.453125q0 0.171875 -0.015625 0.328125l-5.046875 0q0 1.09375 0.609375 1.6875q0.625 0.59375 1.78125 0.59375q0.3125 0 0.625 -0.015625q0.3125 -0.03125 0.609375 -0.078125q0.296875 -0.046875 0.5625 -0.09375q0.265625 -0.0625 0.5 -0.125l0 1.03125q-0.515625 0.140625 -1.15625 0.21875q-0.640625 0.09375 -1.328125 0.09375q-0.921875 0 -1.59375 -0.25q-0.65625 -0.25 -1.078125 -0.71875q-0.421875 -0.484375 -0.625 -1.171875q-0.203125 -0.6875 -0.203125 -1.5625q0 -0.765625 0.21875 -1.4375q0.21875 -0.671875 0.625 -1.1875q0.421875 -0.515625 1.03125 -0.8125q0.609375 -0.296875 1.375 -0.296875q0.765625 0 1.34375 0.234375q0.578125 0.234375 0.96875 0.671875q0.40625 0.4375 0.609375 1.0625q0.203125 0.609375 0.203125 1.375zm-1.296875 -0.1875q0.015625 -0.46875 -0.109375 -0.859375q-0.109375 -0.40625 -0.34375 -0.6875q-0.234375 -0.296875 -0.59375 -0.453125q-0.359375 -0.15625 -0.828125 -0.15625q-0.40625 0 -0.75 0.15625q-0.328125 0.15625 -0.578125 0.4375q-0.25 0.28125 -0.40625 0.6875q-0.140625 0.40625 -0.171875 0.875l3.78125 0z" fill-rule="nonzero"/><path fill="#000000" fill-opacity="0.0" d="m11.134526 255.17323l98.173225 0l0 42.01573l-98.173225 0z" fill-rule="evenodd"/><path fill="#ffffff" d="m25.237206 277.24948q0 -2.6875 1.484375 -3.96875q1.25 -1.078125 3.046875 -1.078125q2.0 0 3.265625 1.3125q1.265625 1.296875 1.265625 3.609375q0 1.859375 -0.5625 2.9375q-0.5625 1.0625 -1.640625 1.65625q-1.0625 0.59375 -2.328125 0.59375q-2.03125 0 -3.28125 -1.296875q-1.25 -1.3125 -1.25 -3.765625zm1.6875 0q0 1.859375 0.796875 2.796875q0.8125 0.921875 2.046875 0.921875q1.21875 0 2.03125 -0.921875q0.8125 -0.9375 0.8125 -2.84375q0 -1.796875 -0.8125 -2.71875q-0.8125 -0.921875 -2.03125 -0.921875q-1.234375 0 -2.046875 0.921875q-0.796875 0.90625 -0.796875 2.765625zm9.688217 4.84375l0 -8.40625l-1.453125 0l0 -1.265625l1.453125 0l0 -1.03125q0 -0.96875 0.171875 -1.453125q0.234375 -0.640625 0.828125 -1.03125q0.59375 -0.390625 1.671875 -0.390625q0.6875 0 1.53125 0.15625l-0.25 1.4375q-0.5 -0.09375 -0.953125 -0.09375q-0.75 0 -1.0625 0.328125q-0.3125 0.3125 -0.3125 1.1875l0 0.890625l1.890625 0l0 1.265625l-1.890625 0l0 8.40625l-1.625 0zm4.8460693 0l0 -8.40625l-1.453125 0l0 -1.265625l1.453125 0l0 -1.03125q0 -0.96875 0.171875 -1.453125q0.234375 -0.640625 0.828125 -1.03125q0.59375 -0.390625 1.671875 -0.390625q0.6875 0 1.53125 0.15625l-0.25 1.4375q-0.5 -0.09375 -0.953125 -0.09375q-0.75 0 -1.0625 0.328125q-0.3125 0.3125 -0.3125 1.1875l0 0.890625l1.890625 0l0 1.265625l-1.890625 0l0 8.40625l-1.625 0zm4.152054 -4.015625l0 -1.640625l5.03125 0l0 1.640625l-5.03125 0zm13.165802 0.46875l1.609375 0.21875q-0.265625 1.65625 -1.359375 2.609375q-1.078125 0.9375 -2.671875 0.9375q-1.984375 0 -3.1875 -1.296875q-1.203125 -1.296875 -1.203125 -3.71875q0 -1.578125 0.515625 -2.75q0.515625 -1.171875 1.578125 -1.75q1.0625 -0.59375 2.3125 -0.59375q1.578125 0 2.578125 0.796875q1.0 0.796875 1.28125 2.265625l-1.59375 0.234375q-0.234375 -0.96875 -0.8125 -1.453125q-0.578125 -0.5 -1.390625 -0.5q-1.234375 0 -2.015625 0.890625q-0.78125 0.890625 -0.78125 2.8125q0 1.953125 0.75 2.84375q0.75 0.875 1.953125 0.875q0.96875 0 1.609375 -0.59375q0.65625 -0.59375 0.828125 -1.828125zm3.015625 3.546875l0 -13.359375l1.640625 0l0 4.796875q1.140625 -1.328125 2.890625 -1.328125q1.078125 0 1.859375 0.421875q0.796875 0.421875 1.140625 1.171875q0.34375 0.75 0.34375 2.171875l0 6.125l-1.640625 0l0 -6.125q0 -1.234375 -0.53125 -1.796875q-0.53125 -0.5625 -1.515625 -0.5625q-0.71875 0 -1.359375 0.390625q-0.640625 0.375 -0.921875 1.015625q-0.265625 0.640625 -0.265625 1.78125l0 5.296875l-1.640625 0zm16.688217 -1.1875q-0.921875 0.765625 -1.765625 1.09375q-0.828125 0.3125 -1.796875 0.3125q-1.59375 0 -2.453125 -0.78125q-0.859375 -0.78125 -0.859375 -1.984375q0 -0.71875 0.328125 -1.296875q0.328125 -0.59375 0.84375 -0.9375q0.53125 -0.359375 1.1875 -0.546875q0.46875 -0.125 1.453125 -0.25q1.984375 -0.234375 2.921875 -0.5625q0.015625 -0.34375 0.015625 -0.421875q0 -1.0 -0.46875 -1.421875q-0.625 -0.546875 -1.875 -0.546875q-1.15625 0 -1.703125 0.40625q-0.546875 0.40625 -0.8125 1.421875l-1.609375 -0.21875q0.21875 -1.015625 0.71875 -1.640625q0.5 -0.640625 1.453125 -0.984375q0.953125 -0.34375 2.1875 -0.34375q1.25 0 2.015625 0.296875q0.78125 0.28125 1.140625 0.734375q0.375 0.4375 0.515625 1.109375q0.078125 0.421875 0.078125 1.515625l0 2.1875q0 2.28125 0.109375 2.890625q0.109375 0.59375 0.40625 1.15625l-1.703125 0q-0.265625 -0.515625 -0.328125 -1.1875zm-0.140625 -3.671875q-0.890625 0.375 -2.671875 0.625q-1.015625 0.140625 -1.4375 0.328125q-0.421875 0.1875 -0.65625 0.53125q-0.21875 0.34375 -0.21875 0.78125q0 0.65625 0.5 1.09375q0.5 0.4375 1.453125 0.4375q0.9375 0 1.671875 -0.40625q0.75 -0.421875 1.09375 -1.140625q0.265625 -0.5625 0.265625 -1.640625l0 -0.609375zm4.203842 -6.609375l0 -1.890625l1.640625 0l0 1.890625l-1.640625 0zm0 11.46875l0 -9.671875l1.640625 0l0 9.671875l-1.640625 0zm4.144821 0l0 -9.671875l1.46875 0l0 1.375q1.0625 -1.59375 3.078125 -1.59375q0.875 0 1.609375 0.3125q0.734375 0.3125 1.09375 0.828125q0.375 0.5 0.515625 1.203125q0.09375 0.453125 0.09375 1.59375l0 5.953125l-1.640625 0l0 -5.890625q0 -1.0 -0.203125 -1.484375q-0.1875 -0.5 -0.671875 -0.796875q-0.484375 -0.296875 -1.140625 -0.296875q-1.046875 0 -1.8125 0.671875q-0.75 0.65625 -0.75 2.515625l0 5.28125l-1.640625 0z" fill-rule="nonzero"/><path fill="#000000" fill-opacity="0.0" d="m245.67783 255.17323l98.17325 0l0 42.01573l-98.17325 0z" fill-rule="evenodd"/><path fill="#ffffff" d="m259.60733 277.24948q0 -2.6875 1.484375 -3.96875q1.25 -1.078125 3.046875 -1.078125q2.0 0 3.265625 1.3125q1.265625 1.296875 1.265625 3.609375q0 1.859375 -0.5625 2.9375q-0.5625 1.0625 -1.640625 1.65625q-1.0625 0.59375 -2.328125 0.59375q-2.03125 0 -3.28125 -1.296875q-1.25 -1.3125 -1.25 -3.765625zm1.6875 0q0 1.859375 0.796875 2.796875q0.8125 0.921875 2.046875 0.921875q1.21875 0 2.03125 -0.921875q0.8125 -0.9375 0.8125 -2.84375q0 -1.796875 -0.8125 -2.71875q-0.8125 -0.921875 -2.03125 -0.921875q-1.234375 0 -2.046875 0.921875q-0.796875 0.90625 -0.796875 2.765625zm9.297607 4.84375l0 -9.671875l1.46875 0l0 1.375q1.0625 -1.59375 3.078125 -1.59375q0.875 0 1.609375 0.3125q0.734375 0.3125 1.09375 0.828125q0.375 0.5 0.515625 1.203125q0.09375 0.453125 0.09375 1.59375l0 5.953125l-1.640625 0l0 -5.890625q0 -1.0 -0.203125 -1.484375q-0.1875 -0.5 -0.671875 -0.796875q-0.484375 -0.296875 -1.140625 -0.296875q-1.046875 0 -1.8125 0.671875q-0.75 0.65625 -0.75 2.515625l0 5.28125l-1.640625 0zm9.735077 -4.015625l0 -1.640625l5.03125 0l0 1.640625l-5.03125 0zm13.165802 0.46875l1.609375 0.21875q-0.265625 1.65625 -1.359375 2.609375q-1.078125 0.9375 -2.671875 0.9375q-1.984375 0 -3.1875 -1.296875q-1.203125 -1.296875 -1.203125 -3.71875q0 -1.578125 0.515625 -2.75q0.515625 -1.171875 1.578125 -1.75q1.0625 -0.59375 2.3125 -0.59375q1.578125 0 2.578125 0.796875q1.0 0.796875 1.28125 2.265625l-1.59375 0.234375q-0.234375 -0.96875 -0.8125 -1.453125q-0.578125 -0.5 -1.390625 -0.5q-1.234375 0 -2.015625 0.890625q-0.78125 0.890625 -0.78125 2.8125q0 1.953125 0.75 2.84375q0.75 0.875 1.953125 0.875q0.96875 0 1.609375 -0.59375q0.65625 -0.59375 0.828125 -1.828125zm3.015625 3.546875l0 -13.359375l1.640625 0l0 4.796875q1.140625 -1.328125 2.890625 -1.328125q1.078125 0 1.859375 0.421875q0.796875 0.421875 1.140625 1.171875q0.34375 0.75 0.34375 2.171875l0 6.125l-1.640625 0l0 -6.125q0 -1.234375 -0.53125 -1.796875q-0.53125 -0.5625 -1.515625 -0.5625q-0.71875 0 -1.359375 0.390625q-0.640625 0.375 -0.921875 1.015625q-0.265625 0.640625 -0.265625 1.78125l0 5.296875l-1.640625 0zm16.688232 -1.1875q-0.921875 0.765625 -1.765625 1.09375q-0.828125 0.3125 -1.796875 0.3125q-1.59375 0 -2.453125 -0.78125q-0.859375 -0.78125 -0.859375 -1.984375q0 -0.71875 0.328125 -1.296875q0.328125 -0.59375 0.84375 -0.9375q0.53125 -0.359375 1.1875 -0.546875q0.46875 -0.125 1.453125 -0.25q1.984375 -0.234375 2.921875 -0.5625q0.015625 -0.34375 0.015625 -0.421875q0 -1.0 -0.46875 -1.421875q-0.625 -0.546875 -1.875 -0.546875q-1.15625 0 -1.703125 0.40625q-0.546875 0.40625 -0.8125 1.421875l-1.609375 -0.21875q0.21875 -1.015625 0.71875 -1.640625q0.5 -0.640625 1.453125 -0.984375q0.953125 -0.34375 2.1875 -0.34375q1.25 0 2.015625 0.296875q0.78125 0.28125 1.140625 0.734375q0.375 0.4375 0.515625 1.109375q0.078125 0.421875 0.078125 1.515625l0 2.1875q0 2.28125 0.109375 2.890625q0.109375 0.59375 0.40625 1.15625l-1.703125 0q-0.265625 -0.515625 -0.328125 -1.1875zm-0.140625 -3.671875q-0.890625 0.375 -2.671875 0.625q-1.015625 0.140625 -1.4375 0.328125q-0.421875 0.1875 -0.65625 0.53125q-0.21875 0.34375 -0.21875 0.78125q0 0.65625 0.5 1.09375q0.5 0.4375 1.453125 0.4375q0.9375 0 1.671875 -0.40625q0.75 -0.421875 1.09375 -1.140625q0.265625 -0.5625 0.265625 -1.640625l0 -0.609375zm4.203827 -6.609375l0 -1.890625l1.640625 0l0 1.890625l-1.640625 0zm0 11.46875l0 -9.671875l1.640625 0l0 9.671875l-1.640625 0zm4.1448364 0l0 -9.671875l1.46875 0l0 1.375q1.0625 -1.59375 3.078125 -1.59375q0.875 0 1.609375 0.3125q0.734375 0.3125 1.09375 0.828125q0.375 0.5 0.515625 1.203125q0.09375 0.453125 0.09375 1.59375l0 5.953125l-1.640625 0l0 -5.890625q0 -1.0 -0.203125 -1.484375q-0.1875 -0.5 -0.671875 -0.796875q-0.484375 -0.296875 -1.140625 -0.296875q-1.046875 0 -1.8125 0.671875q-0.75 0.65625 -0.75 2.515625l0 5.28125l-1.640625 0z" fill-rule="nonzero"/><path fill="#000000" fill-opacity="0.0" d="m9.765759 25.370079c0 5.1749516 22.590233 9.370079 50.456696 9.370079c27.866459 0 50.45669 -4.1951275 50.45669 -9.370079l0 56.220474c0 5.1749496 -22.590233 9.370079 -50.45669 9.370079c-27.866463 0 -50.456696 -4.1951294 -50.456696 -9.370079z" fill-rule="evenodd"/><path fill="#000000" fill-opacity="0.0" d="m9.765759 25.370079c0 -5.1749516 22.590233 -9.370079 50.456696 -9.370079c27.866459 0 50.45669 4.1951275 50.45669 9.370079l0 0c0 5.1749516 -22.590233 9.370079 -50.45669 9.370079c-27.866463 0 -50.456696 -4.1951275 -50.456696 -9.370079z" fill-rule="evenodd"/><path fill="#000000" fill-opacity="0.0" d="m110.679146 25.370079l0 0c0 5.1749516 -22.590233 9.370079 -50.45669 9.370079c-27.866463 0 -50.456696 -4.1951275 -50.456696 -9.370079c0 -5.1749516 22.590233 -9.370079 50.456696 -9.370079c27.866459 0 50.45669 4.1951275 50.45669 9.370079l0 56.220474c0 5.1749496 -22.590233 9.370079 -50.45669 9.370079c-27.866463 0 -50.456696 -4.1951294 -50.456696 -9.370079l0 -56.220474" fill-rule="evenodd"/><path fill="#ffffff" fill-opacity="0.4" d="m9.765759 25.370079c0 -5.1749516 22.590233 -9.370079 50.456696 -9.370079c27.866459 0 50.45669 4.1951275 50.45669 9.370079l0 0c0 5.1749516 -22.590233 9.370079 -50.45669 9.370079c-27.866463 0 -50.456696 -4.1951275 -50.456696 -9.370079z" fill-rule="evenodd"/><path stroke="#ffffff" stroke-width="2.0" stroke-linejoin="round" stroke-linecap="butt" d="m110.679146 25.370079l0 0c0 5.1749516 -22.590233 9.370079 -50.45669 9.370079c-27.866463 0 -50.456696 -4.1951275 -50.456696 -9.370079c0 -5.1749516 22.590233 -9.370079 50.456696 -9.370079c27.866459 0 50.45669 4.1951275 50.45669 9.370079l0 56.220474c0 5.1749496 -22.590233 9.370079 -50.45669 9.370079c-27.866463 0 -50.456696 -4.1951294 -50.456696 -9.370079l0 -56.220474" fill-rule="evenodd"/><path fill="#ffffff" d="m32.232986 62.089104l0.1875 1.140625q-0.5468731 0.109375 -0.9843731 0.109375q-0.6875 0 -1.078125 -0.21875q-0.390625 -0.21875 -0.546875 -0.578125q-0.15625 -0.359375 -0.15625 -1.515625l0 -4.375l-0.953125 0l0 -1.0l0.953125 0l0 -1.890625l1.28125 -0.765625l0 2.65625l1.2968731 0l0 1.0l-1.2968731 0l0 4.4375q0 0.546875 0.0625 0.71875q0.078125 0.15625 0.21875 0.25q0.15625 0.078125 0.453125 0.078125q0.203125 0 0.5624981 -0.046875zm6.4626007 -1.296875l1.328125 0.171875q-0.3125 1.171875 -1.171875 1.8125q-0.84375 0.640625 -2.171875 0.640625q-1.671875 0 -2.65625 -1.015625q-0.96875 -1.03125 -0.96875 -2.890625q0 -1.921875 0.984375 -2.96875q1.0 -1.0625 2.578125 -1.0625q1.515625 0 2.484375 1.03125q0.96875 1.03125 0.96875 2.921875q0 0.109375 -0.015625 0.34375l-5.65625 0q0.0625 1.25 0.703125 1.921875q0.640625 0.65625 1.59375 0.65625q0.703125 0 1.203125 -0.359375q0.5 -0.375 0.796875 -1.203125zm-4.234375 -2.078125l4.25 0q-0.09375 -0.953125 -0.484375 -1.4375q-0.625 -0.75 -1.609375 -0.75q-0.875 0 -1.484375 0.59375q-0.609375 0.59375 -0.671875 1.59375zm7.182358 4.53125l0 -7.59375l1.15625 0l0 1.0625q0.34375 -0.5625 0.9375 -0.890625q0.609375 -0.34375 1.359375 -0.34375q0.84375 0 1.375 0.34375q0.546875 0.34375 0.765625 0.984375q0.90625 -1.328125 2.359375 -1.328125q1.125 0 1.734375 0.625q0.609375 0.625 0.609375 1.921875l0 5.21875l-1.28125 0l0 -4.78125q0 -0.78125 -0.125 -1.109375q-0.125 -0.34375 -0.453125 -0.546875q-0.328125 -0.21875 -0.78125 -0.21875q-0.796875 0 -1.328125 0.53125q-0.53125 0.53125 -0.53125 1.703125l0 4.421875l-1.28125 0l0 -4.9375q0 -0.859375 -0.3125 -1.28125q-0.3125 -0.4375 -1.03125 -0.4375q-0.546875 0 -1.015625 0.296875q-0.453125 0.28125 -0.671875 0.828125q-0.203125 0.546875 -0.203125 1.59375l0 3.9375l-1.28125 0zm12.208771 2.90625l0 -10.5l1.171875 0l0 0.984375q0.421875 -0.578125 0.9375 -0.859375q0.515625 -0.296875 1.265625 -0.296875q0.96875 0 1.71875 0.5q0.75 0.5 1.125 1.421875q0.375 0.90625 0.375 1.984375q0 1.171875 -0.421875 2.109375q-0.40625 0.921875 -1.21875 1.421875q-0.796875 0.5 -1.671875 0.5q-0.640625 0 -1.15625 -0.265625q-0.515625 -0.28125 -0.84375 -0.6875l0 3.6875l-1.28125 0zm1.15625 -6.65625q0 1.453125 0.59375 2.15625q0.609375 0.703125 1.453125 0.703125q0.859375 0 1.46875 -0.71875q0.609375 -0.734375 0.609375 -2.25q0 -1.453125 -0.609375 -2.171875q-0.59375 -0.734375 -1.421875 -0.734375q-0.8125 0 -1.453125 0.78125q-0.640625 0.765625 -0.640625 2.234375zm6.963608 3.75l0 -10.484375l1.28125 0l0 10.484375l-1.28125 0zm8.240524 -0.9375q-0.71875 0.609375 -1.375 0.859375q-0.65625 0.25 -1.421875 0.25q-1.25 0 -1.921875 -0.609375q-0.671875 -0.609375 -0.671875 -1.5625q0 -0.5625 0.25 -1.015625q0.25 -0.46875 0.65625 -0.75q0.421875 -0.28125 0.9375 -0.421875q0.375 -0.09375 1.140625 -0.1875q1.5625 -0.1875 2.296875 -0.453125q0.015625 -0.265625 0.015625 -0.328125q0 -0.796875 -0.375 -1.109375q-0.484375 -0.4375 -1.453125 -0.4375q-0.921875 0 -1.359375 0.328125q-0.421875 0.3125 -0.625 1.109375l-1.265625 -0.171875q0.171875 -0.796875 0.5625 -1.296875q0.390625 -0.5 1.140625 -0.765625q0.75 -0.265625 1.71875 -0.265625q0.984375 0 1.59375 0.234375q0.609375 0.21875 0.890625 0.5625q0.28125 0.34375 0.40625 0.875q0.0625 0.328125 0.0625 1.1875l0 1.71875q0 1.796875 0.078125 2.28125q0.078125 0.46875 0.328125 0.90625l-1.34375 0q-0.203125 -0.40625 -0.265625 -0.9375zm-0.109375 -2.875q-0.703125 0.28125 -2.09375 0.484375q-0.796875 0.109375 -1.125 0.265625q-0.328125 0.140625 -0.515625 0.421875q-0.171875 0.265625 -0.171875 0.59375q0 0.515625 0.390625 0.859375q0.390625 0.34375 1.140625 0.34375q0.734375 0 1.3125 -0.3125q0.59375 -0.328125 0.859375 -0.890625q0.203125 -0.4375 0.203125 -1.296875l0 -0.46875zm6.119858 2.65625l0.1875 1.140625q-0.546875 0.109375 -0.984375 0.109375q-0.6875 0 -1.078125 -0.21875q-0.390625 -0.21875 -0.546875 -0.578125q-0.15625 -0.359375 -0.15625 -1.515625l0 -4.375l-0.953125 0l0 -1.0l0.953125 0l0 -1.890625l1.28125 -0.765625l0 2.65625l1.296875 0l0 1.0l-1.296875 0l0 4.4375q0 0.546875 0.0625 0.71875q0.078125 0.15625 0.21875 0.25q0.15625 0.078125 0.453125 0.078125q0.203125 0 0.5625 -0.046875zm6.4626007 -1.296875l1.328125 0.171875q-0.3125 1.171875 -1.171875 1.8125q-0.84375 0.640625 -2.171875 0.640625q-1.671875 0 -2.65625 -1.015625q-0.96875 -1.03125 -0.96875 -2.890625q0 -1.921875 0.984375 -2.96875q1.0 -1.0625 2.578125 -1.0625q1.515625 0 2.484375 1.03125q0.96875 1.03125 0.96875 2.921875q0 0.109375 -0.015625 0.34375l-5.65625 0q0.0625 1.25 0.703125 1.921875q0.640625 0.65625 1.59375 0.65625q0.703125 0 1.203125 -0.359375q0.5 -0.375 0.796875 -1.203125zm-4.234375 -2.078125l4.25 0q-0.09375 -0.953125 -0.484375 -1.4375q-0.625 -0.75 -1.609375 -0.75q-0.875 0 -1.484375 0.59375q-0.609375 0.59375 -0.671875 1.59375zm6.666733 2.265625l1.265625 -0.203125q0.109375 0.765625 0.59375 1.171875q0.5 0.40625 1.375 0.40625q0.890625 0 1.3125 -0.359375q0.4375 -0.359375 0.4375 -0.84375q0 -0.4375 -0.375 -0.6875q-0.265625 -0.171875 -1.3125 -0.4375q-1.421875 -0.359375 -1.96875 -0.609375q-0.546875 -0.265625 -0.828125 -0.734375q-0.28125 -0.46875 -0.28125 -1.015625q0 -0.515625 0.21875 -0.9375q0.234375 -0.4375 0.640625 -0.734375q0.296875 -0.21875 0.8125 -0.359375q0.53125 -0.15625 1.125 -0.15625q0.890625 0 1.5625 0.265625q0.671875 0.25 1.0 0.6875q0.328125 0.4375 0.4375 1.171875l-1.25 0.171875q-0.09375 -0.578125 -0.5 -0.90625q-0.40625 -0.34375 -1.15625 -0.34375q-0.890625 0 -1.28125 0.296875q-0.375 0.296875 -0.375 0.6875q0 0.25 0.15625 0.453125q0.15625 0.203125 0.5 0.34375q0.1875 0.078125 1.140625 0.328125q1.359375 0.359375 1.890625 0.59375q0.546875 0.234375 0.859375 0.6875q0.3125 0.4375 0.3125 1.09375q0 0.640625 -0.375 1.21875q-0.375 0.5625 -1.09375 0.875q-0.703125 0.3125 -1.59375 0.3125q-1.484375 0 -2.265625 -0.609375q-0.765625 -0.625 -0.984375 -1.828125z" fill-rule="nonzero"/><path fill="#000000" fill-opacity="0.0" d="m60.222454 90.96063l0 42.330704" fill-rule="evenodd"/><path stroke="#ffffff" stroke-width="2.0" stroke-linejoin="round" stroke-linecap="butt" d="m60.22245 90.96063l0 30.330704" fill-rule="evenodd"/><path fill="#ffffff" stroke="#ffffff" stroke-width="2.0" stroke-linecap="butt" d="m56.918987 121.291336l3.303463 9.076202l3.3034668 -9.076202z" fill-rule="evenodd"/></g></svg>