<svg version="1.1" viewBox="0.0 0.0 462.54068241469815 233.86614173228347" fill="none" stroke="none" stroke-linecap="square" stroke-miterlimit="10" xmlns:xlink="http://www.w3.org/1999/xlink" xmlns="http://www.w3.org/2000/svg"><clipPath id="p.0"><path d="m0 0l462.54068 0l0 233.86613l-462.54068 0l0 -233.86613z" clip-rule="nonzero"/></clipPath><g clip-path="url(#p.0)"><path fill="#000000" fill-opacity="0.0" d="m0 0l462.54068 0l0 233.86613l-462.54068 0z" fill-rule="evenodd"/><path fill="#000000" fill-opacity="0.0" d="m110.44357 41.671917l0 0c0 -10.289022 8.340897 -18.629923 18.629913 -18.629923l0 0c4.9409637 0 9.679565 1.9627895 13.173355 5.456579c3.4937744 3.4937878 5.4565735 8.23238 5.4565735 13.173344l0 0c0 10.289021 -8.340897 18.629921 -18.629929 18.629921l0 0c-10.289017 0 -18.629913 -8.3409 -18.629913 -18.629921z" fill-rule="evenodd"/><path stroke="#ffffff" stroke-width="2.0" stroke-linejoin="round" stroke-linecap="butt" d="m110.44357 41.671917l0 0c0 -10.289022 8.340897 -18.629923 18.629913 -18.629923l0 0c4.9409637 0 9.679565 1.9627895 13.173355 5.456579c3.4937744 3.4937878 5.4565735 8.23238 5.4565735 13.173344l0 0c0 10.289021 -8.340897 18.629921 -18.629929 18.629921l0 0c-10.289017 0 -18.629913 -8.3409 -18.629913 -18.629921z" fill-rule="evenodd"/><path fill="#000000" fill-opacity="0.0" d="m115.43569 41.671917l0 0c0 -7.531948 6.10585 -13.637796 13.6377945 -13.637796l0 0c3.6169739 0 7.0858 1.4368343 9.643387 3.9944172c2.5575714 2.5575829 3.9944153 6.026409 3.9944153 9.643379l0 0c0 7.5319443 -6.10585 13.6377945 -13.637802 13.6377945l0 0c-7.5319443 0 -13.6377945 -6.10585 -13.6377945 -13.6377945z" fill-rule="evenodd"/><path stroke="#ffffff" stroke-width="2.0" stroke-linejoin="round" stroke-linecap="butt" d="m115.43569 41.671917l0 0c0 -7.531948 6.10585 -13.637796 13.6377945 -13.637796l0 0c3.6169739 0 7.0858 1.4368343 9.643387 3.9944172c2.5575714 2.5575829 3.9944153 6.026409 3.9944153 9.643379l0 0c0 7.5319443 -6.10585 13.6377945 -13.637802 13.6377945l0 0c-7.5319443 0 -13.6377945 -6.10585 -13.6377945 -13.6377945z" fill-rule="evenodd"/><path fill="#000000" fill-opacity="0.0" d="m115.43569 127.67191l0 0c0 -7.5319443 6.10585 -13.6377945 13.6377945 -13.6377945l0 0c3.6169739 0 7.0858 1.4368362 9.643387 3.994423c2.5575714 2.557579 3.9944153 6.0264053 3.9944153 9.643372l0 0c0 7.5319443 -6.10585 13.6377945 -13.637802 13.6377945l0 0c-7.5319443 0 -13.6377945 -6.10585 -13.6377945 -13.6377945z" fill-rule="evenodd"/><path stroke="#ffffff" stroke-width="2.0" stroke-linejoin="round" stroke-linecap="butt" d="m115.43569 127.67191l0 0c0 -7.5319443 6.10585 -13.6377945 13.6377945 -13.6377945l0 0c3.6169739 0 7.0858 1.4368362 9.643387 3.994423c2.5575714 2.557579 3.9944153 6.0264053 3.9944153 9.643372l0 0c0 7.5319443 -6.10585 13.6377945 -13.637802 13.6377945l0 0c-7.5319443 0 -13.6377945 -6.10585 -13.6377945 -13.6377945z" fill-rule="evenodd"/><path fill="#000000" fill-opacity="0.0" d="m115.43569 213.67192l0 0c0 -7.531952 6.10585 -13.637802 13.6377945 -13.637802l0 0c3.6169739 0 7.0858 1.4368439 9.643387 3.9944153c2.5575714 2.5575867 3.9944153 6.026413 3.9944153 9.643387l0 0c0 7.5319366 -6.10585 13.637787 -13.637802 13.637787l0 0c-7.5319443 0 -13.6377945 -6.10585 -13.6377945 -13.637787z" fill-rule="evenodd"/><path stroke="#ffffff" stroke-width="2.0" stroke-linejoin="round" stroke-linecap="butt" d="m115.43569 213.67192l0 0c0 -7.531952 6.10585 -13.637802 13.6377945 -13.637802l0 0c3.6169739 0 7.0858 1.4368439 9.643387 3.9944153c2.5575714 2.5575867 3.9944153 6.026413 3.9944153 9.643387l0 0c0 7.5319366 -6.10585 13.637787 -13.637802 13.637787l0 0c-7.5319443 0 -13.6377945 -6.10585 -13.6377945 -13.637787z" fill-rule="evenodd"/><path fill="#000000" fill-opacity="0.0" d="m315.07086 127.67191l0 0c0 -7.5319443 6.1058655 -13.6377945 13.637787 -13.6377945l0 0c3.6169739 0 7.0858154 1.4368362 9.643402 3.994423c2.5575562 2.557579 3.9944153 6.0264053 3.9944153 9.643372l0 0c0 7.5319443 -6.1058655 13.6377945 -13.637817 13.6377945l0 0c-7.5319214 0 -13.637787 -6.10585 -13.637787 -13.6377945z" fill-rule="evenodd"/><path stroke="#ffffff" stroke-width="2.0" stroke-linejoin="round" stroke-linecap="butt" d="m315.07086 127.67191l0 0c0 -7.5319443 6.1058655 -13.6377945 13.637787 -13.6377945l0 0c3.6169739 0 7.0858154 1.4368362 9.643402 3.994423c2.5575562 2.557579 3.9944153 6.0264053 3.9944153 9.643372l0 0c0 7.5319443 -6.1058655 13.6377945 -13.637817 13.6377945l0 0c-7.5319214 0 -13.637787 -6.10585 -13.637787 -13.6377945z" fill-rule="evenodd"/><path fill="#000000" fill-opacity="0.0" d="m129.07349 55.30971l0 58.740154" fill-rule="evenodd"/><path stroke="#ffffff" stroke-width="2.0" stroke-linejoin="round" stroke-linecap="butt" d="m129.07349 55.30971l0 46.740154" fill-rule="evenodd"/><path fill="#ffffff" stroke="#ffffff" stroke-width="2.0" stroke-linecap="butt" d="m125.77003 102.049866l3.3034592 9.076195l3.3034668 -9.076195z" fill-rule="evenodd"/><path fill="#000000" fill-opacity="0.0" d="m129.07349 141.30971l0 58.740158" fill-rule="evenodd"/><path stroke="#ffffff" stroke-width="2.0" stroke-linejoin="round" stroke-linecap="butt" d="m129.07349 141.30971l0 46.740158" fill-rule="evenodd"/><path fill="#ffffff" stroke="#ffffff" stroke-width="2.0" stroke-linecap="butt" d="m125.77003 188.04987l3.3034592 9.076202l3.3034668 -9.076202z" fill-rule="evenodd"/><path fill="#000000" fill-opacity="0.0" d="m142.71129 127.67191l172.34645 0" fill-rule="evenodd"/><path stroke="#ffffff" stroke-width="2.0" stroke-linejoin="round" stroke-linecap="butt" d="m142.71129 127.67191l160.34645 0" fill-rule="evenodd"/><path fill="#ffffff" stroke="#ffffff" stroke-width="2.0" stroke-linecap="butt" d="m303.05774 130.97539l9.076202 -3.3034744l-9.076202 -3.3034592z" fill-rule="evenodd"/><path fill="#000000" fill-opacity="0.0" d="m19.538057 23.08924l85.44882 0l0 37.16535l-85.44882 0z" fill-rule="evenodd"/><path fill="#000000" fill-opacity="0.0" d="m34.059208 35.284397l56.40652 0l0 17.16098l-56.40652 0l0 -17.16098z" fill-rule="nonzero"/><path fill="#ffffff" d="m41.184208 45.82549q-1.125 0.453125 -2.359375 0.453125q-1.984375 0 -3.046875 -1.171875q-1.0625 -1.1875 -1.0625 -3.515625q0 -1.125 0.296875 -2.03125q0.296875 -0.90625 0.828125 -1.53125q0.546875 -0.640625 1.3125 -0.984375q0.78125 -0.34375 1.75 -0.34375q0.640625 0 1.203125 0.109375q0.5625 0.109375 1.078125 0.34375l0 1.25q-0.515625 -0.28125 -1.0625 -0.421875q-0.53125 -0.15625 -1.1875 -0.15625q-0.65625 0 -1.1875 0.25q-0.53125 0.25 -0.90625 0.71875q-0.375 0.46875 -0.578125 1.15625q-0.1875 0.671875 -0.1875 1.53125q0 1.8125 0.734375 2.75q0.734375 0.921875 2.15625 0.921875q0.609375 0 1.15625 -0.140625q0.546875 -0.140625 1.0625 -0.390625l0 1.203125zm2.370575 -6.84375l1.140625 0l0.03125 1.328125q0.640625 -0.765625 1.25 -1.109375q0.625 -0.34375 1.25 -0.34375q1.125 0 1.703125 0.71875q0.578125 0.71875 0.53125 2.15625l-1.265625 0q0.03125 -0.953125 -0.265625 -1.375q-0.296875 -0.421875 -0.875 -0.421875q-0.25 0 -0.515625 0.09375q-0.25 0.078125 -0.515625 0.28125q-0.265625 0.1875 -0.5625 0.5q-0.296875 0.3125 -0.640625 0.75l0 4.609375l-1.265625 0l0 -7.1875zm13.839325 3.21875q0 0.265625 -0.015625 0.453125q0 0.171875 -0.015625 0.328125l-5.046875 0q0 1.09375 0.609375 1.6875q0.625 0.59375 1.78125 0.59375q0.3125 0 0.625 -0.015625q0.3125 -0.03125 0.609375 -0.078125q0.296875 -0.046875 0.5625 -0.09375q0.265625 -0.0625 0.5 -0.125l0 1.03125q-0.515625 0.140625 -1.15625 0.21875q-0.640625 0.09375 -1.328125 0.09375q-0.921875 0 -1.59375 -0.25q-0.65625 -0.25 -1.078125 -0.71875q-0.421875 -0.484375 -0.625 -1.171875q-0.203125 -0.6875 -0.203125 -1.5625q0 -0.765625 0.21875 -1.4375q0.21875 -0.671875 0.625 -1.1875q0.421875 -0.515625 1.03125 -0.8125q0.609375 -0.296875 1.375 -0.296875q0.765625 0 1.34375 0.234375q0.578125 0.234375 0.96875 0.671875q0.40625 0.4375 0.609375 1.0625q0.203125 0.609375 0.203125 1.375zm-1.296875 -0.1875q0.015625 -0.46875 -0.109375 -0.859375q-0.109375 -0.40625 -0.34375 -0.6875q-0.234375 -0.296875 -0.59375 -0.453125q-0.359375 -0.15625 -0.828125 -0.15625q-0.40625 0 -0.75 0.15625q-0.328125 0.15625 -0.578125 0.4375q-0.25 0.28125 -0.40625 0.6875q-0.140625 0.40625 -0.171875 0.875l3.78125 0zm7.901825 4.15625l-0.03125 -0.96875q-0.59375 0.578125 -1.203125 0.84375q-0.59375 0.25 -1.265625 0.25q-0.609375 0 -1.046875 -0.15625q-0.4375 -0.15625 -0.71875 -0.421875q-0.28125 -0.28125 -0.421875 -0.65625q-0.125 -0.375 -0.125 -0.8125q0 -1.078125 0.796875 -1.6875q0.8125 -0.609375 2.390625 -0.609375l1.484375 0l0 -0.640625q0 -0.625 -0.40625 -1.0q-0.40625 -0.390625 -1.25 -0.390625q-0.609375 0 -1.203125 0.140625q-0.578125 0.125 -1.21875 0.375l0 -1.125q0.25 -0.078125 0.53125 -0.15625q0.296875 -0.09375 0.609375 -0.15625q0.328125 -0.0625 0.671875 -0.09375q0.359375 -0.046875 0.71875 -0.046875q0.640625 0 1.15625 0.140625q0.53125 0.140625 0.8906212 0.4375q0.359375 0.296875 0.546875 0.75q0.203125 0.4375 0.203125 1.03125l0 4.953125l-1.1093712 0zm-0.140625 -3.265625l-1.578125 0q-0.46875 0 -0.8125 0.09375q-0.328125 0.09375 -0.546875 0.265625q-0.21875 0.171875 -0.328125 0.40625q-0.09375 0.234375 -0.09375 0.546875q0 0.203125 0.0625 0.390625q0.0625 0.1875 0.203125 0.34375q0.15625 0.140625 0.375 0.234375q0.234375 0.078125 0.5625 0.078125q0.4375 0 0.984375 -0.265625q0.5625 -0.265625 1.171875 -0.828125l0 -1.265625zm9.370571 3.171875q-0.421875 0.09375 -0.875 0.140625q-0.453125 0.046875 -0.921875 0.046875q-1.34375 0 -2.015625 -0.609375q-0.65625 -0.609375 -0.65625 -1.875l0 -3.75l-2.015625 0l0 -1.046875l2.015625 0l0 -1.96875l1.234375 -0.328125l0 2.296875l3.234375 0l0 1.046875l-3.234375 0l0 3.65625q0 0.765625 0.40625 1.15625q0.421875 0.375 1.21875 0.375q0.34375 0 0.75 -0.046875q0.40625 -0.0625 0.859375 -0.171875l0 1.078125zm8.339325 -3.875q0 0.265625 -0.015625 0.453125q0 0.171875 -0.015625 0.328125l-5.046875 0q0 1.09375 0.609375 1.6875q0.625 0.59375 1.78125 0.59375q0.3125 0 0.625 -0.015625q0.3125 -0.03125 0.609375 -0.078125q0.296875 -0.046875 0.5625 -0.09375q0.265625 -0.0625 0.5 -0.125l0 1.03125q-0.515625 0.140625 -1.15625 0.21875q-0.640625 0.09375 -1.328125 0.09375q-0.921875 0 -1.59375 -0.25q-0.65625 -0.25 -1.078125 -0.71875q-0.421875 -0.484375 -0.625 -1.171875q-0.203125 -0.6875 -0.203125 -1.5625q0 -0.765625 0.21875 -1.4375q0.21875 -0.671875 0.625 -1.1875q0.421875 -0.515625 1.03125 -0.8125q0.609375 -0.296875 1.375 -0.296875q0.765625 0 1.34375 0.234375q0.578125 0.234375 0.96875 0.671875q0.40625 0.4375 0.609375 1.0625q0.203125 0.609375 0.203125 1.375zm-1.296875 -0.1875q0.015625 -0.46875 -0.109375 -0.859375q-0.109375 -0.40625 -0.34375 -0.6875q-0.234375 -0.296875 -0.59375 -0.453125q-0.359375 -0.15625 -0.828125 -0.15625q-0.40625 0 -0.75 0.15625q-0.328125 0.15625 -0.578125 0.4375q-0.25 0.28125 -0.40625 0.6875q-0.140625 0.40625 -0.171875 0.875l3.78125 0zm2.91745 0.71875q0 -0.921875 0.25 -1.625q0.25 -0.71875 0.703125 -1.203125q0.46875 -0.5 1.109375 -0.75q0.65625 -0.25 1.453125 -0.25q0.34375 0 0.671875 0.046875q0.328125 0.03125 0.65625 0.125l0 -3.015625l1.25 0l0 10.109375l-1.109375 0l-0.046875 -1.359375q-0.515625 0.765625 -1.125 1.125q-0.609375 0.359375 -1.328125 0.359375q-0.609375 0 -1.078125 -0.25q-0.46875 -0.265625 -0.78125 -0.734375q-0.3125 -0.46875 -0.46875 -1.125q-0.15625 -0.65625 -0.15625 -1.453125zm1.265625 -0.078125q0 1.296875 0.375 1.9375q0.390625 0.640625 1.09375 0.640625q0.484375 0 1.0 -0.421875q0.53125 -0.421875 1.109375 -1.25l0 -3.34375q-0.3125 -0.140625 -0.6875 -0.203125q-0.359375 -0.078125 -0.734375 -0.078125q-1.015625 0 -1.59375 0.65625q-0.5625 0.65625 -0.5625 2.0625z" fill-rule="nonzero"/><path fill="#000000" fill-opacity="0.0" d="m90.46573 35.284397l0 0l0 17.16098l0 0l0 -17.16098z" fill-rule="nonzero"/><path fill="#ffffff" d="m34.059208 47.122574l56.40652 0l0 1.3199997l-56.40652 0l0 -1.3199997z" fill-rule="nonzero"/><path fill="#000000" fill-opacity="0.0" d="m24.994751 109.08924l85.44882 0l0 37.16535l-85.44882 0z" fill-rule="evenodd"/><path fill="#000000" fill-opacity="0.0" d="m43.544937 121.28439l48.34845 0l0 17.16098l-48.34845 0l0 -17.16098z" fill-rule="nonzero"/><path fill="#ffffff" d="m50.685562 129.63799q0 0.65625 -0.28125 1.171875q-0.265625 0.5 -0.75 0.828125q-0.484375 0.328125 -1.171875 0.5q-0.6875 0.15625 -1.515625 0.15625q-0.359375 0 -0.734375 -0.03125q-0.375 -0.015625 -0.71875 -0.0625q-0.328125 -0.046875 -0.640625 -0.09375q-0.296875 -0.0625 -0.53125 -0.125l0 -1.234375q0.53125 0.203125 1.203125 0.3125q0.671875 0.109375 1.515625 0.109375q0.625 0 1.046875 -0.09375q0.4375 -0.09375 0.703125 -0.28125q0.28125 -0.1875 0.40625 -0.453125q0.125 -0.28125 0.125 -0.640625q0 -0.375 -0.21875 -0.640625q-0.203125 -0.265625 -0.546875 -0.46875q-0.34375 -0.21875 -0.78125 -0.390625q-0.4375 -0.1875 -0.90625 -0.359375q-0.453125 -0.1875 -0.890625 -0.40625q-0.4375 -0.21875 -0.78125 -0.515625q-0.34375 -0.296875 -0.5625 -0.703125q-0.203125 -0.40625 -0.203125 -0.953125q0 -0.484375 0.203125 -0.9375q0.203125 -0.46875 0.625 -0.828125q0.421875 -0.359375 1.078125 -0.578125q0.671875 -0.234375 1.578125 -0.234375q0.234375 0 0.515625 0.03125q0.28125 0.015625 0.5625 0.0625q0.28125 0.03125 0.546875 0.078125q0.28125 0.046875 0.515625 0.109375l0 1.140625q-0.546875 -0.15625 -1.109375 -0.234375q-0.546875 -0.078125 -1.0625 -0.078125q-1.09375 0 -1.609375 0.359375q-0.515625 0.359375 -0.515625 0.984375q0 0.375 0.203125 0.65625q0.21875 0.265625 0.5625 0.484375q0.34375 0.203125 0.78125 0.390625q0.453125 0.171875 0.90625 0.359375q0.453125 0.1875 0.890625 0.40625q0.453125 0.21875 0.796875 0.53125q0.34375 0.296875 0.546875 0.703125q0.21875 0.40625 0.21875 0.96875zm4.5112 -3.625l-2.125 0l0 -1.03125l3.390625 0l0 6.15625l2.125 0l0 1.03125l-5.75 0l0 -1.03125l2.359375 0l0 -5.125zm0.4375 -4.046875q0.203125 0 0.375 0.078125q0.1875 0.078125 0.3125 0.21875q0.140625 0.125 0.21875 0.3125q0.078125 0.171875 0.078125 0.375q0 0.203125 -0.078125 0.390625q-0.078125 0.171875 -0.21875 0.3125q-0.125 0.125 -0.3125 0.203125q-0.171875 0.078125 -0.375 0.078125q-0.203125 0 -0.390625 -0.078125q-0.171875 -0.078125 -0.3125 -0.203125q-0.125 -0.140625 -0.203125 -0.3125q-0.078125 -0.1875 -0.078125 -0.390625q0 -0.203125 0.078125 -0.375q0.078125 -0.1875 0.203125 -0.3125q0.140625 -0.140625 0.3125 -0.21875q0.1875 -0.078125 0.390625 -0.078125zm10.339325 4.03125q0.203125 0.25 0.3125 0.59375q0.109375 0.328125 0.109375 0.71875q0 0.546875 -0.203125 1.015625q-0.203125 0.453125 -0.578125 0.78125q-0.359375 0.328125 -0.890625 0.515625q-0.515625 0.1875 -1.140625 0.1875q-0.4375 0 -0.84375 -0.09375q-0.390625 -0.109375 -0.609375 -0.25q-0.140625 0.203125 -0.234375 0.390625q-0.09375 0.171875 -0.09375 0.390625q0 0.28125 0.25 0.46875q0.265625 0.171875 0.703125 0.171875l1.890625 0.078125q0.53125 0.015625 0.984375 0.140625q0.453125 0.125 0.78125 0.359375q0.328125 0.21875 0.5 0.5625q0.1875 0.328125 0.1875 0.765625q0 0.484375 -0.203125 0.90625q-0.203125 0.4375 -0.640625 0.765625q-0.4375 0.328125 -1.109375 0.515625q-0.65625 0.1875 -1.5625 0.1875q-0.875 0 -1.5 -0.140625q-0.609375 -0.125 -1.0 -0.375q-0.390625 -0.25 -0.578125 -0.59375q-0.171875 -0.34375 -0.171875 -0.75q0 -0.515625 0.234375 -0.921875q0.25 -0.390625 0.765625 -0.75q-0.1875 -0.078125 -0.328125 -0.203125q-0.140625 -0.140625 -0.234375 -0.296875q-0.078125 -0.15625 -0.125 -0.328125q-0.03125 -0.171875 -0.03125 -0.328125q0 -0.46875 0.21875 -0.84375q0.21875 -0.390625 0.515625 -0.734375q-0.140625 -0.171875 -0.25 -0.328125q-0.09375 -0.15625 -0.171875 -0.328125q-0.078125 -0.1875 -0.125 -0.390625q-0.03125 -0.21875 -0.03125 -0.5q0 -0.5625 0.203125 -1.015625q0.21875 -0.46875 0.578125 -0.796875q0.375 -0.328125 0.890625 -0.5q0.515625 -0.1875 1.140625 -0.1875q0.265625 0 0.515625 0.03125q0.25 0.03125 0.421875 0.09375l2.609375 0l0 1.015625l-1.15625 0zm-4.3125 7.203125q0 0.515625 0.53125 0.75q0.53125 0.234375 1.46875 0.234375q0.59375 0 1.0 -0.109375q0.40625 -0.109375 0.640625 -0.28125q0.25 -0.171875 0.359375 -0.40625q0.109375 -0.21875 0.109375 -0.453125q0 -0.4375 -0.359375 -0.65625q-0.359375 -0.203125 -1.09375 -0.234375l-1.875 -0.0625q-0.234375 0.15625 -0.390625 0.296875q-0.15625 0.15625 -0.25 0.3125q-0.078125 0.15625 -0.109375 0.296875q-0.03125 0.15625 -0.03125 0.3125zm0.375 -5.875q0 0.34375 0.109375 0.640625q0.125 0.28125 0.328125 0.484375q0.203125 0.203125 0.484375 0.3125q0.28125 0.109375 0.625 0.109375q0.375 0 0.65625 -0.125q0.296875 -0.125 0.5 -0.34375q0.203125 -0.21875 0.296875 -0.484375q0.109375 -0.28125 0.109375 -0.59375q0 -0.34375 -0.125 -0.625q-0.109375 -0.28125 -0.3125 -0.484375q-0.203125 -0.203125 -0.5 -0.3125q-0.28125 -0.109375 -0.625 -0.109375q-0.359375 0 -0.65625 0.125q-0.28125 0.125 -0.484375 0.34375q-0.203125 0.203125 -0.3125 0.484375q-0.09375 0.28125 -0.09375 0.578125zm6.8237 -2.34375l1.109375 0l0.046875 1.15625q0.328125 -0.359375 0.609375 -0.609375q0.296875 -0.25 0.578125 -0.390625q0.28125 -0.15625 0.578125 -0.21875q0.296875 -0.0625 0.609375 -0.0625q1.109375 0 1.671875 0.65625q0.578125 0.65625 0.578125 1.96875l0 4.6875l-1.25 0l0 -4.59375q0 -0.84375 -0.3125 -1.234375q-0.3125 -0.40625 -0.9375 -0.40625q-0.234375 0 -0.453125 0.0625q-0.21875 0.0625 -0.453125 0.234375q-0.234375 0.171875 -0.515625 0.453125q-0.265625 0.28125 -0.609375 0.71875l0 4.765625l-1.25 0l0 -7.1875zm14.1362 3.21875q0 0.265625 -0.015625 0.453125q0 0.171875 -0.015625 0.328125l-5.046875 0q0 1.09375 0.609375 1.6875q0.625 0.59375 1.78125 0.59375q0.3125 0 0.625 -0.015625q0.3125 -0.03125 0.609375 -0.078125q0.296875 -0.046875 0.5625 -0.09375q0.265625 -0.0625 0.5 -0.125l0 1.03125q-0.515625 0.140625 -1.15625 0.21875q-0.640625 0.09375 -1.328125 0.09375q-0.921875 0 -1.59375 -0.25q-0.65625 -0.25 -1.078125 -0.71875q-0.421875 -0.484375 -0.625 -1.171875q-0.203125 -0.6875 -0.203125 -1.5625q0 -0.765625 0.21875 -1.4375q0.21875 -0.671875 0.625 -1.1875q0.421875 -0.515625 1.03125 -0.8125q0.609375 -0.296875 1.375 -0.296875q0.765625 0 1.34375 0.234375q0.578125 0.234375 0.96875 0.671875q0.40625 0.4375 0.609375 1.0625q0.203125 0.609375 0.203125 1.375zm-1.296875 -0.1875q0.015625 -0.46875 -0.109375 -0.859375q-0.109375 -0.40625 -0.34375 -0.6875q-0.234375 -0.296875 -0.59375 -0.453125q-0.359375 -0.15625 -0.828125 -0.15625q-0.40625 0 -0.75 0.15625q-0.328125 0.15625 -0.578125 0.4375q-0.25 0.28125 -0.40625 0.6875q-0.140625 0.40625 -0.171875 0.875l3.78125 0zm2.91745 0.71875q0 -0.921875 0.25 -1.625q0.25 -0.71875 0.703125 -1.203125q0.46875 -0.5 1.109375 -0.75q0.65625 -0.25 1.453125 -0.25q0.34375 0 0.671875 0.046875q0.328125 0.03125 0.65625 0.125l0 -3.015625l1.25 0l0 10.109375l-1.109375 0l-0.046875 -1.359375q-0.515625 0.765625 -1.125 1.125q-0.609375 0.359375 -1.328125 0.359375q-0.609375 0 -1.078125 -0.25q-0.46875 -0.265625 -0.78125 -0.734375q-0.3125 -0.46875 -0.46875 -1.125q-0.15625 -0.65625 -0.15625 -1.453125zm1.265625 -0.078125q0 1.296875 0.375 1.9375q0.390625 0.640625 1.09375 0.640625q0.484375 0 1.0 -0.421875q0.53125 -0.421875 1.109375 -1.25l0 -3.34375q-0.3125 -0.140625 -0.6875 -0.203125q-0.359375 -0.078125 -0.734375 -0.078125q-1.015625 0 -1.59375 0.65625q-0.5625 0.65625 -0.5625 2.0625z" fill-rule="nonzero"/><path fill="#000000" fill-opacity="0.0" d="m91.89339 121.28439l0 0l0 17.16098l0 0l0 -17.16098z" fill-rule="nonzero"/><path fill="#ffffff" d="m43.544937 133.12257l48.34845 0l0 1.3199921l-48.34845 0l0 -1.3199921z" fill-rule="nonzero"/><path fill="#000000" fill-opacity="0.0" d="m3.1732283 195.04199l107.2756 0l0 37.16536l-107.2756 0z" fill-rule="evenodd"/><path fill="#000000" fill-opacity="0.0" d="m16.520649 207.23715l80.58075 0l0 17.16098l-80.58075 0l0 -17.16098z" fill-rule="nonzero"/><path fill="#ffffff" d="m23.958149 209.85637l-2.765625 0l0 8.265625l-1.28125 0l0 -8.265625l-2.78125 0l0 -1.09375l6.828125 0l0 1.09375zm7.839325 4.296875q0 0.265625 -0.015625 0.453125q0 0.171875 -0.015625 0.328125l-5.046875 0q0 1.09375 0.609375 1.6875q0.625 0.59375 1.78125 0.59375q0.3125 0 0.625 -0.015625q0.3125 -0.03125 0.609375 -0.078125q0.296875 -0.046875 0.5625 -0.09375q0.265625 -0.0625 0.5 -0.125l0 1.03125q-0.515625 0.140625 -1.15625 0.21875q-0.640625 0.09375 -1.328125 0.09375q-0.921875 0 -1.59375 -0.25q-0.65625 -0.25 -1.078125 -0.71875q-0.421875 -0.484375 -0.625 -1.171875q-0.203125 -0.6875 -0.203125 -1.5625q0 -0.765625 0.21875 -1.4375q0.21875 -0.671875 0.625 -1.1875q0.421875 -0.515625 1.03125 -0.8125q0.609375 -0.296875 1.375 -0.296875q0.765625 0 1.34375 0.234375q0.578125 0.234375 0.96875 0.671875q0.40625 0.4375 0.609375 1.0625q0.203125 0.609375 0.203125 1.375zm-1.296875 -0.1875q0.015625 -0.46875 -0.109375 -0.859375q-0.109375 -0.40625 -0.34375 -0.6875q-0.234375 -0.296875 -0.59375 -0.453125q-0.359375 -0.15625 -0.828125 -0.15625q-0.40625 0 -0.75 0.15625q-0.328125 0.15625 -0.578125 0.4375q-0.25 0.28125 -0.40625 0.6875q-0.140625 0.40625 -0.171875 0.875l3.78125 0zm3.5737 -3.03125l1.140625 0l0.03125 1.328125q0.640625 -0.765625 1.25 -1.109375q0.625 -0.34375 1.25 -0.34375q1.125 0 1.703125 0.71875q0.578125 0.71875 0.53125 2.15625l-1.265625 0q0.03125 -0.953125 -0.265625 -1.375q-0.296875 -0.421875 -0.875 -0.421875q-0.25 0 -0.515625 0.09375q-0.25 0.078125 -0.515625 0.28125q-0.265625 0.1875 -0.5625 0.5q-0.296875 0.3125 -0.640625 0.75l0 4.609375l-1.265625 0l0 -7.1875zm12.8862 7.1875l0 -5.15625q0 -0.34375 -0.03125 -0.546875q-0.015625 -0.21875 -0.078125 -0.34375q-0.046875 -0.125 -0.125 -0.171875q-0.078125 -0.0625 -0.203125 -0.0625q-0.140625 0 -0.265625 0.09375q-0.125 0.078125 -0.265625 0.28125q-0.140625 0.1875 -0.3125 0.515625q-0.15625 0.3125 -0.390625 0.78125l0 4.609375l-1.140625 0l0 -5.03125q0 -0.390625 -0.03125 -0.625q-0.015625 -0.25 -0.078125 -0.375q-0.046875 -0.140625 -0.140625 -0.1875q-0.078125 -0.0625 -0.203125 -0.0625q-0.125 0 -0.25 0.078125q-0.109375 0.0625 -0.25 0.25q-0.125 0.1875 -0.296875 0.515625q-0.171875 0.328125 -0.40625 0.828125l0 4.609375l-1.15625 0l0 -7.1875l0.953125 0l0.0625 1.375q0.1875 -0.40625 0.359375 -0.6875q0.171875 -0.296875 0.359375 -0.46875q0.1875 -0.1875 0.390625 -0.265625q0.21875 -0.078125 0.46875 -0.078125q0.59375 0 0.890625 0.375q0.296875 0.375 0.296875 1.171875q0.171875 -0.375 0.328125 -0.65625q0.171875 -0.296875 0.359375 -0.484375q0.1875 -0.203125 0.421875 -0.296875q0.234375 -0.109375 0.53125 -0.109375q1.34375 0 1.34375 2.078125l0 5.234375l-1.140625 0zm5.3862 -6.15625l-2.125 0l0 -1.03125l3.390625 0l0 6.15625l2.125 0l0 1.03125l-5.75 0l0 -1.03125l2.359375 0l0 -5.125zm0.4375 -4.046875q0.203125 0 0.375 0.078125q0.1875 0.078125 0.3125 0.21875q0.140625 0.125 0.21875 0.3125q0.078125 0.171875 0.078125 0.375q0 0.203125 -0.078125 0.390625q-0.078125 0.171875 -0.21875 0.3125q-0.125 0.125 -0.3125 0.203125q-0.171875 0.078125 -0.375 0.078125q-0.203125 0 -0.390625 -0.078125q-0.171875 -0.078125 -0.3125 -0.203125q-0.125 -0.140625 -0.203125 -0.3125q-0.078125 -0.1875 -0.078125 -0.390625q0 -0.203125 0.078125 -0.375q0.078125 -0.1875 0.203125 -0.3125q0.140625 -0.140625 0.3125 -0.21875q0.1875 -0.078125 0.390625 -0.078125zm5.16745 3.015625l1.109375 0l0.046875 1.15625q0.328125 -0.359375 0.609375 -0.609375q0.296875 -0.25 0.578125 -0.390625q0.28125 -0.15625 0.578125 -0.21875q0.296875 -0.0625 0.609375 -0.0625q1.109375 0 1.671875 0.65625q0.578125 0.65625 0.578125 1.96875l0 4.6875l-1.25 0l0 -4.59375q0 -0.84375 -0.3125 -1.234375q-0.3125 -0.40625 -0.9375 -0.40625q-0.234375 0 -0.453125 0.0625q-0.21875 0.0625 -0.453125 0.234375q-0.234375 0.171875 -0.515625 0.453125q-0.265625 0.28125 -0.609375 0.71875l0 4.765625l-1.25 0l0 -7.1875zm12.683071 7.1875l-0.03125 -0.96875q-0.59375 0.578125 -1.203125 0.84375q-0.59375 0.25 -1.265625 0.25q-0.609375 0 -1.046875 -0.15625q-0.4375 -0.15625 -0.71875 -0.421875q-0.28125 -0.28125 -0.421875 -0.65625q-0.125 -0.375 -0.125 -0.8125q0 -1.078125 0.796875 -1.6875q0.8125 -0.609375 2.390625 -0.609375l1.484375 0l0 -0.640625q0 -0.625 -0.40625 -1.0q-0.40625 -0.390625 -1.25 -0.390625q-0.609375 0 -1.203125 0.140625q-0.578125 0.125 -1.21875 0.375l0 -1.125q0.25 -0.078125 0.53125 -0.15625q0.296875 -0.09375 0.609375 -0.15625q0.328125 -0.0625 0.671875 -0.09375q0.359375 -0.046875 0.71875 -0.046875q0.640625 0 1.15625 0.140625q0.53125 0.140625 0.890625 0.4375q0.359375 0.296875 0.546875 0.75q0.203125 0.4375 0.203125 1.03125l0 4.953125l-1.109375 0zm-0.140625 -3.265625l-1.578125 0q-0.46875 0 -0.8125 0.09375q-0.328125 0.09375 -0.546875 0.265625q-0.21875 0.171875 -0.328125 0.40625q-0.09375 0.234375 -0.09375 0.546875q0 0.203125 0.0625 0.390625q0.0625 0.1875 0.203125 0.34375q0.15625 0.140625 0.375 0.234375q0.234375 0.078125 0.5625 0.078125q0.4375 0 0.984375 -0.265625q0.5625 -0.265625 1.171875 -0.828125l0 -1.265625zm9.370575 3.171875q-0.421875 0.09375 -0.875 0.140625q-0.453125 0.046875 -0.921875 0.046875q-1.34375 0 -2.015625 -0.609375q-0.65625 -0.609375 -0.65625 -1.875l0 -3.75l-2.015625 0l0 -1.046875l2.015625 0l0 -1.96875l1.234375 -0.328125l0 2.296875l3.234375 0l0 1.046875l-3.234375 0l0 3.65625q0 0.765625 0.40625 1.15625q0.421875 0.375 1.21875 0.375q0.34375 0 0.75 -0.046875q0.40625 -0.0625 0.859375 -0.171875l0 1.078125zm8.339325 -3.875q0 0.265625 -0.015625 0.453125q0 0.171875 -0.015625 0.328125l-5.046875 0q0 1.09375 0.609375 1.6875q0.625 0.59375 1.78125 0.59375q0.3125 0 0.625 -0.015625q0.3125 -0.03125 0.609375 -0.078125q0.296875 -0.046875 0.5625 -0.09375q0.265625 -0.0625 0.5 -0.125l0 1.03125q-0.515625 0.140625 -1.15625 0.21875q-0.640625 0.09375 -1.328125 0.09375q-0.921875 0 -1.59375 -0.25q-0.65625 -0.25 -1.078125 -0.71875q-0.421875 -0.484375 -0.625 -1.171875q-0.203125 -0.6875 -0.203125 -1.5625q0 -0.765625 0.21875 -1.4375q0.21875 -0.671875 0.625 -1.1875q0.421875 -0.515625 1.03125 -0.8125q0.609375 -0.296875 1.375 -0.296875q0.765625 0 1.34375 0.234375q0.578125 0.234375 0.96875 0.671875q0.40625 0.4375 0.609375 1.0625q0.203125 0.609375 0.203125 1.375zm-1.296875 -0.1875q0.015625 -0.46875 -0.109375 -0.859375q-0.109375 -0.40625 -0.34375 -0.6875q-0.234375 -0.296875 -0.59375 -0.453125q-0.359375 -0.15625 -0.828125 -0.15625q-0.40625 0 -0.75 0.15625q-0.328125 0.15625 -0.578125 0.4375q-0.25 0.28125 -0.40625 0.6875q-0.140625 0.40625 -0.171875 0.875l3.78125 0zm2.91745 0.71875q0 -0.921875 0.25 -1.625q0.25 -0.71875 0.703125 -1.203125q0.46875 -0.5 1.109375 -0.75q0.65625 -0.25 1.453125 -0.25q0.34375 0 0.671875 0.046875q0.328125 0.03125 0.65625 0.125l0 -3.015625l1.25 0l0 10.109375l-1.109375 0l-0.046875 -1.359375q-0.515625 0.765625 -1.125 1.125q-0.609375 0.359375 -1.328125 0.359375q-0.609375 0 -1.078125 -0.25q-0.46875 -0.265625 -0.78125 -0.734375q-0.3125 -0.46875 -0.46875 -1.125q-0.15625 -0.65625 -0.15625 -1.453125zm1.265625 -0.078125q0 1.296875 0.375 1.9375q0.390625 0.640625 1.09375 0.640625q0.484375 0 1.0 -0.421875q0.53125 -0.421875 1.109375 -1.25l0 -3.34375q-0.3125 -0.140625 -0.6875 -0.203125q-0.359375 -0.078125 -0.734375 -0.078125q-1.015625 0 -1.59375 0.65625q-0.5625 0.65625 -0.5625 2.0625z" fill-rule="nonzero"/><path fill="#000000" fill-opacity="0.0" d="m97.101395 207.23715l0 0l0 17.16098l0 0l0 -17.16098z" fill-rule="nonzero"/><path fill="#ffffff" d="m16.520649 219.07533l80.58075 0l0 1.3199921l-80.58075 0l0 -1.3199921z" fill-rule="nonzero"/><path fill="#000000" fill-opacity="0.0" d="m351.90027 109.08924l107.27557 0l0 37.16535l-107.27557 0z" fill-rule="evenodd"/><path fill="#000000" fill-opacity="0.0" d="m373.30576 121.28439l64.4646 0l0 17.16098l-64.4646 0l0 -17.16098z" fill-rule="nonzero"/><path fill="#ffffff" d="m380.837 127.387985q0 0.671875 -0.109375 1.296875q-0.09375 0.609375 -0.328125 1.140625q-0.21875 0.53125 -0.59375 0.96875q-0.359375 0.421875 -0.890625 0.734375q-0.53125 0.296875 -1.234375 0.46875q-0.703125 0.171875 -1.59375 0.171875l-2.0 0l0 -9.359375l2.40625 0q2.1875 0 3.265625 1.140625q1.078125 1.125 1.078125 3.4375zm-1.328125 0.09375q0 -1.0 -0.1875 -1.6875q-0.1875 -0.6875 -0.578125 -1.109375q-0.375 -0.421875 -0.953125 -0.609375q-0.5625 -0.1875 -1.328125 -0.1875l-1.109375 0l0 7.171875l0.953125 0q3.203125 0 3.203125 -3.578125zm5.4487 -1.46875l-2.125 0l0 -1.03125l3.390625 0l0 6.15625l2.125 0l0 1.03125l-5.75 0l0 -1.03125l2.359375 0l0 -5.125zm0.4375 -4.046875q0.203125 0 0.375 0.078125q0.1875 0.078125 0.3125 0.21875q0.140625 0.125 0.21875 0.3125q0.078125 0.171875 0.078125 0.375q0 0.203125 -0.078125 0.390625q-0.078125 0.171875 -0.21875 0.3125q-0.125 0.125 -0.3125 0.203125q-0.171875 0.078125 -0.375 0.078125q-0.203125 0 -0.390625 -0.078125q-0.171875 -0.078125 -0.3125 -0.203125q-0.125 -0.140625 -0.203125 -0.3125q-0.078125 -0.1875 -0.078125 -0.390625q0 -0.203125 0.078125 -0.375q0.078125 -0.1875 0.203125 -0.3125q0.140625 -0.140625 0.3125 -0.21875q0.1875 -0.078125 0.390625 -0.078125zm10.85495 8.25q0 0.375 -0.125 0.671875q-0.125 0.296875 -0.34375 0.53125q-0.21875 0.234375 -0.515625 0.40625q-0.296875 0.15625 -0.640625 0.265625q-0.328125 0.109375 -0.6875 0.15625q-0.34375 0.046875 -0.671875 0.046875q-0.734375 0 -1.34375 -0.0625q-0.609375 -0.0625 -1.203125 -0.203125l0 -1.140625q0.640625 0.171875 1.25 0.265625q0.625 0.09375 1.25 0.09375q0.890625 0 1.3125 -0.234375q0.4375 -0.25 0.4375 -0.703125q0 -0.1875 -0.078125 -0.34375q-0.0625 -0.15625 -0.25 -0.296875q-0.171875 -0.140625 -0.546875 -0.28125q-0.375 -0.15625 -1.015625 -0.359375q-0.5 -0.140625 -0.90625 -0.3125q-0.40625 -0.1875 -0.71875 -0.4375q-0.296875 -0.25 -0.46875 -0.578125q-0.171875 -0.34375 -0.171875 -0.8125q0 -0.296875 0.140625 -0.65625q0.140625 -0.359375 0.46875 -0.65625q0.34375 -0.3125 0.921875 -0.515625q0.578125 -0.203125 1.421875 -0.203125q0.421875 0 0.9375 0.046875q0.515625 0.046875 1.078125 0.15625l0 1.109375q-0.578125 -0.140625 -1.109375 -0.203125q-0.53125 -0.078125 -0.90625 -0.078125q-0.46875 0 -0.796875 0.078125q-0.3125 0.0625 -0.515625 0.203125q-0.1875 0.125 -0.28125 0.296875q-0.078125 0.15625 -0.078125 0.34375q0 0.203125 0.0625 0.359375q0.078125 0.15625 0.28125 0.3125q0.21875 0.140625 0.578125 0.28125q0.359375 0.140625 0.953125 0.3125q0.640625 0.1875 1.0625 0.390625q0.4375 0.203125 0.703125 0.46875q0.28125 0.25 0.390625 0.5625q0.125 0.3125 0.125 0.71875zm8.5112 -1.765625q0 0.953125 -0.265625 1.671875q-0.265625 0.71875 -0.75 1.1875q-0.46875 0.46875 -1.109375 0.703125q-0.640625 0.234375 -1.390625 0.234375q-0.34375 0 -0.6875 -0.03125q-0.34375 -0.03125 -0.6875 -0.125l0 3.015625l-1.25 0l0 -10.125l1.109375 0l0.078125 1.203125q0.546875 -0.734375 1.15625 -1.03125q0.609375 -0.296875 1.3125 -0.296875q0.609375 0 1.078125 0.265625q0.46875 0.25 0.78125 0.71875q0.3125 0.46875 0.46875 1.140625q0.15625 0.65625 0.15625 1.46875zm-1.265625 0.046875q0 -0.5625 -0.09375 -1.03125q-0.078125 -0.46875 -0.265625 -0.796875q-0.171875 -0.34375 -0.453125 -0.53125q-0.265625 -0.1875 -0.65625 -0.1875q-0.234375 0 -0.484375 0.078125q-0.234375 0.0625 -0.5 0.25q-0.265625 0.171875 -0.5625 0.46875q-0.28125 0.28125 -0.609375 0.703125l0 3.484375q0.34375 0.140625 0.71875 0.234375q0.390625 0.078125 0.75 0.078125q1.0 0 1.578125 -0.6875q0.578125 -0.6875 0.578125 -2.0625zm8.964325 3.671875l-1.125 0l-0.03125 -1.15625q-0.328125 0.375 -0.625 0.625q-0.28125 0.234375 -0.578125 0.390625q-0.28125 0.140625 -0.578125 0.203125q-0.28125 0.0625 -0.59375 0.0625q-1.109375 0 -1.6875 -0.640625q-0.5625 -0.65625 -0.5625 -1.96875l0 -4.703125l1.25 0l0 4.59375q0 1.65625 1.25 1.65625q0.21875 0 0.4375 -0.0625q0.21875 -0.078125 0.453125 -0.234375q0.25 -0.171875 0.515625 -0.453125q0.28125 -0.296875 0.625 -0.734375l0 -4.765625l1.25 0l0 7.1875zm8.0737 -0.09375q-0.421875 0.09375 -0.875 0.140625q-0.453125 0.046875 -0.921875 0.046875q-1.34375 0 -2.015625 -0.609375q-0.65625 -0.609375 -0.65625 -1.875l0 -3.75l-2.015625 0l0 -1.046875l2.015625 0l0 -1.96875l1.234375 -0.328125l0 2.296875l3.234375 0l0 1.046875l-3.234375 0l0 3.65625q0 0.765625 0.40625 1.15625q0.421875 0.375 1.21875 0.375q0.34375 0 0.75 -0.046875q0.40625 -0.0625 0.859375 -0.171875l0 1.078125zm8.339325 -3.875q0 0.265625 -0.015625 0.453125q0 0.171875 -0.015625 0.328125l-5.046875 0q0 1.09375 0.609375 1.6875q0.625 0.59375 1.78125 0.59375q0.3125 0 0.625 -0.015625q0.3125 -0.03125 0.609375 -0.078125q0.296875 -0.046875 0.5625 -0.09375q0.265625 -0.0625 0.5 -0.125l0 1.03125q-0.515625 0.140625 -1.15625 0.21875q-0.640625 0.09375 -1.328125 0.09375q-0.921875 0 -1.59375 -0.25q-0.65625 -0.25 -1.078125 -0.71875q-0.421875 -0.484375 -0.625 -1.171875q-0.203125 -0.6875 -0.203125 -1.5625q0 -0.765625 0.21875 -1.4375q0.21875 -0.671875 0.625 -1.1875q0.421875 -0.515625 1.03125 -0.8125q0.609375 -0.296875 1.375 -0.296875q0.765625 0 1.34375 0.234375q0.578125 0.234375 0.96875 0.671875q0.40625 0.4375 0.609375 1.0625q0.203125 0.609375 0.203125 1.375zm-1.296875 -0.1875q0.015625 -0.46875 -0.109375 -0.859375q-0.109375 -0.40625 -0.34375 -0.6875q-0.234375 -0.296875 -0.59375 -0.453125q-0.359375 -0.15625 -0.828125 -0.15625q-0.40625 0 -0.75 0.15625q-0.328125 0.15625 -0.578125 0.4375q-0.25 0.28125 -0.40625 0.6875q-0.140625 0.40625 -0.171875 0.875l3.78125 0zm2.91745 0.71875q0 -0.921875 0.25 -1.625q0.25 -0.71875 0.703125 -1.203125q0.46875 -0.5 1.109375 -0.75q0.65625 -0.25 1.453125 -0.25q0.34375 0 0.671875 0.046875q0.328125 0.03125 0.65625 0.125l0 -3.015625l1.25 0l0 10.109375l-1.109375 0l-0.046875 -1.359375q-0.515625 0.765625 -1.125 1.125q-0.609375 0.359375 -1.328125 0.359375q-0.609375 0 -1.078125 -0.25q-0.46875 -0.265625 -0.78125 -0.734375q-0.3125 -0.46875 -0.46875 -1.125q-0.15625 -0.65625 -0.15625 -1.453125zm1.265625 -0.078125q0 1.296875 0.375 1.9375q0.390625 0.640625 1.09375 0.640625q0.484375 0 1.0 -0.421875q0.53125 -0.421875 1.109375 -1.25l0 -3.34375q-0.3125 -0.140625 -0.6875 -0.203125q-0.359375 -0.078125 -0.734375 -0.078125q-1.015625 0 -1.59375 0.65625q-0.5625 0.65625 -0.5625 2.0625z" fill-rule="nonzero"/><path fill="#000000" fill-opacity="0.0" d="m437.77036 121.28439l0 0l0 17.16098l0 0l0 -17.16098z" fill-rule="nonzero"/><path fill="#ffffff" d="m373.30576 133.12257l64.4646 0l0 1.3199921l-64.4646 0l0 -1.3199921z" fill-rule="nonzero"/><path fill="#000000" fill-opacity="0.0" d="m206.06561 28.254593l85.44882 0l0 37.16535l-85.44882 0z" fill-rule="evenodd"/><path fill="#ffffff" d="m221.89374 49.38147q0 0.375 -0.125 0.671875q-0.125 0.296875 -0.34375 0.53125q-0.21875 0.234375 -0.515625 0.40625q-0.296875 0.15625 -0.640625 0.265625q-0.328125 0.109375 -0.6875 0.15625q-0.34375 0.046875 -0.671875 0.046875q-0.734375 0 -1.34375 -0.0625q-0.609375 -0.0625 -1.203125 -0.203125l0 -1.140625q0.640625 0.171875 1.25 0.265625q0.625 0.09375 1.25 0.09375q0.890625 0 1.3125 -0.234375q0.4375 -0.25 0.4375 -0.703125q0 -0.1875 -0.078125 -0.34375q-0.0625 -0.15625 -0.25 -0.296875q-0.171875 -0.140625 -0.546875 -0.28125q-0.375 -0.15625 -1.015625 -0.359375q-0.5 -0.140625 -0.90625 -0.3125q-0.40625 -0.1875 -0.71875 -0.4375q-0.296875 -0.25 -0.46875 -0.578125q-0.171875 -0.34375 -0.171875 -0.8125q0 -0.296875 0.140625 -0.65625q0.140625 -0.359375 0.46875 -0.65625q0.34375 -0.3125 0.921875 -0.515625q0.578125 -0.203125 1.421875 -0.203125q0.421875 0 0.9375 0.046875q0.515625 0.046875 1.078125 0.15625l0 1.109375q-0.578125 -0.140625 -1.109375 -0.203125q-0.53125 -0.078125 -0.90625 -0.078125q-0.46875 0 -0.796875 0.078125q-0.3125 0.0625 -0.515625 0.203125q-0.1875 0.125 -0.28125 0.296875q-0.078125 0.15625 -0.078125 0.34375q0 0.203125 0.0625 0.359375q0.078125 0.15625 0.28125 0.3125q0.21875 0.140625 0.578125 0.28125q0.359375 0.140625 0.953125 0.3125q0.640625 0.1875 1.0625 0.390625q0.4375 0.203125 0.703125 0.46875q0.28125 0.25 0.390625 0.5625q0.125 0.3125 0.125 0.71875zm4.8237 -4.203125l-2.125 0l0 -1.03125l3.390625 0l0 6.15625l2.125 0l0 1.03125l-5.75 0l0 -1.03125l2.359375 0l0 -5.125zm0.4375 -4.046875q0.203125 0 0.375 0.078125q0.1875 0.078125 0.3125 0.21875q0.140625 0.125 0.21875 0.3125q0.078125 0.171875 0.078125 0.375q0 0.203125 -0.078125 0.390625q-0.078125 0.171875 -0.21875 0.3125q-0.125 0.125 -0.3125 0.203125q-0.171875 0.078125 -0.375 0.078125q-0.203125 0 -0.390625 -0.078125q-0.171875 -0.078125 -0.3125 -0.203125q-0.125 -0.140625 -0.203125 -0.3125q-0.078125 -0.1875 -0.078125 -0.390625q0 -0.203125 0.078125 -0.375q0.078125 -0.1875 0.203125 -0.3125q0.140625 -0.140625 0.3125 -0.21875q0.1875 -0.078125 0.390625 -0.078125zm10.339325 4.03125q0.203125 0.25 0.3125 0.59375q0.109375 0.328125 0.109375 0.71875q0 0.546875 -0.203125 1.015625q-0.203125 0.453125 -0.578125 0.78125q-0.359375 0.328125 -0.890625 0.515625q-0.515625 0.1875 -1.140625 0.1875q-0.4375 0 -0.84375 -0.09375q-0.390625 -0.109375 -0.609375 -0.25q-0.140625 0.203125 -0.234375 0.390625q-0.09375 0.171875 -0.09375 0.390625q0 0.28125 0.25 0.46875q0.265625 0.171875 0.703125 0.171875l1.890625 0.078125q0.53125 0.015625 0.984375 0.140625q0.453125 0.125 0.78125 0.359375q0.328125 0.21875 0.5 0.5625q0.1875 0.328125 0.1875 0.765625q0 0.484375 -0.203125 0.90625q-0.203125 0.4375 -0.640625 0.765625q-0.4375 0.328125 -1.109375 0.515625q-0.65625 0.1875 -1.5625 0.1875q-0.875 0 -1.5 -0.140625q-0.609375 -0.125 -1.0 -0.375q-0.390625 -0.25 -0.578125 -0.59375q-0.171875 -0.34375 -0.171875 -0.75q0 -0.515625 0.234375 -0.921875q0.25 -0.390625 0.765625 -0.75q-0.1875 -0.078125 -0.328125 -0.203125q-0.140625 -0.140625 -0.234375 -0.296875q-0.078125 -0.15625 -0.125 -0.328125q-0.03125 -0.171875 -0.03125 -0.328125q0 -0.46875 0.21875 -0.84375q0.21875 -0.390625 0.515625 -0.734375q-0.140625 -0.171875 -0.25 -0.328125q-0.09375 -0.15625 -0.171875 -0.328125q-0.078125 -0.1875 -0.125 -0.390625q-0.03125 -0.21875 -0.03125 -0.5q0 -0.5625 0.203125 -1.015625q0.21875 -0.46875 0.578125 -0.796875q0.375 -0.328125 0.890625 -0.5q0.515625 -0.1875 1.140625 -0.1875q0.265625 0 0.515625 0.03125q0.25 0.03125 0.421875 0.09375l2.609375 0l0 1.015625l-1.15625 0zm-4.3125 7.203125q0 0.515625 0.53125 0.75q0.53125 0.234375 1.46875 0.234375q0.59375 0 1.0 -0.109375q0.40625 -0.109375 0.640625 -0.28125q0.25 -0.171875 0.359375 -0.40625q0.109375 -0.21875 0.109375 -0.453125q0 -0.4375 -0.359375 -0.65625q-0.359375 -0.203125 -1.09375 -0.234375l-1.875 -0.0625q-0.234375 0.15625 -0.390625 0.296875q-0.15625 0.15625 -0.25 0.3125q-0.078125 0.15625 -0.109375 0.296875q-0.03125 0.15625 -0.03125 0.3125zm0.375 -5.875q0 0.34375 0.109375 0.640625q0.125 0.28125 0.328125 0.484375q0.203125 0.203125 0.484375 0.3125q0.28125 0.109375 0.625 0.109375q0.375 0 0.65625 -0.125q0.296875 -0.125 0.5 -0.34375q0.203125 -0.21875 0.296875 -0.484375q0.109375 -0.28125 0.109375 -0.59375q0 -0.34375 -0.125 -0.625q-0.109375 -0.28125 -0.3125 -0.484375q-0.203125 -0.203125 -0.5 -0.3125q-0.28125 -0.109375 -0.625 -0.109375q-0.359375 0 -0.65625 0.125q-0.28125 0.125 -0.484375 0.34375q-0.203125 0.203125 -0.3125 0.484375q-0.09375 0.28125 -0.09375 0.578125zm6.8237 -2.34375l1.109375 0l0.046875 1.15625q0.328125 -0.359375 0.609375 -0.609375q0.296875 -0.25 0.578125 -0.390625q0.28125 -0.15625 0.578125 -0.21875q0.296875 -0.0625 0.609375 -0.0625q1.109375 0 1.671875 0.65625q0.578125 0.65625 0.578125 1.96875l0 4.6875l-1.25 0l0 -4.59375q0 -0.84375 -0.3125 -1.234375q-0.3125 -0.40625 -0.9375 -0.40625q-0.234375 0 -0.453125 0.0625q-0.21875 0.0625 -0.453125 0.234375q-0.234375 0.171875 -0.515625 0.453125q-0.265625 0.28125 -0.609375 0.71875l0 4.765625l-1.25 0l0 -7.1875z" fill-rule="nonzero"/><path fill="#000000" fill-opacity="0.0" d="m139.70341 146.2546l164.18898 0l0 37.16536l-164.18898 0z" fill-rule="evenodd"/><path fill="#ffffff" d="m155.64091 169.24084q-0.421875 0.09375 -0.875 0.140625q-0.453125 0.046875 -0.921875 0.046875q-1.34375 0 -2.015625 -0.609375q-0.65625 -0.609375 -0.65625 -1.875l0 -3.75l-2.015625 0l0 -1.046875l2.015625 0l0 -1.96875l1.234375 -0.328125l0 2.296875l3.234375 0l0 1.046875l-3.234375 0l0 3.65625q0 0.765625 0.40625 1.15625q0.421875 0.375 1.21875 0.375q0.34375 0 0.75 -0.046875q0.40625 -0.0625 0.859375 -0.171875l0 1.078125zm8.339325 -3.875q0 0.265625 -0.015625 0.453125q0 0.171875 -0.015625 0.328125l-5.046875 0q0 1.09375 0.609375 1.6875q0.625 0.59375 1.78125 0.59375q0.3125 0 0.625 -0.015625q0.3125 -0.03125 0.609375 -0.078125q0.296875 -0.046875 0.5625 -0.09375q0.265625 -0.0625 0.5 -0.125l0 1.03125q-0.515625 0.140625 -1.15625 0.21875q-0.640625 0.09375 -1.328125 0.09375q-0.921875 0 -1.59375 -0.25q-0.65625 -0.25 -1.078125 -0.71875q-0.421875 -0.484375 -0.625 -1.171875q-0.203125 -0.6875 -0.203125 -1.5625q0 -0.765625 0.21875 -1.4375q0.21875 -0.671875 0.625 -1.1875q0.421875 -0.515625 1.03125 -0.8125q0.609375 -0.296875 1.375 -0.296875q0.765625 0 1.34375 0.234375q0.578125 0.234375 0.96875 0.671875q0.40625 0.4375 0.609375 1.0625q0.203125 0.609375 0.203125 1.375zm-1.296875 -0.1875q0.015625 -0.46875 -0.109375 -0.859375q-0.109375 -0.40625 -0.34375 -0.6875q-0.234375 -0.296875 -0.59375 -0.453125q-0.359375 -0.15625 -0.828125 -0.15625q-0.40625 0 -0.75 0.15625q-0.328125 0.15625 -0.578125 0.4375q-0.25 0.28125 -0.40625 0.6875q-0.140625 0.40625 -0.171875 0.875l3.78125 0zm3.5737 -3.03125l1.140625 0l0.03125 1.328125q0.640625 -0.765625 1.25 -1.109375q0.625 -0.34375 1.25 -0.34375q1.125 0 1.703125 0.71875q0.578125 0.71875 0.53125 2.15625l-1.265625 0q0.03125 -0.953125 -0.265625 -1.375q-0.296875 -0.421875 -0.875 -0.421875q-0.25 0 -0.515625 0.09375q-0.25 0.078125 -0.515625 0.28125q-0.265625 0.1875 -0.5625 0.5q-0.296875 0.3125 -0.640625 0.75l0 4.609375l-1.265625 0l0 -7.1875zm12.8862 7.1875l0 -5.15625q0 -0.34375 -0.03125 -0.546875q-0.015625 -0.21875 -0.078125 -0.34375q-0.046875 -0.125 -0.125 -0.171875q-0.078125 -0.0625 -0.203125 -0.0625q-0.140625 0 -0.265625 0.09375q-0.125 0.078125 -0.265625 0.28125q-0.140625 0.1875 -0.3125 0.515625q-0.15625 0.3125 -0.390625 0.78125l0 4.609375l-1.140625 0l0 -5.03125q0 -0.390625 -0.03125 -0.625q-0.015625 -0.25 -0.078125 -0.375q-0.046875 -0.140625 -0.140625 -0.1875q-0.078125 -0.0625 -0.203125 -0.0625q-0.125 0 -0.25 0.078125q-0.109375 0.0625 -0.25 0.25q-0.125 0.1875 -0.296875 0.515625q-0.171875 0.328125 -0.40625 0.828125l0 4.609375l-1.15625 0l0 -7.1875l0.953125 0l0.0625 1.375q0.1875 -0.40625 0.359375 -0.6875q0.171875 -0.296875 0.359375 -0.46875q0.1875 -0.1875 0.390625 -0.265625q0.21875 -0.078125 0.46875 -0.078125q0.59375 0 0.890625 0.375q0.296875 0.375 0.296875 1.171875q0.171875 -0.375 0.328125 -0.65625q0.171875 -0.296875 0.359375 -0.484375q0.1875 -0.203125 0.421875 -0.296875q0.234375 -0.109375 0.53125 -0.109375q1.34375 0 1.34375 2.078125l0 5.234375l-1.140625 0zm5.3862 -6.15625l-2.125 0l0 -1.03125l3.390625 0l0 6.15625l2.125 0l0 1.03125l-5.75 0l0 -1.03125l2.359375 0l0 -5.125zm0.4375 -4.046875q0.203125 0 0.375 0.078125q0.1875 0.078125 0.3125 0.21875q0.140625 0.125 0.21875 0.3125q0.078125 0.171875 0.078125 0.375q0 0.203125 -0.078125 0.390625q-0.078125 0.171875 -0.21875 0.3125q-0.125 0.125 -0.3125 0.203125q-0.171875 0.078125 -0.375 0.078125q-0.203125 0 -0.390625 -0.078125q-0.171875 -0.078125 -0.3125 -0.203125q-0.125 -0.140625 -0.203125 -0.3125q-0.078125 -0.1875 -0.078125 -0.390625q0 -0.203125 0.078125 -0.375q0.078125 -0.1875 0.203125 -0.3125q0.140625 -0.140625 0.3125 -0.21875q0.1875 -0.078125 0.390625 -0.078125zm5.16745 3.015625l1.109375 0l0.046875 1.15625q0.328125 -0.359375 0.609375 -0.609375q0.296875 -0.25 0.578125 -0.390625q0.28125 -0.15625 0.578125 -0.21875q0.296875 -0.0625 0.609375 -0.0625q1.109375 0 1.671875 0.65625q0.578125 0.65625 0.578125 1.96875l0 4.6875l-1.25 0l0 -4.59375q0 -0.84375 -0.3125 -1.234375q-0.3125 -0.40625 -0.9375 -0.40625q-0.234375 0 -0.453125 0.0625q-0.21875 0.0625 -0.453125 0.234375q-0.234375 0.171875 -0.515625 0.453125q-0.265625 0.28125 -0.609375 0.71875l0 4.765625l-1.25 0l0 -7.1875zm12.683075 7.1875l-0.03125 -0.96875q-0.59375 0.578125 -1.203125 0.84375q-0.59375 0.25 -1.265625 0.25q-0.609375 0 -1.046875 -0.15625q-0.4375 -0.15625 -0.71875 -0.421875q-0.28125 -0.28125 -0.421875 -0.65625q-0.125 -0.375 -0.125 -0.8125q0 -1.078125 0.796875 -1.6875q0.8125 -0.609375 2.390625 -0.609375l1.484375 0l0 -0.640625q0 -0.625 -0.40625 -1.0q-0.40625 -0.390625 -1.25 -0.390625q-0.609375 0 -1.203125 0.140625q-0.578125 0.125 -1.21875 0.375l0 -1.125q0.25 -0.078125 0.53125 -0.15625q0.296875 -0.09375 0.609375 -0.15625q0.328125 -0.0625 0.671875 -0.09375q0.359375 -0.046875 0.71875 -0.046875q0.640625 0 1.15625 0.140625q0.53125 0.140625 0.890625 0.4375q0.359375 0.296875 0.546875 0.75q0.203125 0.4375 0.203125 1.03125l0 4.953125l-1.109375 0zm-0.140625 -3.265625l-1.578125 0q-0.46875 0 -0.8125 0.09375q-0.328125 0.09375 -0.546875 0.265625q-0.21875 0.171875 -0.328125 0.40625q-0.09375 0.234375 -0.09375 0.546875q0 0.203125 0.0625 0.390625q0.0625 0.1875 0.203125 0.34375q0.15625 0.140625 0.375 0.234375q0.234375 0.078125 0.5625 0.078125q0.4375 0 0.984375 -0.265625q0.5625 -0.265625 1.171875 -0.828125l0 -1.265625zm9.370575 3.171875q-0.421875 0.09375 -0.875 0.140625q-0.453125 0.046875 -0.921875 0.046875q-1.34375 0 -2.015625 -0.609375q-0.65625 -0.609375 -0.65625 -1.875l0 -3.75l-2.015625 0l0 -1.046875l2.015625 0l0 -1.96875l1.234375 -0.328125l0 2.296875l3.234375 0l0 1.046875l-3.234375 0l0 3.65625q0 0.765625 0.40625 1.15625q0.421875 0.375 1.21875 0.375q0.34375 0 0.75 -0.046875q0.40625 -0.0625 0.859375 -0.171875l0 1.078125zm8.339325 -3.875q0 0.265625 -0.015625 0.453125q0 0.171875 -0.015625 0.328125l-5.046875 0q0 1.09375 0.609375 1.6875q0.625 0.59375 1.78125 0.59375q0.3125 0 0.625 -0.015625q0.3125 -0.03125 0.609375 -0.078125q0.296875 -0.046875 0.5625 -0.09375q0.265625 -0.0625 0.5 -0.125l0 1.03125q-0.515625 0.140625 -1.15625 0.21875q-0.640625 0.09375 -1.328125 0.09375q-0.921875 0 -1.59375 -0.25q-0.65625 -0.25 -1.078125 -0.71875q-0.421875 -0.484375 -0.625 -1.171875q-0.203125 -0.6875 -0.203125 -1.5625q0 -0.765625 0.21875 -1.4375q0.21875 -0.671875 0.625 -1.1875q0.421875 -0.515625 1.03125 -0.8125q0.609375 -0.296875 1.375 -0.296875q0.765625 0 1.34375 0.234375q0.578125 0.234375 0.96875 0.671875q0.40625 0.4375 0.609375 1.0625q0.203125 0.609375 0.203125 1.375zm-1.296875 -0.1875q0.015625 -0.46875 -0.109375 -0.859375q-0.109375 -0.40625 -0.34375 -0.6875q-0.234375 -0.296875 -0.59375 -0.453125q-0.359375 -0.15625 -0.828125 -0.15625q-0.40625 0 -0.75 0.15625q-0.328125 0.15625 -0.578125 0.4375q-0.25 0.28125 -0.40625 0.6875q-0.140625 0.40625 -0.171875 0.875l3.78125 0z" fill-rule="nonzero"/><path fill="#000000" fill-opacity="0.0" d="m195.70409 95.60105l85.44881 0l0 37.16535l-85.44881 0z" fill-rule="evenodd"/><path fill="#ffffff" d="m205.48534 115.24355q0 -0.921875 0.25 -1.625q0.25 -0.71875 0.703125 -1.203125q0.46875 -0.5 1.109375 -0.75q0.65625 -0.25 1.453125 -0.25q0.34375 0 0.671875 0.046875q0.328125 0.03125 0.65625 0.125l0 -3.015625l1.25 0l0 10.109375l-1.109375 0l-0.046875 -1.359375q-0.515625 0.765625 -1.125 1.125q-0.609375 0.359375 -1.328125 0.359375q-0.609375 0 -1.078125 -0.25q-0.46875 -0.265625 -0.78125 -0.734375q-0.3125 -0.46875 -0.46875 -1.125q-0.15625 -0.65625 -0.15625 -1.453125zm1.265625 -0.078125q0 1.296875 0.375 1.9375q0.390625 0.640625 1.09375 0.640625q0.484375 0 1.0 -0.421875q0.53125 -0.421875 1.109375 -1.25l0 -3.34375q-0.3125 -0.140625 -0.6875 -0.203125q-0.359375 -0.078125 -0.734375 -0.078125q-1.015625 0 -1.59375 0.65625q-0.5625 0.65625 -0.5625 2.0625zm9.60495 -2.640625l-2.125 0l0 -1.03125l3.390625 0l0 6.15625l2.125 0l0 1.03125l-5.75 0l0 -1.03125l2.359375 0l0 -5.125zm0.4375 -4.046875q0.203125 0 0.375 0.078125q0.1875 0.078125 0.3125 0.21875q0.140625 0.125 0.21875 0.3125q0.078125 0.171875 0.078125 0.375q0 0.203125 -0.078125 0.390625q-0.078125 0.171875 -0.21875 0.3125q-0.125 0.125 -0.3125 0.203125q-0.171875 0.078125 -0.375 0.078125q-0.203125 0 -0.390625 -0.078125q-0.171875 -0.078125 -0.3125 -0.203125q-0.125 -0.140625 -0.203125 -0.3125q-0.078125 -0.1875 -0.078125 -0.390625q0 -0.203125 0.078125 -0.375q0.078125 -0.1875 0.203125 -0.3125q0.140625 -0.140625 0.3125 -0.21875q0.1875 -0.078125 0.390625 -0.078125zm10.85495 8.25q0 0.375 -0.125 0.671875q-0.125 0.296875 -0.34375 0.53125q-0.21875 0.234375 -0.515625 0.40625q-0.296875 0.15625 -0.640625 0.265625q-0.328125 0.109375 -0.6875 0.15625q-0.34375 0.046875 -0.671875 0.046875q-0.734375 0 -1.34375 -0.0625q-0.609375 -0.0625 -1.203125 -0.203125l0 -1.140625q0.640625 0.171875 1.25 0.265625q0.625 0.09375 1.25 0.09375q0.890625 0 1.3125 -0.234375q0.4375 -0.25 0.4375 -0.703125q0 -0.1875 -0.078125 -0.34375q-0.0625 -0.15625 -0.25 -0.296875q-0.171875 -0.140625 -0.546875 -0.28125q-0.375 -0.15625 -1.015625 -0.359375q-0.5 -0.140625 -0.90625 -0.3125q-0.40625 -0.1875 -0.71875 -0.4375q-0.296875 -0.25 -0.46875 -0.578125q-0.171875 -0.34375 -0.171875 -0.8125q0 -0.296875 0.140625 -0.65625q0.140625 -0.359375 0.46875 -0.65625q0.34375 -0.3125 0.921875 -0.515625q0.578125 -0.203125 1.421875 -0.203125q0.421875 0 0.9375 0.046875q0.515625 0.046875 1.078125 0.15625l0 1.109375q-0.578125 -0.140625 -1.109375 -0.203125q-0.53125 -0.078125 -0.90625 -0.078125q-0.46875 0 -0.796875 0.078125q-0.3125 0.0625 -0.515625 0.203125q-0.1875 0.125 -0.28125 0.296875q-0.078125 0.15625 -0.078125 0.34375q0 0.203125 0.0625 0.359375q0.078125 0.15625 0.28125 0.3125q0.21875 0.140625 0.578125 0.28125q0.359375 0.140625 0.953125 0.3125q0.640625 0.1875 1.0625 0.390625q0.4375 0.203125 0.703125 0.46875q0.28125 0.25 0.390625 0.5625q0.125 0.3125 0.125 0.71875zm8.5112 -1.765625q0 0.953125 -0.265625 1.671875q-0.265625 0.71875 -0.75 1.1875q-0.46875 0.46875 -1.109375 0.703125q-0.640625 0.234375 -1.390625 0.234375q-0.34375 0 -0.6875 -0.03125q-0.34375 -0.03125 -0.6875 -0.125l0 3.015625l-1.25 0l0 -10.125l1.109375 0l0.078125 1.203125q0.546875 -0.734375 1.15625 -1.03125q0.609375 -0.296875 1.3125 -0.296875q0.609375 0 1.078125 0.265625q0.46875 0.25 0.78125 0.71875q0.3125 0.46875 0.46875 1.140625q0.15625 0.65625 0.15625 1.46875zm-1.265625 0.046875q0 -0.5625 -0.09375 -1.03125q-0.078125 -0.46875 -0.265625 -0.796875q-0.171875 -0.34375 -0.453125 -0.53125q-0.265625 -0.1875 -0.65625 -0.1875q-0.234375 0 -0.484375 0.078125q-0.234375 0.0625 -0.5 0.25q-0.265625 0.171875 -0.5625 0.46875q-0.28125 0.28125 -0.609375 0.703125l0 3.484375q0.34375 0.140625 0.71875 0.234375q0.390625 0.078125 0.75 0.078125q1.0 0 1.578125 -0.6875q0.578125 -0.6875 0.578125 -2.0625zm8.964325 3.671875l-1.125 0l-0.03125 -1.15625q-0.328125 0.375 -0.625 0.625q-0.28125 0.234375 -0.578125 0.390625q-0.28125 0.140625 -0.578125 0.203125q-0.28125 0.0625 -0.59375 0.0625q-1.109375 0 -1.6875 -0.640625q-0.5625 -0.65625 -0.5625 -1.96875l0 -4.703125l1.25 0l0 4.59375q0 1.65625 1.25 1.65625q0.21875 0 0.4375 -0.0625q0.21875 -0.078125 0.453125 -0.234375q0.25 -0.171875 0.515625 -0.453125q0.28125 -0.296875 0.625 -0.734375l0 -4.765625l1.25 0l0 7.1875zm8.0737 -0.09375q-0.421875 0.09375 -0.875 0.140625q-0.453125 0.046875 -0.921875 0.046875q-1.34375 0 -2.015625 -0.609375q-0.65625 -0.609375 -0.65625 -1.875l0 -3.75l-2.015625 0l0 -1.046875l2.015625 0l0 -1.96875l1.234375 -0.328125l0 2.296875l3.234375 0l0 1.046875l-3.234375 0l0 3.65625q0 0.765625 0.40625 1.15625q0.421875 0.375 1.21875 0.375q0.34375 0 0.75 -0.046875q0.40625 -0.0625 0.859375 -0.171875l0 1.078125zm8.33931 -3.875q0 0.265625 -0.015625 0.453125q0 0.171875 -0.015625 0.328125l-5.0468597 0q0 1.09375 0.609375 1.6875q0.62498474 0.59375 1.7812347 0.59375q0.3125 0 0.625 -0.015625q0.3125 -0.03125 0.609375 -0.078125q0.296875 -0.046875 0.5625 -0.09375q0.265625 -0.0625 0.5 -0.125l0 1.03125q-0.515625 0.140625 -1.15625 0.21875q-0.640625 0.09375 -1.328125 0.09375q-0.921875 0 -1.5937347 -0.25q-0.65625 -0.25 -1.078125 -0.71875q-0.421875 -0.484375 -0.625 -1.171875q-0.203125 -0.6875 -0.203125 -1.5625q0 -0.765625 0.21875 -1.4375q0.21875 -0.671875 0.625 -1.1875q0.421875 -0.515625 1.03125 -0.8125q0.60935974 -0.296875 1.3749847 -0.296875q0.765625 0 1.34375 0.234375q0.578125 0.234375 0.96875 0.671875q0.40625 0.4375 0.609375 1.0625q0.203125 0.609375 0.203125 1.375zm-1.296875 -0.1875q0.015625 -0.46875 -0.109375 -0.859375q-0.109375 -0.40625 -0.34375 -0.6875q-0.234375 -0.296875 -0.59375 -0.453125q-0.359375 -0.15625 -0.828125 -0.15625q-0.40625 0 -0.75 0.15625q-0.328125 0.15625 -0.57810974 0.4375q-0.25 0.28125 -0.40625 0.6875q-0.140625 0.40625 -0.171875 0.875l3.7812347 0z" fill-rule="nonzero"/><path fill="#000000" fill-opacity="0.0" d="m138.71687 51.315292c0 14.4971695 7.2497253 30.371872 14.497208 28.994347c7.2474823 -1.3775253 14.492706 -20.007282 14.497208 -38.63773c0.004501343 -18.630451 -7.231735 -37.2616 -14.4657135 -38.63773c-7.2339783 -1.3761292 -14.4657135 14.502762 -14.4657135 29.005524" fill-rule="evenodd"/><path stroke="#ffffff" stroke-width="2.0" stroke-linejoin="round" stroke-linecap="butt" d="m138.71686 51.315292c0 14.4971695 7.2497406 30.371872 14.497223 28.994339c7.247467 -1.3775177 14.492706 -20.00727 14.497208 -38.637722c0.004501343 -18.630451 -7.231735 -37.2616 -14.4657135 -38.63773c-3.6169891 -0.6880646 -7.2334137 2.9376254 -9.945602 8.548177c-1.3560944 2.8052769 -2.4861145 6.1067686 -3.2771301 9.613364c-0.1977539 0.87664795 -0.37431335 1.7661133 -0.5279236 2.6638546c-0.038406372 0.22443199 -0.07536316 0.4493847 -0.11087036 0.6747818l-0.10093689 0.669672" fill-rule="evenodd"/><path fill="#ffffff" stroke="#ffffff" stroke-width="2.0" stroke-linecap="butt" d="m139.28311 25.204031l-2.077942 -2.4082394l1.7893677 6.327999l2.6968231 -5.997713z" fill-rule="evenodd"/></g></svg>