<svg xmlns="http://www.w3.org/2000/svg" width="233.54" height="75" viewBox="0 0 233.54 75"><path d="M446.577,2543.061l9.609,5.493v10.98l-9.609-5.492Z" transform="translate(-433.744 -2515.705)" fill="#fff"/><path d="M476.7,2482.163a61.331,61.331,0,0,0-60.863,0l-1.622.924v34.827a22.2,22.2,0,0,0,11.14,19.218l.056.032.02.012.02.008,9.609,5.489,9.613,5.492,1.594.916,1.6-.916,9.613-5.492,9.609-5.489.02-.008.02-.012.055-.032a22.2,22.2,0,0,0,11.14-19.218v-34.827Zm-1.6,13.892-9.609,5.493v32.84h0l-9.609,5.493v-32.952l-9.613,5.489v32.955l-9.609-5.492V2528.9l-9.609-5.492v10.985l-.075-.044a18.92,18.92,0,0,1-9.538-16.434v-32.951l28.831,16.478,28.835-16.478Z" transform="translate(-414.217 -2474.081)" fill="#fff"/><path d="M615.027,2560.938H608.69l-.981,3.3h-3.372l5.691-16.882h3.586l5.763,16.882h-3.372Zm-.837-2.75-2.32-7.771-2.343,7.771Z" transform="translate(-528.94 -2518.297)" fill="#fff"/><path d="M654.992,2547.356h5.38c2.248.024,3.754.024,5.237,1.221a5.137,5.137,0,0,1,1.865,4.16,4.625,4.625,0,0,1-3.324,4.639l3.754,6.862h-3.611l-3.348-6.265h-2.822v6.265h-3.133Zm3.133,2.726v5.284h1.1c1.076,0,1.482-.024,2.081-.048.693-.024,2.965-.144,2.965-2.606a2.416,2.416,0,0,0-1.339-2.272c-.67-.335-1.482-.359-3.348-.359Z" transform="translate(-559.506 -2518.297)" fill="#fff"/><path d="M713.714,2558.874a8.927,8.927,0,0,1-1.459,2.534,7.453,7.453,0,0,1-5.835,2.606c-4.471,0-7.891-3.276-7.891-8.919,0-5.739,3.706-8.823,8.01-8.823a6.756,6.756,0,0,1,6.887,5.212l-3.156.836a4.294,4.294,0,0,0-.622-1.674,3.565,3.565,0,0,0-3.037-1.483c-2.75,0-4.663,2.272-4.663,5.883,0,3.85,2.032,5.978,4.687,5.978a3.882,3.882,0,0,0,3.228-1.65,5.575,5.575,0,0,0,.884-1.746Z" transform="translate(-585.778 -2517.643)" fill="#fff"/><path d="M763.488,2547.356v16.882h-3.18v-7.675h-7.245v7.675h-3.156v-16.882h3.156v6.385h7.245v-6.385Z" transform="translate(-616.779 -2518.297)" fill="#fff"/><path d="M803.4,2550.178v3.969h8.129v2.726H803.4v4.519h9.493v2.845h-12.6v-16.882h12v2.822Z" transform="translate(-647.18 -2518.297)" fill="#fff"/><path d="M854.283,2550.225H849.62v14.013h-3.156v-14.013H841.9v-2.869h12.387Z" transform="translate(-672.288 -2518.297)" fill="#fff"/><path d="M890.145,2557.567v6.671h-3.108v-6.671l-5.643-10.21h3.563l3.658,7.006,3.706-7.006h3.515Z" transform="translate(-696.122 -2518.297)" fill="#fff"/><path d="M927.494,2547.356h5.691a10.974,10.974,0,0,1,2.894.263,5.283,5.283,0,0,1,3.969,5.356,5.085,5.085,0,0,1-4.065,5.332,12.255,12.255,0,0,1-2.845.216h-2.463v5.715h-3.18Zm3.18,2.7v5.858h2.272a7.1,7.1,0,0,0,1.793-.143,2.74,2.74,0,0,0,2.08-2.87,2.79,2.79,0,0,0-.837-2.151,4.372,4.372,0,0,0-2.918-.693Z" transform="translate(-723.94 -2518.297)" fill="#fff"/><path d="M974.44,2550.178v3.969h8.13v2.726h-8.13v4.519h9.493v2.845h-12.6v-16.882h12v2.822Z" transform="translate(-750.393 -2518.297)" fill="#fff"/></svg>