<svg xmlns="http://www.w3.org/2000/svg" viewBox="0 0 400 400" height="400" width="400"><g transform="matrix(4,0,0,4,0,0)"><circle cx="49.976" cy="50" r="40" fill="#012b3b"></circle><path fill="#1c1e21" d="M38.448 61.243h9.2v5.52h-9.2z"></path><path stroke-linecap="round" stroke="#00ace7" stroke-linejoin="round" fill="none" d="M38.448 61.243h9.2v5.52h-9.2z"></path><path d="M55.008 70.443H31.087a3.681 3.681 0 0 1 3.68-3.68h16.561a3.68 3.68 0 0 1 3.68 3.68z" stroke-linecap="round" stroke="#00ace7" stroke-linejoin="round" fill="#1c1e21"></path><path d="M67.889 18.921H18.206a4.6 4.6 0 0 0-4.6 4.6v30.362h58.883V23.521a4.6 4.6 0 0 0-4.6-4.6z" fill="#3d3d3f"></path><path d="M67.889 18.921H18.206a4.6 4.6 0 0 0-4.6 4.6v30.362h58.883V23.521a4.6 4.6 0 0 0-4.6-4.6z" stroke-linecap="round" stroke="#00ace7" stroke-linejoin="round" fill="none"></path><path d="M67.889 61.243a4.6 4.6 0 0 0 4.6-4.6v-2.76H13.606v2.76a4.6 4.6 0 0 0 4.6 4.6z" stroke-linecap="round" stroke="#00ace7" stroke-linejoin="round" fill="#1c1e21"></path><ellipse cx="70.249" cy="80.807" rx="18.401" ry="2.3" opacity=".15" fill="#00ace7"></ellipse><rect x="52.691" y="50.049" width="7.36" height="29.441" rx=".5" stroke-linecap="round" stroke="#00ace7" stroke-linejoin="round" fill="#1c1e21"></rect><rect x="60.052" y="53.729" width="7.36" height="25.761" rx=".5" stroke-linecap="round" stroke="#00ace7" stroke-linejoin="round" fill="#1c1e21"></rect><rect x="67.412" y="50.049" width="7.36" height="29.441" rx=".5" stroke-linecap="round" stroke="#00ace7" stroke-linejoin="round" fill="#1c1e21"></rect><path fill="#3d3d3f" stroke-linecap="round" stroke="#00ace7" stroke-linejoin="round" d="M52.691 55.57h7.36v3.68h-7.36zm7.361 3.68h7.36v3.68h-7.36zm7.36-3.68h7.36v3.68h-7.36z"></path><rect x="78.012" y="49.765" width="7.36" height="29.442" rx=".5" transform="rotate(-13.773 81.688 64.483)" stroke-linecap="round" stroke="#00ace7" stroke-linejoin="round" fill="#1c1e21"></rect><path fill="#3d3d3f" stroke-linecap="round" stroke="#00ace7" stroke-linejoin="round" d="m75.927 56.426 7.148-1.752.876 3.574L76.803 60z"></path><path d="M31.834 44.557a2.033 2.033 0 0 1-1.342-.5l-6.992-6.12a2.041 2.041 0 0 1 0-3.07l6.989-6.116a2.04 2.04 0 0 1 2.686 3.07L27.942 36.4l5.236 4.581a2.04 2.04 0 0 1-1.344 3.574zm22.428 0a2.04 2.04 0 0 1-1.344-3.574l5.237-4.583-5.237-4.581a2.039 2.039 0 0 1 2.685-3.07l6.99 6.116a2.041 2.041 0 0 1 0 3.07L55.6 44.053a2.034 2.034 0 0 1-1.338.504zm-15.148 1.019a2.039 2.039 0 0 1-1.768-3.05L45.5 28.255a2.038 2.038 0 1 1 3.539 2.023l-8.153 14.271a2.038 2.038 0 0 1-1.772 1.027z" stroke="#00ace7" stroke-linejoin="round" fill="#1c1e21"></path><circle cx="43.048" cy="57.563" r=".767" fill="#00ace7" stroke-linecap="round" stroke="#00ace7" stroke-linejoin="round"></circle></g></svg>