<svg xmlns="http://www.w3.org/2000/svg" version="1.1" xmlns:xlink="http://www.w3.org/1999/xlink" xmlns:svgjs="http://svgjs.com/svgjs" viewBox="0 0 200 200" width="200" height="200"><g transform="matrix(2,0,0,2,0,0)"><path d="M55.48,75.512,30.429,72.836a1.1,1.1,0,0,1-.977-1.21L33.7,31.871" fill="none" stroke="#c1c0c0" stroke-linecap="round" stroke-linejoin="round"></path><path d="M44.223 25.535L59.612 27.179 69.382 39.286 66.183 69.237" fill="none" stroke="#c1c0c0" stroke-linecap="round" stroke-linejoin="round"></path><path d="M45.582 42.476L63.758 44.418" fill="none" stroke="#c1c0c0" stroke-linecap="round" stroke-linejoin="round"></path><path d="M38.763 46.659L63.239 49.273" fill="none" stroke="#c1c0c0" stroke-linecap="round" stroke-linejoin="round"></path><path d="M38.244 51.515L62.721 54.129" fill="none" stroke="#c1c0c0" stroke-linecap="round" stroke-linejoin="round"></path><path d="M37.726 56.37L62.202 58.985" fill="none" stroke="#c1c0c0" stroke-linecap="round" stroke-linejoin="round"></path><path d="M50.885,63.464a2.219,2.219,0,1,0,3.6,1.963l-.047.442a1.776,1.776,0,0,0,2.37,1.858" fill="none" stroke="#c1c0c0" stroke-linecap="round" stroke-linejoin="round"></path><path d="M49.829 69.666L57.473 70.483" fill="none" stroke="#c1c0c0" stroke-linecap="round" stroke-linejoin="round"></path><path d="M35.663 68.153L46.184 69.277" fill="none" stroke="#c1c0c0" stroke-linecap="round" stroke-linejoin="round"></path><path d="M36.979,66.441a1.85,1.85,0,1,1,2-1.684" fill="none" stroke="#c1c0c0" stroke-linecap="round" stroke-linejoin="round"></path><path d="M46.405,64.782a1.849,1.849,0,0,1-2,1.682" fill="none" stroke="#c1c0c0" stroke-linecap="round" stroke-linejoin="round"></path><path d="M38.928,65.371a1.849,1.849,0,0,1,2-1.682" fill="none" stroke="#c1c0c0" stroke-linecap="round" stroke-linejoin="round"></path><path d="M42,65.638a1.85,1.85,0,0,1,2-1.684" fill="none" stroke="#c1c0c0" stroke-linecap="round" stroke-linejoin="round"></path><path d="M59.612,27.179,58.56,37.024a1.1,1.1,0,0,0,.977,1.21l9.845,1.052Z" fill="none" stroke="#c1c0c0" stroke-linecap="round" stroke-linejoin="round"></path><path d="M72.048,86.487l-.322-1.995a1.1,1.1,0,0,0-1.262-.911l-11.7,1.89a1.1,1.1,0,0,0-.91,1.262l.323,2Z" fill="none" stroke="#c1c0c0" stroke-linecap="round" stroke-linejoin="round"></path><path d="M65.514,75.505,64,66.178a2.081,2.081,0,0,0-4.109.664l.642,3.972c.535,3.309-3.186,3.116-2.245,8.937L59.2,85.4l11.321-1.829a12.364,12.364,0,0,1-.2-4.834l.435-2.405a17.925,17.925,0,0,0-1-9.854,4.6,4.6,0,0,0-.377-.776" fill="none" stroke="#c1c0c0" stroke-linecap="round" stroke-linejoin="round"></path><path d="M58.139,95l-.811-5.019a1.1,1.1,0,0,1,.91-1.262L71.989,86.5a1.1,1.1,0,0,1,1.262.91l.811,5.019" fill="none" stroke="#c1c0c0" stroke-linecap="round" stroke-linejoin="round"></path><path d="M27.952,13.513l.322,1.995a1.1,1.1,0,0,0,1.262.911l11.7-1.89a1.1,1.1,0,0,0,.91-1.262l-.323-2Z" fill="none" stroke="#c1c0c0" stroke-linecap="round" stroke-linejoin="round"></path><path d="M34.486,24.5,36,33.822a2.081,2.081,0,0,0,4.109-.664l-.642-3.972c-.535-3.309,3.186-3.116,2.245-8.937L40.8,14.6,29.477,16.428a12.364,12.364,0,0,1,.2,4.834l-.435,2.405a17.925,17.925,0,0,0,1,9.854,7.5,7.5,0,0,0,.606,1.178" fill="none" stroke="#c1c0c0" stroke-linecap="round" stroke-linejoin="round"></path><path d="M41.861,5l.811,5.019a1.1,1.1,0,0,1-.91,1.262L28.011,13.5a1.1,1.1,0,0,1-1.262-.91l-.811-5.019" fill="none" stroke="#c1c0c0" stroke-linecap="round" stroke-linejoin="round"></path></g></svg>