<svg xmlns="http://www.w3.org/2000/svg" version="1.1" xmlns:xlink="http://www.w3.org/1999/xlink" xmlns:svgjs="http://svgjs.com/svgjs" viewBox="0 0 200 200" width="200" height="200"><g transform="matrix(2,0,0,2,0,0)"><path d="M10.000 49.985 A40.000 40.000 0 1 0 90.000 49.985 A40.000 40.000 0 1 0 10.000 49.985 Z" fill="#242526"></path><path d="M65.777,75.533a1.107,1.107,0,0,1-1.214.979l-33.95-3.626a1.106,1.106,0,0,1-.979-1.214L34.679,24.44l25.18,2.689,9.792,12.134Z" fill="#000000" stroke="#00ace7" stroke-linecap="round" stroke-linejoin="round"></path><path d="M45.799 42.46L64.014 44.405" fill="none" stroke="#00ace7" stroke-linecap="round" stroke-linejoin="round"></path><path d="M38.965 46.652L63.494 49.272" fill="none" stroke="#00ace7" stroke-linecap="round" stroke-linejoin="round"></path><path d="M38.445 51.518L62.974 54.138" fill="none" stroke="#00ace7" stroke-linecap="round" stroke-linejoin="round"></path><path d="M37.926 56.384L62.455 59.004" fill="none" stroke="#00ace7" stroke-linecap="round" stroke-linejoin="round"></path><path d="M51.113,63.493a2.224,2.224,0,1,0,3.609,1.967l-.047.443a1.78,1.78,0,0,0,3.539.378A1.78,1.78,0,0,0,59.8,68.239l1.327.142" fill="none" stroke="#00ace7" stroke-linecap="round" stroke-linejoin="round"></path><path d="M50.055 69.709L60.599 70.835" fill="none" stroke="#424343" stroke-linecap="round" stroke-linejoin="round"></path><path d="M35.858 68.193L46.402 69.319" fill="none" stroke="#424343" stroke-linecap="round" stroke-linejoin="round"></path><path d="M37.178,66.476a1.853,1.853,0,1,1,2.006-1.687" fill="none" stroke="#00ace7" stroke-linecap="round" stroke-linejoin="round"></path><path d="M46.624,64.814A1.853,1.853,0,0,1,44.617,66.5" fill="none" stroke="#00ace7" stroke-linecap="round" stroke-linejoin="round"></path><path d="M39.131,65.405a1.854,1.854,0,0,1,2.006-1.687" fill="none" stroke="#00ace7" stroke-linecap="round" stroke-linejoin="round"></path><path d="M42.208,65.671a1.853,1.853,0,0,1,2.007-1.686" fill="none" stroke="#00ace7" stroke-linecap="round" stroke-linejoin="round"></path><path d="M59.859,27.129,58.805,37a1.105,1.105,0,0,0,.979,1.213l9.867,1.054Z" fill="#424343" stroke="#00ace7" stroke-linecap="round" stroke-linejoin="round"></path><path d="M65.774,75.56l-1.516-9.347a2.086,2.086,0,0,0-4.118.666l.643,3.98c.536,3.316-3.193,3.122-2.25,8.956l.915,5.663,11.345-1.834a12.394,12.394,0,0,1-.2-4.844c.546-3.014,1.041-5.087.494-8.477-.57-3.525-1.6-5.022-3.84-8.541Z" fill="#000000"></path><path d="M72.322,86.566l-.323-2a1.1,1.1,0,0,0-1.264-.913L59.013,85.548a1.1,1.1,0,0,0-.913,1.264l.324,2Z" fill="#000000" stroke="#00ace7" stroke-linecap="round" stroke-linejoin="round"></path><path d="M65.774,75.56l-1.516-9.347a2.086,2.086,0,0,0-4.118.666l.643,3.98c.536,3.316-3.193,3.122-2.25,8.956l.915,5.663,11.345-1.834a12.394,12.394,0,0,1-.2-4.844c.546-3.014,1.041-5.087.494-8.477-.57-3.525-1.6-5.022-3.84-8.541Z" fill="none" stroke="#00ace7" stroke-linecap="round" stroke-linejoin="round"></path><path d="M58.383,95.1l-.813-5.03a1.1,1.1,0,0,1,.912-1.264l13.781-2.227a1.1,1.1,0,0,1,1.265.912l.812,5.03" fill="#424343" stroke="#00ace7" stroke-linecap="round" stroke-linejoin="round"></path><path d="M34.679,24.44,36.2,33.787a2.086,2.086,0,1,0,4.118-.666l-.643-3.98c-.536-3.316,3.192-3.122,2.25-8.956L41,14.522,29.659,16.356c.571,3.387.476,3.326-.235,7.254a17.972,17.972,0,0,0,1,9.875c.139.575,2.784,4.733,2.784,4.733Z" fill="#000000"></path><path d="M28.131,13.434l.323,2a1.1,1.1,0,0,0,1.264.913l11.722-1.9a1.1,1.1,0,0,0,.913-1.264l-.324-2Z" fill="#000000" stroke="#00ace7" stroke-linecap="round" stroke-linejoin="round"></path><path d="M34.679,24.44,36.2,33.787a2.086,2.086,0,1,0,4.118-.666l-.643-3.98c-.536-3.316,3.192-3.122,2.25-8.956L41,14.522,29.659,16.356c.571,3.387.476,3.326-.235,7.254a17.972,17.972,0,0,0,1,9.875c.139.575,2.784,4.733,2.784,4.733Z" fill="none" stroke="#00ace7" stroke-linecap="round" stroke-linejoin="round"></path><path d="M42.07,4.9l.813,5.03A1.1,1.1,0,0,1,41.97,11.2L28.19,13.424a1.1,1.1,0,0,1-1.265-.912l-.813-5.03" fill="#424343" stroke="#00ace7" stroke-linecap="round" stroke-linejoin="round"></path></g></svg>