<svg xmlns="http://www.w3.org/2000/svg" version="1.1" xmlns:xlink="http://www.w3.org/1999/xlink" xmlns:svgjs="http://svgjs.com/svgjs" viewBox="0 0 200 200" width="200" height="200"><g transform="matrix(2,0,0,2,0,0)"><path d="M10.000 50.000 A40.000 40.000 0 1 0 90.000 50.000 A40.000 40.000 0 1 0 10.000 50.000 Z" fill="#012b3a"></path><path d="M3.695 78.164 A12.709 1.999 0 1 0 29.113 78.164 A12.709 1.999 0 1 0 3.695 78.164 Z" fill="#3d3d3f"></path><path d="M70.887 78.164 A12.709 1.999 0 1 0 96.305 78.164 A12.709 1.999 0 1 0 70.887 78.164 Z" fill="#3d3d3f"></path><path d="M69.87,52.562h8.419V34.349H69.87a1.36,1.36,0,0,0-1.36,1.36V51.2A1.359,1.359,0,0,0,69.87,52.562Z" fill="#3d3d3f"></path><path d="M78.289,34.349H69.87a1.36,1.36,0,0,0-1.36,1.36V51.2a1.359,1.359,0,0,0,1.36,1.359h8.419" fill="none" stroke="#00ace7" stroke-linecap="round" stroke-linejoin="round"></path><path d="M68.51,51.387H66.534a1.548,1.548,0,0,1-1.549-1.548V37.073a1.548,1.548,0,0,1,1.549-1.549H68.51Z" fill="#1c1e21" stroke="#00ace7" stroke-linecap="round" stroke-linejoin="round"></path><path d="M64.985,37.073,55.5,31.656a2.717,2.717,0,0,0-2.79.055L40.532,39.324a5.439,5.439,0,0,0-.251,8.587l6.428,5.3a6.8,6.8,0,0,0,7.777.613l6.771-3.988h3.728Z" fill="#1c1e21" stroke="#00ace7" stroke-linecap="round" stroke-linejoin="round"></path><path d="M30.225,54.474H21.806V36.261h8.419a1.358,1.358,0,0,1,1.359,1.359V53.114A1.359,1.359,0,0,1,30.225,54.474Z" fill="#3d3d3f"></path><path d="M21.806,36.261h8.419a1.358,1.358,0,0,1,1.359,1.359V53.114a1.359,1.359,0,0,1-1.359,1.36H21.806" fill="none" stroke="#00ace7" stroke-linecap="round" stroke-linejoin="round"></path><path d="M31.584,53.3h1.977a1.549,1.549,0,0,0,1.549-1.548V38.984a1.549,1.549,0,0,0-1.549-1.548H31.584Z" fill="#1c1e21" stroke="#00ace7" stroke-linecap="round" stroke-linejoin="round"></path><path d="M35.11,38.984l9.48-5.417a2.724,2.724,0,0,1,2.791.055l12.182,7.613a5.44,5.44,0,0,1,.251,8.587l-6.428,5.3a6.8,6.8,0,0,1-7.777.614l-6.771-3.988H35.11Z" fill="#1c1e21" stroke="#00ace7" stroke-linecap="round" stroke-linejoin="round"></path><path d="M56.4,37.623l-8.086,6.2a3.407,3.407,0,0,1-4.958-.893h0a3.407,3.407,0,0,1,.762-4.473l7.929-6.323" fill="#1c1e21" stroke="#00ace7" stroke-linecap="round" stroke-linejoin="round"></path><path d="M23.608,75.222a1.248,1.248,0,0,1-.652,2.313H6.741a8.73,8.73,0,0,1,.849-3.756L20.843,45.988l1.074,5.361-7.566,19.87a1.375,1.375,0,0,0,1.015,1.838l5.557,1.113A8.254,8.254,0,0,1,23.608,75.222Z" fill="#3d3d3f" stroke="#00ace7" stroke-linecap="round" stroke-linejoin="round"></path><path d="M30.157,72.147a.688.688,0,0,1-.56.795l-1.188.207a.682.682,0,0,1-.437-.069,12.014,12.014,0,0,1-6.25-8.577L15.537,28.948A12.019,12.019,0,0,1,18.52,18.763a.689.689,0,0,1,.389-.212l1.188-.207a.688.688,0,0,1,.8.56Z" fill="#1c1e21" stroke="#00ace7" stroke-linecap="round" stroke-linejoin="round"></path><path d="M76.392,75.222a1.248,1.248,0,0,0,.652,2.313H93.259a8.73,8.73,0,0,0-.849-3.756L79.157,45.988l-1.074,5.361,7.566,19.87a1.375,1.375,0,0,1-1.015,1.838L79.077,74.17A8.254,8.254,0,0,0,76.392,75.222Z" fill="#3d3d3f" stroke="#00ace7" stroke-linecap="round" stroke-linejoin="round"></path><path d="M69.843,72.147a.688.688,0,0,0,.56.795l1.188.207a.682.682,0,0,0,.437-.069,12.014,12.014,0,0,0,6.25-8.577l6.185-35.555A12.019,12.019,0,0,0,81.48,18.763a.689.689,0,0,0-.389-.212L79.9,18.344a.688.688,0,0,0-.8.56Z" fill="#1c1e21" stroke="#00ace7" stroke-linecap="round" stroke-linejoin="round"></path></g></svg>