<svg xmlns="http://www.w3.org/2000/svg" version="1.1" xmlns:xlink="http://www.w3.org/1999/xlink" xmlns:svgjs="http://svgjs.com/svgjs" viewBox="0 0 140 140" width="140" height="140"><g transform="matrix(1.4,0,0,1.4,0,0)"><path d="M10.000 50.000 A40.000 40.000 0 1 0 90.000 50.000 A40.000 40.000 0 1 0 10.000 50.000 Z" fill="#682109"></path><path d="M49.842,74.01,24.094,62.078a2.663,2.663,0,0,1-1.543-2.416V29.412L48.3,41.344a2.663,2.663,0,0,1,1.543,2.416Z" fill="#424242"></path><path d="M48.723,41.541,22.551,29.412,48.723,17.284a2.663,2.663,0,0,1,2.239,0L77.133,29.412,50.962,41.541A2.663,2.663,0,0,1,48.723,41.541Z" fill="#000000"></path><path d="M48.723,41.541,22.551,29.412,48.723,17.284a2.663,2.663,0,0,1,2.239,0L77.133,29.412,50.962,41.541A2.663,2.663,0,0,1,48.723,41.541Z" fill="none" stroke="#ff5722" stroke-linecap="round" stroke-linejoin="round"></path><path d="M49.842,74.01,75.59,62.078a2.663,2.663,0,0,0,1.543-2.416V29.412L51.385,41.344a2.663,2.663,0,0,0-1.543,2.416Z" fill="#424242"></path><path d="M49.842,74.01,75.59,62.078a2.663,2.663,0,0,0,1.543-2.416V29.412L51.385,41.344a2.663,2.663,0,0,0-1.543,2.416Z" fill="none" stroke="#ff5722" stroke-linecap="round" stroke-linejoin="round"></path><path d="M59.827 37.4L59.827 69.35" fill="none" stroke="#ff5722" stroke-linecap="round" stroke-linejoin="round"></path><path d="M69.145 33.116L69.145 65.051" fill="none" stroke="#ff5722" stroke-linecap="round" stroke-linejoin="round"></path><path d="M49.842 64.025L77.133 51.378" fill="none" stroke="#ff5722" stroke-linecap="round" stroke-linejoin="round"></path><path d="M49.842 52.709L77.133 40.062" fill="none" stroke="#ff5722" stroke-linecap="round" stroke-linejoin="round"></path><path d="M39.858 37.4L67.149 24.785" fill="none" stroke="#ff5722" stroke-linecap="round" stroke-linejoin="round"></path><path d="M30.539 33.114L58.025 20.557" fill="none" stroke="#ff5722" stroke-linecap="round" stroke-linejoin="round"></path><path d="M49.842,74.01,24.094,62.078a2.663,2.663,0,0,1-1.543-2.416V29.412L48.3,41.344a2.663,2.663,0,0,1,1.543,2.416Z" fill="none" stroke="#ff5722" stroke-linecap="round" stroke-linejoin="round"></path><path d="M39.858 37.4L39.858 69.35" fill="none" stroke="#ff5722" stroke-linecap="round" stroke-linejoin="round"></path><path d="M30.539 33.114L30.539 65.064" fill="none" stroke="#ff5722" stroke-linecap="round" stroke-linejoin="round"></path><path d="M49.842 64.025L22.551 51.378" fill="none" stroke="#ff5722" stroke-linecap="round" stroke-linejoin="round"></path><path d="M49.842 52.709L22.551 40.062" fill="none" stroke="#ff5722" stroke-linecap="round" stroke-linejoin="round"></path><path d="M59.827 37.4L32.536 24.753" fill="none" stroke="#ff5722" stroke-linecap="round" stroke-linejoin="round"></path><path d="M69.145 33.116L41.854 20.759" fill="none" stroke="#ff5722" stroke-linecap="round" stroke-linejoin="round"></path><path d="M27.876 81.332 A22.632 1.997 0 1 0 73.140 81.332 A22.632 1.997 0 1 0 27.876 81.332 Z" fill="#424242"></path></g></svg>