<svg xmlns="http://www.w3.org/2000/svg" version="1.1" xmlns:xlink="http://www.w3.org/1999/xlink" xmlns:svgjs="http://svgjs.com/svgjs" viewBox="0 0 140 140" width="140" height="140"><g transform="matrix(1.4,0,0,1.4,0,0)"><path d="M8.092 50.000 A40.000 40.000 0 1 0 88.092 50.000 A40.000 40.000 0 1 0 8.092 50.000 Z" fill="#254f25"></path><path d="M18.029 85.333 A14.898 2.235 0 1 0 47.825 85.333 A14.898 2.235 0 1 0 18.029 85.333 Z" fill="#101010"></path><path d="M14.877,73.062a3.953,3.953,0,0,0,3.951,3.952H46.484a3.951,3.951,0,0,0,3.952-3.951V17.749A3.952,3.952,0,0,0,46.485,13.8H18.828a3.95,3.95,0,0,0-3.951,3.951Z" fill="#242526" stroke="#4caf50" stroke-linecap="round" stroke-linejoin="round"></path><path d="M14.877 21.7H50.435V69.111H14.877z" fill="#101010" stroke="#4caf50" stroke-linecap="round" stroke-linejoin="round"></path><path d="M37.595 17.749L32.657 17.749" fill="none" stroke="#4caf50" stroke-linecap="round" stroke-linejoin="round"></path><path d="M28.705 17.749L27.718 17.749" fill="none" stroke="#4caf50" stroke-linecap="round" stroke-linejoin="round"></path><path d="M32.657,71.846a1.216,1.216,0,1,0,1.215,1.216A1.215,1.215,0,0,0,32.657,71.846Z" fill="#4caf50"></path><path d="M19.815 45.077 A13.170 13.170 0 1 0 46.155 45.077 A13.170 13.170 0 1 0 19.815 45.077 Z" fill="#242526" stroke="#4caf50" stroke-linecap="round" stroke-linejoin="round"></path><path d="M30.516 39.315 A2.469 2.469 0 1 0 35.454 39.315 A2.469 2.469 0 1 0 30.516 39.315 Z" fill="#101010" stroke="#4caf50" stroke-linecap="round" stroke-linejoin="round"></path><path d="M30.516 50.838 A2.469 2.469 0 1 0 35.454 50.838 A2.469 2.469 0 1 0 30.516 50.838 Z" fill="#101010" stroke="#4caf50" stroke-linecap="round" stroke-linejoin="round"></path><path d="M90.344,75.511H85.835a5.314,5.314,0,0,1-4.95-7.253l7.7-19.676a1.349,1.349,0,0,0-2.512-.983L76.263,72.666a4.475,4.475,0,1,1-8.335-3.261l7.879-20.137a1.853,1.853,0,0,0-.988-2.374,1.564,1.564,0,1,1,1.242-2.87,4.981,4.981,0,0,1,2.658,6.382L70.84,70.543a1.349,1.349,0,0,0,2.511.985L83.16,46.459A4.476,4.476,0,0,1,91.5,49.721L83.8,69.4a2.188,2.188,0,0,0,2.038,2.987h4.509a1.564,1.564,0,1,1,0,3.127Z" fill="#242526" stroke="#4caf50" stroke-linecap="round" stroke-linejoin="round"></path><path d="M75.438,45.178a2.5,2.5,0,0,1-2.5,2.5h-2.5a2.5,2.5,0,1,1,0-5h2.5A2.5,2.5,0,0,1,75.438,45.178Z" fill="#101010" stroke="#4caf50" stroke-linecap="round" stroke-linejoin="round"></path><path d="M56.828,41.008H50.42a1.25,1.25,0,0,1-1.25-1.25h0a1.251,1.251,0,0,1,1.25-1.251h6.408Z" fill="#101010" stroke="#4caf50" stroke-linecap="round" stroke-linejoin="round"></path><path d="M56.828,51.015H50.42a1.251,1.251,0,0,1-1.25-1.251h0a1.25,1.25,0,0,1,1.25-1.25h6.408Z" fill="#101010" stroke="#4caf50" stroke-linecap="round" stroke-linejoin="round"></path><path d="M71.685,44.761a8.756,8.756,0,0,0-8.756-8.756H59.176a3.752,3.752,0,0,0-3.752,3.753V49.764a3.752,3.752,0,0,0,3.752,3.753h3.753A8.756,8.756,0,0,0,71.685,44.761Z" fill="#242526" stroke="#4caf50" stroke-linecap="round" stroke-linejoin="round"></path></g></svg>