<svg xmlns="http://www.w3.org/2000/svg" version="1.1" xmlns:xlink="http://www.w3.org/1999/xlink" xmlns:svgjs="http://svgjs.com/svgjs" viewBox="0 0 140 140" width="140" height="140"><g transform="matrix(1.4,0,0,1.4,0,0)"><path d="M10.000 50.000 A40.000 40.000 0 1 0 90.000 50.000 A40.000 40.000 0 1 0 10.000 50.000 Z" fill="#162b52"></path><path d="M26.227 57.192 A17.000 17.000 0 1 0 60.227 57.192 A17.000 17.000 0 1 0 26.227 57.192 Z" fill="#101010"></path><path d="M31.207,69.213A17,17,0,1,1,55.248,45.171Z" fill="#242526"></path><path d="M29.233 57.076 A13.994 13.994 0 1 0 57.221 57.076 A13.994 13.994 0 1 0 29.233 57.076 Z" fill="none" stroke="#3260b0" stroke-linecap="round" stroke-linejoin="round"></path><path d="M26.227 57.192 A17.000 17.000 0 1 0 60.227 57.192 A17.000 17.000 0 1 0 26.227 57.192 Z" fill="none" stroke="#3260b0" stroke-linecap="round" stroke-linejoin="round"></path><path d="M47.62,64.717H45.834a7.524,7.524,0,0,1-6.527-3.8H43.5a1.4,1.4,0,0,0,0-2.808H38.372a6.857,6.857,0,0,1,0-1.84h7.462a1.4,1.4,0,1,0,0-2.807H39.307a7.522,7.522,0,0,1,6.527-3.8H47.62a1.4,1.4,0,0,0,0-2.808H45.834a10.34,10.34,0,0,0-9.625,6.605H33.835a1.4,1.4,0,1,0,0,2.807h1.714c-.027.3-.047.61-.047.92s.02.616.047.92H33.835a1.4,1.4,0,0,0,0,2.808h2.374a10.339,10.339,0,0,0,9.625,6.6H47.62a1.4,1.4,0,1,0,0-2.807Z" fill="#242526" stroke="#3260b0" stroke-linecap="round" stroke-linejoin="round"></path><path d="M41.957 37.076 A17.000 17.000 0 1 0 75.957 37.076 A17.000 17.000 0 1 0 41.957 37.076 Z" fill="#101010"></path><path d="M46.936,49.1A17,17,0,0,1,70.978,25.055Z" fill="#242526"></path><path d="M44.963 37.076 A13.994 13.994 0 1 0 72.951 37.076 A13.994 13.994 0 1 0 44.963 37.076 Z" fill="none" stroke="#3260b0" stroke-linecap="round" stroke-linejoin="round"></path><path d="M41.957 37.076 A17.000 17.000 0 1 0 75.957 37.076 A17.000 17.000 0 1 0 41.957 37.076 Z" fill="none" stroke="#3260b0" stroke-linecap="round" stroke-linejoin="round"></path><path d="M65.216,40.736a5.208,5.208,0,0,0-4.868-5.181v-4.81a2.792,2.792,0,0,1,1.714,1.3,1.391,1.391,0,1,0,2.407-1.394,5.582,5.582,0,0,0-4.121-2.732v-.742a1.391,1.391,0,1,0-2.782,0v.73a5.191,5.191,0,0,0,0,10.362v4.9a2.07,2.07,0,0,1-1.671-.837A1.391,1.391,0,0,0,53.67,44a4.9,4.9,0,0,0,3.9,1.948v1.025a1.391,1.391,0,0,0,2.782,0v-1.06A5.208,5.208,0,0,0,65.216,40.736Zm-9.736-7.65a2.431,2.431,0,0,1,2.086-2.4v4.8A2.43,2.43,0,0,1,55.48,33.086Zm4.868,10.049v-4.8a2.422,2.422,0,0,1,0,4.8Z" fill="#242526" stroke="#3260b0" stroke-linecap="round" stroke-linejoin="round"></path><path d="M30.134 79.775 A11.547 1.725 0 1 0 53.228 79.775 A11.547 1.725 0 1 0 30.134 79.775 Z" fill="#101010"></path><path d="M30.689,31.091l5.855-5.855,1.817,1.874a.5.5,0,0,0,.859-.348V19.526a.5.5,0,0,0-.5-.5H31.45a.5.5,0,0,0-.373.833L32.64,21.61,26.3,27.954a12.422,12.422,0,0,0-.933,16.521.5.5,0,0,0,.891-.312C26.257,41.4,26.727,35.053,30.689,31.091Z" fill="#101010" stroke="#3260b0" stroke-linecap="round" stroke-linejoin="round"></path><path d="M69.312,64.922l-5.856,5.854L61.639,68.9a.5.5,0,0,0-.859.348v7.236a.5.5,0,0,0,.5.5h7.27a.5.5,0,0,0,.373-.833L67.36,74.4,73.7,68.06a12.423,12.423,0,0,0,.933-16.522.5.5,0,0,0-.891.311C73.743,54.61,73.273,60.96,69.312,64.922Z" fill="#242526" stroke="#3260b0" stroke-linecap="round" stroke-linejoin="round"></path></g></svg>