<svg xmlns="http://www.w3.org/2000/svg" version="1.1" xmlns:xlink="http://www.w3.org/1999/xlink" xmlns:svgjs="http://svgjs.com/svgjs" viewBox="0 0 140 140" width="140" height="140"><g transform="matrix(1.4,0,0,1.4,0,0)"><path d="M10.000 50.000 A40.000 40.000 0 1 0 90.000 50.000 A40.000 40.000 0 1 0 10.000 50.000 Z" fill="#006081"></path><path d="M64.858,49.2a3.061,3.061,0,0,1-.478,4.3L41.667,71.678a3.063,3.063,0,0,1-4.3-.477L11.538,38.922a3.06,3.06,0,0,1,.478-4.3L34.728,16.448a3.062,3.062,0,0,1,4.306.477Z" fill="#242526"></path><path d="M64.858,49.2a3.061,3.061,0,0,1-.478,4.3L41.667,71.678a3.063,3.063,0,0,1-4.3-.477L11.538,38.922a3.06,3.06,0,0,1,.478-4.3L34.728,16.448a3.062,3.062,0,0,1,4.306.477Z" fill="none" stroke="#00b8f0" stroke-linecap="round" stroke-linejoin="round"></path><path d="M16.08 37.249L19.665 34.38 21.459 42.748" fill="none" stroke="#00b8f0" stroke-linecap="round" stroke-linejoin="round"></path><path d="M72.863,57.987A3.062,3.062,0,0,1,70.9,61.846L43.24,70.854a3.062,3.062,0,0,1-3.859-1.963l-12.8-39.307a3.064,3.064,0,0,1,1.964-3.859L56.2,16.719a3.063,3.063,0,0,1,3.861,1.963Z" fill="#242526"></path><path d="M72.863,57.987A3.062,3.062,0,0,1,70.9,61.846L43.24,70.854a3.062,3.062,0,0,1-3.859-1.963l-12.8-39.307a3.064,3.064,0,0,1,1.964-3.859L56.2,16.719a3.063,3.063,0,0,1,3.861,1.963Z" fill="none" stroke="#00b8f0" stroke-linecap="round" stroke-linejoin="round"></path><path d="M30.733,28.926l3.276-1.066A1.913,1.913,0,1,1,35.193,31.5l-1.455.472a1.915,1.915,0,0,0,1.186,3.642L38.2,34.546" fill="none" stroke="#00b8f0" stroke-linecap="round" stroke-linejoin="round"></path><path d="M45.457,23.394H74.545a3.062,3.062,0,0,1,3.062,3.062V67.792a3.062,3.062,0,0,1-3.062,3.062H45.457a3.063,3.063,0,0,1-3.063-3.063V26.456A3.062,3.062,0,0,1,45.457,23.394Z" fill="#242526"></path><path d="M45.457,23.394H74.545a3.062,3.062,0,0,1,3.062,3.062V67.792a3.062,3.062,0,0,1-3.062,3.062H45.457a3.063,3.063,0,0,1-3.063-3.063V26.456A3.062,3.062,0,0,1,45.457,23.394Z" fill="none" stroke="#00b8f0" stroke-linecap="round" stroke-linejoin="round"></path><path d="M51.581,34.111l-2.373-7.12a.727.727,0,0,0-1.379,0l-2.372,7.12" fill="none" stroke="#00b8f0" stroke-linecap="round" stroke-linejoin="round"></path><path d="M45.967 32.58L51.072 32.58" fill="none" stroke="#00b8f0" stroke-linecap="round" stroke-linejoin="round"></path><path d="M68.421,60.137l2.373,7.12a.727.727,0,0,0,1.378,0l2.373-7.12" fill="none" stroke="#00b8f0" stroke-linecap="round" stroke-linejoin="round"></path><path d="M74.035 61.668L68.929 61.668" fill="none" stroke="#00b8f0" stroke-linecap="round" stroke-linejoin="round"></path><path d="M67.385,39.1a4.218,4.218,0,0,0-3.259-.753,4.348,4.348,0,0,0-2.487,1.375L60,41.534l-1.639-1.808a4.349,4.349,0,0,0-2.486-1.375,4.217,4.217,0,0,0-3.259.753,5.105,5.105,0,0,0-2.035,4.164,6.556,6.556,0,0,0,2.091,4.859L60,54.72l7.327-6.593a6.554,6.554,0,0,0,2.092-4.859A5.108,5.108,0,0,0,67.385,39.1Z" fill="#101010"></path><path d="M67.385,39.1a4.218,4.218,0,0,0-3.259-.753,4.348,4.348,0,0,0-2.487,1.375L60,41.534l-1.639-1.808a4.349,4.349,0,0,0-2.486-1.375,4.217,4.217,0,0,0-3.259.753,5.105,5.105,0,0,0-2.035,4.164,6.556,6.556,0,0,0,2.091,4.859L60,54.72l7.327-6.593a6.554,6.554,0,0,0,2.092-4.859A5.108,5.108,0,0,0,67.385,39.1Z" fill="none" stroke="#00b8f0" stroke-linecap="round" stroke-linejoin="round"></path><path d="M34.753 81.345 A16.211 1.87 0 1 0 67.175 81.345 A16.211 1.87 0 1 0 34.753 81.345 Z" fill="#101010"></path></g></svg>