<svg xmlns="http://www.w3.org/2000/svg" version="1.1" xmlns:xlink="http://www.w3.org/1999/xlink" xmlns:svgjs="http://svgjs.com/svgjs" viewBox="0 0 140 140" width="140" height="140"><g transform="matrix(1.4,0,0,1.4,0,0)"><path d="M10.000 55.160 A40.000 40.000 0 1 0 90.000 55.160 A40.000 40.000 0 1 0 10.000 55.160 Z" fill="#004617"></path><path d="M35.565 91.270 A14.479 1.992 0 1 0 64.523 91.270 A14.479 1.992 0 1 0 35.565 91.270 Z" fill="#424242"></path><path d="M65.319,85.619a4.25,4.25,0,0,1-4.251,4.251H39.02a4.25,4.25,0,0,1-4.251-4.251V38.335a4.25,4.25,0,0,1,4.251-4.25H61.068a4.253,4.253,0,0,1,4.251,4.251Z" fill="#000000"></path><path d="M65.319,85.619a4.25,4.25,0,0,1-4.251,4.251H39.02a4.25,4.25,0,0,1-4.251-4.251V38.335a4.25,4.25,0,0,1,4.251-4.25H61.068a4.253,4.253,0,0,1,4.251,4.251Z" fill="none" stroke="#00b744" stroke-linecap="round" stroke-linejoin="round"></path><path d="M37.426 42.053H62.663V81.23599999999999H37.426z" fill="#424242"></path><path d="M37.426 42.053H62.663V81.23599999999999H37.426z" fill="none" stroke="#00b744" stroke-linecap="round" stroke-linejoin="round"></path><path d="M48.716 38.069L56.021 38.069" fill="none" stroke="#00b744" stroke-linecap="round" stroke-linejoin="round"></path><path d="M44.732,37.405h0a.664.664,0,0,0,0,1.327h0a.664.664,0,0,0,0-1.327Z" fill="#00b744"></path><path d="M48.394 85.554 A1.650 1.650 0 1 0 51.694 85.554 A1.650 1.650 0 1 0 48.394 85.554 Z" fill="#000000" stroke="#00b744" stroke-linecap="round" stroke-linejoin="round"></path><path d="M62.89,30.335a12.5,12.5,0,0,0-25,0,12.3,12.3,0,0,0,2.982,8.042,14.93,14.93,0,0,1,3.6,9.722H56.311a14.935,14.935,0,0,1,3.6-9.722A12.3,12.3,0,0,0,62.89,30.335Z" fill="#000000"></path><path d="M55,51.807H45.784v3.428a4.606,4.606,0,0,0,9.211,0Z" fill="#424242" stroke="#00b744" stroke-linecap="round" stroke-linejoin="round"></path><path d="M62.89,30.335a12.5,12.5,0,0,0-25,0,12.3,12.3,0,0,0,2.982,8.042,14.93,14.93,0,0,1,3.6,9.722H56.311a14.935,14.935,0,0,1,3.6-9.722A12.3,12.3,0,0,0,62.89,30.335Z" fill="none" stroke="#00b744" stroke-linecap="round" stroke-linejoin="round"></path><path d="M58.061,49.447a2.361,2.361,0,0,1-2.361,2.36H45.079a2.361,2.361,0,1,1,0-4.721H55.7A2.361,2.361,0,0,1,58.061,49.447Z" fill="#424242" stroke="#00b744" stroke-linecap="round" stroke-linejoin="round"></path><path d="M58.061,49.447a2.361,2.361,0,0,1-2.361,2.36H45.079a2.361,2.361,0,1,1,0-4.721H55.7A2.361,2.361,0,0,1,58.061,49.447Z" fill="none" stroke="#00b744" stroke-linecap="round" stroke-linejoin="round"></path><path d="M46.369 57.483L54.934 55.988" fill="none" stroke="#00b744" stroke-linecap="round" stroke-linejoin="round"></path><path d="M55,51.807H45.784v3.428a4.606,4.606,0,0,0,9.211,0Z" fill="none" stroke="#00b744" stroke-linecap="round" stroke-linejoin="round"></path><path d="M45.784 55.211L54.995 53.603" fill="none" stroke="#00b744" stroke-linecap="round" stroke-linejoin="round"></path><path d="M49.785,11.86c-1.082,0-2.226-3.118-2.226-4.794a2.226,2.226,0,0,1,4.452,0C52.011,8.742,50.867,11.86,49.785,11.86Z" fill="#424242" stroke="#00b744" stroke-linecap="round" stroke-linejoin="round"></path><path d="M39.88,14.634c-.907.589-3.565-1.4-4.478-2.808A2.226,2.226,0,0,1,39.136,9.4C40.049,10.807,40.787,14.045,39.88,14.634Z" fill="#424242" stroke="#00b744" stroke-linecap="round" stroke-linejoin="round"></path><path d="M33.083,22.356c-.44.988-3.753.765-5.284.083a2.226,2.226,0,0,1,1.811-4.067C31.141,19.054,33.523,21.367,33.083,22.356Z" fill="#424242" stroke="#00b744" stroke-linecap="round" stroke-linejoin="round"></path><path d="M31.589,32.533c.169,1.068-2.731,2.686-4.386,2.948a2.226,2.226,0,1,1-.7-4.4C28.162,30.822,31.42,31.464,31.589,32.533Z" fill="#424242" stroke="#00b744" stroke-linecap="round" stroke-linejoin="round"></path><path d="M67.5,32.128c.113-1.076,3.333-1.888,5-1.713a2.226,2.226,0,0,1-.465,4.427C70.363,34.667,67.382,33.2,67.5,32.128Z" fill="#424242" stroke="#00b744" stroke-linecap="round" stroke-linejoin="round"></path><path d="M65.772,21.986c-.492-.963,1.767-3.4,3.26-4.159a2.226,2.226,0,1,1,2.021,3.966C69.56,22.554,66.263,22.95,65.772,21.986Z" fill="#424242" stroke="#00b744" stroke-linecap="round" stroke-linejoin="round"></path><path d="M58.8,14.42c-.937-.541-.369-3.813.469-5.264a2.226,2.226,0,1,1,3.855,2.226C62.289,12.833,59.739,14.961,58.8,14.42Z" fill="#424242" stroke="#00b744" stroke-linecap="round" stroke-linejoin="round"></path></g></svg>