<svg xmlns="http://www.w3.org/2000/svg" version="1.1" xmlns:xlink="http://www.w3.org/1999/xlink" xmlns:svgjs="http://svgjs.com/svgjs" viewBox="0 0 140 140" width="140" height="140"><g transform="matrix(1.4,0,0,1.4,0,0)"><path d="M10.574 50.000 A40.000 40.000 0 1 0 90.574 50.000 A40.000 40.000 0 1 0 10.574 50.000 Z" fill="#875718"></path><path d="M51.961 83.456 A14.7 2.1 0 1 0 81.361 83.456 A14.7 2.1 0 1 0 51.961 83.456 Z" fill="#101010"></path><path d="M9.426 18.419 L65.611 18.419 L65.611 60.443 L9.426 60.443 Z" fill="#101010"></path><path d="M9.426 18.419 L65.611 18.419 L65.611 60.443 L9.426 60.443 Z" fill="none" stroke="#ed9222" stroke-linejoin="round"></path><path d="M65.611,21.689a3.27,3.27,0,0,0-3.27-3.27H12.7a3.27,3.27,0,0,0-3.27,3.27V26.2H65.611Z" fill="#242526"></path><path d="M65.611,21.689a3.27,3.27,0,0,0-3.27-3.27H12.7a3.27,3.27,0,0,0-3.27,3.27V26.2H65.611Z" fill="none" stroke="#ed9222" stroke-linejoin="round"></path><path d="M12.696 22.288 A1.635 1.635 0 1 0 15.966 22.288 A1.635 1.635 0 1 0 12.696 22.288 Z" fill="#101010" stroke="#ed9222" stroke-linejoin="round"></path><path d="M19.235 22.288 A1.635 1.635 0 1 0 22.505 22.288 A1.635 1.635 0 1 0 19.235 22.288 Z" fill="#101010" stroke="#ed9222" stroke-linecap="round" stroke-linejoin="round"></path><path d="M25.775 22.288 A1.635 1.635 0 1 0 29.045 22.288 A1.635 1.635 0 1 0 25.775 22.288 Z" fill="#101010" stroke="#ed9222" stroke-linecap="round" stroke-linejoin="round"></path><path d="M15.015 30.301 L21.474 30.301 L21.474 36.760 L15.015 36.760 Z" fill="#242526" stroke="#ed9222" stroke-linecap="round" stroke-linejoin="round"></path><path d="M15.015 39.989 L21.474 39.989 L21.474 46.448 L15.015 46.448 Z" fill="#242526" stroke="#ed9222" stroke-linecap="round" stroke-linejoin="round"></path><path d="M15.015 49.678 L21.474 49.678 L21.474 56.137 L15.015 56.137 Z" fill="#242526" stroke="#ed9222" stroke-linecap="round" stroke-linejoin="round"></path><path d="M49.948,32.139a3.234,3.234,0,0,0-1.551-.4H35.478a3.228,3.228,0,0,0-1.55.4l-7.24,3.948a1.05,1.05,0,0,0-.408,1.443l2.253,3.943a1.049,1.049,0,0,0,1.3.454l3.2-1.28V53.359a1.051,1.051,0,0,0,1.05,1.05H49.792a1.051,1.051,0,0,0,1.05-1.05V40.647l3.2,1.28a1.05,1.05,0,0,0,1.3-.454L57.6,37.53a1.052,1.052,0,0,0-.409-1.443Z" fill="#242526"></path><path d="M49.948,32.139a3.234,3.234,0,0,0-1.551-.4H35.478a3.228,3.228,0,0,0-1.55.4l-7.24,3.948a1.05,1.05,0,0,0-.408,1.443l2.253,3.943a1.049,1.049,0,0,0,1.3.454l3.2-1.28V53.359a1.051,1.051,0,0,0,1.05,1.05H49.792a1.051,1.051,0,0,0,1.05-1.05V40.647l3.2,1.28a1.05,1.05,0,0,0,1.3-.454L57.6,37.53a1.052,1.052,0,0,0-.409-1.443Z" fill="none" stroke="#ed9222" stroke-linecap="round" stroke-linejoin="round"></path><path d="M45.985,31.743a4.048,4.048,0,1,1-8.095,0Z" fill="#101010" stroke="#ed9222" stroke-linecap="round" stroke-linejoin="round"></path><path d="M83.9,78.808a4.645,4.645,0,0,1-4.586,3.908H53.269a4.645,4.645,0,0,1-4.586-3.908L45.469,58.829H87.113Z" fill="#242526" stroke="#ed9222" stroke-linecap="round" stroke-linejoin="round"></path><path d="M43.849 58.829 L88.734 58.829 L88.734 64.098 L43.849 64.098 Z" fill="#101010"></path><path d="M43.849 58.829 L88.734 58.829 L88.734 64.098 L43.849 64.098 Z" fill="none" stroke="#ed9222" stroke-linecap="round" stroke-linejoin="round"></path><path d="M52.437 66.777 L55.231 66.777 L55.231 78.303 L52.437 78.303 Z" fill="#875718" stroke="#ed9222" stroke-linecap="round" stroke-linejoin="round"></path><path d="M58.665 66.777 L61.459 66.777 L61.459 78.303 L58.665 78.303 Z" fill="#875718" stroke="#ed9222" stroke-linecap="round" stroke-linejoin="round"></path><path d="M64.894 66.777 L67.688 66.777 L67.688 78.303 L64.894 78.303 Z" fill="#875718" stroke="#ed9222" stroke-linecap="round" stroke-linejoin="round"></path><path d="M71.123 66.777 L73.917 66.777 L73.917 78.303 L71.123 78.303 Z" fill="#875718" stroke="#ed9222" stroke-linecap="round" stroke-linejoin="round"></path><path d="M77.352 66.777 L80.146 66.777 L80.146 78.303 L77.352 78.303 Z" fill="#875718" stroke="#ed9222" stroke-linecap="round" stroke-linejoin="round"></path><path d="M57.480 43.493 A3.526 3.526 0 1 0 64.532 43.493 A3.526 3.526 0 1 0 57.480 43.493 Z" fill="#101010" stroke="#ed9222" stroke-linecap="round" stroke-linejoin="round"></path><path d="M62.577,44.1A1.669,1.669,0,1,0,59.66,42.48L50.232,59.423a1.669,1.669,0,1,0,2.917,1.623Z" fill="#242526" stroke="#ed9222" stroke-linecap="round" stroke-linejoin="round"></path><path d="M68.051 43.493 A3.526 3.526 0 1 0 75.103 43.493 A3.526 3.526 0 1 0 68.051 43.493 Z" fill="#101010" stroke="#ed9222" stroke-linecap="round" stroke-linejoin="round"></path><path d="M70.006,44.1a1.669,1.669,0,0,1,2.917-1.623l9.428,16.943a1.669,1.669,0,1,1-2.917,1.623Z" fill="#242526" stroke="#ed9222" stroke-linecap="round" stroke-linejoin="round"></path></g></svg>