<svg xmlns="http://www.w3.org/2000/svg" version="1.1" xmlns:xlink="http://www.w3.org/1999/xlink" xmlns:svgjs="http://svgjs.com/svgjs" viewBox="0 0 140 140" width="140" height="140"><g transform="matrix(1.4,0,0,1.4,0,0)"><path d="M10.000 50.000 A40.000 40.000 0 1 0 90.000 50.000 A40.000 40.000 0 1 0 10.000 50.000 Z" fill="#191f47"></path><path d="M68.4,81.626a1.012,1.012,0,0,1-1,1.007l-34.763.238a1,1,0,0,1-1.007-.993L31.3,35.721l37.1-.176Z" fill="#242526" stroke="#3f51b5" stroke-linecap="round" stroke-linejoin="round"></path><path d="M50.941 55.559L63.062 55.431" fill="none" stroke="#3f51b5" stroke-linecap="round" stroke-linejoin="round"></path><path d="M38.147 60.552L63.096 60.381" fill="none" stroke="#3f51b5" stroke-linecap="round" stroke-linejoin="round"></path><path d="M38.181 65.502L63.13 65.331" fill="none" stroke="#3f51b5" stroke-linecap="round" stroke-linejoin="round"></path><path d="M52.28,71.088a2.25,2.25,0,1,0,3.852,1.564l0,.451a1.8,1.8,0,1,0,3.6-.025,1.8,1.8,0,0,0,1.813,1.787l1.35-.009" fill="none" stroke="#3f51b5" stroke-linecap="round" stroke-linejoin="round"></path><path d="M51.927 77.456L62.652 77.382" fill="none" stroke="#101010" stroke-linecap="round" stroke-linejoin="round"></path><path d="M37.486 77.555L48.212 77.481" fill="none" stroke="#101010" stroke-linecap="round" stroke-linejoin="round"></path><path d="M38.616,75.679a1.875,1.875,0,1,1,1.824-1.925" fill="none" stroke="#3f51b5" stroke-linecap="round" stroke-linejoin="round"></path><path d="M47.919,72.928A1.874,1.874,0,0,1,46.1,74.852" fill="none" stroke="#3f51b5" stroke-linecap="round" stroke-linejoin="round"></path><path d="M40.457,74.379a1.874,1.874,0,0,1,1.823-1.924" fill="none" stroke="#3f51b5" stroke-linecap="round" stroke-linejoin="round"></path><path d="M43.58,74.3A1.875,1.875,0,0,1,45.4,72.371" fill="none" stroke="#3f51b5" stroke-linecap="round" stroke-linejoin="round"></path><path d="M88.394,25.613H71.547A1.545,1.545,0,0,0,70,27.158v17.6a1.545,1.545,0,0,0,1.545,1.545H88.394" fill="#101010" stroke="#3f51b5" stroke-linecap="round" stroke-linejoin="round"></path><path d="M70,44.97H67.756A1.759,1.759,0,0,1,66,43.211v-14.5a1.759,1.759,0,0,1,1.759-1.759H70Z" fill="#242526" stroke="#3f51b5" stroke-linecap="round" stroke-linejoin="round"></path><path d="M66,28.707,55.226,22.554a3.087,3.087,0,0,0-3.17.062L38.217,31.265a6.179,6.179,0,0,0-.286,9.755l7.3,6.024a7.723,7.723,0,0,0,8.835.7l7.693-4.53H66Z" fill="#242526" stroke="#3f51b5" stroke-linecap="round" stroke-linejoin="round"></path><path d="M10.251,27.785H26.507a1.545,1.545,0,0,1,1.545,1.545v17.6a1.545,1.545,0,0,1-1.545,1.545H10.251" fill="#101010" stroke="#3f51b5" stroke-linecap="round" stroke-linejoin="round"></path><path d="M28.052,47.141H30.3a1.759,1.759,0,0,0,1.759-1.759v-14.5A1.759,1.759,0,0,0,30.3,29.12H28.052Z" fill="#242526" stroke="#3f51b5" stroke-linecap="round" stroke-linejoin="round"></path><path d="M32.057,30.879l10.77-6.154a3.09,3.09,0,0,1,3.17.063l13.84,8.648a6.18,6.18,0,0,1,.285,9.756l-7.3,6.024a7.726,7.726,0,0,1-8.836.7l-7.692-4.531H32.057Z" fill="#242526"></path><path d="M32.057,30.879l10.77-6.154a3.09,3.09,0,0,1,3.17.063l13.84,8.648a6.18,6.18,0,0,1,.285,9.756l-7.3,6.024a7.726,7.726,0,0,1-8.836.7l-7.692-4.531H32.057Z" fill="none" stroke="#3f51b5" stroke-linecap="round" stroke-linejoin="round"></path><path d="M56.243,29.333l-9.186,7.038a3.87,3.87,0,0,1-5.632-1.016h0a3.87,3.87,0,0,1,.866-5.082L51.3,23.09" fill="#242526" stroke="#3f51b5" stroke-linecap="round" stroke-linejoin="round"></path></g></svg>