<svg xmlns="http://www.w3.org/2000/svg" version="1.1" xmlns:xlink="http://www.w3.org/1999/xlink" xmlns:svgjs="http://svgjs.com/svgjs" viewBox="0 0 200 200" width="200" height="200"><g transform="matrix(2,0,0,2,0,0)"><path d="M10.000 50.000 A40.000 40.000 0 1 0 90.000 50.000 A40.000 40.000 0 1 0 10.000 50.000 Z" fill="#1c1e21"></path><path d="M33.407 78.806 A14.093 1.725 0 1 0 61.593 78.806 A14.093 1.725 0 1 0 33.407 78.806 Z" fill="#242526"></path><path d="M73.526,70.379H21.474a2.647,2.647,0,0,1-2.646-2.647V31.561H76.173V67.732A2.647,2.647,0,0,1,73.526,70.379Z" fill="#242526"></path><path d="M73.526,23.621H21.474a2.647,2.647,0,0,0-2.646,2.647v5.293H76.173V26.268A2.647,2.647,0,0,0,73.526,23.621Z" fill="#00ace7"></path><path d="M73.526,23.621H21.474a2.647,2.647,0,0,0-2.646,2.647v5.293H76.173V26.268A2.647,2.647,0,0,0,73.526,23.621Z" fill="none" stroke="#424242" stroke-linecap="round" stroke-linejoin="round"></path><path d="M73.526,70.379H21.474a2.647,2.647,0,0,1-2.646-2.647V31.561H76.173V67.732A2.647,2.647,0,0,1,73.526,70.379Z" fill="none" stroke="#424242" stroke-linecap="round" stroke-linejoin="round"></path><path d="M55.709,14.356H83.177a3.709,3.709,0,0,1,3.709,3.709V33.027a3.709,3.709,0,0,1-3.709,3.709H55.708A3.708,3.708,0,0,1,52,33.028V18.065A3.709,3.709,0,0,1,55.709,14.356Z" fill="#242526"></path><path d="M56.608 31.47L63.19 31.47" fill="none" stroke="#424242" stroke-linecap="round" stroke-linejoin="round"></path><path d="M56.608 22.255 L63.190 22.255 L63.190 26.862 L56.608 26.862 Z" fill="#00ace7" stroke="#424242" stroke-linecap="round" stroke-linejoin="round"></path><path d="M55.709,14.356H83.177a3.709,3.709,0,0,1,3.709,3.709V33.027a3.709,3.709,0,0,1-3.709,3.709H55.708A3.708,3.708,0,0,1,52,33.028V18.065A3.709,3.709,0,0,1,55.709,14.356Z" fill="none" stroke="#424242" stroke-linecap="round" stroke-linejoin="round"></path><path d="M71.089 29.495 A3.949 3.949 0 1 0 78.987 29.495 A3.949 3.949 0 1 0 71.089 29.495 Z" fill="#00ace7"></path><path d="M75.696 29.495 A3.949 3.949 0 1 0 83.594 29.495 A3.949 3.949 0 1 0 75.696 29.495 Z" fill="#00ace7"></path><path d="M75.7,29.5A3.945,3.945,0,0,0,77.342,32.7a3.948,3.948,0,0,0,0-6.413A3.943,3.943,0,0,0,75.7,29.5Z" fill="#242526"></path><path d="M71.089 29.495 A3.949 3.949 0 1 0 78.987 29.495 A3.949 3.949 0 1 0 71.089 29.495 Z" fill="none" stroke="#424242" stroke-linecap="round" stroke-linejoin="round"></path><path d="M75.696 29.495 A3.949 3.949 0 1 0 83.594 29.495 A3.949 3.949 0 1 0 75.696 29.495 Z" fill="none" stroke="#424242" stroke-linecap="round" stroke-linejoin="round"></path><path d="M21.475 27.591 A1.323 1.323 0 1 0 24.121 27.591 A1.323 1.323 0 1 0 21.475 27.591 Z" fill="#242526" stroke="#424242" stroke-linecap="round" stroke-linejoin="round"></path><path d="M26.636 27.591 A1.323 1.323 0 1 0 29.282 27.591 A1.323 1.323 0 1 0 26.636 27.591 Z" fill="#242526" stroke="#424242" stroke-linecap="round" stroke-linejoin="round"></path><path d="M31.797 27.591 A1.323 1.323 0 1 0 34.443 27.591 A1.323 1.323 0 1 0 31.797 27.591 Z" fill="#242526" stroke="#424242" stroke-linecap="round" stroke-linejoin="round"></path></g></svg>