<svg xmlns="http://www.w3.org/2000/svg" version="1.1" xmlns:xlink="http://www.w3.org/1999/xlink" xmlns:svgjs="http://svgjs.com/svgjs" viewBox="0 0 200 200" width="200" height="200"><g transform="matrix(2,0,0,2,0,0)"><path d="M10.000 50.000 A40.000 40.000 0 1 0 90.000 50.000 A40.000 40.000 0 1 0 10.000 50.000 Z" fill="#1c1e21"></path><path d="M38.004 79.728 A12.013 2.315 0 1 0 62.030 79.728 A12.013 2.315 0 1 0 38.004 79.728 Z" fill="#00ace7"></path><path d="M44.212,73.454a7.55,7.55,0,0,1-7.541-7.542,1.737,1.737,0,0,1,3.473,0,4.068,4.068,0,1,0,8.136,0V35.388a1.737,1.737,0,0,1,3.473,0V65.912A7.55,7.55,0,0,1,44.212,73.454Z" fill="#242526" stroke="#424242" stroke-linecap="round" stroke-linejoin="round"></path><path d="M78.207,42.6c0-3.114-3.155-5.638-7.048-5.638s-7.047,2.524-7.047,5.638c0-3.114-3.155-5.638-7.047-5.638s-7.048,2.524-7.048,5.638c0-3.114-3.155-5.638-7.047-5.638s-7.048,2.524-7.048,5.638c0-3.114-3.155-5.638-7.047-5.638s-7.047,2.524-7.047,5.638V41.189a28.19,28.19,0,1,1,56.379,0Z" fill="#00ace7"></path><path d="M64.112,42.6s2-18.264-14.095-29.6h0a28.19,28.19,0,0,1,28.19,28.19V42.6" fill="none" stroke="#424242" stroke-linecap="round" stroke-linejoin="round"></path><path d="M50.017 12.999L50.017 44.008" fill="none" stroke="#424242" stroke-linecap="round" stroke-linejoin="round"></path><path d="M50.017,42.6V13C35.663,23.11,35.7,38.723,35.878,41.98a4.518,4.518,0,0,1,.044.618" fill="none" stroke="#424242" stroke-linecap="round" stroke-linejoin="round"></path><path d="M64.112,42.6s2-18.264-14.095-29.6" fill="none" stroke="#424242" stroke-linecap="round" stroke-linejoin="round"></path><path d="M78.207,42.6c0-3.114-3.155-5.638-7.048-5.638s-7.047,2.524-7.047,5.638c0-3.114-3.155-5.638-7.047-5.638s-7.048,2.524-7.048,5.638c0-3.114-3.155-5.638-7.047-5.638s-7.048,2.524-7.048,5.638c0-3.114-3.155-5.638-7.047-5.638s-7.047,2.524-7.047,5.638V41.189a28.19,28.19,0,1,1,56.379,0Z" fill="none" stroke="#424242" stroke-linecap="round" stroke-linejoin="round"></path><path d="M62.307,76.459a1.177,1.177,0,0,0,1.331,0C77.1,67.236,79.679,62.5,79.673,56.184h0a9.586,9.586,0,0,0-4-7.458h0c-6.194-4.631-10.831,1.971-12.7,4.1-1.313-1.49-6.288-8.891-12.7-4.1h0a9.588,9.588,0,0,0-4,7.458h0C46.263,62.5,48.847,67.236,62.307,76.459Z" fill="#242526"></path><path d="M62.307,76.459a1.177,1.177,0,0,0,1.331,0C77.1,67.236,79.679,62.5,79.673,56.184h0a9.586,9.586,0,0,0-4-7.458h0c-6.194-4.631-10.831,1.971-12.7,4.1-1.313-1.49-6.288-8.891-12.7-4.1h0a9.588,9.588,0,0,0-4,7.458h0C46.263,62.5,48.847,67.236,62.307,76.459Z" fill="none" stroke="#424242" stroke-linecap="round" stroke-linejoin="round"></path></g></svg>