<svg xmlns="http://www.w3.org/2000/svg" version="1.1" xmlns:xlink="http://www.w3.org/1999/xlink" xmlns:svgjs="http://svgjs.com/svgjs" viewBox="0 0 200 200" width="200" height="200"><g transform="matrix(2,0,0,2,0,0)"><path d="M90.1,49.929a40,40,0,1,0-76.436,16.5H86.54A39.844,39.844,0,0,0,90.1,49.929Z" fill="#1c1e21"></path><path d="M11.104 66.429L89.104 66.429" fill="none" stroke="#424242" stroke-linecap="round" stroke-linejoin="round"></path><path d="M6.604 66.429L9.104 66.429" fill="none" stroke="#424242" stroke-linecap="round" stroke-linejoin="round"></path><path d="M91.104 66.429L93.604 66.429" fill="none" stroke="#424242" stroke-linecap="round" stroke-linejoin="round"></path><path d="M19.551 37.155H79.902V68.104H19.551z" fill="#00ace7" stroke="#424242" stroke-linecap="round" stroke-linejoin="round"></path><path d="M85.317,74.294H14.135V69.652A1.548,1.548,0,0,1,15.682,68.1H83.77a1.546,1.546,0,0,1,1.547,1.547Z" fill="#242526"></path><path d="M85.317,74.294H14.135V69.652A1.548,1.548,0,0,1,15.682,68.1H83.77a1.546,1.546,0,0,1,1.547,1.547Z" fill="none" stroke="#424242" stroke-linecap="round" stroke-linejoin="round"></path><path d="M55.916,65.009H43.536a1.548,1.548,0,0,0,0,3.095h12.38a1.548,1.548,0,0,0,0-3.095Z" fill="#242526" stroke="#424242" stroke-linecap="round" stroke-linejoin="round"></path><path d="M55.916,37.155H43.536a1.548,1.548,0,0,0,0,3.095h12.38a1.548,1.548,0,0,0,0-3.095Z" fill="#242526" stroke="#424242" stroke-linecap="round" stroke-linejoin="round"></path><path d="M45.084 40.25H54.369V65.009H45.084z" fill="#242526"></path><path d="M45.084 40.25H54.369V65.009H45.084z" fill="none" stroke="#424242" stroke-linecap="round" stroke-linejoin="round"></path><path d="M30.383,65.009H18A1.548,1.548,0,0,0,18,68.1h12.38a1.548,1.548,0,0,0,0-3.095Z" fill="#242526" stroke="#424242" stroke-linecap="round" stroke-linejoin="round"></path><path d="M30.383,37.155H18a1.548,1.548,0,0,0,0,3.095h12.38a1.548,1.548,0,0,0,0-3.095Z" fill="#242526" stroke="#424242" stroke-linecap="round" stroke-linejoin="round"></path><path d="M19.551 40.25H28.836V65.009H19.551z" fill="#242526"></path><path d="M69.069,65.009h12.38a1.548,1.548,0,0,1,0,3.095H69.069a1.548,1.548,0,0,1,0-3.095Z" fill="#242526" stroke="#424242" stroke-linecap="round" stroke-linejoin="round"></path><path d="M69.069,37.155h12.38a1.548,1.548,0,0,1,0,3.095H69.069a1.548,1.548,0,0,1,0-3.095Z" fill="#242526" stroke="#424242" stroke-linecap="round" stroke-linejoin="round"></path><path d="M70.617 40.25H79.902V65.009H70.617z" fill="#242526"></path><path d="M70.617 40.25H79.902V65.009H70.617z" fill="none" stroke="#424242" stroke-linecap="round" stroke-linejoin="round"></path><path d="M18.455,31.739A2.97,2.97,0,0,0,18,33.286v3.869H81.449V33.286A2.961,2.961,0,0,0,81,31.739Z" fill="#242526"></path><path d="M18.455,31.739A2.97,2.97,0,0,0,18,33.286v3.869H81.449V33.286A2.961,2.961,0,0,0,81,31.739Z" fill="none" stroke="#424242" stroke-linecap="round" stroke-linejoin="round"></path><path d="M28.2,31.739,47.919,17.564a3.1,3.1,0,0,1,3.614,0L71.251,31.739H81a2.967,2.967,0,0,0-.812-.893L51.512,10.565a3.093,3.093,0,0,0-3.572,0L19.267,30.846a2.967,2.967,0,0,0-.812.893Z" fill="#242526" stroke="#424242" stroke-linecap="round" stroke-linejoin="round"></path><path d="M47.919,17.564,28.2,31.739h43.05L51.533,17.564A3.1,3.1,0,0,0,47.919,17.564Z" fill="#00ace7"></path><path d="M47.919,17.564,28.2,31.739h43.05L51.533,17.564A3.1,3.1,0,0,0,47.919,17.564Z" fill="none" stroke="#424242" stroke-linecap="round" stroke-linejoin="round"></path><path d="M19.551 40.25H28.836V65.009H19.551z" fill="none" stroke="#424242" stroke-linecap="round" stroke-linejoin="round"></path></g></svg>