<?xml version="1.0" encoding="UTF-8" standalone="no"?>
<svg
   xmlns:dc="http://purl.org/dc/elements/1.1/"
   xmlns:cc="http://creativecommons.org/ns#"
   xmlns:rdf="http://www.w3.org/1999/02/22-rdf-syntax-ns#"
   xmlns:svg="http://www.w3.org/2000/svg"
   xmlns="http://www.w3.org/2000/svg"
   xmlns:sodipodi="http://sodipodi.sourceforge.net/DTD/sodipodi-0.dtd"
   xmlns:inkscape="http://www.inkscape.org/namespaces/inkscape"
   inkscape:version="1.0 (4035a4f, 2020-05-01)"
   sodipodi:docname="tezos-logo.svg"
   id="svg863"
   version="1.1"
   viewBox="0 0 296.68157 129.1974"
   height="129.1974"
   width="296.68155">
  <metadata
     id="metadata869">
    <rdf:RDF>
      <cc:Work
         rdf:about="">
        <dc:format>image/svg+xml</dc:format>
        <dc:type
           rdf:resource="http://purl.org/dc/dcmitype/StillImage" />
        <dc:title></dc:title>
      </cc:Work>
    </rdf:RDF>
  </metadata>
  <defs
     id="defs867" />
  <sodipodi:namedview
     fit-margin-bottom="0"
     fit-margin-top="0"
     fit-margin-right="100"
     fit-margin-left="100"
     inkscape:current-layer="svg863"
     inkscape:window-maximized="0"
     inkscape:window-y="0"
     inkscape:window-x="0"
     inkscape:cy="60.289511"
     inkscape:cx="123.73692"
     inkscape:zoom="3.5117552"
     showgrid="false"
     id="namedview865"
     inkscape:window-height="1050"
     inkscape:window-width="1680"
     inkscape:pageshadow="2"
     inkscape:pageopacity="0"
     guidetolerance="10"
     gridtolerance="10"
     objecttolerance="10"
     borderopacity="1"
     bordercolor="#666666"
     pagecolor="#ffffff" />
  <path
     style="stroke-width:1.52855"
     id="path861"
     fill="#2c7df7"
     d="m 162.44517,129.19625 q -14.11344,0 -20.56516,-6.65992 a 20.791452,20.498864 0 0 1 -6.45326,-14.35346 9.4720717,9.338776 0 0 1 1.12378,-4.73541 8.259006,8.1427812 0 0 1 3.07884,-3.03552 10.822146,10.669851 0 0 1 9.606,0 8.2651641,8.1488524 0 0 1 3.07885,3.03552 9.4720717,9.338776 0 0 1 1.12532,4.73541 9.0641248,8.9365696 0 0 1 -1.65026,5.54893 7.6663284,7.5584435 0 0 1 -3.90398,2.81392 10.672822,10.522628 0 0 0 6.15769,3.77164 30.417464,29.989415 0 0 0 8.40526,1.18386 18.662429,18.399802 0 0 0 10.58199,-3.10686 18.346848,18.088661 0 0 0 6.97975,-9.17486 40.456045,39.886728 0 0 0 2.25217,-13.764561 37.966797,37.432509 0 0 0 -2.47693,-14.280601 17.895796,17.643957 0 0 0 -7.13061,-8.880413 19.045746,18.777724 0 0 0 -10.20637,-2.883747 19.695382,19.418219 0 0 0 -9.00717,2.959633 l -6.60413,3.255595 v -3.255595 l 29.72011,-39.068658 h -41.13031 v 40.546955 a 14.610667,14.405058 0 0 0 2.25217,8.288485 7.7817849,7.6722757 0 0 0 6.90586,3.255599 11.568766,11.405965 0 0 0 6.90431,-2.369226 24.406017,24.062563 0 0 0 5.69586,-5.767487 2.2198484,2.1886097 0 0 1 0.75125,-0.963774 1.4932406,1.472227 0 0 1 0.97599,-0.36881 3.5068064,3.4574568 0 0 1 1.95199,0.815038 4.0779325,4.0205458 0 0 1 1.04988,2.731966 19.158123,18.888521 0 0 1 -0.37561,2.073259 19.869337,19.589725 0 0 1 -7.05518,8.582933 17.48477,17.238716 0 0 1 -9.90311,2.961152 q -13.3622,0 -18.46539,-5.1786 -5.10318,-5.178594 -5.10318,-14.059007 V 33.298127 H 100 v -7.549333 h 21.01621 V 8.5844468 l -4.803,-4.7399653 V 0 h 13.95795 l 5.25251,2.6621467 V 25.748794 l 54.34164,-0.151759 5.40492,5.325816 -33.32544,32.857986 a 22.338572,22.024212 0 0 1 6.31164,-1.479816 27.221623,26.838546 0 0 1 12.16144,3.404332 25.115692,24.76225 0 0 1 10.50657,9.173343 33.363922,32.894407 0 0 1 4.7291,11.099377 47.737519,47.06573 0 0 1 1.12686,9.47234 40.025007,39.461754 0 0 1 -4.0533,17.606007 26.24101,25.871733 0 0 1 -12.31538,12.13449 39.991138,39.428363 0 0 1 -17.86655,4.00537 z" />
</svg>
